<svg xmlns="http://www.w3.org/2000/svg" viewBox="0 0 218.27 435.05"><defs><style>.cls-1{fill:none;stroke:#7a7a79;stroke-miterlimit:10;stroke-width:1.5px;}</style></defs><g id="Layer_2" data-name="Layer 2"><g id="POST_1" data-name="POST 1"><rect class="cls-1" x="109.14" y="380.1" width="54.19" height="54.19" transform="translate(543.43 270.97) rotate(90)"/><rect class="cls-1" x="109.14" y="271.72" width="54.19" height="54.19" transform="translate(435.05 162.58) rotate(90)"/><rect class="cls-1" x="163.33" y="109.14" width="54.19" height="54.19" transform="translate(326.66 -54.19) rotate(90)"/><rect class="cls-1" x="163.33" y="217.52" width="54.19" height="54.19" transform="translate(435.05 54.19) rotate(90)"/><rect class="cls-1" x="163.33" y="271.72" width="54.19" height="54.19" transform="translate(489.24 108.39) rotate(90)"/><rect class="cls-1" x="163.33" y="380.1" width="54.19" height="54.19" transform="translate(597.63 216.77) rotate(90)"/><rect class="cls-1" x="109.14" y="54.94" width="54.19" height="54.19" transform="translate(218.27 -54.19) rotate(90)"/><rect class="cls-1" x="109.14" y="109.14" width="54.19" height="54.19" transform="translate(272.47 0) rotate(90)"/><rect class="cls-1" x="109.14" y="163.33" width="54.19" height="54.19" transform="translate(326.66 54.19) rotate(90)"/><rect class="cls-1" x="109.14" y="217.52" width="54.19" height="54.19" transform="translate(380.85 108.39) rotate(90)"/><rect class="cls-1" x="54.94" y="109.14" width="54.19" height="54.19" transform="translate(218.27 54.19) rotate(90)"/><rect class="cls-1" x="54.94" y="163.33" width="54.19" height="54.19" transform="translate(272.47 108.39) rotate(90)"/><rect class="cls-1" x="54.94" y="217.52" width="54.19" height="54.19" transform="translate(326.66 162.58) rotate(90)"/><rect class="cls-1" x="54.94" y="271.72" width="54.19" height="54.19" transform="translate(380.85 216.77) rotate(90)"/><rect class="cls-1" x="54.94" y="325.91" width="54.19" height="54.19" transform="translate(435.05 270.97) rotate(90)"/><rect class="cls-1" x="109.14" y="0.75" width="54.19" height="54.19" transform="translate(164.08 -108.39) rotate(90)"/><rect class="cls-1" x="54.94" y="54.94" width="54.19" height="54.19" transform="translate(164.08 0) rotate(90)"/><rect class="cls-1" x="163.33" y="0.75" width="54.19" height="54.19" transform="translate(218.27 -162.58) rotate(90)"/><rect class="cls-1" x="0.75" y="163.33" width="54.19" height="54.19" transform="translate(218.27 162.58) rotate(90)"/><rect class="cls-1" x="0.75" y="271.72" width="54.19" height="54.19" transform="translate(326.66 270.97) rotate(90)"/><polyline class="cls-1" points="0.75 325.91 54.94 325.91 54.94 380.1"/></g></g></svg>