<svg xmlns="http://www.w3.org/2000/svg" xmlns:xlink="http://www.w3.org/1999/xlink" viewBox="0 0 595.88 408.76"><defs><style>.cls-1,.cls-3{fill:none;}.cls-2{clip-path:url(#clip-path);}.cls-3{stroke:#282828;stroke-miterlimit:10;stroke-width:1.1px;}</style><clipPath id="clip-path" transform="translate(258.56 88.76)"><rect class="cls-1" width="175.38" height="183.26"/></clipPath></defs><g id="Layer_2" data-name="Layer 2"><g id="POST_1" data-name="POST 1"><g class="cls-2"><path class="cls-3" d="M-214.34-62.34a36.35,36.35,0,0,1,34.8-25.87,36.35,36.35,0,0,1,34.69,25.52" transform="translate(258.56 88.76)"/><path class="cls-3" d="M-208.86-60.47a30.56,30.56,0,0,1,29.32-22,30.56,30.56,0,0,1,29.32,22" transform="translate(258.56 88.76)"/><path class="cls-3" d="M-203.62-57.66a24.76,24.76,0,0,1,24.08-19,24.78,24.78,0,0,1,24.08,19" transform="translate(258.56 88.76)"/><path class="cls-3" d="M-198.44-53.61a19,19,0,0,1,18.9-17.25,19,19,0,0,1,18.9,17.25" transform="translate(258.56 88.76)"/><path class="cls-3" d="M-57.13-62.34a36.35,36.35,0,0,0-34.8-25.87,36.35,36.35,0,0,0-34.69,25.52" transform="translate(258.56 88.76)"/><path class="cls-3" d="M-62.61-60.47a30.56,30.56,0,0,0-29.32-22,30.56,30.56,0,0,0-29.32,22" transform="translate(258.56 88.76)"/><path class="cls-3" d="M-67.85-57.66a24.77,24.77,0,0,0-24.08-19,24.77,24.77,0,0,0-24.08,19" transform="translate(258.56 88.76)"/><path class="cls-3" d="M-73-53.61a19,19,0,0,0-18.9-17.25,19,19,0,0,0-18.9,17.25" transform="translate(258.56 88.76)"/><path class="cls-3" d="M-258-37.49a36.35,36.35,0,0,1,34.8-25.87,36.35,36.35,0,0,1,34.69,25.52" transform="translate(258.56 88.76)"/><path class="cls-3" d="M-252.56-35.62a30.56,30.56,0,0,1,29.32-22,30.56,30.56,0,0,1,29.32,22" transform="translate(258.56 88.76)"/><path class="cls-3" d="M-247.32-32.81a24.77,24.77,0,0,1,24.08-19,24.77,24.77,0,0,1,24.08,19" transform="translate(258.56 88.76)"/><path class="cls-3" d="M-170.53-37.53A36.33,36.33,0,0,1-135.74-63.4,36.33,36.33,0,0,1-101-37.88" transform="translate(258.56 88.76)"/><path class="cls-3" d="M-165-35.67a30.55,30.55,0,0,1,29.31-21.95,30.56,30.56,0,0,1,29.32,21.95" transform="translate(258.56 88.76)"/><path class="cls-3" d="M-159.82-32.86a24.77,24.77,0,0,1,24.08-19,24.76,24.76,0,0,1,24.08,19" transform="translate(258.56 88.76)"/><path class="cls-3" d="M-154.63-28.81a19,19,0,0,1,18.89-17.25,19,19,0,0,1,18.9,17.26" transform="translate(258.56 88.76)"/><path class="cls-3" d="M-242.14-28.81a19,19,0,0,1,18.9-17.25,19,19,0,0,1,18.9,17.26" transform="translate(258.56 88.76)"/><path class="cls-3" d="M30.48-62.34A36.35,36.35,0,0,0-4.32-88.21,36.35,36.35,0,0,0-39-62.69" transform="translate(258.56 88.76)"/><path class="cls-3" d="M25-60.47a30.56,30.56,0,0,0-29.32-22,30.56,30.56,0,0,0-29.32,22" transform="translate(258.56 88.76)"/><path class="cls-3" d="M19.76-57.66a24.77,24.77,0,0,0-24.08-19,24.77,24.77,0,0,0-24.08,19" transform="translate(258.56 88.76)"/><path class="cls-3" d="M14.58-53.61A19,19,0,0,0-4.32-70.86a19,19,0,0,0-18.9,17.25" transform="translate(258.56 88.76)"/><path class="cls-3" d="M74.17-37.49A36.33,36.33,0,0,0,39.38-63.36,36.35,36.35,0,0,0,4.69-37.84" transform="translate(258.56 88.76)"/><path class="cls-3" d="M68.7-35.62a30.56,30.56,0,0,0-29.32-22,30.56,30.56,0,0,0-29.32,22" transform="translate(258.56 88.76)"/><path class="cls-3" d="M63.46-32.81a24.77,24.77,0,0,0-24.08-19,24.77,24.77,0,0,0-24.08,19" transform="translate(258.56 88.76)"/><path class="cls-3" d="M-13.33-37.53A36.34,36.34,0,0,0-48.13-63.4,36.32,36.32,0,0,0-82.81-37.88" transform="translate(258.56 88.76)"/><path class="cls-3" d="M-18.81-35.67A30.56,30.56,0,0,0-48.13-57.62,30.56,30.56,0,0,0-77.44-35.67" transform="translate(258.56 88.76)"/><path class="cls-3" d="M-24-32.86a24.76,24.76,0,0,0-24.08-19,24.75,24.75,0,0,0-24.07,19" transform="translate(258.56 88.76)"/><path class="cls-3" d="M-29.23-28.81a19,19,0,0,0-18.9-17.25A19,19,0,0,0-67-28.8" transform="translate(258.56 88.76)"/><path class="cls-3" d="M293.09-62.34A36.33,36.33,0,0,0,258.3-88.21a36.35,36.35,0,0,0-34.69,25.52" transform="translate(258.56 88.76)"/><path class="cls-3" d="M287.62-60.47a30.56,30.56,0,0,0-29.32-22,30.56,30.56,0,0,0-29.32,22" transform="translate(258.56 88.76)"/><path class="cls-3" d="M282.38-57.66a24.77,24.77,0,0,0-24.08-19,24.77,24.77,0,0,0-24.08,19" transform="translate(258.56 88.76)"/><path class="cls-3" d="M277.2-53.61a19,19,0,0,0-18.9-17.25,19,19,0,0,0-18.9,17.25" transform="translate(258.56 88.76)"/><path class="cls-3" d="M135.89-62.34a36.35,36.35,0,0,1,34.8-25.87,36.35,36.35,0,0,1,34.69,25.52" transform="translate(258.56 88.76)"/><path class="cls-3" d="M141.37-60.47a30.56,30.56,0,0,1,29.32-22,30.54,30.54,0,0,1,29.31,22" transform="translate(258.56 88.76)"/><path class="cls-3" d="M146.61-57.66a24.76,24.76,0,0,1,24.08-19,24.78,24.78,0,0,1,24.08,19" transform="translate(258.56 88.76)"/><path class="cls-3" d="M151.79-53.61a19,19,0,0,1,18.9-17.25,19,19,0,0,1,18.9,17.25" transform="translate(258.56 88.76)"/><path class="cls-3" d="M336.79-37.49A36.34,36.34,0,0,0,302-63.36a36.35,36.35,0,0,0-34.69,25.52" transform="translate(258.56 88.76)"/><path class="cls-3" d="M331.31-35.62a30.54,30.54,0,0,0-29.31-22,30.56,30.56,0,0,0-29.32,22" transform="translate(258.56 88.76)"/><path class="cls-3" d="M326.08-32.81a24.77,24.77,0,0,0-24.08-19,24.76,24.76,0,0,0-24.08,19" transform="translate(258.56 88.76)"/><path class="cls-3" d="M249.29-37.53a36.34,36.34,0,0,0-34.8-25.87A36.33,36.33,0,0,0,179.8-37.88" transform="translate(258.56 88.76)"/><path class="cls-3" d="M243.81-35.67a30.56,30.56,0,0,0-29.32-21.95,30.55,30.55,0,0,0-29.31,21.95" transform="translate(258.56 88.76)"/><path class="cls-3" d="M238.57-32.86a24.76,24.76,0,0,0-24.08-19,24.77,24.77,0,0,0-24.08,19" transform="translate(258.56 88.76)"/><path class="cls-3" d="M233.39-28.81a19,19,0,0,0-18.9-17.25,19,19,0,0,0-18.9,17.26" transform="translate(258.56 88.76)"/><path class="cls-3" d="M320.89-28.81A19,19,0,0,0,302-46.06,19,19,0,0,0,283.1-28.8" transform="translate(258.56 88.76)"/><path class="cls-3" d="M48.28-62.34a36.35,36.35,0,0,1,34.8-25.87,36.35,36.35,0,0,1,34.69,25.52" transform="translate(258.56 88.76)"/><path class="cls-3" d="M53.76-60.47a30.56,30.56,0,0,1,29.32-22,30.54,30.54,0,0,1,29.31,22" transform="translate(258.56 88.76)"/><path class="cls-3" d="M59-57.66a24.76,24.76,0,0,1,24.08-19,24.78,24.78,0,0,1,24.08,19" transform="translate(258.56 88.76)"/><path class="cls-3" d="M64.18-53.61a19,19,0,0,1,18.9-17.25A19,19,0,0,1,102-53.61" transform="translate(258.56 88.76)"/><path class="cls-3" d="M92.09-37.53A36.31,36.31,0,0,1,126.88-63.4a36.33,36.33,0,0,1,34.69,25.52" transform="translate(258.56 88.76)"/><path class="cls-3" d="M97.56-35.67a30.57,30.57,0,0,1,29.32-21.95A30.56,30.56,0,0,1,156.2-35.67" transform="translate(258.56 88.76)"/><path class="cls-3" d="M102.8-32.86a24.77,24.77,0,0,1,24.08-19,24.77,24.77,0,0,1,24.08,19" transform="translate(258.56 88.76)"/><path class="cls-3" d="M108-28.81a19,19,0,0,1,18.9-17.25,19,19,0,0,1,18.9,17.26" transform="translate(258.56 88.76)"/><path class="cls-3" d="M58.28-28.81a19,19,0,0,0-18.9-17.25A19,19,0,0,0,20.48-28.8" transform="translate(258.56 88.76)"/><path class="cls-3" d="M-214.34-12.51a36.34,36.34,0,0,1,34.8-25.88,36.34,36.34,0,0,1,34.69,25.53" transform="translate(258.56 88.76)"/><path class="cls-3" d="M-208.86-10.65a30.56,30.56,0,0,1,29.32-22,30.56,30.56,0,0,1,29.32,22" transform="translate(258.56 88.76)"/><path class="cls-3" d="M-203.62-7.84a24.76,24.76,0,0,1,24.08-19,24.77,24.77,0,0,1,24.08,19" transform="translate(258.56 88.76)"/><path class="cls-3" d="M-198.44-3.79A19,19,0,0,1-179.54-21a19,19,0,0,1,18.9,17.26" transform="translate(258.56 88.76)"/><path class="cls-3" d="M-57.13-12.51a36.34,36.34,0,0,0-34.8-25.88,36.34,36.34,0,0,0-34.69,25.53" transform="translate(258.56 88.76)"/><path class="cls-3" d="M-62.61-10.65a30.56,30.56,0,0,0-29.32-22,30.56,30.56,0,0,0-29.32,22" transform="translate(258.56 88.76)"/><path class="cls-3" d="M-67.85-7.84a24.77,24.77,0,0,0-24.08-19A24.77,24.77,0,0,0-116-7.84" transform="translate(258.56 88.76)"/><path class="cls-3" d="M-73-3.79A19,19,0,0,0-91.93-21a19,19,0,0,0-18.9,17.26" transform="translate(258.56 88.76)"/><path class="cls-3" d="M-258,12.33a36.35,36.35,0,0,1,34.8-25.87A36.35,36.35,0,0,1-188.55,12" transform="translate(258.56 88.76)"/><path class="cls-3" d="M-252.56,14.2A30.55,30.55,0,0,1-223.24-7.75a30.55,30.55,0,0,1,29.32,22" transform="translate(258.56 88.76)"/><path class="cls-3" d="M-247.32,17A24.77,24.77,0,0,1-223.24-2a24.77,24.77,0,0,1,24.08,19" transform="translate(258.56 88.76)"/><path class="cls-3" d="M-170.53,12.29a36.33,36.33,0,0,1,34.79-25.87A36.33,36.33,0,0,1-101,11.94" transform="translate(258.56 88.76)"/><path class="cls-3" d="M-165,14.16a30.54,30.54,0,0,1,29.31-22,30.56,30.56,0,0,1,29.32,22" transform="translate(258.56 88.76)"/><path class="cls-3" d="M-159.82,17A24.78,24.78,0,0,1-135.74-2a24.76,24.76,0,0,1,24.08,19" transform="translate(258.56 88.76)"/><path class="cls-3" d="M-154.63,21A19,19,0,0,1-135.74,3.76,19,19,0,0,1-116.84,21" transform="translate(258.56 88.76)"/><path class="cls-3" d="M-242.14,21a19,19,0,0,1,18.9-17.26A19,19,0,0,1-204.34,21" transform="translate(258.56 88.76)"/><path class="cls-3" d="M30.48-12.51A36.34,36.34,0,0,0-4.32-38.39,36.34,36.34,0,0,0-39-12.86" transform="translate(258.56 88.76)"/><path class="cls-3" d="M25-10.65a30.56,30.56,0,0,0-29.32-22,30.56,30.56,0,0,0-29.32,22" transform="translate(258.56 88.76)"/><path class="cls-3" d="M19.76-7.84a24.77,24.77,0,0,0-24.08-19,24.77,24.77,0,0,0-24.08,19" transform="translate(258.56 88.76)"/><path class="cls-3" d="M14.58-3.79A19,19,0,0,0-4.32-21,19,19,0,0,0-23.22-3.78" transform="translate(258.56 88.76)"/><path class="cls-3" d="M74.17,12.33A36.33,36.33,0,0,0,4.69,12" transform="translate(258.56 88.76)"/><path class="cls-3" d="M68.7,14.2a30.56,30.56,0,0,0-58.64,0" transform="translate(258.56 88.76)"/><path class="cls-3" d="M63.46,17A24.77,24.77,0,0,0,15.3,17" transform="translate(258.56 88.76)"/><path class="cls-3" d="M-13.33,12.29a36.34,36.34,0,0,0-34.8-25.87A36.32,36.32,0,0,0-82.81,11.94" transform="translate(258.56 88.76)"/><path class="cls-3" d="M-18.81,14.16a30.56,30.56,0,0,0-29.32-22,30.55,30.55,0,0,0-29.31,22" transform="translate(258.56 88.76)"/><path class="cls-3" d="M-24,17A24.77,24.77,0,0,0-48.13-2,24.75,24.75,0,0,0-72.2,17" transform="translate(258.56 88.76)"/><path class="cls-3" d="M-29.23,21A19,19,0,0,0-48.13,3.76,19,19,0,0,0-67,21" transform="translate(258.56 88.76)"/><path class="cls-3" d="M293.09-12.51A36.32,36.32,0,0,0,258.3-38.39a36.34,36.34,0,0,0-34.69,25.53" transform="translate(258.56 88.76)"/><path class="cls-3" d="M287.62-10.65a30.57,30.57,0,0,0-29.32-22,30.56,30.56,0,0,0-29.32,22" transform="translate(258.56 88.76)"/><path class="cls-3" d="M282.38-7.84a24.77,24.77,0,0,0-24.08-19,24.77,24.77,0,0,0-24.08,19" transform="translate(258.56 88.76)"/><path class="cls-3" d="M277.2-3.79A19,19,0,0,0,258.3-21,19,19,0,0,0,239.4-3.78" transform="translate(258.56 88.76)"/><path class="cls-3" d="M135.89-12.51a36.34,36.34,0,0,1,34.8-25.88,36.34,36.34,0,0,1,34.69,25.53" transform="translate(258.56 88.76)"/><path class="cls-3" d="M141.37-10.65a30.56,30.56,0,0,1,29.32-22,30.55,30.55,0,0,1,29.31,22" transform="translate(258.56 88.76)"/><path class="cls-3" d="M146.61-7.84a24.76,24.76,0,0,1,24.08-19,24.77,24.77,0,0,1,24.08,19" transform="translate(258.56 88.76)"/><path class="cls-3" d="M151.79-3.79A19,19,0,0,1,170.69-21a19,19,0,0,1,18.9,17.26" transform="translate(258.56 88.76)"/><path class="cls-3" d="M336.79,12.33A36.33,36.33,0,0,0,267.31,12" transform="translate(258.56 88.76)"/><path class="cls-3" d="M331.31,14.2a30.55,30.55,0,0,0-58.63,0" transform="translate(258.56 88.76)"/><path class="cls-3" d="M326.08,17a24.77,24.77,0,0,0-48.16,0" transform="translate(258.56 88.76)"/><path class="cls-3" d="M249.29,12.29a36.34,36.34,0,0,0-69.49-.35" transform="translate(258.56 88.76)"/><path class="cls-3" d="M243.81,14.16a30.55,30.55,0,0,0-58.63,0" transform="translate(258.56 88.76)"/><path class="cls-3" d="M238.57,17a24.77,24.77,0,0,0-48.16,0" transform="translate(258.56 88.76)"/><path class="cls-3" d="M233.39,21a19,19,0,0,0-37.8,0" transform="translate(258.56 88.76)"/><path class="cls-3" d="M320.89,21a19,19,0,0,0-37.79,0" transform="translate(258.56 88.76)"/><path class="cls-3" d="M48.28-12.51a36.34,36.34,0,0,1,34.8-25.88,36.34,36.34,0,0,1,34.69,25.53" transform="translate(258.56 88.76)"/><path class="cls-3" d="M53.76-10.65a30.56,30.56,0,0,1,29.32-22,30.55,30.55,0,0,1,29.31,22" transform="translate(258.56 88.76)"/><path class="cls-3" d="M59-7.84a24.76,24.76,0,0,1,24.08-19,24.77,24.77,0,0,1,24.08,19" transform="translate(258.56 88.76)"/><path class="cls-3" d="M64.18-3.79A19,19,0,0,1,83.08-21,19,19,0,0,1,102-3.78" transform="translate(258.56 88.76)"/><path class="cls-3" d="M92.09,12.29a36.33,36.33,0,0,1,69.48-.35" transform="translate(258.56 88.76)"/><path class="cls-3" d="M97.56,14.16a30.55,30.55,0,0,1,58.64,0" transform="translate(258.56 88.76)"/><path class="cls-3" d="M102.8,17A24.77,24.77,0,0,1,151,17" transform="translate(258.56 88.76)"/><path class="cls-3" d="M108,21a19,19,0,0,1,37.8,0" transform="translate(258.56 88.76)"/><path class="cls-3" d="M58.28,21a19,19,0,0,0-37.8,0" transform="translate(258.56 88.76)"/><path class="cls-3" d="M-214.34,37.31a36.34,36.34,0,0,1,34.8-25.87A36.33,36.33,0,0,1-144.85,37" transform="translate(258.56 88.76)"/><path class="cls-3" d="M-208.86,39.18a30.56,30.56,0,0,1,29.32-22,30.56,30.56,0,0,1,29.32,22" transform="translate(258.56 88.76)"/><path class="cls-3" d="M-203.62,42a24.77,24.77,0,0,1,24.08-19,24.77,24.77,0,0,1,24.08,19" transform="translate(258.56 88.76)"/><path class="cls-3" d="M-198.44,46a19,19,0,0,1,18.9-17.26A19,19,0,0,1-160.64,46" transform="translate(258.56 88.76)"/><path class="cls-3" d="M-57.13,37.31a36.34,36.34,0,0,0-34.8-25.87A36.33,36.33,0,0,0-126.62,37" transform="translate(258.56 88.76)"/><path class="cls-3" d="M-62.61,39.18a30.56,30.56,0,0,0-29.32-22,30.56,30.56,0,0,0-29.32,22" transform="translate(258.56 88.76)"/><path class="cls-3" d="M-67.85,42A24.78,24.78,0,0,0-91.93,23,24.77,24.77,0,0,0-116,42" transform="translate(258.56 88.76)"/><path class="cls-3" d="M-73,46a19,19,0,0,0-18.9-17.26A19,19,0,0,0-110.83,46" transform="translate(258.56 88.76)"/><path class="cls-3" d="M-258,62.16a36.34,36.34,0,0,1,34.8-25.87,36.33,36.33,0,0,1,34.69,25.52" transform="translate(258.56 88.76)"/><path class="cls-3" d="M-252.56,64a30.56,30.56,0,0,1,29.32-22,30.56,30.56,0,0,1,29.32,22" transform="translate(258.56 88.76)"/><path class="cls-3" d="M-247.32,66.83a24.77,24.77,0,0,1,24.08-19,24.77,24.77,0,0,1,24.08,19" transform="translate(258.56 88.76)"/><path class="cls-3" d="M-170.53,62.11a36.34,36.34,0,0,1,34.79-25.87A36.35,36.35,0,0,1-101,61.76" transform="translate(258.56 88.76)"/><path class="cls-3" d="M-165,64a30.54,30.54,0,0,1,29.31-22,30.56,30.56,0,0,1,29.32,22" transform="translate(258.56 88.76)"/><path class="cls-3" d="M-159.82,66.79a24.77,24.77,0,0,1,24.08-19,24.76,24.76,0,0,1,24.08,19" transform="translate(258.56 88.76)"/><path class="cls-3" d="M-154.63,70.84a19,19,0,0,1,18.89-17.25,19,19,0,0,1,18.9,17.25" transform="translate(258.56 88.76)"/><path class="cls-3" d="M-242.14,70.84a19,19,0,0,1,18.9-17.25,19,19,0,0,1,18.9,17.25" transform="translate(258.56 88.76)"/><path class="cls-3" d="M30.48,37.31A36.34,36.34,0,0,0-4.32,11.44,36.33,36.33,0,0,0-39,37" transform="translate(258.56 88.76)"/><path class="cls-3" d="M25,39.18a30.56,30.56,0,0,0-29.32-22,30.56,30.56,0,0,0-29.32,22" transform="translate(258.56 88.76)"/><path class="cls-3" d="M19.76,42A24.78,24.78,0,0,0-4.32,23,24.77,24.77,0,0,0-28.4,42" transform="translate(258.56 88.76)"/><path class="cls-3" d="M14.58,46A19,19,0,0,0-4.32,28.78,19,19,0,0,0-23.22,46" transform="translate(258.56 88.76)"/><path class="cls-3" d="M74.17,62.16a36.33,36.33,0,0,0-69.48-.35" transform="translate(258.56 88.76)"/><path class="cls-3" d="M68.7,64a30.55,30.55,0,0,0-58.64,0" transform="translate(258.56 88.76)"/><path class="cls-3" d="M63.46,66.83a24.77,24.77,0,0,0-48.16,0" transform="translate(258.56 88.76)"/><path class="cls-3" d="M-13.33,62.11a36.35,36.35,0,0,0-34.8-25.87A36.33,36.33,0,0,0-82.81,61.76" transform="translate(258.56 88.76)"/><path class="cls-3" d="M-18.81,64A30.56,30.56,0,0,0-48.13,42,30.55,30.55,0,0,0-77.44,64" transform="translate(258.56 88.76)"/><path class="cls-3" d="M-24,66.79a24.76,24.76,0,0,0-24.08-19,24.76,24.76,0,0,0-24.07,19" transform="translate(258.56 88.76)"/><path class="cls-3" d="M-29.23,70.84a19,19,0,0,0-18.9-17.25A19,19,0,0,0-67,70.84" transform="translate(258.56 88.76)"/><path class="cls-3" d="M293.09,37.31A36.33,36.33,0,0,0,223.61,37" transform="translate(258.56 88.76)"/><path class="cls-3" d="M287.62,39.18a30.55,30.55,0,0,0-58.64,0" transform="translate(258.56 88.76)"/><path class="cls-3" d="M282.38,42a24.77,24.77,0,0,0-48.16,0" transform="translate(258.56 88.76)"/><path class="cls-3" d="M277.2,46a19,19,0,0,0-37.8,0" transform="translate(258.56 88.76)"/><path class="cls-3" d="M135.89,37.31A36.34,36.34,0,0,1,205.38,37" transform="translate(258.56 88.76)"/><path class="cls-3" d="M141.37,39.18a30.55,30.55,0,0,1,58.63,0" transform="translate(258.56 88.76)"/><path class="cls-3" d="M146.61,42a24.77,24.77,0,0,1,48.16,0" transform="translate(258.56 88.76)"/><path class="cls-3" d="M151.79,46a19,19,0,0,1,37.8,0" transform="translate(258.56 88.76)"/><path class="cls-3" d="M336.79,62.16a36.33,36.33,0,0,0-69.48-.35" transform="translate(258.56 88.76)"/><path class="cls-3" d="M331.31,64a30.55,30.55,0,0,0-58.63,0" transform="translate(258.56 88.76)"/><path class="cls-3" d="M326.08,66.83a24.77,24.77,0,0,0-48.16,0" transform="translate(258.56 88.76)"/><path class="cls-3" d="M249.29,62.11a36.34,36.34,0,0,0-69.49-.35" transform="translate(258.56 88.76)"/><path class="cls-3" d="M243.81,64a30.55,30.55,0,0,0-58.63,0" transform="translate(258.56 88.76)"/><path class="cls-3" d="M238.57,66.79a24.77,24.77,0,0,0-48.16,0" transform="translate(258.56 88.76)"/><path class="cls-3" d="M233.39,70.84a19,19,0,0,0-37.8,0" transform="translate(258.56 88.76)"/><path class="cls-3" d="M320.89,70.84a19,19,0,0,0-37.79,0" transform="translate(258.56 88.76)"/><path class="cls-3" d="M48.28,37.31A36.34,36.34,0,0,1,117.77,37" transform="translate(258.56 88.76)"/><path class="cls-3" d="M53.76,39.18a30.55,30.55,0,0,1,58.63,0" transform="translate(258.56 88.76)"/><path class="cls-3" d="M59,42a24.77,24.77,0,0,1,48.16,0" transform="translate(258.56 88.76)"/><path class="cls-3" d="M64.18,46A19,19,0,0,1,102,46" transform="translate(258.56 88.76)"/><path class="cls-3" d="M92.09,62.11a36.33,36.33,0,0,1,69.48-.35" transform="translate(258.56 88.76)"/><path class="cls-3" d="M97.56,64a30.55,30.55,0,0,1,58.64,0" transform="translate(258.56 88.76)"/><path class="cls-3" d="M102.8,66.79a24.77,24.77,0,0,1,48.16,0" transform="translate(258.56 88.76)"/><path class="cls-3" d="M108,70.84a19,19,0,0,1,37.8,0" transform="translate(258.56 88.76)"/><path class="cls-3" d="M58.28,70.84a19,19,0,0,0-37.8,0" transform="translate(258.56 88.76)"/><path class="cls-3" d="M-214.34,87.13a36.35,36.35,0,0,1,34.8-25.87,36.35,36.35,0,0,1,34.69,25.52" transform="translate(258.56 88.76)"/><path class="cls-3" d="M-208.86,89a30.56,30.56,0,0,1,29.32-22,30.56,30.56,0,0,1,29.32,22" transform="translate(258.56 88.76)"/><path class="cls-3" d="M-203.62,91.81a24.77,24.77,0,0,1,24.08-19,24.78,24.78,0,0,1,24.08,19" transform="translate(258.56 88.76)"/><path class="cls-3" d="M-198.44,95.86a19,19,0,0,1,18.9-17.25,19,19,0,0,1,18.9,17.25" transform="translate(258.56 88.76)"/><path class="cls-3" d="M-57.13,87.13a36.35,36.35,0,0,0-34.8-25.87,36.35,36.35,0,0,0-34.69,25.52" transform="translate(258.56 88.76)"/><path class="cls-3" d="M-62.61,89A30.56,30.56,0,0,0-91.93,67a30.56,30.56,0,0,0-29.32,22" transform="translate(258.56 88.76)"/><path class="cls-3" d="M-67.85,91.81a24.77,24.77,0,0,0-24.08-19A24.78,24.78,0,0,0-116,91.8" transform="translate(258.56 88.76)"/><path class="cls-3" d="M-73,95.86a19,19,0,0,0-18.9-17.25,19,19,0,0,0-18.9,17.25" transform="translate(258.56 88.76)"/><path class="cls-3" d="M-258,112a36.34,36.34,0,0,1,34.8-25.87,36.33,36.33,0,0,1,34.69,25.52" transform="translate(258.56 88.76)"/><path class="cls-3" d="M-252.56,113.85a30.56,30.56,0,0,1,29.32-22,30.56,30.56,0,0,1,29.32,22" transform="translate(258.56 88.76)"/><path class="cls-3" d="M-247.32,116.65a24.78,24.78,0,0,1,24.08-19,24.78,24.78,0,0,1,24.08,19" transform="translate(258.56 88.76)"/><path class="cls-3" d="M-170.53,111.93a36.34,36.34,0,0,1,34.79-25.87A36.35,36.35,0,0,1-101,111.58" transform="translate(258.56 88.76)"/><path class="cls-3" d="M-165,113.8a30.53,30.53,0,0,1,29.31-22,30.55,30.55,0,0,1,29.32,22" transform="translate(258.56 88.76)"/><path class="cls-3" d="M-159.82,116.61a24.77,24.77,0,0,1,24.08-19,24.76,24.76,0,0,1,24.08,19" transform="translate(258.56 88.76)"/><path class="cls-3" d="M-154.63,120.66a19,19,0,0,1,18.89-17.25,19,19,0,0,1,18.9,17.26" transform="translate(258.56 88.76)"/><path class="cls-3" d="M-242.14,120.66a19,19,0,0,1,18.9-17.25,19,19,0,0,1,18.9,17.26" transform="translate(258.56 88.76)"/><path class="cls-3" d="M30.48,87.13A36.35,36.35,0,0,0-4.32,61.26,36.35,36.35,0,0,0-39,86.78" transform="translate(258.56 88.76)"/><path class="cls-3" d="M25,89A30.56,30.56,0,0,0-4.32,67,30.56,30.56,0,0,0-33.64,89" transform="translate(258.56 88.76)"/><path class="cls-3" d="M19.76,91.81a24.77,24.77,0,0,0-24.08-19,24.78,24.78,0,0,0-24.08,19" transform="translate(258.56 88.76)"/><path class="cls-3" d="M14.58,95.86A19,19,0,0,0-4.32,78.61a19,19,0,0,0-18.9,17.25" transform="translate(258.56 88.76)"/><path class="cls-3" d="M74.17,112a36.33,36.33,0,0,0-69.48-.35" transform="translate(258.56 88.76)"/><path class="cls-3" d="M68.7,113.85a30.55,30.55,0,0,0-58.64,0" transform="translate(258.56 88.76)"/><path class="cls-3" d="M63.46,116.65a24.77,24.77,0,0,0-48.16,0" transform="translate(258.56 88.76)"/><path class="cls-3" d="M-13.33,111.93a36.35,36.35,0,0,0-34.8-25.87,36.33,36.33,0,0,0-34.68,25.52" transform="translate(258.56 88.76)"/><path class="cls-3" d="M-18.81,113.8a30.55,30.55,0,0,0-29.32-22,30.54,30.54,0,0,0-29.31,22" transform="translate(258.56 88.76)"/><path class="cls-3" d="M-24,116.61a24.76,24.76,0,0,0-24.08-19,24.75,24.75,0,0,0-24.07,19" transform="translate(258.56 88.76)"/><path class="cls-3" d="M-29.23,120.66a19,19,0,0,0-18.9-17.25A19,19,0,0,0-67,120.67" transform="translate(258.56 88.76)"/><path class="cls-3" d="M293.09,87.13a36.33,36.33,0,0,0-69.48-.35" transform="translate(258.56 88.76)"/><path class="cls-3" d="M287.62,89A30.55,30.55,0,0,0,229,89" transform="translate(258.56 88.76)"/><path class="cls-3" d="M282.38,91.81a24.76,24.76,0,0,0-48.16,0" transform="translate(258.56 88.76)"/><path class="cls-3" d="M277.2,95.86a19,19,0,0,0-37.8,0" transform="translate(258.56 88.76)"/><path class="cls-3" d="M135.89,87.13a36.34,36.34,0,0,1,69.49-.35" transform="translate(258.56 88.76)"/><path class="cls-3" d="M141.37,89A30.55,30.55,0,0,1,200,89" transform="translate(258.56 88.76)"/><path class="cls-3" d="M146.61,91.81a24.76,24.76,0,0,1,48.16,0" transform="translate(258.56 88.76)"/><path class="cls-3" d="M151.79,95.86a19,19,0,0,1,37.8,0" transform="translate(258.56 88.76)"/><path class="cls-3" d="M336.79,112a36.33,36.33,0,0,0-69.48-.35" transform="translate(258.56 88.76)"/><path class="cls-3" d="M331.31,113.85a30.55,30.55,0,0,0-58.63,0" transform="translate(258.56 88.76)"/><path class="cls-3" d="M326.08,116.65a24.77,24.77,0,0,0-48.16,0" transform="translate(258.56 88.76)"/><path class="cls-3" d="M249.29,111.93a36.34,36.34,0,0,0-69.49-.35" transform="translate(258.56 88.76)"/><path class="cls-3" d="M243.81,113.8a30.55,30.55,0,0,0-58.63,0" transform="translate(258.56 88.76)"/><path class="cls-3" d="M238.57,116.61a24.77,24.77,0,0,0-48.16,0" transform="translate(258.56 88.76)"/><path class="cls-3" d="M233.39,120.66a19,19,0,0,0-37.8,0" transform="translate(258.56 88.76)"/><path class="cls-3" d="M320.89,120.66a19,19,0,0,0-37.79,0" transform="translate(258.56 88.76)"/><path class="cls-3" d="M48.28,87.13a36.34,36.34,0,0,1,69.49-.35" transform="translate(258.56 88.76)"/><path class="cls-3" d="M53.76,89a30.55,30.55,0,0,1,58.63,0" transform="translate(258.56 88.76)"/><path class="cls-3" d="M59,91.81a24.76,24.76,0,0,1,48.16,0" transform="translate(258.56 88.76)"/><path class="cls-3" d="M64.18,95.86a19,19,0,0,1,37.8,0" transform="translate(258.56 88.76)"/><path class="cls-3" d="M92.09,111.93a36.33,36.33,0,0,1,69.48-.35" transform="translate(258.56 88.76)"/><path class="cls-3" d="M97.56,113.8a30.56,30.56,0,0,1,58.64,0" transform="translate(258.56 88.76)"/><path class="cls-3" d="M102.8,116.61a24.77,24.77,0,0,1,48.16,0" transform="translate(258.56 88.76)"/><path class="cls-3" d="M108,120.66a19,19,0,0,1,37.8,0" transform="translate(258.56 88.76)"/><path class="cls-3" d="M58.28,120.66a19,19,0,0,0-37.8,0" transform="translate(258.56 88.76)"/><path class="cls-3" d="M-214.34,137a36.35,36.35,0,0,1,34.8-25.87,36.35,36.35,0,0,1,34.69,25.52" transform="translate(258.56 88.76)"/><path class="cls-3" d="M-208.86,138.82a30.55,30.55,0,0,1,29.32-21.95,30.55,30.55,0,0,1,29.32,21.95" transform="translate(258.56 88.76)"/><path class="cls-3" d="M-203.62,141.63a24.76,24.76,0,0,1,24.08-19,24.78,24.78,0,0,1,24.08,19" transform="translate(258.56 88.76)"/><path class="cls-3" d="M-198.44,145.68a19,19,0,0,1,18.9-17.25,19,19,0,0,1,18.9,17.26" transform="translate(258.56 88.76)"/><path class="cls-3" d="M-57.13,137a36.35,36.35,0,0,0-34.8-25.87,36.35,36.35,0,0,0-34.69,25.52" transform="translate(258.56 88.76)"/><path class="cls-3" d="M-62.61,138.82a30.55,30.55,0,0,0-29.32-21.95,30.55,30.55,0,0,0-29.32,21.95" transform="translate(258.56 88.76)"/><path class="cls-3" d="M-67.85,141.63a24.77,24.77,0,0,0-24.08-19,24.77,24.77,0,0,0-24.08,19" transform="translate(258.56 88.76)"/><path class="cls-3" d="M-73,145.68a19,19,0,0,0-18.9-17.25,19,19,0,0,0-18.9,17.26" transform="translate(258.56 88.76)"/><path class="cls-3" d="M-258,161.8a36.35,36.35,0,0,1,34.8-25.87,36.35,36.35,0,0,1,34.69,25.52" transform="translate(258.56 88.76)"/><path class="cls-3" d="M-252.56,163.67a30.56,30.56,0,0,1,29.32-22,30.56,30.56,0,0,1,29.32,22" transform="translate(258.56 88.76)"/><path class="cls-3" d="M-247.32,166.48a24.77,24.77,0,0,1,24.08-19,24.77,24.77,0,0,1,24.08,19" transform="translate(258.56 88.76)"/><path class="cls-3" d="M-170.53,161.76a36.33,36.33,0,0,1,34.79-25.87A36.33,36.33,0,0,1-101,161.41" transform="translate(258.56 88.76)"/><path class="cls-3" d="M-165,163.63a30.54,30.54,0,0,1,29.31-22,30.56,30.56,0,0,1,29.32,22" transform="translate(258.56 88.76)"/><path class="cls-3" d="M-159.82,166.43a24.77,24.77,0,0,1,24.08-19,24.76,24.76,0,0,1,24.08,19" transform="translate(258.56 88.76)"/><path class="cls-3" d="M-154.63,170.48a19,19,0,0,1,18.89-17.25,19,19,0,0,1,18.9,17.26" transform="translate(258.56 88.76)"/><path class="cls-3" d="M-242.14,170.48a19,19,0,0,1,18.9-17.25,19,19,0,0,1,18.9,17.26" transform="translate(258.56 88.76)"/><path class="cls-3" d="M30.48,137a36.35,36.35,0,0,0-34.8-25.87A36.35,36.35,0,0,0-39,136.6" transform="translate(258.56 88.76)"/><path class="cls-3" d="M25,138.82A30.55,30.55,0,0,0-4.32,116.87a30.55,30.55,0,0,0-29.32,21.95" transform="translate(258.56 88.76)"/><path class="cls-3" d="M19.76,141.63a24.77,24.77,0,0,0-24.08-19,24.77,24.77,0,0,0-24.08,19" transform="translate(258.56 88.76)"/><path class="cls-3" d="M14.58,145.68a19,19,0,0,0-18.9-17.25,19,19,0,0,0-18.9,17.26" transform="translate(258.56 88.76)"/><path class="cls-3" d="M74.17,161.8a36.33,36.33,0,0,0-69.48-.35" transform="translate(258.56 88.76)"/><path class="cls-3" d="M68.7,163.67a30.55,30.55,0,0,0-58.64,0" transform="translate(258.56 88.76)"/><path class="cls-3" d="M63.46,166.48a24.77,24.77,0,0,0-48.16,0" transform="translate(258.56 88.76)"/><path class="cls-3" d="M-13.33,161.76a36.34,36.34,0,0,0-34.8-25.87,36.32,36.32,0,0,0-34.68,25.52" transform="translate(258.56 88.76)"/><path class="cls-3" d="M-18.81,163.63a30.56,30.56,0,0,0-29.32-22,30.55,30.55,0,0,0-29.31,22" transform="translate(258.56 88.76)"/><path class="cls-3" d="M-24,166.43a24.76,24.76,0,0,0-24.08-19,24.75,24.75,0,0,0-24.07,19" transform="translate(258.56 88.76)"/><path class="cls-3" d="M-29.23,170.48a19,19,0,0,0-18.9-17.25A19,19,0,0,0-67,170.49" transform="translate(258.56 88.76)"/><path class="cls-3" d="M293.09,137a36.33,36.33,0,0,0-69.48-.35" transform="translate(258.56 88.76)"/><path class="cls-3" d="M287.62,138.82a30.56,30.56,0,0,0-58.64,0" transform="translate(258.56 88.76)"/><path class="cls-3" d="M282.38,141.63a24.77,24.77,0,0,0-48.16,0" transform="translate(258.56 88.76)"/><path class="cls-3" d="M277.2,145.68a19,19,0,0,0-37.8,0" transform="translate(258.56 88.76)"/><path class="cls-3" d="M135.89,137a36.34,36.34,0,0,1,69.49-.35" transform="translate(258.56 88.76)"/><path class="cls-3" d="M141.37,138.82a30.55,30.55,0,0,1,58.63,0" transform="translate(258.56 88.76)"/><path class="cls-3" d="M146.61,141.63a24.77,24.77,0,0,1,48.16,0" transform="translate(258.56 88.76)"/><path class="cls-3" d="M151.79,145.68a19,19,0,0,1,37.8,0" transform="translate(258.56 88.76)"/><path class="cls-3" d="M336.79,161.8a36.33,36.33,0,0,0-69.48-.35" transform="translate(258.56 88.76)"/><path class="cls-3" d="M331.31,163.67a30.55,30.55,0,0,0-58.63,0" transform="translate(258.56 88.76)"/><path class="cls-3" d="M326.08,166.48a24.77,24.77,0,0,0-48.16,0" transform="translate(258.56 88.76)"/><path class="cls-3" d="M249.29,161.76a36.34,36.34,0,0,0-69.49-.35" transform="translate(258.56 88.76)"/><path class="cls-3" d="M243.81,163.63a30.55,30.55,0,0,0-58.63,0" transform="translate(258.56 88.76)"/><path class="cls-3" d="M238.57,166.43a24.77,24.77,0,0,0-48.16,0" transform="translate(258.56 88.76)"/><path class="cls-3" d="M233.39,170.48a19,19,0,0,0-37.8,0" transform="translate(258.56 88.76)"/><path class="cls-3" d="M320.89,170.48a19,19,0,0,0-37.79,0" transform="translate(258.56 88.76)"/><path class="cls-3" d="M48.28,137a36.34,36.34,0,0,1,69.49-.35" transform="translate(258.56 88.76)"/><path class="cls-3" d="M53.76,138.82a30.55,30.55,0,0,1,58.63,0" transform="translate(258.56 88.76)"/><path class="cls-3" d="M59,141.63a24.77,24.77,0,0,1,48.16,0" transform="translate(258.56 88.76)"/><path class="cls-3" d="M64.18,145.68a19,19,0,0,1,37.8,0" transform="translate(258.56 88.76)"/><path class="cls-3" d="M92.09,161.76a36.33,36.33,0,0,1,69.48-.35" transform="translate(258.56 88.76)"/><path class="cls-3" d="M97.56,163.63a30.55,30.55,0,0,1,58.64,0" transform="translate(258.56 88.76)"/><path class="cls-3" d="M102.8,166.43a24.77,24.77,0,0,1,48.16,0" transform="translate(258.56 88.76)"/><path class="cls-3" d="M108,170.48a19,19,0,0,1,37.8,0" transform="translate(258.56 88.76)"/><path class="cls-3" d="M58.28,170.48a19,19,0,0,0-37.8,0" transform="translate(258.56 88.76)"/><path class="cls-3" d="M-214.34,186.78a36.34,36.34,0,0,1,34.8-25.87,36.33,36.33,0,0,1,34.69,25.52" transform="translate(258.56 88.76)"/><path class="cls-3" d="M-208.86,188.65a30.56,30.56,0,0,1,29.32-22,30.56,30.56,0,0,1,29.32,22" transform="translate(258.56 88.76)"/><path class="cls-3" d="M-203.62,191.45a24.76,24.76,0,0,1,24.08-19,24.77,24.77,0,0,1,24.08,19" transform="translate(258.56 88.76)"/><path class="cls-3" d="M-198.44,195.5a19,19,0,0,1,18.9-17.25,19,19,0,0,1,18.9,17.26" transform="translate(258.56 88.76)"/><path class="cls-3" d="M-57.13,186.78a36.34,36.34,0,0,0-34.8-25.87,36.33,36.33,0,0,0-34.69,25.52" transform="translate(258.56 88.76)"/><path class="cls-3" d="M-62.61,188.65a30.56,30.56,0,0,0-29.32-22,30.56,30.56,0,0,0-29.32,22" transform="translate(258.56 88.76)"/><path class="cls-3" d="M-67.85,191.45a24.77,24.77,0,0,0-24.08-19,24.77,24.77,0,0,0-24.08,19" transform="translate(258.56 88.76)"/><path class="cls-3" d="M-73,195.5a19,19,0,0,0-18.9-17.25,19,19,0,0,0-18.9,17.26" transform="translate(258.56 88.76)"/><path class="cls-3" d="M-258,211.63a36.34,36.34,0,0,1,34.8-25.88,36.34,36.34,0,0,1,34.69,25.53" transform="translate(258.56 88.76)"/><path class="cls-3" d="M-252.56,213.49a30.56,30.56,0,0,1,29.32-22,30.56,30.56,0,0,1,29.32,22" transform="translate(258.56 88.76)"/><path class="cls-3" d="M-247.32,216.3a24.77,24.77,0,0,1,24.08-19,24.77,24.77,0,0,1,24.08,19" transform="translate(258.56 88.76)"/><path class="cls-3" d="M-170.53,211.58a36.33,36.33,0,0,1,34.79-25.87A36.33,36.33,0,0,1-101,211.23" transform="translate(258.56 88.76)"/><path class="cls-3" d="M-165,213.45a30.54,30.54,0,0,1,29.31-22,30.56,30.56,0,0,1,29.32,22" transform="translate(258.56 88.76)"/><path class="cls-3" d="M-159.82,216.25a24.78,24.78,0,0,1,24.08-19,24.77,24.77,0,0,1,24.08,19" transform="translate(258.56 88.76)"/><path class="cls-3" d="M-154.63,220.31a19,19,0,0,1,18.89-17.25,19,19,0,0,1,18.9,17.25" transform="translate(258.56 88.76)"/><path class="cls-3" d="M-242.14,220.31a19,19,0,0,1,18.9-17.25,19,19,0,0,1,18.9,17.25" transform="translate(258.56 88.76)"/><path class="cls-3" d="M30.48,186.78a36.34,36.34,0,0,0-34.8-25.87A36.33,36.33,0,0,0-39,186.43" transform="translate(258.56 88.76)"/><path class="cls-3" d="M25,188.65a30.56,30.56,0,0,0-29.32-22,30.56,30.56,0,0,0-29.32,22" transform="translate(258.56 88.76)"/><path class="cls-3" d="M19.76,191.45a24.77,24.77,0,0,0-24.08-19,24.77,24.77,0,0,0-24.08,19" transform="translate(258.56 88.76)"/><path class="cls-3" d="M14.58,195.5a19,19,0,0,0-18.9-17.25,19,19,0,0,0-18.9,17.26" transform="translate(258.56 88.76)"/><path class="cls-3" d="M74.17,211.63a36.33,36.33,0,0,0-69.48-.35" transform="translate(258.56 88.76)"/><path class="cls-3" d="M68.7,213.49a30.56,30.56,0,0,0-58.64,0" transform="translate(258.56 88.76)"/><path class="cls-3" d="M63.46,216.3a24.77,24.77,0,0,0-48.16,0" transform="translate(258.56 88.76)"/><path class="cls-3" d="M-13.33,211.58a36.34,36.34,0,0,0-34.8-25.87,36.32,36.32,0,0,0-34.68,25.52" transform="translate(258.56 88.76)"/><path class="cls-3" d="M-18.81,213.45a30.56,30.56,0,0,0-29.32-22,30.55,30.55,0,0,0-29.31,22" transform="translate(258.56 88.76)"/><path class="cls-3" d="M-24,216.25a24.77,24.77,0,0,0-24.08-19,24.76,24.76,0,0,0-24.07,19" transform="translate(258.56 88.76)"/><path class="cls-3" d="M-29.23,220.31a19,19,0,0,0-18.9-17.25A19,19,0,0,0-67,220.31" transform="translate(258.56 88.76)"/><path class="cls-3" d="M293.09,186.78a36.33,36.33,0,0,0-69.48-.35" transform="translate(258.56 88.76)"/><path class="cls-3" d="M287.62,188.65a30.55,30.55,0,0,0-58.64,0" transform="translate(258.56 88.76)"/><path class="cls-3" d="M282.38,191.45a24.77,24.77,0,0,0-48.16,0" transform="translate(258.56 88.76)"/><path class="cls-3" d="M277.2,195.5a19,19,0,0,0-37.8,0" transform="translate(258.56 88.76)"/><path class="cls-3" d="M135.89,186.78a36.34,36.34,0,0,1,69.49-.35" transform="translate(258.56 88.76)"/><path class="cls-3" d="M141.37,188.65a30.55,30.55,0,0,1,58.63,0" transform="translate(258.56 88.76)"/><path class="cls-3" d="M146.61,191.45a24.77,24.77,0,0,1,48.16,0" transform="translate(258.56 88.76)"/><path class="cls-3" d="M151.79,195.5a19,19,0,0,1,37.8,0" transform="translate(258.56 88.76)"/><path class="cls-3" d="M336.79,211.63a36.33,36.33,0,0,0-69.48-.35" transform="translate(258.56 88.76)"/><path class="cls-3" d="M331.31,213.49a30.55,30.55,0,0,0-58.63,0" transform="translate(258.56 88.76)"/><path class="cls-3" d="M326.08,216.3a24.77,24.77,0,0,0-48.16,0" transform="translate(258.56 88.76)"/><path class="cls-3" d="M249.29,211.58a36.34,36.34,0,0,0-69.49-.35" transform="translate(258.56 88.76)"/><path class="cls-3" d="M243.81,213.45a30.55,30.55,0,0,0-58.63,0" transform="translate(258.56 88.76)"/><path class="cls-3" d="M238.57,216.25a24.77,24.77,0,0,0-48.16,0" transform="translate(258.56 88.76)"/><path class="cls-3" d="M233.39,220.31a19,19,0,0,0-37.8,0" transform="translate(258.56 88.76)"/><path class="cls-3" d="M320.89,220.31a19,19,0,0,0-37.79,0" transform="translate(258.56 88.76)"/><path class="cls-3" d="M48.28,186.78a36.34,36.34,0,0,1,69.49-.35" transform="translate(258.56 88.76)"/><path class="cls-3" d="M53.76,188.65a30.55,30.55,0,0,1,58.63,0" transform="translate(258.56 88.76)"/><path class="cls-3" d="M59,191.45a24.77,24.77,0,0,1,48.16,0" transform="translate(258.56 88.76)"/><path class="cls-3" d="M64.18,195.5a19,19,0,0,1,37.8,0" transform="translate(258.56 88.76)"/><path class="cls-3" d="M92.09,211.58a36.33,36.33,0,0,1,69.48-.35" transform="translate(258.56 88.76)"/><path class="cls-3" d="M97.56,213.45a30.55,30.55,0,0,1,58.64,0" transform="translate(258.56 88.76)"/><path class="cls-3" d="M102.8,216.25a24.77,24.77,0,0,1,48.16,0" transform="translate(258.56 88.76)"/><path class="cls-3" d="M108,220.31a19,19,0,0,1,37.8,0" transform="translate(258.56 88.76)"/><path class="cls-3" d="M58.28,220.31a19,19,0,0,0-37.8,0" transform="translate(258.56 88.76)"/><path class="cls-3" d="M-214.34,236.6a36.34,36.34,0,0,1,34.8-25.87,36.33,36.33,0,0,1,34.69,25.52" transform="translate(258.56 88.76)"/><path class="cls-3" d="M-208.86,238.47a30.56,30.56,0,0,1,29.32-22,30.56,30.56,0,0,1,29.32,22" transform="translate(258.56 88.76)"/><path class="cls-3" d="M-203.62,241.27a24.77,24.77,0,0,1,24.08-19,24.78,24.78,0,0,1,24.08,19" transform="translate(258.56 88.76)"/><path class="cls-3" d="M-198.44,245.33a19,19,0,0,1,18.9-17.25,19,19,0,0,1,18.9,17.25" transform="translate(258.56 88.76)"/><path class="cls-3" d="M-57.13,236.6a36.34,36.34,0,0,0-34.8-25.87,36.33,36.33,0,0,0-34.69,25.52" transform="translate(258.56 88.76)"/><path class="cls-3" d="M-62.61,238.47a30.56,30.56,0,0,0-29.32-22,30.56,30.56,0,0,0-29.32,22" transform="translate(258.56 88.76)"/><path class="cls-3" d="M-67.85,241.27a24.78,24.78,0,0,0-24.08-19,24.78,24.78,0,0,0-24.08,19" transform="translate(258.56 88.76)"/><path class="cls-3" d="M-73,245.33a19,19,0,0,0-18.9-17.25,19,19,0,0,0-18.9,17.25" transform="translate(258.56 88.76)"/><path class="cls-3" d="M-258,261.45a36.34,36.34,0,0,1,34.8-25.87,36.33,36.33,0,0,1,34.69,25.52" transform="translate(258.56 88.76)"/><path class="cls-3" d="M-252.56,263.32a30.56,30.56,0,0,1,29.32-22,30.56,30.56,0,0,1,29.32,22" transform="translate(258.56 88.76)"/><path class="cls-3" d="M-247.32,266.12a24.78,24.78,0,0,1,24.08-19,24.77,24.77,0,0,1,24.08,19" transform="translate(258.56 88.76)"/><path class="cls-3" d="M-170.53,261.4a36.34,36.34,0,0,1,34.79-25.87A36.35,36.35,0,0,1-101,261.05" transform="translate(258.56 88.76)"/><path class="cls-3" d="M-165,263.27a30.54,30.54,0,0,1,29.31-22,30.56,30.56,0,0,1,29.32,22" transform="translate(258.56 88.76)"/><path class="cls-3" d="M-159.82,266.08a24.77,24.77,0,0,1,24.08-19,24.76,24.76,0,0,1,24.08,19" transform="translate(258.56 88.76)"/><path class="cls-3" d="M-154.63,270.13a19,19,0,0,1,18.89-17.25,19,19,0,0,1,18.9,17.25" transform="translate(258.56 88.76)"/><path class="cls-3" d="M-242.14,270.13a19,19,0,0,1,18.9-17.25,19,19,0,0,1,18.9,17.25" transform="translate(258.56 88.76)"/><path class="cls-3" d="M30.48,236.6a36.34,36.34,0,0,0-34.8-25.87A36.33,36.33,0,0,0-39,236.25" transform="translate(258.56 88.76)"/><path class="cls-3" d="M25,238.47a30.56,30.56,0,0,0-29.32-22,30.56,30.56,0,0,0-29.32,22" transform="translate(258.56 88.76)"/><path class="cls-3" d="M19.76,241.27a24.78,24.78,0,0,0-24.08-19,24.78,24.78,0,0,0-24.08,19" transform="translate(258.56 88.76)"/><path class="cls-3" d="M14.58,245.33a19,19,0,0,0-18.9-17.25,19,19,0,0,0-18.9,17.25" transform="translate(258.56 88.76)"/><path class="cls-3" d="M74.17,261.45a36.33,36.33,0,0,0-69.48-.35" transform="translate(258.56 88.76)"/><path class="cls-3" d="M68.7,263.32a30.55,30.55,0,0,0-58.64,0" transform="translate(258.56 88.76)"/><path class="cls-3" d="M63.46,266.12a24.77,24.77,0,0,0-48.16,0" transform="translate(258.56 88.76)"/><path class="cls-3" d="M-13.33,261.4a36.35,36.35,0,0,0-34.8-25.87,36.33,36.33,0,0,0-34.68,25.52" transform="translate(258.56 88.76)"/><path class="cls-3" d="M-18.81,263.27a30.56,30.56,0,0,0-29.32-22,30.55,30.55,0,0,0-29.31,22" transform="translate(258.56 88.76)"/><path class="cls-3" d="M-24,266.08a24.76,24.76,0,0,0-24.08-19,24.76,24.76,0,0,0-24.07,19" transform="translate(258.56 88.76)"/><path class="cls-3" d="M-29.23,270.13a19,19,0,0,0-18.9-17.25A19,19,0,0,0-67,270.13" transform="translate(258.56 88.76)"/><path class="cls-3" d="M293.09,236.6a36.33,36.33,0,0,0-69.48-.35" transform="translate(258.56 88.76)"/><path class="cls-3" d="M287.62,238.47a30.55,30.55,0,0,0-58.64,0" transform="translate(258.56 88.76)"/><path class="cls-3" d="M282.38,241.27a24.77,24.77,0,0,0-48.16,0" transform="translate(258.56 88.76)"/><path class="cls-3" d="M277.2,245.33a19,19,0,0,0-37.8,0" transform="translate(258.56 88.76)"/><path class="cls-3" d="M135.89,236.6a36.34,36.34,0,0,1,69.49-.35" transform="translate(258.56 88.76)"/><path class="cls-3" d="M141.37,238.47a30.55,30.55,0,0,1,58.63,0" transform="translate(258.56 88.76)"/><path class="cls-3" d="M146.61,241.27a24.77,24.77,0,0,1,48.16,0" transform="translate(258.56 88.76)"/><path class="cls-3" d="M151.79,245.33a19,19,0,0,1,37.8,0" transform="translate(258.56 88.76)"/><path class="cls-3" d="M336.79,261.45a36.33,36.33,0,0,0-69.48-.35" transform="translate(258.56 88.76)"/><path class="cls-3" d="M331.31,263.32a30.55,30.55,0,0,0-58.63,0" transform="translate(258.56 88.76)"/><path class="cls-3" d="M326.08,266.12a24.77,24.77,0,0,0-48.16,0" transform="translate(258.56 88.76)"/><path class="cls-3" d="M249.29,261.4a36.34,36.34,0,0,0-69.49-.35" transform="translate(258.56 88.76)"/><path class="cls-3" d="M243.81,263.27a30.55,30.55,0,0,0-58.63,0" transform="translate(258.56 88.76)"/><path class="cls-3" d="M238.57,266.08a24.77,24.77,0,0,0-48.16,0" transform="translate(258.56 88.76)"/><path class="cls-3" d="M233.39,270.13a19,19,0,0,0-37.8,0" transform="translate(258.56 88.76)"/><path class="cls-3" d="M320.89,270.13a19,19,0,0,0-37.79,0" transform="translate(258.56 88.76)"/><path class="cls-3" d="M48.28,236.6a36.34,36.34,0,0,1,69.49-.35" transform="translate(258.56 88.76)"/><path class="cls-3" d="M53.76,238.47a30.55,30.55,0,0,1,58.63,0" transform="translate(258.56 88.76)"/><path class="cls-3" d="M59,241.27a24.77,24.77,0,0,1,48.16,0" transform="translate(258.56 88.76)"/><path class="cls-3" d="M64.18,245.33a19,19,0,0,1,37.8,0" transform="translate(258.56 88.76)"/><path class="cls-3" d="M92.09,261.4a36.33,36.33,0,0,1,69.48-.35" transform="translate(258.56 88.76)"/><path class="cls-3" d="M97.56,263.27a30.55,30.55,0,0,1,58.64,0" transform="translate(258.56 88.76)"/><path class="cls-3" d="M102.8,266.08a24.77,24.77,0,0,1,48.16,0" transform="translate(258.56 88.76)"/><path class="cls-3" d="M108,270.13a19,19,0,0,1,37.8,0" transform="translate(258.56 88.76)"/><path class="cls-3" d="M58.28,270.13a19,19,0,0,0-37.8,0" transform="translate(258.56 88.76)"/><path class="cls-3" d="M-214.34,286.42a36.35,36.35,0,0,1,34.8-25.87,36.35,36.35,0,0,1,34.69,25.52" transform="translate(258.56 88.76)"/><path class="cls-3" d="M-208.86,288.29a30.56,30.56,0,0,1,29.32-22,30.56,30.56,0,0,1,29.32,22" transform="translate(258.56 88.76)"/><path class="cls-3" d="M-203.62,291.1a24.76,24.76,0,0,1,24.08-19,24.78,24.78,0,0,1,24.08,19" transform="translate(258.56 88.76)"/><path class="cls-3" d="M-198.44,295.15a19,19,0,0,1,18.9-17.25,19,19,0,0,1,18.9,17.25" transform="translate(258.56 88.76)"/><path class="cls-3" d="M-57.13,286.42a36.35,36.35,0,0,0-34.8-25.87,36.35,36.35,0,0,0-34.69,25.52" transform="translate(258.56 88.76)"/><path class="cls-3" d="M-62.61,288.29a30.56,30.56,0,0,0-29.32-22,30.56,30.56,0,0,0-29.32,22" transform="translate(258.56 88.76)"/><path class="cls-3" d="M-67.85,291.1a24.77,24.77,0,0,0-24.08-19,24.77,24.77,0,0,0-24.08,19" transform="translate(258.56 88.76)"/><path class="cls-3" d="M-73,295.15a19,19,0,0,0-18.9-17.25,19,19,0,0,0-18.9,17.25" transform="translate(258.56 88.76)"/><path class="cls-3" d="M-258,311.27a36.35,36.35,0,0,1,34.8-25.87,36.35,36.35,0,0,1,34.69,25.52" transform="translate(258.56 88.76)"/><path class="cls-3" d="M-252.56,313.14a30.56,30.56,0,0,1,29.32-22,30.56,30.56,0,0,1,29.32,22" transform="translate(258.56 88.76)"/><path class="cls-3" d="M-247.32,316a24.77,24.77,0,0,1,24.08-19,24.78,24.78,0,0,1,24.08,19" transform="translate(258.56 88.76)"/><path class="cls-3" d="M-170.53,311.23a36.34,36.34,0,0,1,34.79-25.88A36.34,36.34,0,0,1-101,310.88" transform="translate(258.56 88.76)"/><path class="cls-3" d="M-165,313.09a30.55,30.55,0,0,1,29.31-21.95,30.56,30.56,0,0,1,29.32,21.95" transform="translate(258.56 88.76)"/><path class="cls-3" d="M-159.82,315.9a24.77,24.77,0,0,1,24.08-19,24.76,24.76,0,0,1,24.08,19" transform="translate(258.56 88.76)"/><path class="cls-3" d="M-154.63,320a19,19,0,0,1,18.89-17.25A19,19,0,0,1-116.84,320" transform="translate(258.56 88.76)"/><path class="cls-3" d="M-242.14,320a19,19,0,0,1,18.9-17.25A19,19,0,0,1-204.34,320" transform="translate(258.56 88.76)"/><path class="cls-3" d="M30.48,286.42a36.35,36.35,0,0,0-34.8-25.87A36.35,36.35,0,0,0-39,286.07" transform="translate(258.56 88.76)"/><path class="cls-3" d="M25,288.29a30.56,30.56,0,0,0-29.32-22,30.56,30.56,0,0,0-29.32,22" transform="translate(258.56 88.76)"/><path class="cls-3" d="M19.76,291.1a24.77,24.77,0,0,0-24.08-19,24.77,24.77,0,0,0-24.08,19" transform="translate(258.56 88.76)"/><path class="cls-3" d="M14.58,295.15A19,19,0,0,0-4.32,277.9a19,19,0,0,0-18.9,17.25" transform="translate(258.56 88.76)"/><path class="cls-3" d="M74.17,311.27a36.33,36.33,0,0,0-69.48-.35" transform="translate(258.56 88.76)"/><path class="cls-3" d="M68.7,313.14a30.55,30.55,0,0,0-58.64,0" transform="translate(258.56 88.76)"/><path class="cls-3" d="M63.46,316a24.76,24.76,0,0,0-48.16,0" transform="translate(258.56 88.76)"/><path class="cls-3" d="M-13.33,311.23a36.34,36.34,0,0,0-34.8-25.88,36.33,36.33,0,0,0-34.68,25.53" transform="translate(258.56 88.76)"/><path class="cls-3" d="M-18.81,313.09a30.56,30.56,0,0,0-29.32-21.95,30.56,30.56,0,0,0-29.31,21.95" transform="translate(258.56 88.76)"/><path class="cls-3" d="M-24,315.9a24.76,24.76,0,0,0-24.08-19,24.75,24.75,0,0,0-24.07,19" transform="translate(258.56 88.76)"/><path class="cls-3" d="M-29.23,320a19,19,0,0,0-18.9-17.25A19,19,0,0,0-67,320" transform="translate(258.56 88.76)"/><path class="cls-3" d="M293.09,286.42a36.33,36.33,0,0,0-69.48-.35" transform="translate(258.56 88.76)"/><path class="cls-3" d="M287.62,288.29a30.55,30.55,0,0,0-58.64,0" transform="translate(258.56 88.76)"/><path class="cls-3" d="M282.38,291.1a24.77,24.77,0,0,0-48.16,0" transform="translate(258.56 88.76)"/><path class="cls-3" d="M277.2,295.15a19,19,0,0,0-37.8,0" transform="translate(258.56 88.76)"/><path class="cls-3" d="M135.89,286.42a36.34,36.34,0,0,1,69.49-.35" transform="translate(258.56 88.76)"/><path class="cls-3" d="M141.37,288.29a30.55,30.55,0,0,1,58.63,0" transform="translate(258.56 88.76)"/><path class="cls-3" d="M146.61,291.1a24.77,24.77,0,0,1,48.16,0" transform="translate(258.56 88.76)"/><path class="cls-3" d="M151.79,295.15a19,19,0,0,1,37.8,0" transform="translate(258.56 88.76)"/><path class="cls-3" d="M336.79,311.27a36.33,36.33,0,0,0-69.48-.35" transform="translate(258.56 88.76)"/><path class="cls-3" d="M331.31,313.14a30.55,30.55,0,0,0-58.63,0" transform="translate(258.56 88.76)"/><path class="cls-3" d="M326.08,316a24.76,24.76,0,0,0-48.16,0" transform="translate(258.56 88.76)"/><path class="cls-3" d="M249.29,311.23a36.34,36.34,0,0,0-69.49-.35" transform="translate(258.56 88.76)"/><path class="cls-3" d="M243.81,313.09a30.55,30.55,0,0,0-58.63,0" transform="translate(258.56 88.76)"/><path class="cls-3" d="M238.57,315.9a24.77,24.77,0,0,0-48.16,0" transform="translate(258.56 88.76)"/><path class="cls-3" d="M233.39,320a19,19,0,0,0-37.8,0" transform="translate(258.56 88.76)"/><path class="cls-3" d="M320.89,320a19,19,0,0,0-37.79,0" transform="translate(258.56 88.76)"/><path class="cls-3" d="M48.28,286.42a36.34,36.34,0,0,1,69.49-.35" transform="translate(258.56 88.76)"/><path class="cls-3" d="M53.76,288.29a30.55,30.55,0,0,1,58.63,0" transform="translate(258.56 88.76)"/><path class="cls-3" d="M59,291.1a24.77,24.77,0,0,1,48.16,0" transform="translate(258.56 88.76)"/><path class="cls-3" d="M64.18,295.15a19,19,0,0,1,37.8,0" transform="translate(258.56 88.76)"/><path class="cls-3" d="M92.09,311.23a36.33,36.33,0,0,1,69.48-.35" transform="translate(258.56 88.76)"/><path class="cls-3" d="M97.56,313.09a30.56,30.56,0,0,1,58.64,0" transform="translate(258.56 88.76)"/><path class="cls-3" d="M102.8,315.9a24.77,24.77,0,0,1,48.16,0" transform="translate(258.56 88.76)"/><path class="cls-3" d="M108,320a19,19,0,0,1,37.8,0" transform="translate(258.56 88.76)"/><path class="cls-3" d="M58.28,320a19,19,0,0,0-37.8,0" transform="translate(258.56 88.76)"/></g></g></g></svg>