<svg xmlns="http://www.w3.org/2000/svg" viewBox="0 0 245.24 318.38"><defs><style>.cls-1{fill:#282828;}</style></defs><g id="Layer_2" data-name="Layer 2"><g id="POST_3" data-name="POST 3"><path class="cls-1" d="M219,1h0a.12.12,0,0,0-.06-.09.1.1,0,0,0-.12,0,1.36,1.36,0,0,0-.31.55,3.15,3.15,0,0,0,.21,2.41,6.64,6.64,0,0,0,1.37,2,8.7,8.7,0,0,0,4.07,2.36,5.57,5.57,0,0,0,1.44.17,2.79,2.79,0,0,0,1.57-.49,2,2,0,0,0,.58-.69,2.31,2.31,0,0,0,.21-.88,3.74,3.74,0,0,0-.37-1.66A8.75,8.75,0,0,0,222.78.42h0a5.87,5.87,0,0,0-2-.42,2.81,2.81,0,0,0-1.29.26,1.36,1.36,0,0,0-.63.55.07.07,0,0,0,0,.11c.05,0,.08,0,.12,0a2.43,2.43,0,0,1,1.51-.53,4.93,4.93,0,0,1,1.56.24,8.5,8.5,0,0,1,2.52,1.47,10.59,10.59,0,0,1,1.45,1.43,5.28,5.28,0,0,1,1.17,2.28A1.7,1.7,0,0,1,227.11,7a1.37,1.37,0,0,1-.87.61,3.52,3.52,0,0,1-1.87-.12,10.33,10.33,0,0,1-4.74-3.71,3.57,3.57,0,0,1-.81-2.17A2.82,2.82,0,0,1,219,1S219,1,219,1Z"/><path class="cls-1" d="M226.78,8.15l0,0c.44-.63.5-.81.43-.87s-.64.52-1.3,1.34c-1.72,2.13-5.19,6.56-9.75,12.4C165,85.76,113.9,152.14,63.5,217.62L11.53,285c-.06.07-.09.09-.25.12a1.48,1.48,0,0,1-.58,0,3.85,3.85,0,0,1-1.38-.65,4.37,4.37,0,0,1-1.15-1.16,1.92,1.92,0,0,1-.28-.66c0-.22,0-.29,0-.37C52.68,222.8,105.59,152.7,153.45,88.8l-.18.24c6.52-8.65,56.89-75.55,64.78-86.43.63-.87,1.06-1.55,1-1.63s-.34.15-1.25,1.31c-7.59,9.61-50.88,67.24-56.3,74.38l-49.92,65.84L6.81,281.46a1.68,1.68,0,0,0-.31.79,2.26,2.26,0,0,0,0,.75,3.64,3.64,0,0,0,.53,1.16,5.94,5.94,0,0,0,1.61,1.56,5.21,5.21,0,0,0,1.91.79,2.86,2.86,0,0,0,1.05,0,1.64,1.64,0,0,0,1-.6L64.77,218.6c35.8-46,73.47-94.15,108.85-140.48Q194.85,50.3,216,22.38c4.88-6.37,8.66-11.32,10.36-13.62Z"/><path class="cls-1" d="M211.75,14.91h0c0-.09,0-.12,0-.16s-.14,0-.22.1-.62.73-1.14,1.39c-6.05,7.19-11.68,14.87-17.24,22.44-6.36,8.7-15.22,20.22-22.75,30.5l0,0c-.74,1-6.46,8.59-7.27,9.9-.06.1-.09.2,0,.24s.11,0,.22-.09c1-1,5.85-7.6,6.48-8.4l5.76-7.42c4.06-5.26,14.33-19.09,18.29-24.16,4.07-5.23,8.41-10.67,12.23-16.08q2.29-3.25,4.52-6.56c.54-.74.94-1.32,1.11-1.61A.25.25,0,0,0,211.75,14.91Z"/><path class="cls-1" d="M116,146h0c.08-.13.08-.18,0-.22s-.18.07-.32.23c-.37.43-1.09,1.34-2,2.53-10.78,13.14-21.23,26.85-31.54,40.36-11.81,15.52-28,36.24-42,54.59l0,0c-1.36,1.76-11.9,15.4-13.48,17.67-.13.18-.2.34-.15.38s.13,0,.32-.22c1.66-1.9,10.7-13.67,11.84-15.12l10.51-13.36c7.42-9.48,26.4-34.2,33.61-43.35,7.42-9.43,15.26-19.26,22.44-28.88q4.31-5.76,8.56-11.59c1-1.32,1.76-2.35,2.09-2.83Z"/><path class="cls-1" d="M236.77,52.5h0a.14.14,0,0,0-.05-.09.08.08,0,0,0-.12,0,1.27,1.27,0,0,0-.36.51,3.24,3.24,0,0,0,0,2.43,6.62,6.62,0,0,0,1.19,2.08,8.74,8.74,0,0,0,3.84,2.72,5.77,5.77,0,0,0,1.42.29,2.68,2.68,0,0,0,1.6-.35,1.81,1.81,0,0,0,.65-.64,2.19,2.19,0,0,0,.28-.85A3.69,3.69,0,0,0,245,56.9a8.73,8.73,0,0,0-4.41-4.65h0a6,6,0,0,0-1.91-.59,2.85,2.85,0,0,0-1.32.14,1.4,1.4,0,0,0-.67.49.08.08,0,0,0,0,.12.1.1,0,0,0,.12,0,2.49,2.49,0,0,1,1.55-.4,5.38,5.38,0,0,1,1.54.38,9,9,0,0,1,2.37,1.69,10,10,0,0,1,1.32,1.56,5.22,5.22,0,0,1,1,2.37,1.64,1.64,0,0,1-.27,1.13,1.37,1.37,0,0,1-.91.54,3.49,3.49,0,0,1-1.86-.3,10.37,10.37,0,0,1-4.39-4.11,3.6,3.6,0,0,1-.61-2.23,3,3,0,0,1,.22-.54Z"/><path class="cls-1" d="M243.88,60.31l0,0c.49-.59.57-.76.5-.83s-.68.46-1.41,1.22c-1.9,2-5.76,6.07-10.82,11.48-56.8,59.95-113.56,121.51-169.6,182.23L4.8,316.89c-.06.06-.1.08-.26.1a1.56,1.56,0,0,1-.57-.08,3.83,3.83,0,0,1-1.32-.77,4.33,4.33,0,0,1-1-1.26,2,2,0,0,1-.22-.69.39.39,0,0,1,.07-.36C51.34,258.58,110.28,193.47,163.65,134.1l-.19.22c7.26-8,63.39-70.18,72.23-80.31.69-.81,1.19-1.45,1.1-1.54s-.36.12-1.37,1.2c-8.41,8.89-56.67,62.43-62.7,69.06l-55.6,61.13L.42,312.92a1.71,1.71,0,0,0-.38.76,2.39,2.39,0,0,0,0,.75,3.72,3.72,0,0,0,.43,1.2,5.76,5.76,0,0,0,1.46,1.69,5,5,0,0,0,1.84,1,2.62,2.62,0,0,0,1,.07,1.69,1.69,0,0,0,1-.51l57.94-62.37c39.77-42.62,81.57-87.22,120.94-130.21q23.64-25.83,47.17-51.74c5.43-5.91,9.63-10.51,11.53-12.65Z"/><path class="cls-1" d="M228.31,65.7h0c0-.08,0-.12,0-.16s-.14,0-.23.08-.68.67-1.26,1.28c-6.67,6.62-13,13.78-19.18,20.82-7.1,8.1-17,18.78-25.37,28.35l0,0c-.83.92-7.2,8-8.12,9.22-.07.1-.11.19-.06.24s.11,0,.23-.07c1-.93,6.51-7.05,7.2-7.79l6.41-6.88c4.51-4.88,16-17.73,20.37-22.43s9.32-9.88,13.61-14.93q2.58-3,5.09-6.13c.6-.69,1-1.23,1.24-1.5Z"/><path class="cls-1" d="M121.3,187.76h0c.09-.13.1-.18.06-.22s-.19.05-.35.2c-.4.4-1.2,1.23-2.25,2.34-11.92,12.12-23.54,24.85-35,37.39C70.59,241.87,52.6,261.06,37,278.09l.05,0c-1.52,1.63-13.23,14.28-15,16.4-.14.17-.23.31-.18.36s.12,0,.34-.19c1.83-1.75,11.87-12.66,13.14-14L47,268.24c8.23-8.77,29.34-31.71,37.34-40.18,8.23-8.72,16.92-17.82,24.93-26.76q4.8-5.36,9.55-10.78c1.11-1.22,2-2.18,2.34-2.64Z"/></g></g></svg>