<svg xmlns="http://www.w3.org/2000/svg" viewBox="0 0 134.85 89.16"><defs><style>.cls-1{fill:#282828;}</style></defs><g id="Layer_2" data-name="Layer 2"><g id="POST_3" data-name="POST 3"><path class="cls-1" d="M3.44,53.27A32.38,32.38,0,0,0,7,64.51a40.22,40.22,0,0,0,9.25,11.64,41.77,41.77,0,0,0,12.91,7.74A36.57,36.57,0,0,0,44,86.12,40.51,40.51,0,0,0,58.44,82.6a41.83,41.83,0,0,0,7.35-4.32,37.54,37.54,0,0,0,7.69-7.53,42.18,42.18,0,0,0,8.59-23.46c.49-8.79-2.11-17.79-7-24a28,28,0,0,0-8.32-7.06,32.56,32.56,0,0,0-8.14-3.17,37.6,37.6,0,0,0-13.82-.68,50.79,50.79,0,0,0-13.32,3.69,63.36,63.36,0,0,0-13.23,7.45c-1.39,1.05-2.72,2.17-4,3.3A44.1,44.1,0,0,0,11,30.26a30.67,30.67,0,0,0-3.54,5.07c-.24.43-.27.54-.21.58s.23-.18.43-.48a38,38,0,0,1,4.2-5.57,46.77,46.77,0,0,1,8.55-7.32,62.68,62.68,0,0,1,9.74-5.37,55.87,55.87,0,0,1,6-2.28,45.13,45.13,0,0,1,13.92-2.18,34.55,34.55,0,0,1,14,3,29.66,29.66,0,0,1,6.16,3.77,27.07,27.07,0,0,1,5,5.24A33.36,33.36,0,0,1,80.67,38a41,41,0,0,1-4.34,27A38.05,38.05,0,0,1,58.08,81.78a39.15,39.15,0,0,1-20,3.12,36.44,36.44,0,0,1-9.88-2.62,42.35,42.35,0,0,1-8.87-5.12A40.84,40.84,0,0,1,6.54,61.34,31.26,31.26,0,0,1,4,51.47,26.92,26.92,0,0,1,5.06,41.34a30,30,0,0,1,2-4.83c.15-.32.24-.57.18-.6s-.1,0-.24.23H7l-.12.21a25.35,25.35,0,0,0-2.31,5.25A27.37,27.37,0,0,0,3.44,53.27Z"/><path class="cls-1" d="M31.67,56.63a4,4,0,0,0,1.47-.5,13.14,13.14,0,0,0,2.68-2.06A12.94,12.94,0,0,0,38,51.44a11.11,11.11,0,0,0,1.1-2.38,11.46,11.46,0,0,0,.39-1.81,3,3,0,0,0-.19-1.92,1.6,1.6,0,0,0-.57-.59,2.08,2.08,0,0,0-1.35-.24,3.15,3.15,0,0,0-1.84,1.12c0,.06,0,.09,0,.15a.15.15,0,0,0,.15,0,3.92,3.92,0,0,1,2-.84,1.34,1.34,0,0,1,1,.48,1.19,1.19,0,0,1,.22.63,6,6,0,0,1-.27,1.71,11.19,11.19,0,0,1-.6,1.74,12.09,12.09,0,0,1-2,3.1A14.43,14.43,0,0,1,33.43,55,4.84,4.84,0,0,1,32,55.7c-.46.15-.9,0-1-.13a1.31,1.31,0,0,1,0-.89,6.25,6.25,0,0,1,.37-1.19,23.36,23.36,0,0,1,1.14-2.37c.86-1.56,1.75-3.12,2.65-4.66l.39-.55a.11.11,0,0,0,0-.14c0-.05-.06-.07-.1-.06h0l0,0a2.29,2.29,0,0,0-.57.51,18.17,18.17,0,0,0-2.07,2.32,16.46,16.46,0,0,0-2,3.4,12.3,12.3,0,0,0-.66,1.94A4.61,4.61,0,0,0,29.94,55a1.82,1.82,0,0,0,.37,1.19A1.55,1.55,0,0,0,31.67,56.63Z"/><path class="cls-1" d="M39.11,55.61a1.5,1.5,0,0,0-1.28-.76,2.17,2.17,0,0,0-1.5.5,3.59,3.59,0,0,0-1,1.27c0,.05,0,.08.05.11a.09.09,0,0,0,.11,0,6.56,6.56,0,0,1,1.25-1.21,1.72,1.72,0,0,1,.93-.28,1.2,1.2,0,0,1,.53.1c.71.34.77,1.38.58,2.24a10.05,10.05,0,0,1-1,2.62,8.25,8.25,0,0,1-1.58,2.18,3,3,0,0,1-2,1l-.42,0-.39-.14a.79.79,0,0,1-.37-.52,3.52,3.52,0,0,1,.33-1.72c.49-1.22,1.19-2.4,1.8-3.64a4.61,4.61,0,0,0,.26-.46.09.09,0,0,0,0-.1s-.06,0-.09,0h0a3.44,3.44,0,0,0-.37.43A16.6,16.6,0,0,0,33.39,59a7.07,7.07,0,0,0-1.24,2.83,2.05,2.05,0,0,0,.43,1.74,2.31,2.31,0,0,0,1.65.51,3.63,3.63,0,0,0,1.9-.8,8,8,0,0,0,1.7-1.94,9.56,9.56,0,0,0,1.6-4.26A2.66,2.66,0,0,0,39.11,55.61Z"/><path class="cls-1" d="M46.28,57.15s0,.07,0,.12.06.06.1,0A3.29,3.29,0,0,1,48,57a.91.91,0,0,1,.63.59,1.32,1.32,0,0,1,.06.54,4.2,4.2,0,0,1-1.57,2.13,11.89,11.89,0,0,1-2.35,1.63,16,16,0,0,1-2.57,1,5.81,5.81,0,0,1-1.22.26,1.4,1.4,0,0,1-.51,0c-.12-.05-.13-.07-.17-.16a.9.9,0,0,1,.19-.64,5.73,5.73,0,0,1,.6-.74,17.89,17.89,0,0,1,1.51-1.35c1.06-.87,2.15-1.72,3.22-2.62l.42-.32a.08.08,0,0,0,0-.11s0-.06-.07-.06h0a2.23,2.23,0,0,0-.53.25,17.69,17.69,0,0,0-2.12,1.09,13.22,13.22,0,0,0-2.41,1.85,7.94,7.94,0,0,0-1,1.2,3.19,3.19,0,0,0-.4.73,1.31,1.31,0,0,0,0,1,1,1,0,0,0,.39.45,1.37,1.37,0,0,0,.58.14,4.18,4.18,0,0,0,1.15-.15,17,17,0,0,0,2.43-.87A11.61,11.61,0,0,0,48,60.29a6,6,0,0,0,.88-1.16,2,2,0,0,0,.22-1.47,1.73,1.73,0,0,0-.27-.57,1.33,1.33,0,0,0-1-.47A2.57,2.57,0,0,0,46.28,57.15Z"/><path class="cls-1" d="M46.6,50.86a2,2,0,0,0-1.39.47s0,.05,0,.1a.07.07,0,0,0,.09,0,2.53,2.53,0,0,1,1.43-.24.93.93,0,0,1,.53,1,5.7,5.7,0,0,1-1.29,2,13.83,13.83,0,0,1-1.8,1.79,11.07,11.07,0,0,1-2,1.37,2,2,0,0,1-1,.17c-.3-.06-.44-.18-.47-.43a2.24,2.24,0,0,1,.43-1.45c.34-.47.72-1,1.11-1.4a25.49,25.49,0,0,1,2.56-2.53,4.11,4.11,0,0,0,.37-.28.09.09,0,0,0,0-.1s0,0-.07,0h0a2.15,2.15,0,0,0-.46.22,9,9,0,0,0-3.68,3,3.38,3.38,0,0,0-.87,2.69,1.09,1.09,0,0,0,.61.74,1.85,1.85,0,0,0,1.09.07,5.83,5.83,0,0,0,2-1.12,13.36,13.36,0,0,0,2.86-2.83,11.16,11.16,0,0,0,.66-1.06,1.91,1.91,0,0,0,.24-1.28,1.3,1.3,0,0,0-.2-.51A1.1,1.1,0,0,0,46.6,50.86Z"/><path class="cls-1" d="M47.4,45.62a1.63,1.63,0,0,0-1.49-.22s0,.05,0,.1,0,.07.07.07.33,0,.6,0a1,1,0,0,1,.73.39.77.77,0,0,1-.07.76,3.16,3.16,0,0,1-.32.44A20.24,20.24,0,0,1,43,50.6a3.72,3.72,0,0,1-2.19.83,1,1,0,0,1-.8-.33.91.91,0,0,1,0-.79,5.71,5.71,0,0,1,1-1.46,10.15,10.15,0,0,1,1.28-1.26,11.7,11.7,0,0,1,3.13-1.85c.21-.07.37-.11.45-.15a.08.08,0,0,0,0-.09s0-.07,0-.08h0a1.92,1.92,0,0,0-.52,0,6.8,6.8,0,0,0-2.12.57,7.52,7.52,0,0,0-3.78,4.06,1.94,1.94,0,0,0-.07.9,1.2,1.2,0,0,0,.8.88,3.12,3.12,0,0,0,2.41-.36A16.32,16.32,0,0,0,45.81,49a13.54,13.54,0,0,0,1.63-2,1.91,1.91,0,0,0,.22-.5A1,1,0,0,0,47.4,45.62Z"/><path class="cls-1" d="M41.16,41.42a4.47,4.47,0,0,0-.42,1.49A3.36,3.36,0,0,0,41,44.45a1.77,1.77,0,0,0,.56.77,1.43,1.43,0,0,0,1.21.18A5.8,5.8,0,0,0,44.88,44a15.69,15.69,0,0,0,2.74-3.35A3.09,3.09,0,0,0,48,38a1.85,1.85,0,0,0-1.11-1,1.49,1.49,0,0,0-1,.14,2,2,0,0,0-.5.35s0,.07,0,.11.06,0,.09,0c.19-.05.9-.54,1.48-.22a1.59,1.59,0,0,1,.78,1.17,3.85,3.85,0,0,1-.9,2.33A19.7,19.7,0,0,1,45.11,43a8.39,8.39,0,0,1-2,1.64,1.46,1.46,0,0,1-1,.2.89.89,0,0,1-.52-.63,3.71,3.71,0,0,1,.86-3.3A22.18,22.18,0,0,1,45,38a4.41,4.41,0,0,0,.38-.33.09.09,0,0,0,0-.11s0-.05-.07-.05h0a2.11,2.11,0,0,0-.48.27A10.43,10.43,0,0,0,43,39.09,6.92,6.92,0,0,0,41.16,41.42Z"/><path class="cls-1" d="M50.07,46.36a1.57,1.57,0,0,0,1.45.54,2.8,2.8,0,0,0,1.53-1,6.35,6.35,0,0,0,1.2-2,6.18,6.18,0,0,0,.19-4,2.45,2.45,0,0,0-1.69-1.83,1.18,1.18,0,0,0-.54,0,1.59,1.59,0,0,0-.81.42,2.57,2.57,0,0,0-.71,1.25s0,.06.06.08a.08.08,0,0,0,.1,0,3.72,3.72,0,0,1,.92-1.19,1.15,1.15,0,0,1,1.25,0h0a2.78,2.78,0,0,1,1.06,2A6,6,0,0,1,54,43a5.81,5.81,0,0,1-1,2.13,2.66,2.66,0,0,1-1.56,1.16,1,1,0,0,1-1-.74,4.58,4.58,0,0,1-.17-1.64,31.34,31.34,0,0,1,.43-3.54c0-.21.09-.37.1-.45a.08.08,0,0,0-.06-.08.06.06,0,0,0-.08,0h0v0a1.62,1.62,0,0,0-.22.46,11.25,11.25,0,0,0-.73,2,7,7,0,0,0-.2,2.71A2.83,2.83,0,0,0,50.07,46.36Z"/><path class="cls-1" d="M49.45,56a2,2,0,0,0,1.91,0,7.44,7.44,0,0,0,1.88-1.39A8.07,8.07,0,0,0,55.34,51a4.56,4.56,0,0,0,.19-1.28,2,2,0,0,0-.43-1.26,1.53,1.53,0,0,0-.42-.36,1.33,1.33,0,0,0-.92-.13,2.37,2.37,0,0,0-1.28.74s0,.06,0,.1a.08.08,0,0,0,.1,0A3.13,3.13,0,0,1,54,48.29,1.09,1.09,0,0,1,55,49h0a3.76,3.76,0,0,1-.33,2.33,8.22,8.22,0,0,1-1.28,2.18,7.63,7.63,0,0,1-1.8,1.62,1.71,1.71,0,0,1-1.8.27c-.3-.2-.26-.79-.1-1.33a9.65,9.65,0,0,1,.7-1.63c.56-1.07,1.18-2.14,1.83-3.18l.28-.36a.1.1,0,0,0,0-.1s0,0-.07,0h0a1.45,1.45,0,0,0-.4.34,10.87,10.87,0,0,0-1.46,1.57,9.38,9.38,0,0,0-1.34,2.38,5.31,5.31,0,0,0-.34,1.4,2.36,2.36,0,0,0,.07.78A1.19,1.19,0,0,0,49.45,56Z"/><path class="cls-1" d="M67.27,35.91h0a9.66,9.66,0,0,1,3.21,1.36,10.6,10.6,0,0,0,2.14,1.49.54.54,0,0,0,.16.09.15.15,0,0,0,.08-.05l.06-.06h0a.3.3,0,0,0-.09-.18,3.1,3.1,0,0,0-.36-.73,3.59,3.59,0,0,0-1.63-1.14c-.29-.13-.79-.41-1.33-.64a7.65,7.65,0,0,0-1.41-.47c-.31,0-.61-.06-.92-.07-.09,0-.88-.14-1,0s0,0,0,.1a.11.11,0,0,0,0,.09A7.11,7.11,0,0,0,67.27,35.91Z"/><path class="cls-1" d="M66.6,49.56c.73.9,1.75,1.76,2.36,2.53a5,5,0,0,0,2,1.66.28.28,0,0,0,.15.08.11.11,0,0,0,.07,0s0,0,0-.06h0a.36.36,0,0,0-.08-.17,6.16,6.16,0,0,0-.34-.68,5.19,5.19,0,0,0-1.35-1.25c-.48-.35-1.53-1.51-2-1.89l-.68-.53c-.07-.06-.58-.61-.75-.62l-.07,0s-.05.06-.05.08a4.38,4.38,0,0,0,.72.86Z"/><path class="cls-1" d="M57.32,68.94c0,.06-.44.47-.44.6s0,0,0,0,0,0,.06,0a3.6,3.6,0,0,0,.64-.58h0c.67-.6,1.28-1.41,1.85-1.91a3.76,3.76,0,0,0,1.2-1.57.66.66,0,0,0,.06-.12s0,0,0,0l0,0h0a.42.42,0,0,0-.13.07c-.18.09-.35.19-.51.29a4.08,4.08,0,0,0-.9,1.08c-.25.38-1.1,1.23-1.38,1.6Z"/><path class="cls-1" d="M42.18,77a3.36,3.36,0,0,0-.88-.8C41,76,40.3,75.26,40,75l-.44-.34s-.38-.39-.49-.39l-.05,0a.09.09,0,0,0,0,.05,2.83,2.83,0,0,0,.47.55h0c.48.58,1.15,1.13,1.55,1.62a3.26,3.26,0,0,0,1.28,1.07l.1,0,0,0a.09.09,0,0,0,0,0h0a.21.21,0,0,0-.05-.11A3,3,0,0,0,42.18,77Z"/><path class="cls-1" d="M21.35,70.59a3.19,3.19,0,0,0,.72-.43h0c.74-.43,1.48-1.08,2.11-1.44a3.76,3.76,0,0,0,1.44-1.25.48.48,0,0,0,.08-.1s0,0,0-.06l0,0h0a.3.3,0,0,0-.13,0,4.27,4.27,0,0,0-.54.18,3.58,3.58,0,0,0-1.06.84c-.31.31-1.28,1-1.62,1.25l-.46.44s-.51.35-.53.47,0,0,0,.06S21.34,70.59,21.35,70.59Z"/><path class="cls-1" d="M16.94,53.8a6.42,6.42,0,0,1-.66.13c-.07,0-.65,0-.76,0a.1.1,0,0,0,0,.07s0,.06,0,.07a2.37,2.37,0,0,0,.91.11h0a7.49,7.49,0,0,0,2.79-.53,2.77,2.77,0,0,0,1.71-1.23.26.26,0,0,0,.07-.12s0,0,0-.06,0,0-.05,0h0s-.08,0-.13,0l-.57.19a7.39,7.39,0,0,0-1.2.73A7.12,7.12,0,0,1,16.94,53.8Z"/><path class="cls-1" d="M16,36h0c.62.56,1.44,1,2,1.53a3.63,3.63,0,0,0,1.59,1,.24.24,0,0,0,.12,0l.05,0a.17.17,0,0,0,0-.05h0s0-.07-.08-.11a2.83,2.83,0,0,0-.32-.45,3.58,3.58,0,0,0-1.1-.73c-.37-.2-1.25-.91-1.63-1.13l-.54-.3c-.06,0-.48-.37-.6-.36s0,0-.05,0l0,.06A3.36,3.36,0,0,0,16,36Z"/><path class="cls-1" d="M31.71,37.52a4.35,4.35,0,0,0,.88-.75h0c.91-.77,1.77-1.84,2.55-2.49a5.14,5.14,0,0,0,1.68-2.06.31.31,0,0,0,.08-.15s0,0,0-.08l-.07,0h0a.4.4,0,0,0-.17.09,5.16,5.16,0,0,0-.7.37,5.28,5.28,0,0,0-1.25,1.41c-.36.5-1.53,1.61-1.92,2.1l-.53.71c-.06.08-.61.6-.62.78,0,0,0,0,.05.08Z"/><path class="cls-1" d="M37.57,21.47a6.46,6.46,0,0,0,.87-.23,6.76,6.76,0,0,1,2.71-.08,10.22,10.22,0,0,0,2,.45l.14,0,0-.06,0-.06h0a.28.28,0,0,0-.11-.11,2.73,2.73,0,0,0-.47-.43,2.82,2.82,0,0,0-1.53-.34c-.25,0-.7,0-1.15,0a4.68,4.68,0,0,0-1.16.14,4.9,4.9,0,0,0-.67.26c-.08,0-.67.21-.73.34a.15.15,0,0,0,0,.08A.19.19,0,0,0,37.57,21.47Z"/><path class="cls-1" d="M54.64,27.57a2.78,2.78,0,0,0,.87-.46h0a8.25,8.25,0,0,0,2.13-2.17,3,3,0,0,0,.76-2.14.58.58,0,0,0,0-.15s0,0-.06,0h-.08a.36.36,0,0,0-.09.13,5.61,5.61,0,0,0-.38.51,7.55,7.55,0,0,0-.62,1.39,4.74,4.74,0,0,1-.64.94c-.3.34-.63.65-.8.83a6.26,6.26,0,0,1-.51.52c-.05.06-.59.37-.64.51s0,0,0,.07S54.63,27.57,54.64,27.57Z"/><path class="cls-1" d="M96,48s0,.07,0,.12a.09.09,0,0,0,.1,0,3.36,3.36,0,0,1,1.66-.29.91.91,0,0,1,.63.59,1.54,1.54,0,0,1,.06.54c-.11.81-.89,1.49-1.57,2.13a12.5,12.5,0,0,1-2.35,1.63A16.35,16.35,0,0,1,92,53.77a5.76,5.76,0,0,1-1.23.26,1.41,1.41,0,0,1-.51,0c-.12,0-.13-.07-.17-.17a.91.91,0,0,1,.2-.63,5,5,0,0,1,.6-.74,19.44,19.44,0,0,1,1.5-1.35c1.06-.87,2.16-1.73,3.22-2.62l.43-.32a.09.09,0,0,0,0-.11S96,48,96,48h0a2.32,2.32,0,0,0-.53.24,17.7,17.7,0,0,0-2.12,1.1,13.28,13.28,0,0,0-2.42,1.85,8,8,0,0,0-1,1.2,3.19,3.19,0,0,0-.4.73,1.32,1.32,0,0,0,0,1,.91.91,0,0,0,.39.45,1.5,1.5,0,0,0,.58.14,4.23,4.23,0,0,0,1.15-.15A17.4,17.4,0,0,0,94,53.68a11.73,11.73,0,0,0,3.78-2.59,6.39,6.39,0,0,0,.87-1.16,2,2,0,0,0,.22-1.48,1.42,1.42,0,0,0-.27-.56,1.31,1.31,0,0,0-1-.47A2.6,2.6,0,0,0,96,48Z"/><path class="cls-1" d="M90.49,48.87a1.92,1.92,0,0,0,1.09.07,5.92,5.92,0,0,0,2-1.12A13.28,13.28,0,0,0,96.47,45a9.51,9.51,0,0,0,.67-1.06,2,2,0,0,0,.24-1.28,1.6,1.6,0,0,0-.2-.52,1.11,1.11,0,0,0-.82-.47,2,2,0,0,0-1.38.47s0,0,0,.1.06.05.09,0A2.5,2.5,0,0,1,96.5,42c.59.18.56.93.53,1a5.85,5.85,0,0,1-1.29,2,14.49,14.49,0,0,1-1.8,1.79,10.57,10.57,0,0,1-2,1.36,1.9,1.9,0,0,1-1,.18c-.29-.06-.43-.18-.47-.43a2.25,2.25,0,0,1,.44-1.45c.33-.47.72-.95,1.11-1.4a24.48,24.48,0,0,1,2.56-2.53c.17-.13.31-.23.37-.29a.06.06,0,0,0,0-.09s0-.06-.06-.06h0a2.16,2.16,0,0,0-.47.22,9,9,0,0,0-3.68,3,3.38,3.38,0,0,0-.86,2.69A1.06,1.06,0,0,0,90.49,48.87Z"/><path class="cls-1" d="M89.87,42.68a3.14,3.14,0,0,0,2.42-.36,16.29,16.29,0,0,0,3.28-2.49,14.28,14.28,0,0,0,1.64-2,1.91,1.91,0,0,0,.22-.5,1,1,0,0,0-.26-.94,1.64,1.64,0,0,0-1.49-.22c-.05,0-.05,0-.05.09s0,.08.07.08.33,0,.61,0a1,1,0,0,1,.72.39.75.75,0,0,1-.07.76,2.61,2.61,0,0,1-.31.44,20.3,20.3,0,0,1-3.92,3.4,3.76,3.76,0,0,1-2.19.83,1,1,0,0,1-.8-.33,1,1,0,0,1,0-.79,6,6,0,0,1,1-1.46A10.23,10.23,0,0,1,92,38.39a11.65,11.65,0,0,1,3.12-1.85,3.73,3.73,0,0,0,.45-.15.09.09,0,0,0,0-.1.07.07,0,0,0,0-.07h0a2,2,0,0,0-.53.05,7,7,0,0,0-2.12.57,7,7,0,0,0-2.26,1.66,7.29,7.29,0,0,0-1.51,2.4,1.94,1.94,0,0,0-.07.9A1.19,1.19,0,0,0,89.87,42.68Z"/><path class="cls-1" d="M90.93,32.22a4.47,4.47,0,0,0-.42,1.49,3.36,3.36,0,0,0,.25,1.54,2,2,0,0,0,.57.77,1.42,1.42,0,0,0,1.21.18,5.68,5.68,0,0,0,2.1-1.36,16.1,16.1,0,0,0,2.75-3.35,3.09,3.09,0,0,0,.37-2.68,1.76,1.76,0,0,0-1.11-1,1.5,1.5,0,0,0-1,.14,1.66,1.66,0,0,0-.49.35.08.08,0,0,0,0,.11.09.09,0,0,0,.1,0c.19,0,.89-.54,1.48-.22a1.57,1.57,0,0,1,.77,1.17,3.84,3.84,0,0,1-.89,2.33,19.79,19.79,0,0,1-1.75,2.11,8.55,8.55,0,0,1-2,1.64,1.48,1.48,0,0,1-1,.2.9.9,0,0,1-.53-.63,3.73,3.73,0,0,1,.86-3.3,23,23,0,0,1,2.54-2.9,2.9,2.9,0,0,0,.37-.33.09.09,0,0,0,0-.11s0-.05-.07-.05h0a2.34,2.34,0,0,0-.49.27,10.35,10.35,0,0,0-1.86,1.3A6.92,6.92,0,0,0,90.93,32.22Z"/><path class="cls-1" d="M99.84,37.16a1.55,1.55,0,0,0,1.45.54,2.84,2.84,0,0,0,1.53-1,6.55,6.55,0,0,0,1.2-1.95,6.25,6.25,0,0,0,.19-4,2.48,2.48,0,0,0-1.69-1.84,1.42,1.42,0,0,0-.54,0,1.57,1.57,0,0,0-.81.41,2.55,2.55,0,0,0-.71,1.26s0,.06.06.08a.07.07,0,0,0,.09,0,4,4,0,0,1,.93-1.19,1.15,1.15,0,0,1,1.24-.05,2.77,2.77,0,0,1,1,2,5.85,5.85,0,0,1-.08,2.43,6,6,0,0,1-1,2.13,2.71,2.71,0,0,1-1.56,1.16.94.94,0,0,1-1-.74A4.81,4.81,0,0,1,100,34.7a34.33,34.33,0,0,1,.43-3.55c0-.2.1-.36.11-.44a.09.09,0,0,0-.06-.08s-.06,0-.08,0h0l0,0a2.07,2.07,0,0,0-.21.46,10.24,10.24,0,0,0-.73,2,7,7,0,0,0-.2,2.71A2.74,2.74,0,0,0,99.84,37.16Z"/><path class="cls-1" d="M99.21,46.74a2,2,0,0,0,1.92,0A7.44,7.44,0,0,0,103,45.32a8.14,8.14,0,0,0,2.1-3.52,5.26,5.26,0,0,0,.19-1.27,2,2,0,0,0-.43-1.26,1.72,1.72,0,0,0-.42-.36,1.37,1.37,0,0,0-.93-.13,2.37,2.37,0,0,0-1.28.74s0,.06,0,.1a.07.07,0,0,0,.09,0,3.24,3.24,0,0,1,1.42-.56,1.09,1.09,0,0,1,1,.73h0a3.62,3.62,0,0,1-.33,2.33,7.93,7.93,0,0,1-1.27,2.18,7.41,7.41,0,0,1-1.81,1.61c-.63.43-1.39.59-1.79.27s-.27-.78-.1-1.32a9.59,9.59,0,0,1,.69-1.63c.56-1.08,1.18-2.14,1.83-3.18l.28-.36a.08.08,0,0,0,0-.1s-.05,0-.07,0h0a1.81,1.81,0,0,0-.4.34,10.8,10.8,0,0,0-1.45,1.57A8.93,8.93,0,0,0,99,43.88a5,5,0,0,0-.34,1.4,2.12,2.12,0,0,0,.07.78A1.13,1.13,0,0,0,99.21,46.74Z"/><path class="cls-1" d="M117,26.71h0a9.75,9.75,0,0,1,3.21,1.36,10.07,10.07,0,0,0,2.14,1.49.52.52,0,0,0,.15.09.14.14,0,0,0,.09,0s.05-.05.05-.06h0v0a.36.36,0,0,0-.08-.17,3,3,0,0,0-.37-.73,3.56,3.56,0,0,0-1.62-1.14c-.3-.13-.8-.42-1.33-.64a7.22,7.22,0,0,0-1.42-.47l-.91-.08c-.1,0-.88-.13-1,0s0,0,0,.1a.14.14,0,0,0,0,.09A8.44,8.44,0,0,0,117,26.71Z"/><path class="cls-1" d="M116.36,40.36c.73.9,1.75,1.75,2.37,2.52a5,5,0,0,0,2,1.67.36.36,0,0,0,.15.08s0,0,.08-.05l0-.06h0a.4.4,0,0,0-.09-.17,3.93,3.93,0,0,0-.34-.68,5,5,0,0,0-1.35-1.25c-.47-.35-1.53-1.51-2-1.9l-.68-.52c-.08-.06-.58-.61-.75-.62,0,0,0,0-.08.05s0,.06,0,.08.63.78.71.86Z"/><path class="cls-1" d="M107.09,59.74c0,.06-.44.47-.44.6s0,0,0,0,0,0,.06,0a3.53,3.53,0,0,0,.63-.58h0c.66-.6,1.28-1.41,1.84-1.91a3.85,3.85,0,0,0,1.21-1.57.28.28,0,0,0,0-.12s0,0,0,0l0,0h0a.4.4,0,0,0-.12.07,4.88,4.88,0,0,0-.51.29,3.74,3.74,0,0,0-.9,1.08c-.26.38-1.1,1.23-1.38,1.6Z"/><path class="cls-1" d="M89.22,65.72h0c.48.58,1.14,1.13,1.55,1.62a3.26,3.26,0,0,0,1.28,1.07l.1,0,0,0a.05.05,0,0,0,0,0h0a.17.17,0,0,0-.06-.11,3,3,0,0,0-.22-.44,3.41,3.41,0,0,0-.89-.8c-.3-.22-1-1-1.3-1.21l-.45-.34s-.37-.39-.48-.39,0,0,0,0a.09.09,0,0,0,0,0A2.83,2.83,0,0,0,89.22,65.72Z"/><path class="cls-1" d="M90.91,12a9.68,9.68,0,0,0,2,.44.26.26,0,0,0,.14,0s0,0,0-.05l0-.06h0a.28.28,0,0,0-.11-.11,2.79,2.79,0,0,0-.48-.43A2.77,2.77,0,0,0,91,11.42c-.25,0-.7-.05-1.16,0a4.75,4.75,0,0,0-1.16.14,5.46,5.46,0,0,0-.67.26c-.07,0-.67.21-.72.34s0,0,0,.08,0,0,0,0a5.53,5.53,0,0,0,.87-.22h0A6.71,6.71,0,0,1,90.91,12Z"/><path class="cls-1" d="M104.41,18.37a2.78,2.78,0,0,0,.87-.46h0a8.3,8.3,0,0,0,2.14-2.17,3,3,0,0,0,.75-2.15.32.32,0,0,0,0-.14.14.14,0,0,0-.07,0H108a.36.36,0,0,0-.09.13,5.61,5.61,0,0,0-.38.51,8.28,8.28,0,0,0-.62,1.39,4.74,4.74,0,0,1-.64.94c-.29.34-.62.65-.8.83a6.14,6.14,0,0,1-.5.52c0,.06-.6.37-.65.51a.26.26,0,0,0,0,.07S104.4,18.37,104.41,18.37Z"/><path class="cls-1" d="M127.18,12.13a30.12,30.12,0,0,0-9-7.61,35.58,35.58,0,0,0-8.78-3.42A40.62,40.62,0,0,0,94.53.37a54.39,54.39,0,0,0-14.38,4,68.11,68.11,0,0,0-14.26,8l0,0a35.59,35.59,0,0,0-6.17-2.11,40.46,40.46,0,0,0-14.91-.74,54.7,54.7,0,0,0-14.37,4,67.83,67.83,0,0,0-14.27,8,55,55,0,0,0-4.26,3.56,48.91,48.91,0,0,0-3.5,3.68A33,33,0,0,0,4.54,34.3c-.26.47-.29.59-.22.62s.24-.19.45-.51a41.3,41.3,0,0,1,4.54-6,50.36,50.36,0,0,1,9.22-7.9A69.35,69.35,0,0,1,29,14.71a60.24,60.24,0,0,1,6.46-2.46,48.78,48.78,0,0,1,15-2.35,37.54,37.54,0,0,1,15.08,3.27,32.4,32.4,0,0,1,6.65,4.07,29.5,29.5,0,0,1,5.34,5.65,36.11,36.11,0,0,1,6,14.24,44.24,44.24,0,0,1-4.69,29.14A41.08,41.08,0,0,1,59.15,84.4a42.32,42.32,0,0,1-21.59,3.37,39.47,39.47,0,0,1-10.65-2.83,46,46,0,0,1-9.57-5.52A44.17,44.17,0,0,1,3.56,62.36,34,34,0,0,1,.81,51.71,29.1,29.1,0,0,1,2,40.78a32.22,32.22,0,0,1,2.16-5.21c.16-.34.26-.61.2-.65s-.12,0-.26.25h0l-.14.23a28.26,28.26,0,0,0-2.49,5.67A29.69,29.69,0,0,0,.21,53.65a31.66,31.66,0,0,0,1.37,6.23A34.9,34.9,0,0,0,4,65.77,43.31,43.31,0,0,0,14,78.32,44.9,44.9,0,0,0,28,86.68a39.62,39.62,0,0,0,16,2.41,43.92,43.92,0,0,0,15.55-3.81,44.78,44.78,0,0,0,7.93-4.65,41.33,41.33,0,0,0,5.75-5.13,42.93,42.93,0,0,0,4.5,2,39.57,39.57,0,0,0,16,2.41,43.87,43.87,0,0,0,15.54-3.81,44.43,44.43,0,0,0,7.93-4.65,40.83,40.83,0,0,0,8.29-8.12A45.5,45.5,0,0,0,134.78,38C135.32,28.52,132.51,18.81,127.18,12.13ZM84,54.86h0a3.57,3.57,0,0,0,1.89-.8,7.71,7.71,0,0,0,1.71-2,9.45,9.45,0,0,0,1.59-4.25,2.74,2.74,0,0,0-.31-1.45,1.53,1.53,0,0,0-1.28-.77,2.22,2.22,0,0,0-1.51.51,3.53,3.53,0,0,0-1,1.27s0,.08,0,.11a.09.09,0,0,0,.11,0,7.6,7.6,0,0,1,1.25-1.22,1.85,1.85,0,0,1,.93-.27,1.16,1.16,0,0,1,.53.1c.72.34.78,1.38.59,2.24a10.42,10.42,0,0,1-1,2.62A8.48,8.48,0,0,1,86,53.18a3.16,3.16,0,0,1-1.84,1h0A45.15,45.15,0,0,0,85,47.77c0,.09,0,.18,0,.26a2.51,2.51,0,0,0,.22-.4.08.08,0,0,0,0-.1s-.06,0-.09,0h0l0,0,0-.36a42.3,42.3,0,0,0-.53-9.28s0,0,0,.07l.42-.74.39-.54a.11.11,0,0,0,0-.14s-.07-.07-.1-.06h0l0,0a2.7,2.7,0,0,0-.57.51l-.2.21a40.15,40.15,0,0,0-2.78-9,5.64,5.64,0,0,0,.76-.69h0c.92-.77,1.78-1.84,2.56-2.49A5.23,5.23,0,0,0,86.59,23a.76.76,0,0,0,.08-.15s0,0-.06-.08a.13.13,0,0,0-.06-.05h0c-.05,0-.1,0-.17.09a4.24,4.24,0,0,0-.7.37,5.32,5.32,0,0,0-1.26,1.41c-.35.5-1.53,1.61-1.91,2.1l-.53.71s-.34.34-.51.56a32.14,32.14,0,0,0-4-6.65,29.84,29.84,0,0,0-8.32-7.22c.36-.26.71-.53,1.08-.78A63.88,63.88,0,0,1,79.92,8a57.59,57.59,0,0,1,6-2.28A45.24,45.24,0,0,1,99.83,3.51a34.58,34.58,0,0,1,14,3A29.93,29.93,0,0,1,120,10.31a27,27,0,0,1,5,5.24,33.23,33.23,0,0,1,5.52,13.2,41,41,0,0,1-4.35,27,38.05,38.05,0,0,1-18.25,16.81,39.23,39.23,0,0,1-20,3.12A36.47,36.47,0,0,1,78,73.08c-.66-.28-1.31-.58-2-.9a1.47,1.47,0,0,1-.1.13A45,45,0,0,0,84,54.86Zm44.64,2.21A41.16,41.16,0,0,1,108.91,75.2a42.27,42.27,0,0,1-21.58,3.37,39.47,39.47,0,0,1-10.65-2.83c-.88-.36-1.74-.77-2.59-1.19.4-.46.79-.94,1.18-1.43a37.14,37.14,0,0,0,18.52,3.8,40.37,40.37,0,0,0,14.42-3.53,41.1,41.1,0,0,0,7.35-4.31,37.76,37.76,0,0,0,7.68-7.53,42.18,42.18,0,0,0,8.59-23.46c.5-8.79-2.11-17.79-7.05-24a27.9,27.9,0,0,0-8.32-7.06,32.51,32.51,0,0,0-8.13-3.17A37.4,37.4,0,0,0,94.51,3.2,50.87,50.87,0,0,0,81.18,6.89a64.14,64.14,0,0,0-12.54,7l.38.22-.58-.34c-.69-.38-1.38-.73-2.06-1.05.63-.46,1.26-.93,1.91-1.37A68.94,68.94,0,0,1,78.8,5.51a59.53,59.53,0,0,1,6.45-2.46,48.79,48.79,0,0,1,15-2.35A37.54,37.54,0,0,1,115.35,4,32.46,32.46,0,0,1,122,8a29,29,0,0,1,5.34,5.66,35.82,35.82,0,0,1,6,14.24A44.24,44.24,0,0,1,128.6,57.07Z"/><path class="cls-1" d="M85.42,36.6a4.1,4.1,0,0,1,2-.83,1.35,1.35,0,0,1,1,.48,1.38,1.38,0,0,1,.22.62,6.81,6.81,0,0,1-.27,1.72,13.76,13.76,0,0,1-.6,1.74,12.09,12.09,0,0,1-2,3.1c-.25.28-.53.53-.79.79,0,.37,0,.74,0,1.11.17-.15.34-.3.5-.46a13,13,0,0,0,2.14-2.63,11,11,0,0,0,1.09-2.38,11.46,11.46,0,0,0,.39-1.81A3.06,3.06,0,0,0,89,36.13a1.57,1.57,0,0,0-.58-.59,2.06,2.06,0,0,0-1.35-.24,3.12,3.12,0,0,0-1.83,1.12c0,.06,0,.09,0,.15A.11.11,0,0,0,85.42,36.6Z"/></g></g></svg>