<svg xmlns="http://www.w3.org/2000/svg" viewBox="0 0 368.15 236.31"><defs><style>.cls-1{fill:#fff;}.cls-1,.cls-2,.cls-6{stroke:#1d1d1b;}.cls-1,.cls-2,.cls-3,.cls-4,.cls-5,.cls-6,.cls-7{stroke-miterlimit:10;}.cls-1,.cls-6{stroke-width:4px;}.cls-2,.cls-3,.cls-4{fill:#e97171;}.cls-2{stroke-width:0.75px;}.cls-3,.cls-4,.cls-5,.cls-7{stroke:#fff;}.cls-3{stroke-width:2.04px;}.cls-4,.cls-5{stroke-width:2px;}.cls-5,.cls-6{fill:none;}.cls-7{fill:#1d1d1b;}</style></defs><g id="Layer_2" data-name="Layer 2"><g id="Layer_1-2" data-name="Layer 1"><rect class="cls-1" x="120.29" y="106.75" width="127.57" height="127.57" rx="48.65"/><rect class="cls-2" x="147.08" y="135.16" width="73.99" height="73.99" rx="28.22"/><path class="cls-3" d="M221.07,161.75v17.56c0,.49,0,1,0,1.45s-.06,1-.11,1.42v0c0,.47-.11.93-.18,1.39s-.13.82-.21,1.23c0,.2-.08.39-.13.59s-.11.5-.18.75a3.25,3.25,0,0,1-.11.42c-.08.33-.18.66-.28,1a1.52,1.52,0,0,1-.09.28c-.09.3-.19.59-.29.88s-.15.42-.23.62a5.89,5.89,0,0,1-.24.58,5.09,5.09,0,0,1-.25.6,5.38,5.38,0,0,1-.24.55c-.1.24-.22.47-.34.71s-.18.37-.28.54a5.83,5.83,0,0,1-.32.6q-.27.51-.57,1c-.23.39-.48.77-.73,1.14-.51.75-1.05,1.48-1.63,2.18l0,0c-.57.68-1.17,1.34-1.8,2-.32.32-.65.63-1,.93s-.62.55-.93.81l-.35.29-.72.56a1.94,1.94,0,0,1-.29.21c-.25.19-.51.38-.78.56l-.31.21c-.28.19-.58.38-.87.55a1.37,1.37,0,0,1-.2.13c-.31.18-.62.37-.94.54l-.28.15-.72.37q-.35.18-.69.33a4.69,4.69,0,0,1-.45.21l-.67.29-.48.19-.92.34c-.34.13-.7.24-1.05.35l-.84.24-.64.17c-.41.1-.82.2-1.24.28a25.06,25.06,0,0,1-2.62.4h-.13c-.44.05-.89.09-1.35.11h0c-.48,0-1,0-1.45,0H175.29A27.91,27.91,0,0,1,170,207c8.11-6.26,19.21-15.34,26.19-32.09,7.34-17.6,5.26-31.94,9.78-38.17a28.25,28.25,0,0,1,13,14.37A27.94,27.94,0,0,1,221.07,161.75Z"/><path class="cls-4" d="M193.62,133.54c-.38,8.87-3.56,20.31-14.67,30.89-10.65,10.13-14.22,25.3-20.87,37.23a28.29,28.29,0,0,1-7.76-9.21,27.62,27.62,0,0,1-2.81-8.21,27.11,27.11,0,0,1-.43-4.63c0-.1,0-.2,0-.3V161.75A28.13,28.13,0,0,1,156.15,141a28.1,28.1,0,0,1,9.94-6,28,28,0,0,1,9.2-1.54h18.33Z"/><path class="cls-4" d="M221.07,161.75v17.56c0,.49,0,1,0,1.45s-.06,1-.11,1.42v0c0,.47-.11.93-.18,1.39s-.13.82-.21,1.23c0,.2-.08.39-.13.59s-.11.5-.18.75a3.25,3.25,0,0,1-.11.42c-.08.33-.18.66-.28,1a1.52,1.52,0,0,1-.09.28c-.09.3-.19.59-.29.88s-.15.42-.23.62a5.89,5.89,0,0,1-.24.58,5.09,5.09,0,0,1-.25.6,5.38,5.38,0,0,1-.24.55c-.1.24-.22.47-.34.71s-.18.37-.28.54a5.83,5.83,0,0,1-.32.6q-.27.51-.57,1c-.23.39-.48.77-.73,1.14-.51.75-1.05,1.48-1.63,2.18l0,0c-.57.68-1.17,1.34-1.8,2-.32.32-.65.63-1,.93s-.62.55-.93.81l-.35.29-.72.56a1.94,1.94,0,0,1-.29.21c-.25.19-.51.38-.78.56l-.31.21c-.28.19-.58.38-.87.55a1.37,1.37,0,0,1-.2.13c-.31.18-.62.37-.94.54l-.28.15-.72.37q-.35.18-.69.33a4.69,4.69,0,0,1-.45.21l-.67.29-.48.19-.92.34c-.34.13-.7.24-1.05.35l-.84.24-.64.17c-.41.1-.82.2-1.24.28a25.06,25.06,0,0,1-2.62.4h-.13c-.44.05-.89.09-1.35.11h0c-.48,0-1,0-1.45,0H178.7c.19-5.63,17.34-9.05,26.58-28.58,6.67-14.09,3.95-25.4,10.3-27.6a6.69,6.69,0,0,1,3.42-.21A27.94,27.94,0,0,1,221.07,161.75Z"/><path class="cls-5" d="M167.55,173.22c-3.45,7.61-10.14,13-18.44,16.63a28.34,28.34,0,0,1-2-10.24c0-.1,0-.2,0-.3V161.75A28.13,28.13,0,0,1,156.15,141a27.59,27.59,0,0,1,6.86-4.68C169.16,148,172.81,161.63,167.55,173.22Z"/><path class="cls-5" d="M158.94,168.89c-2.4,4.89-6.64,8.36-11.86,10.72,0-.1,0-.2,0-.3V161.75A28.13,28.13,0,0,1,156.15,141C160.52,149.8,163.16,160.32,158.94,168.89Z"/><path class="cls-5" d="M221.07,168.78v10.53c0,.49,0,1,0,1.45s-.06,1-.11,1.42v0c0,.47-.11.93-.18,1.39s-.13.82-.21,1.23c0,.2-.08.39-.13.59s-.11.5-.18.75a3.25,3.25,0,0,1-.11.42c-.08.33-.18.66-.28,1a1.52,1.52,0,0,1-.09.28c-.09.3-.19.59-.29.88s-.15.42-.23.62a5.89,5.89,0,0,1-.24.58,5.09,5.09,0,0,1-.25.6,5.38,5.38,0,0,1-.24.55c-.1.24-.22.47-.34.71s-.18.37-.28.54a5.83,5.83,0,0,1-.32.6q-.27.51-.57,1c-.23.39-.48.77-.73,1.14a26.29,26.29,0,0,1-1.63,2.18l0,0c-.57.68-1.17,1.34-1.8,2-.32.32-.65.63-1,.93s-.62.55-.93.81l-.35.29-.72.56a1.94,1.94,0,0,1-.29.21c-.25.19-.51.38-.78.56l-.31.21c-.28.19-.58.38-.87.55a1.37,1.37,0,0,1-.2.13c-.31.18-.62.37-.94.54l-.28.15-.72.37q-.35.18-.69.33a4.69,4.69,0,0,1-.45.21l-.67.29-.48.19-.92.34c-.34.13-.7.24-1.05.35l-.84.24-.64.17c-.41.1-.82.2-1.24.28a25.06,25.06,0,0,1-2.62.4,108.08,108.08,0,0,0,12.41-18.27A156.84,156.84,0,0,1,221.07,168.78Z"/><path class="cls-6" d="M221.07,161.75v17.56c0,.49,0,1,0,1.45s-.06,1-.11,1.42v0c0,.47-.11.93-.18,1.39s-.13.82-.21,1.23c0,.2-.08.39-.13.59s-.11.5-.18.75a3.25,3.25,0,0,1-.11.42c-.08.33-.18.66-.28,1a1.52,1.52,0,0,1-.09.28c-.09.3-.19.59-.29.88s-.15.42-.23.62a5.89,5.89,0,0,1-.24.58,5.09,5.09,0,0,1-.25.6,5.38,5.38,0,0,1-.24.55c-.1.24-.22.47-.34.71s-.18.37-.28.54a5.83,5.83,0,0,1-.32.6q-.27.51-.57,1c-.23.39-.48.77-.73,1.14a26.29,26.29,0,0,1-1.63,2.18l0,0c-.57.68-1.17,1.34-1.8,2-.32.32-.65.63-1,.93s-.62.55-.93.81l-.35.29-.72.56a1.94,1.94,0,0,1-.29.21c-.25.19-.51.38-.78.56l-.31.21c-.28.19-.58.38-.87.55a1.37,1.37,0,0,1-.2.13c-.31.18-.62.37-.94.54l-.28.15-.72.37q-.35.18-.69.33a4.69,4.69,0,0,1-.45.21l-.67.29-.48.19-.92.34c-.34.13-.7.24-1.05.35l-.84.24-.64.17c-.41.1-.82.2-1.24.28a25.06,25.06,0,0,1-2.62.4h-.13c-.44.05-.89.09-1.35.11h0c-.48,0-1,0-1.45,0H175.29a28.17,28.17,0,0,1-13.55-3.47,27.14,27.14,0,0,1-3.66-2.4,28.29,28.29,0,0,1-7.76-9.21,27.62,27.62,0,0,1-2.81-8.21,27.11,27.11,0,0,1-.43-4.63c0-.1,0-.2,0-.3V161.75A28.13,28.13,0,0,1,156.15,141a28.1,28.1,0,0,1,9.94-6,28,28,0,0,1,9.2-1.54h18.33a28.43,28.43,0,0,1,8.14,1.43,27.06,27.06,0,0,1,4.21,1.8,28.25,28.25,0,0,1,13,14.37A27.94,27.94,0,0,1,221.07,161.75Z"/><path class="cls-7" d="M149.36.9l-8.22,8.22a1.74,1.74,0,0,0,.22,2.43c14.09,14.2,138.22,139,223.34,215.68a1.75,1.75,0,0,0,2.46-2.49C327.73,181.56,239.5,86.35,151.78,1.1A1.75,1.75,0,0,0,149.36.9Z"/><path class="cls-7" d="M27.09,86.39V98A1.74,1.74,0,0,0,29,99.57c20,.08,196,.54,310.43-5.42a1.75,1.75,0,0,0,0-3.5C281,88,151.25,83.06,29,84.81A1.76,1.76,0,0,0,27.09,86.39Z"/><path class="cls-7" d="M218.79,2.11,227,10.33a1.74,1.74,0,0,1-.21,2.43C212.7,27,88.57,151.75,3.45,228.44A1.76,1.76,0,0,1,1,226C40.42,182.77,128.65,87.56,216.37,2.31A1.74,1.74,0,0,1,218.79,2.11Z"/></g></g></svg>