<svg xmlns="http://www.w3.org/2000/svg" width="71" height="323" viewBox="0 0 71 323">
  <g id="Group_30" data-name="Group 30" transform="translate(-510 -715)">
    <g id="Rectangle_2" data-name="Rectangle 2" transform="translate(581 715) rotate(90)" fill="none" stroke="#e97171" stroke-width="3">
      <rect width="323" height="71" stroke="none"/>
      <rect x="1.5" y="1.5" width="320" height="68" fill="none"/>
    </g>
    <g id="Layer_2" data-name="Layer 2" transform="translate(519.018 735)">
      <g id="Layer_1" data-name="Layer 1">
        <path id="Path_1" data-name="Path 1" d="M41.763,35.514H38.043V32.988H27.049v2.786H23.329V17.349H12.436v25.5h36.2V46.4h-36.2v4.209H8.716V17.349H.29V13.788H8.708V1.2l4.806.328c-.051.387-.328.657-1.094.766v11.49H23.329V0l4.815.328c-.059.387-.387.657-1.094.766V13.788H38.043V.657l4.815.328c-.051.387-.379.657-1.094.766V13.788h8.7v3.561h-8.7ZM27.049,29.461H38.043V17.349H27.049Z" transform="translate(-0.046)" fill="#e97171"/>
        <path id="Path_2" data-name="Path 2" d="M46.337,94.509H36.32c3.889,4.537,10.177,8.317,16.423,10.177a13.679,13.679,0,0,0-2.525,3.114,39.857,39.857,0,0,1-12.475-7.247,1.2,1.2,0,0,1-.707.278v19.5h-3.67V99.812l3.721.219a31.144,31.144,0,0,1-4.975-5.522h-9.47a35.05,35.05,0,0,1-4.975,5.362l4.1.269c-.051.387-.379.657-1.094.715v2.525c0,5.631-1.2,12.694-11.928,17.559a11.843,11.843,0,0,0-2.458-2.786c9.9-4.209,10.833-10.286,10.833-14.882v-2.9a44.04,44.04,0,0,1-12.8,7.576,15.38,15.38,0,0,0-2.466-2.955A39.177,39.177,0,0,0,18.374,94.484H8.365V71.58H46.337ZM11.976,74.7v6.785h13.35V74.7Zm0,9.79v6.843h13.35V84.492Zm30.64-3.005V74.7h-13.7v6.785Zm0,9.849V84.492h-13.7v6.843Z" transform="translate(-0.293 -11.327)" fill="#e97171"/>
        <path id="Path_3" data-name="Path 3" d="M0,142.63H50.665v4.049H0Z" transform="translate(0 -22.571)" fill="#e97171"/>
        <path id="Path_4" data-name="Path 4" d="M28.877,165.515a1.422,1.422,0,0,1-1.364.842c-1.97,17.012-7.66,31.843-16.742,31.843C6.209,198.234,2,193.638,2,184.993c0-13.131,10.227-24.133,24.621-24.133,15.808,0,22.652,10.017,22.652,20.682,0,13.022-7.576,19.318-20.791,22.382a21.887,21.887,0,0,0-2.3-3.367c12.626-2.407,19.04-8.535,19.04-18.872,0-9.032-5.8-17.239-18.6-17.239-.547,0-1.153.059-1.641.109Zm-5.253-.715A20.143,20.143,0,0,0,5.737,184.884c0,5.85,2.525,9.52,5.143,9.52C17.5,194.4,22.261,179.791,23.625,164.8Z" transform="translate(-0.316 -25.456)" fill="#e97171"/>
        <path id="Path_5" data-name="Path 5" d="M50.419,242.174H21.151a53.31,53.31,0,0,1-2.626,6.237H35.411v-5.581l4.815.278c-.051.379-.328.657-1.094.766v4.537H49.384v3.367H39.148v12.088c0,2.247-.547,3.283-2.3,3.83s-4.756.657-9.571.657a16.835,16.835,0,0,0-1.313-3.443c1.97.051,3.771.051,5.194.051,4.108,0,4.268-.109,4.268-1.145V251.779H16.665a40.034,40.034,0,0,1-13.35,13.7A20.974,20.974,0,0,0,.36,262.7a34.908,34.908,0,0,0,11.65-10.943H1.673v-3.367H14.089a52.694,52.694,0,0,0,2.845-6.237H.52v-3.283H18.138c.5-1.532.934-3.064,1.372-4.705H7.3v-3.114H20.259l1-4.722H4.266V223.1H21.774c.328-1.86.606-3.721.842-5.69l5.051.842c-.109.438-.488.715-1.254.766-.168,1.372-.387,2.736-.606,4.108H47.086v3.2H25.251c-.269,1.684-.6,3.232-.926,4.764H43.584V234.2H23.559c-.387,1.641-.842,3.173-1.313,4.705H50.419ZM22.027,264.2a56.284,56.284,0,0,0-7.828-8.1l2.955-2.079a63.179,63.179,0,0,1,7.938,7.82Z" transform="translate(-0.057 -34.405)" fill="#e97171"/>
        <path id="Path_6" data-name="Path 6" d="M45.529,288.08v41.911c0,5.253-2.189,5.362-12.753,5.362a17.3,17.3,0,0,0-1.313-4.049c1.97.059,3.939.109,5.53.109,4.646,0,4.756,0,4.756-1.423v-38.35H1.59V288.08Zm-10.286,9.411v3.367H1.649v-3.367Zm-5.69,9.259v18.519H9.031v5.143H5.42v-23.67Zm-3.611,3.283H9.031v11.978H25.942Z" transform="translate(-0.252 -45.588)" fill="#e97171"/>
      </g>
    </g>
  </g>
</svg>
