<svg xmlns="http://www.w3.org/2000/svg" viewBox="0 0 141.76 87.85"><defs><style>.cls-1{fill:#282828;}</style></defs><g id="Layer_2" data-name="Layer 2"><g id="POST_3" data-name="POST 3"><path class="cls-1" d="M50.91,31.52A10.67,10.67,0,0,0,48.63,34a9.13,9.13,0,0,0-1.26,3.18,9.35,9.35,0,0,0,0,3.12c-.26,0-.57,0-.91,0a12.81,12.81,0,0,0-6.71,1.48,9.83,9.83,0,0,0-3.34,3l-.67.93c-.17.35-.33.7-.49,1.06l-.24.53c-.05.18-.09.38-.13.57A9,9,0,0,0,34.6,49a9.62,9.62,0,0,0,.78,4.49,18.75,18.75,0,0,0,.95,1.77c-.61.07-1.69.18-3,.45a46.28,46.28,0,0,0-12.64,4.73A77.34,77.34,0,0,0,10.2,67.28c-1.67,1.28-3.29,2.63-4.87,4-.79.7-1.58,1.4-2.34,2.12L1.85,74.5,1,75.32l-1,1c.67.16,1.36.34,2,.47l.71.1c.2,0,.4,0,.59,0a18.45,18.45,0,0,0,2.35,0,36.28,36.28,0,0,0,4.57-.47,44.77,44.77,0,0,0,4.59-1,24,24,0,0,0,2.69-.93,26.69,26.69,0,0,1,2.77-1.17,69.16,69.16,0,0,1,10.9-2.08,34.29,34.29,0,0,0-3.87,2.52c-1.88,1.4-3.61,2.89-5.21,4.34C19,81,16.34,83.72,14.4,85.82l0,0h0l-.09.09-1.75,1.91,2.25-1.3.11-.06h0l0,0a6.49,6.49,0,0,1,1.69-.69c1.24-.32,2.56-.49,3.86-.7l3.92-.64a38.1,38.1,0,0,0,3.9-.82A32.35,32.35,0,0,0,32,82.21a65.57,65.57,0,0,0,7.7-4.11A75.7,75.7,0,0,0,47.14,73l.12.8a11.27,11.27,0,0,0,.86,3.11,5.26,5.26,0,0,0,.76,1.22,4.48,4.48,0,0,0,.89.86,8.82,8.82,0,0,0,7.93.74,14,14,0,0,0,3.87-2.15,16,16,0,0,0,2.84-2.91,6.64,6.64,0,0,0,1.18,1.82,8.26,8.26,0,0,0,3.18,2.09,16.86,16.86,0,0,0,5.79,1.06A13.26,13.26,0,0,0,80.19,78a19.38,19.38,0,0,0,5.06-3.85,22.76,22.76,0,0,0,3.8-5.09l.49.36A11.1,11.1,0,0,0,95.13,71a17.67,17.67,0,0,0,5.66-.65,15,15,0,0,0,5.62-2.72,13.11,13.11,0,0,0,4-4.91,9,9,0,0,0,2.18,1,9.25,9.25,0,0,0,5.51,0,9.94,9.94,0,0,0,2.06-.83,14.4,14.4,0,0,0,3.13-2.17,18.71,18.71,0,0,0,3.9-4.72l.19.07a7.28,7.28,0,0,0,3.3-.1,14.63,14.63,0,0,0,4.84-2.28,13.94,13.94,0,0,0,5-6.71,22.91,22.91,0,0,0,1.23-8.28,39.17,39.17,0,0,0-1.32-9.08,38.64,38.64,0,0,0-3.6-9c-.15-.25-.22-.29-.29-.25s0,.2,0,.4c.27.62.94,2,1.67,3.87a47.27,47.27,0,0,1,2,6.49,36.27,36.27,0,0,1,.89,6.4c-.67.37-2.17,1.31-2.42,1.41h0a36.12,36.12,0,0,1-8.93,3.41c-2.31.48-4.67.73-7,1.15l-.14,0c0-.34,0-.67,0-1s0-.74-.08-1.11a6.71,6.71,0,0,0-.17-1.12,17.54,17.54,0,0,0-1.46-4.14A41.33,41.33,0,0,0,116.4,29a70,70,0,0,0-5.17-6.12l-2.64-2.73a16.12,16.12,0,0,1-2.14-2.8,11,11,0,0,1-1.65-5.6,9,9,0,0,1,.48-2.86c.21-.44.37-.9.62-1.32a9.89,9.89,0,0,1,.82-1.21,14.68,14.68,0,0,1,4.63-3.73A9.87,9.87,0,0,1,117,1.48a12.33,12.33,0,0,1,5.5,2.11,26.86,26.86,0,0,1,4.65,4,50.85,50.85,0,0,1,4.93,6.09,27.73,27.73,0,0,0-2.87.92h0a41.54,41.54,0,0,0-9.48,5A22,22,0,0,0,113.9,25a3.43,3.43,0,0,0-.3.41.07.07,0,0,0,0,.1s.06,0,.08,0h0a3,3,0,0,0,.41-.36l1.73-1.41c1.43-1.17,2.81-2.52,4.26-3.67a32.09,32.09,0,0,1,3.49-2.32c1.44-.83,2.94-1.54,3.77-2s1.58-.75,2.39-1.09c.21-.11,1.74-.59,2.45-.87.82,1.17,1.62,2.35,2.38,3.54l1.63,2.73c.11.17.23.3.3.26s.07-.08,0-.23h0L136.5,20c-.25-.52-.79-1.65-1.61-3.05A51.15,51.15,0,0,0,126.71,5.4,18.38,18.38,0,0,0,119,.47,11,11,0,0,0,116.69,0a6,6,0,0,0-1.2,0,6.87,6.87,0,0,0-1.2.11,10.15,10.15,0,0,0-2.3.68l-1.09.48c-.35.18-.67.39-1,.59a15.81,15.81,0,0,0-3.63,3,10.67,10.67,0,0,0-2.21,3.89,7.42,7.42,0,0,0-1.85-.52A13.59,13.59,0,0,0,93,9.52a11,11,0,0,0-4.39,4.27,8.6,8.6,0,0,0-1.08,4.8A12.92,12.92,0,0,0,86,18.25a19.62,19.62,0,0,0-9.68.27,13.52,13.52,0,0,0-5.52,3.09,8.73,8.73,0,0,0-2.58,6.08c0,.24,0,.48.06.72-.44-.05-1-.11-1.71-.14a29.93,29.93,0,0,0-9.83.51A14.91,14.91,0,0,0,50.91,31.52ZM87.56,19.11a7.25,7.25,0,0,0,.17.93,12.82,12.82,0,0,0,2.93,5.42c.33.39.69.74,1,1.1l1.1,1c.71.62,1.42,1.25,2.1,1.9l.43.41a17.37,17.37,0,0,0-2.48.33h0A28.51,28.51,0,0,0,83,34a17.36,17.36,0,0,0-5.78,5.3l0,0L76.79,39a20,20,0,0,1-1.87-1.48A14.83,14.83,0,0,1,70.56,31a7.94,7.94,0,0,1,.84-7.22,9.26,9.26,0,0,1,2.88-2.48A15.41,15.41,0,0,1,78,19.68a22.65,22.65,0,0,1,8.1-.79C86.66,19,87.17,19,87.56,19.11Zm-14.11,19c.18.16.34.32.52.47.76.65,1.8,1.31,2.8,2a21.11,21.11,0,0,1,3,2.93,22.93,22.93,0,0,1,4.5,8.78,17.06,17.06,0,0,1,.44,2.52,24.14,24.14,0,0,1,.07,2.57v.19c-.74.52-2.09,1.55-2.33,1.68h0a37.42,37.42,0,0,1-9.41,4.56c-2.42.71-4.89,1.18-7.36,1.8,0,0,0,0,0-.07a11.89,11.89,0,0,0-1-6.14,21.35,21.35,0,0,0-3.07-5,36.52,36.52,0,0,0-6.34-6l1.57-1.35c1.41-1.19,2.8-2.53,4.29-3.64a26.77,26.77,0,0,1,3.59-2.19c1.48-.75,3-1.34,3.91-1.69s1.64-.6,2.49-.86c.13-.05.76-.18,1.4-.33ZM59,53.3a19.94,19.94,0,0,1,5.26,8.5c.13.41.17.84.26,1.26s.09.85.08,1.27c0,.17,0,.33,0,.5-.68.42-1.73,1.1-1.93,1.18h0a30.53,30.53,0,0,1-8.31,3.19c-2.17.43-4.37.62-6.57.94h-.05c0-.34-.09-.68-.15-1a10.42,10.42,0,0,0-1.52-4,28.88,28.88,0,0,0-2.7-3c-1.26-1.3-2.45-2.57-3.5-3.83l1.11-1.33c1-1.12,1.89-2.33,2.94-3.37a20.25,20.25,0,0,1,2.62-2.09,31.76,31.76,0,0,1,2.94-1.69c.62-.31,1.25-.62,1.9-.88.13-.08.92-.31,1.54-.51l0,0A34.61,34.61,0,0,1,59,53.3Zm43.85-1h0c-2.94,1.85-6.43,3.79-9.3,4.41a29.23,29.23,0,0,1-7.47.7V56a18.85,18.85,0,0,0-1.15-5.89A24.44,24.44,0,0,0,82.35,45a22.49,22.49,0,0,0-3.52-4.25c-.45-.41-.91-.8-1.37-1.17l0,0,1.66-1.42c1.38-1.16,2.77-2.43,4.25-3.48a23.55,23.55,0,0,1,3.59-2,39,39,0,0,1,3.89-1.44c.82-.25,1.64-.48,2.48-.67.14,0,.76-.12,1.4-.22l.85-.1A47,47,0,0,1,99.82,35a38.76,38.76,0,0,1,2.62,3.89,14.54,14.54,0,0,1,1.69,4.55,62,62,0,0,1,1.06,7.33C104.43,51.19,103,52.15,102.8,52.29Zm6.08-30.4.74.74a12,12,0,0,0-1.74.72h0a19.71,19.71,0,0,0-6,4.42,12.43,12.43,0,0,0-2.79,4.35c-1.07-1.3-2.18-2.51-3.26-3.63-.94-1-2-1.92-2.89-2.82a17,17,0,0,1-2.34-3,8.1,8.1,0,0,1-.91-7,10.28,10.28,0,0,1,5-5.3,14.39,14.39,0,0,1,7.52-1.46,13.24,13.24,0,0,1,1.66.31,9.57,9.57,0,0,0-.12,4.51,13.76,13.76,0,0,0,1.72,4.25A21.16,21.16,0,0,0,108.88,21.89Zm12.8,21.45c-.6.37-1.74,1.13-1.94,1.21a26.05,26.05,0,0,1-7.7,2.89c-2,.34-3.94.46-5.93.66,0-.43-.1-.86-.17-1.29a36.22,36.22,0,0,0-1.15-5.57,12.89,12.89,0,0,0-1.11-2.62c-.44-.81-.92-1.58-1.42-2.33-.94-1.41-1.93-2.72-2.94-3.95l.72-1.1c.72-1,1.42-2.18,2.23-3.16a15.42,15.42,0,0,1,2.07-2,26.52,26.52,0,0,1,2.38-1.7c.51-.32,1-.63,1.57-.91.12-.09,1-.42,1.5-.64,1.11,1.13,2.28,2.4,3.46,3.78a58.07,58.07,0,0,1,4.4,5.81,27.44,27.44,0,0,1,3.44,6.84,12.41,12.41,0,0,1,.44,1.85,17,17,0,0,1,.13,1.92C121.66,43.11,121.67,43.23,121.68,43.34Zm6.12,11.9a4.7,4.7,0,0,1-3.16-2.3c-1.42-2.41-1.77-5.4-2-8.24,0-.3,0-.61,0-.91h.17a17.48,17.48,0,0,0,2,.11,19.06,19.06,0,0,0,5.08-.93c.79-.24,2.25-.63,3.68-1.15a32.23,32.23,0,0,0,3.57-1.53c.7-.39,1.39-.79,2.06-1.22a22.07,22.07,0,0,0,1.89-1.21c0,.44,0,.86,0,1.25s0,.79,0,1.12c0,.66,0,1.16-.08,1.43V41.6a17.69,17.69,0,0,1-2.6,7.9c-.41.58-.87,1.11-1.29,1.67s-1,.95-1.56,1.43l-1.79,1.15a18,18,0,0,1-1.94.91A7.82,7.82,0,0,1,127.8,55.24ZM111.11,62a8.85,8.85,0,0,1-3.29-4.1c-1.27-2.9-1.31-6.21-1.68-9.48a14.15,14.15,0,0,0,1.58.18,15.42,15.42,0,0,0,4.43-.59c.69-.19,2-.49,3.2-.93a23.43,23.43,0,0,0,3.09-1.32c.6-.35,1.19-.7,1.77-1.09.14-.07,1-.61,1.48-1,0,1.1.12,2.2.25,3.29a14.67,14.67,0,0,0,2.38,7.17,5.56,5.56,0,0,0,2.42,1.8,27.31,27.31,0,0,1-4.67,4.88,12.71,12.71,0,0,1-3.66,2.05,13.27,13.27,0,0,1-1.48.39l-.85.09A8.76,8.76,0,0,1,111.11,62ZM88.49,67a11.32,11.32,0,0,1-2.13-5.14A25.51,25.51,0,0,1,86,57.71a11.38,11.38,0,0,0,2.09.42,14,14,0,0,0,5.56-.8,33,33,0,0,0,3.9-1.49,30.31,30.31,0,0,0,3.69-2c.72-.48,1.42-1,2.11-1.49.17-.11,1.19-.8,1.83-1.29.07.69.13,1.38.2,2.05A15.59,15.59,0,0,0,108,60.46a8.4,8.4,0,0,0,2,2,17.93,17.93,0,0,1-1.51,2.13,15.42,15.42,0,0,1-3.32,3,16.27,16.27,0,0,1-4,1.83c-.61.14-1.14.31-1.58.38l-.91.14a16.7,16.7,0,0,1-5.55-.2A8.38,8.38,0,0,1,88.49,67ZM65,71.48a14.92,14.92,0,0,1,.21-2.89c.12-.87.32-1.66.47-2.57a19.47,19.47,0,0,0,2.16,0,20.74,20.74,0,0,0,5.47-1.44c.84-.33,2.4-.89,3.91-1.59a32.4,32.4,0,0,0,3.75-2c.73-.49,1.44-1,2.13-1.54.17-.11,1.12-.81,1.74-1.35a24.46,24.46,0,0,0,.44,4.51,12.41,12.41,0,0,0,1.66,4.27,7.8,7.8,0,0,0,1.79,2A35.49,35.49,0,0,1,84,74.32,18.93,18.93,0,0,1,80.37,77,16.79,16.79,0,0,1,78,78.06a11.86,11.86,0,0,1-5.56.35,11.45,11.45,0,0,1-5.26-2.09A6.09,6.09,0,0,1,65,71.48Zm-16.9,1.83c-.14-1-.24-1.94-.38-2.92h.05a15.21,15.21,0,0,0,1.91.15,17.12,17.12,0,0,0,4.76-.78c.74-.21,2.11-.57,3.44-1.05a28,28,0,0,0,3.33-1.45c.65-.38,1.29-.76,1.91-1.17.14-.07.84-.52,1.39-.91-.06.54-.15,1.08-.27,1.67a18.58,18.58,0,0,0-.47,5.22,7.9,7.9,0,0,0,.52,2.22,20.93,20.93,0,0,1-3.57,3.25,12.24,12.24,0,0,1-4.5,2,9.43,9.43,0,0,1-3.88-.21,4.82,4.82,0,0,1-3.1-2.16A10.16,10.16,0,0,1,48.07,73.31ZM36.48,55.5a20.63,20.63,0,0,0,1.19,1.7c.54.7,1.28,1.56,2.13,2.5-1,.21-3.1.81-3.42.91h0c-4,1.06-8.53,2.73-11.87,3.94a28.13,28.13,0,0,0-8.29,4.27,3.29,3.29,0,0,0-.47.36.09.09,0,0,0,0,.12s.05.06.09.06h0a3.58,3.58,0,0,0,.58-.27c.8-.35,1.6-.68,2.4-1,2-.83,4-1.91,6-2.79s7.25-2.69,9.32-3.38l2.9-1c.27-.1,2.18-.61,3-.91.41.45.85.92,1.32,1.4l1.71,1.77c-.59.06-1.42.19-1.56.22h0A54.16,54.16,0,0,0,35,64.86a16.29,16.29,0,0,0-4.58,1.91,2.11,2.11,0,0,0-.27.16.06.06,0,0,0,0,.06s0,0,0,0h0a1.72,1.72,0,0,0,.32-.11l1.33-.41c1.09-.37,2.2-.84,3.28-1.24a46.94,46.94,0,0,1,5.09-1.35l1.6-.37c.12,0,.89-.14,1.4-.24l.56.58a9.59,9.59,0,0,1,2.11,2.88,11.23,11.23,0,0,1,.53,1.61c-.71.48-2.29,1.67-2.53,1.84a100.18,100.18,0,0,1-9,5.83c-2.33,1.27-4.72,2.41-7,3.69a2.37,2.37,0,0,0-.46.23s0,0,0,.1,0,.06.05.07h0A3.25,3.25,0,0,0,28,80a15.33,15.33,0,0,0,2.2-.63,25.42,25.42,0,0,0,5.06-2.72c1.56-1,5.69-3.58,7.17-4.75l2.08-1.65c.18-.14,1.38-1,2-1.57a39.6,39.6,0,0,1,.59,4c-1.09.72-4.88,3.38-8.83,5.67-2,1.16-4,2.21-5.65,3a34.24,34.24,0,0,1-3.41,1.38A44.58,44.58,0,0,1,22,84.11l-3.79.54c-.61.1-1.25.21-1.89.38,2.4-2.49,4.9-4.92,7.5-7.19A60.63,60.63,0,0,1,28.62,74,22.21,22.21,0,0,1,33.81,71l3.74-1.35-3.94.45a93,93,0,0,0-12.53,2.09,16.14,16.14,0,0,0-2.94,1,17.2,17.2,0,0,1-2.64,1,37.58,37.58,0,0,1-5.41,1.19,35.29,35.29,0,0,1-4.46.37,18.17,18.17,0,0,1-2.22-.07,4.69,4.69,0,0,1-.54-.06l-.41-.06-.07,0,.06-.06.86-.79,1.78-1.6c1.21-1.06,2.43-2.09,3.68-3.1,2.48-2,5.07-3.92,7.72-5.71a60,60,0,0,1,17.12-8.34C34.94,55.8,36,55.62,36.48,55.5Zm10.9-14.79a10.06,10.06,0,0,0,1.1,3,12.51,12.51,0,0,0,4.08,4.43,11.77,11.77,0,0,0-1.72.56h0a23.34,23.34,0,0,0-7.36,4.42,14,14,0,0,0-3.86,4.9c-.4-.49-.78-1-1.12-1.46A13.8,13.8,0,0,1,36,51.47,7.12,7.12,0,0,1,37,46.2a10.7,10.7,0,0,1,4-3.85,14.68,14.68,0,0,1,5.53-1.6ZM58.35,30a40.66,40.66,0,0,1,8.35-1.13h1.6a13.41,13.41,0,0,0,1.66,5,17.12,17.12,0,0,0,3.2,4,18.25,18.25,0,0,0-2.52.54h0a32.71,32.71,0,0,0-9.83,4.42,19.2,19.2,0,0,0-5.74,5.36c-.46-.34-.92-.69-1.37-1a10.56,10.56,0,0,1-4.46-6.34,7.69,7.69,0,0,1,2-7.08A15.13,15.13,0,0,1,58.35,30Z"/><polygon class="cls-1" points="119.74 44.55 119.74 44.55 119.73 44.55 119.74 44.55"/></g></g></svg>