<svg xmlns="http://www.w3.org/2000/svg" viewBox="0 0 62.31 344.24"><defs><style>.cls-1{fill:#1d1d1b;}</style></defs><g id="Layer_2" data-name="Layer 2"><g id="Layer_1-2" data-name="Layer 1"><path class="cls-1" d="M49.56,42.19H45.14v-3H32.08v3.31H27.66V20.61H14.72V50.9h43v4.22h-43v5H10.3V20.61H.29V16.38h10V1.43L16,1.82c-.06.46-.39.78-1.3.91V16.38H27.66V0l5.72.39c-.07.46-.46.78-1.3.91V16.38H45.14V.78l5.72.39c-.06.46-.45.78-1.3.91v14.3H59.9v4.23H49.56ZM32.08,35H45.14V20.61H32.08Z"/><path class="cls-1" d="M54.7,98.82H42.8c4.62,5.39,12.09,9.88,19.51,12.09a16.25,16.25,0,0,0-3,3.7A47.35,47.35,0,0,1,44.49,106a1.42,1.42,0,0,1-.84.33V129.5H39.29V105.12l4.42.26a37,37,0,0,1-5.91-6.56H26.55a41.64,41.64,0,0,1-5.91,6.37l4.87.32c-.06.46-.45.78-1.3.85v3c0,6.69-1.43,15.08-14.17,20.86a14.07,14.07,0,0,0-2.92-3.31c11.76-5,12.87-12.22,12.87-17.68v-3.45a52.32,52.32,0,0,1-15.21,9,18.27,18.27,0,0,0-2.93-3.51c7.28-2.34,14.89-7.09,19.63-12.48H9.59V71.58H54.7ZM13.88,75.29v8.06H29.74V75.29Zm0,11.63v8.13H29.74V86.92Zm36.4-3.57V75.29H34v8.06Zm0,11.7V86.92H34v8.13Z"/><path class="cls-1" d="M0,142.63H60.19v4.81H0Z"/><path class="cls-1" d="M33.93,166.39a1.69,1.69,0,0,1-1.62,1c-2.34,20.21-9.1,37.83-19.89,37.83C7,205.26,2,199.8,2,189.53c0-15.6,12.15-28.67,29.25-28.67,18.78,0,26.91,11.9,26.91,24.57,0,15.47-9,22.95-24.7,26.59a26,26,0,0,0-2.73-4c15-2.86,22.62-10.14,22.62-22.42,0-10.73-6.89-20.48-22.1-20.48-.65,0-1.37.07-1.95.13Zm-6.24-.85A23.93,23.93,0,0,0,6.44,189.4c0,6.95,3,11.31,6.11,11.31C20.41,200.71,26.07,183.35,27.69,165.54Z"/><path class="cls-1" d="M59.83,246.83H25.06a63.33,63.33,0,0,1-3.12,7.41H42v-6.63l5.72.33c-.06.45-.39.78-1.3.91v5.39H58.6v4H46.44v14.36c0,2.67-.65,3.9-2.73,4.55s-5.65.78-11.37.78a20,20,0,0,0-1.56-4.09c2.34.06,4.48.06,6.17.06,4.88,0,5.07-.13,5.07-1.36v-14.3H19.73A47.56,47.56,0,0,1,3.87,274.52a24.92,24.92,0,0,0-3.51-3.31,41.47,41.47,0,0,0,13.84-13H1.92v-4H16.67a62.6,62.6,0,0,0,3.38-7.41H.55v-3.9H21.48c.59-1.82,1.11-3.64,1.63-5.59H8.61v-3.7H24L25.19,228H5v-3.83h20.8c.39-2.21.72-4.42,1-6.76l6,1c-.13.52-.58.85-1.49.91-.2,1.63-.46,3.25-.72,4.88H55.87V228H29.93c-.32,2-.71,3.84-1.1,5.66H51.71v3.7H27.92c-.46,1.95-1,3.77-1.56,5.59H59.83ZM26.1,273a66.87,66.87,0,0,0-9.3-9.62l3.51-2.47a75.05,75.05,0,0,1,9.43,9.29Z"/><path class="cls-1" d="M53.79,288.08v49.79c0,6.24-2.6,6.37-15.15,6.37a20.55,20.55,0,0,0-1.56-4.81c2.34.07,4.68.13,6.57.13,5.52,0,5.65,0,5.65-1.69V292.31H1.59v-4.23ZM41.57,299.26v4H1.66v-4Zm-6.76,11v22H10.43v6.11H6.14V310.25Zm-4.29,3.9H10.43v14.23H30.52Z"/></g></g></svg>