<svg xmlns="http://www.w3.org/2000/svg" width="523.845" height="245.451" viewBox="0 0 523.845 245.451">
  <g id="bg-mobile" transform="translate(16 -273.266)">
    <g id="Group_30" data-name="Group 30" transform="translate(-526 -355.508)">
      <g id="Rectangle_2" data-name="Rectangle 2" transform="translate(545 715.225) rotate(90)" fill="none" stroke="#e97171" stroke-width="3">
        <rect width="159" height="35" stroke="none"/>
        <rect x="1.5" y="1.5" width="156" height="32" fill="none"/>
      </g>
      <g id="Layer_2" data-name="Layer 2" transform="translate(514.445 724.859)">
        <g id="Layer_1" data-name="Layer 1">
          <path id="Path_1" data-name="Path 1" d="M20.734,17.507H18.9V16.262H13.481v1.373H11.647V8.552H6.278V21.121H24.12v1.751H6.278v2.075H4.444V8.552H.29V6.8H4.439V.593L6.809.755c-.025.191-.162.324-.539.378V6.8h5.378V0l2.374.162c-.029.191-.191.324-.539.378V6.8H18.9V.324l2.374.162c-.025.191-.187.324-.539.378V6.8h4.291V8.552H20.734Zm-7.253-2.983H18.9V8.552H13.481Z" transform="translate(-0.17)" fill="#e97171"/>
          <path id="Path_2" data-name="Path 2" d="M23.78,82.883H18.842a17.757,17.757,0,0,0,8.1,5.017,6.743,6.743,0,0,0-1.245,1.535,19.648,19.648,0,0,1-6.15-3.573.589.589,0,0,1-.349.137v9.614H17.386V85.5l1.834.108a15.353,15.353,0,0,1-2.452-2.722H12.1a17.278,17.278,0,0,1-2.452,2.643l2.021.133c-.025.191-.187.324-.539.353v1.245c0,2.776-.593,6.257-5.88,8.656a5.838,5.838,0,0,0-1.212-1.373c4.88-2.075,5.34-5.071,5.34-7.336V85.771a21.71,21.71,0,0,1-6.311,3.735A7.582,7.582,0,0,0,1.85,88.049,19.313,19.313,0,0,0,10,82.871H5.062V71.58H23.78ZM6.842,73.119v3.344h6.581V73.119Zm0,4.826v3.374h6.581V77.945Zm15.1-1.481V73.119H15.191v3.344Zm0,4.855V77.945H15.191v3.374Z" transform="translate(-1.082 -41.878)" fill="#e97171"/>
          <path id="Path_3" data-name="Path 3" d="M0,142.63H24.976v2H0Z" transform="translate(0 -83.446)" fill="#e97171"/>
          <path id="Path_4" data-name="Path 4" d="M15.249,163.155a.7.7,0,0,1-.672.415c-.971,8.386-3.776,15.7-8.253,15.7C4.075,179.284,2,177.018,2,172.757a11.834,11.834,0,0,1,12.137-11.9c7.793,0,11.166,4.938,11.166,10.2,0,6.419-3.735,9.523-10.249,11.033a10.79,10.79,0,0,0-1.133-1.66c6.224-1.187,9.386-4.208,9.386-9.3,0-4.452-2.859-8.5-9.17-8.5-.27,0-.568.029-.809.054ZM12.66,162.8a9.93,9.93,0,0,0-8.818,9.9c0,2.884,1.245,4.693,2.535,4.693C9.639,177.4,11.988,170.192,12.66,162.8Z" transform="translate(-1.17 -94.111)" fill="#e97171"/>
          <path id="Path_5" data-name="Path 5" d="M25.037,229.618H10.609a26.279,26.279,0,0,1-1.295,3.075h8.324v-2.751l2.374.137c-.025.187-.162.324-.539.378v2.237h5.054v1.66H19.481v5.959c0,1.108-.27,1.618-1.133,1.888a18.976,18.976,0,0,1-4.718.324,8.3,8.3,0,0,0-.647-1.7c.971.025,1.859.025,2.56.025,2.025,0,2.1-.054,2.1-.564v-5.934H8.4a19.735,19.735,0,0,1-6.581,6.755A10.341,10.341,0,0,0,.36,239.734,17.208,17.208,0,0,0,6.1,234.34h-5.1v-1.66h6.12a25.977,25.977,0,0,0,1.4-3.075H.439v-1.618H9.124c.245-.755.461-1.51.676-2.32H3.783v-1.535h6.386l.494-2.328H2.285v-1.589h8.631c.162-.917.3-1.834.415-2.805l2.49.415c-.054.216-.241.353-.618.378-.083.676-.191,1.349-.3,2.025h10.49V221.8H12.63c-.133.83-.295,1.593-.456,2.349h9.494v1.535H11.8c-.191.809-.415,1.564-.647,2.32H25.037Zm-14,10.859a27.746,27.746,0,0,0-3.859-3.992l1.456-1.025a31.146,31.146,0,0,1,3.913,3.855Z" transform="translate(-0.211 -127.196)" fill="#e97171"/>
          <path id="Path_6" data-name="Path 6" d="M23.25,288.08v20.66c0,2.589-1.079,2.643-6.286,2.643a8.528,8.528,0,0,0-.647-2c.971.029,1.942.054,2.726.054,2.291,0,2.344,0,2.344-.7V289.835H1.59V288.08Zm-5.071,4.639v1.66H1.619v-1.66Zm-2.805,4.564v9.129H5.258v2.535H3.478V297.279Zm-1.78,1.618H5.258v5.9h8.336Z" transform="translate(-0.93 -168.542)" fill="#e97171"/>
        </g>
      </g>
    </g>
    <g id="Layer_2-2" data-name="Layer 2" transform="translate(336.435 274.111)" opacity="0.84">
      <g id="OBJECTS" transform="translate(0 0)">
        <path id="Path_278" data-name="Path 278" d="M171.395,86.122a84.993,84.993,0,1,0,0,.009Z" transform="translate(-0.83 -0.84)" fill="#d94e4e" stroke="#fff" stroke-miterlimit="10" stroke-width="1.69"/>
        <path id="Path_279" data-name="Path 279" d="M154.733,83.686A72.436,72.436,0,1,1,82.3,11.25,72.436,72.436,0,0,1,154.733,83.686Z" transform="translate(2.074 2.508)" fill="#d94e4e" stroke="#fff" stroke-miterlimit="10" stroke-width="1.69"/>
        <circle id="Ellipse_1" data-name="Ellipse 1" cx="59.604" cy="59.604" r="59.604" transform="translate(24.01 145.03) rotate(-89.27)" fill="#d94e4e" stroke="#fff" stroke-miterlimit="10" stroke-width="1.69"/>
        <path id="Path_280" data-name="Path 280" d="M120.538,76.994A44.934,44.934,0,1,1,75.6,32.06,44.934,44.934,0,0,1,120.538,76.994Z" transform="translate(8.766 9.2)" fill="#d94e4e" stroke="#fff" stroke-miterlimit="10" stroke-width="1.69"/>
        <circle id="Ellipse_2" data-name="Ellipse 2" cx="32.088" cy="32.088" r="32.088" transform="translate(51.853 54.538) rotate(-0.78)" fill="#d94e4e" stroke="#fff" stroke-miterlimit="10" stroke-width="1.69"/>
        <circle id="Ellipse_3" data-name="Ellipse 3" cx="17.419" cy="17.419" r="17.419" transform="translate(59.765 87.283) rotate(-47.53)" fill="#d94e4e" stroke="#fff" stroke-miterlimit="10" stroke-width="1.69"/>
      </g>
    </g>
  </g>
</svg>
