<?xml version="1.0" encoding="utf-8"?>
<!-- Generator: Adobe Illustrator 26.0.1, SVG Export Plug-In . SVG Version: 6.00 Build 0)  -->
<svg version="1.1" id="caros" xmlns="http://www.w3.org/2000/svg" xmlns:xlink="http://www.w3.org/1999/xlink" x="0px" y="0px"
	 viewBox="0 0 218.3 435" style="enable-background:new 0 0 218.3 435;" xml:space="preserve">
<style type="text/css">
	.st0{fill:none;stroke:#D94E4E;stroke-width:1.5;stroke-miterlimit:10;}
</style>
<g id="POST_1">
	<rect id="Rectangle_20" x="271.7" y="163.3" class="st0" width="54.2" height="54.2"/>
	<rect id="Rectangle_21" x="163.3" y="163.3" class="st0" width="54.2" height="54.2"/>
	<rect id="Rectangle_22" x="0.8" y="109.1" class="st0" width="54.2" height="54.2"/>
	<rect id="Rectangle_23" x="109.1" y="109.1" class="st0" width="54.2" height="54.2"/>
	<rect id="Rectangle_24" x="163.3" y="109.1" class="st0" width="54.2" height="54.2"/>
	<rect id="Rectangle_25" x="271.7" y="109.1" class="st0" width="54.2" height="54.2"/>
	<rect id="Rectangle_26" x="-53.4" y="163.3" class="st0" width="54.2" height="54.2"/>
	<rect id="Rectangle_27" x="0.8" y="163.3" class="st0" width="54.2" height="54.2"/>
	<rect id="Rectangle_28" x="54.9" y="163.3" class="st0" width="54.2" height="54.2"/>
	<rect id="Rectangle_29" x="109.1" y="163.3" class="st0" width="54.2" height="54.2"/>
	<rect id="Rectangle_30" x="0.7" y="217.5" class="st0" width="54.2" height="54.2"/>
	<rect id="Rectangle_31" x="54.9" y="217.5" class="st0" width="54.2" height="54.2"/>
	<rect id="Rectangle_32" x="109.1" y="217.5" class="st0" width="54.2" height="54.2"/>
	<rect id="Rectangle_33" x="163.3" y="217.5" class="st0" width="54.2" height="54.2"/>
	<rect id="Rectangle_34" x="217.5" y="217.5" class="st0" width="54.2" height="54.2"/>
	<rect id="Rectangle_35" x="-107.6" y="163.3" class="st0" width="54.2" height="54.2"/>
	<rect id="Rectangle_36" x="-53.4" y="217.5" class="st0" width="54.2" height="54.2"/>
	<rect id="Rectangle_37" x="-107.6" y="109.1" class="st0" width="54.2" height="54.2"/>
	<rect id="Rectangle_38" x="54.9" y="271.7" class="st0" width="54.2" height="54.2"/>
	<rect id="Rectangle_39" x="163.3" y="271.7" class="st0" width="54.2" height="54.2"/>
	<path id="Path_13730" class="st0" d="M217.5,325.9v-54.2h54.2"/>
</g>
</svg>
