<svg xmlns="http://www.w3.org/2000/svg" viewBox="0 0 435.05 218.28"><defs><style>.cls-1{fill:none;stroke:#d94e4e;stroke-miterlimit:10;stroke-width:1.5px;}</style></defs><g id="Layer_2" data-name="Layer 2"><g id="caros"><g id="POST_1" data-name="POST 1"><rect id="Rectangle_20" data-name="Rectangle 20" class="cls-1" x="380.11" y="54.95" width="54.19" height="54.19"/><rect id="Rectangle_21" data-name="Rectangle 21" class="cls-1" x="271.72" y="54.95" width="54.19" height="54.19"/><rect id="Rectangle_22" data-name="Rectangle 22" class="cls-1" x="109.14" y="0.76" width="54.19" height="54.19"/><rect id="Rectangle_23" data-name="Rectangle 23" class="cls-1" x="217.52" y="0.75" width="54.19" height="54.19"/><rect id="Rectangle_24" data-name="Rectangle 24" class="cls-1" x="271.72" y="0.76" width="54.19" height="54.19"/><rect id="Rectangle_25" data-name="Rectangle 25" class="cls-1" x="380.1" y="0.75" width="54.19" height="54.19"/><rect id="Rectangle_26" data-name="Rectangle 26" class="cls-1" x="54.95" y="54.95" width="54.19" height="54.19"/><rect id="Rectangle_27" data-name="Rectangle 27" class="cls-1" x="109.14" y="54.95" width="54.19" height="54.19"/><rect id="Rectangle_28" data-name="Rectangle 28" class="cls-1" x="163.33" y="54.95" width="54.19" height="54.19"/><rect id="Rectangle_29" data-name="Rectangle 29" class="cls-1" x="217.53" y="54.95" width="54.19" height="54.19"/><rect id="Rectangle_30" data-name="Rectangle 30" class="cls-1" x="109.13" y="109.15" width="54.19" height="54.19"/><rect id="Rectangle_31" data-name="Rectangle 31" class="cls-1" x="163.33" y="109.14" width="54.19" height="54.19"/><rect id="Rectangle_32" data-name="Rectangle 32" class="cls-1" x="217.52" y="109.14" width="54.19" height="54.19"/><rect id="Rectangle_33" data-name="Rectangle 33" class="cls-1" x="271.71" y="109.15" width="54.19" height="54.19"/><rect id="Rectangle_34" data-name="Rectangle 34" class="cls-1" x="325.91" y="109.14" width="54.19" height="54.19"/><rect id="Rectangle_35" data-name="Rectangle 35" class="cls-1" x="0.75" y="54.95" width="54.19" height="54.19"/><rect id="Rectangle_36" data-name="Rectangle 36" class="cls-1" x="54.94" y="109.14" width="54.19" height="54.19"/><rect id="Rectangle_37" data-name="Rectangle 37" class="cls-1" x="0.75" y="0.76" width="54.19" height="54.19"/><rect id="Rectangle_38" data-name="Rectangle 38" class="cls-1" x="163.33" y="163.34" width="54.19" height="54.19"/><rect id="Rectangle_39" data-name="Rectangle 39" class="cls-1" x="271.72" y="163.34" width="54.19" height="54.19"/><path id="Path_13730" data-name="Path 13730" class="cls-1" d="M325.91,217.53V163.34H380.1"/></g></g></g></svg>