<svg xmlns="http://www.w3.org/2000/svg" viewBox="0 0 130.73 130.73"><defs><style>.cls-1{fill:#da533d;stroke:#fff;stroke-miterlimit:10;stroke-width:1.69px;}</style></defs><g id="Layer_2" data-name="Layer 2"><g id="OBJECTS"><path class="cls-1" d="M129.89,65.37A64.53,64.53,0,1,1,65.37.84,64.52,64.52,0,0,1,129.89,65.37Z"/><path class="cls-1" d="M119.48,66.06A54.81,54.81,0,1,1,64.67,11.25,54.81,54.81,0,0,1,119.48,66.06Z"/><circle class="cls-1" cx="64.67" cy="66.06" r="45.1" transform="translate(-2.21 129.88) rotate(-89.27)"/><path class="cls-1" d="M98.67,66.06a34,34,0,1,1-34-34A34,34,0,0,1,98.67,66.06Z"/><circle class="cls-1" cx="64.67" cy="66.06" r="24.28" transform="translate(-0.89 0.88) rotate(-0.78)"/><circle class="cls-1" cx="64.67" cy="66.06" r="13.18" transform="translate(-27.72 69.16) rotate(-47.53)"/></g></g></svg>