<svg id="facebook-svgrepo-com" xmlns="http://www.w3.org/2000/svg" width="57.573" height="57.573" viewBox="0 0 57.573 57.573">
  <path id="Path_13698" data-name="Path 13698" d="M28.787,0A28.787,28.787,0,1,0,57.573,28.787,28.819,28.819,0,0,0,28.787,0Zm0,54.28A25.493,25.493,0,1,1,54.28,28.787,25.522,25.522,0,0,1,28.787,54.28Z" fill="#fff"/>
  <path id="Path_13699" data-name="Path 13699" d="M126.869,71.952h-3.9a5.8,5.8,0,0,0-5.794,5.794v4.391h-3.637a1.647,1.647,0,0,0,0,3.294h3.637v15.248a1.647,1.647,0,0,0,3.294,0V85.431h5.626a1.647,1.647,0,1,0,0-3.294h-5.626V77.746a2.5,2.5,0,0,1,2.5-2.5h3.9a1.647,1.647,0,0,0,0-3.294Z" transform="translate(-91.415 -58.787)" fill="#fff"/>
</svg>
