<svg xmlns="http://www.w3.org/2000/svg" xmlns:xlink="http://www.w3.org/1999/xlink" viewBox="0 0 351.66 304.5"><defs><style>.cls-1{fill:none;}.cls-2{clip-path:url(#clip-path);}.cls-3{fill:#282828;}</style><clipPath id="clip-path" transform="translate(-18.52 -17.93)"><rect class="cls-1" width="394.29" height="276.98"/></clipPath></defs><g id="Layer_2" data-name="Layer 2"><g id="POST_2" data-name="POST 2"><g class="cls-2"><path class="cls-3" d="M63.46,218.42A26,26,0,0,1,60,209.88a23.38,23.38,0,0,1,0-9.23A28.22,28.22,0,0,1,63.35,192a60.45,60.45,0,0,1,5.22-7.56,29.86,29.86,0,0,1,6.73-6.25,17.83,17.83,0,0,1,8.7-2.88,28.91,28.91,0,0,1,10.74,1.75,82.7,82.7,0,0,1,10.66,4.61c3.54,1.8,7.13,3.69,10.68,5.85a46.34,46.34,0,0,1,9.84,7.85,25,25,0,0,1,3.74,5.23,18.94,18.94,0,0,1,2,6.16,22.66,22.66,0,0,1-2.33,12.62,53.74,53.74,0,0,1-6.93,10.76,26.38,26.38,0,0,1-4.48,4.48,20.76,20.76,0,0,1-5.37,3,23.29,23.29,0,0,1-5.61,1.35,31.54,31.54,0,0,1-9.81-.53c-7-1.37-13.4-4.58-15.21-5.3-.29-.12-.5-.23-.48-.27s.11,0,.52.12c1.69.58,7.3,3.25,13.18,4.69a37.74,37.74,0,0,0,8.31,1.14,24.52,24.52,0,0,0,4.82-.37,21.11,21.11,0,0,0,10.66-5.2,32.18,32.18,0,0,0,4-4.49c1.22-1.6,2.38-3.25,3.44-5a39.81,39.81,0,0,0,3.41-6.72,21.58,21.58,0,0,0,1.5-9.2,19,19,0,0,0-3.76-9.8,31.25,31.25,0,0,0-3.73-4.18,46.43,46.43,0,0,0-4.41-3.6,83.54,83.54,0,0,0-9.7-5.85c-3.27-1.75-6.47-3.38-9.56-4.74a54.09,54.09,0,0,0-8.79-3.09,24.19,24.19,0,0,0-7.27-.73,17.29,17.29,0,0,0-6.1,1.57,21.21,21.21,0,0,0-5.26,3.61,48.17,48.17,0,0,0-8,10.19,28.05,28.05,0,0,0-4.23,12.08,23.85,23.85,0,0,0,2.31,12.38,31.54,31.54,0,0,0,5.82,8.28A36.64,36.64,0,0,0,81,232.65l.2.09h0c.2.09.24.13.23.17s-.24,0-.53-.14a29.24,29.24,0,0,1-4.19-2A36.14,36.14,0,0,1,63.46,218.42Z" transform="translate(-18.52 -17.93)"/><path class="cls-3" d="M112.46,237.71l.08,0h0Z" transform="translate(-18.52 -17.93)"/><path class="cls-3" d="M113.5,239.56l.09,0h0Z" transform="translate(-18.52 -17.93)"/><path class="cls-3" d="M131.39,220.16A57.16,57.16,0,0,1,124,231.57a28.15,28.15,0,0,1-4.75,4.76,22.38,22.38,0,0,1-5.7,3.19,25,25,0,0,1-6,1.44,33.63,33.63,0,0,1-10.41-.57c-7.38-1.46-14.22-4.86-16.14-5.62-.3-.13-.53-.25-.51-.29s.12,0,.55.12c1.8.62,7.75,3.46,14,5a40.26,40.26,0,0,0,8.81,1.22,26.68,26.68,0,0,0,5.12-.4,22.35,22.35,0,0,0,11.31-5.52,34.27,34.27,0,0,0,4.23-4.76q1.95-2.55,3.65-5.26a42,42,0,0,0,3.62-7.13,22.87,22.87,0,0,0,1.59-9.77,20,20,0,0,0-4-10.39,34.39,34.39,0,0,0-4-4.44,49.44,49.44,0,0,0-4.69-3.82,87.79,87.79,0,0,0-10.29-6.2c-3.46-1.86-6.86-3.59-10.14-5a56.65,56.65,0,0,0-9.33-3.28,25.25,25.25,0,0,0-7.71-.77,18.28,18.28,0,0,0-6.48,1.65,22.78,22.78,0,0,0-5.57,3.84,50.9,50.9,0,0,0-8.5,10.81,29.74,29.74,0,0,0-4.49,12.82,25.35,25.35,0,0,0,2.45,13.13,33.78,33.78,0,0,0,6.17,8.79,41.35,41.35,0,0,0,8.45,6.73,40.17,40.17,0,0,0,4.73,2.39l.21.1h0c.22.11.26.15.25.19s-.26,0-.57-.15a31.4,31.4,0,0,1-4.44-2.11,38.41,38.41,0,0,1-14.06-13.13A27.47,27.47,0,0,1,57.89,210a24.65,24.65,0,0,1,0-9.78,30.09,30.09,0,0,1,3.49-9.14,62.46,62.46,0,0,1,5.54-8,31.26,31.26,0,0,1,7.14-6.63,18.84,18.84,0,0,1,9.23-3.06,30.61,30.61,0,0,1,11.4,1.86A89.13,89.13,0,0,1,106,180.14c3.75,1.92,7.56,3.92,11.32,6.21a48.85,48.85,0,0,1,10.44,8.33,26.34,26.34,0,0,1,4,5.55,20,20,0,0,1,2.11,6.54C134.52,211.37,133.31,216,131.39,220.16Z" transform="translate(-18.52 -17.93)"/><path class="cls-3" d="M81.47,207.55s.11,0,.23,0A24.59,24.59,0,0,1,88,205.61a23,23,0,0,1,6.34-.13h0a22.83,22.83,0,0,1,5,1.16c.41.13.81.3,1.21.47l.48.2h0c-.63.42-1.28.82-1.94,1.19a28.16,28.16,0,0,1-5.87,2.35,30.46,30.46,0,0,1-6.6,1c-.19,0-.24,0-.25.07s0,0-.07.11h0l0,.1a14.93,14.93,0,0,0-.24,2.4,41.23,41.23,0,0,0,1,9.78c.21,1,.39,2,.68,3a7.88,7.88,0,0,0,1.45,2.89A4.51,4.51,0,0,0,92,231.88a6.86,6.86,0,0,0,3.23-.57,92,92,0,0,0,11.31-5.3c1.74-1,4.19-2.37,6.9-4.16a15.25,15.25,0,0,0,3.89-3.4,6.26,6.26,0,0,0,1.14-2.53,6.06,6.06,0,0,0-.13-2.81,17.31,17.31,0,0,0-2.55-4.88c-1-1.48-2-2.88-3-4.19s-1.89-2.54-2.68-3.66l-.65-.94-.2-.29-.1-.15,0-.07-.05.08-.41.62c-.36.53-.64,1-1,1.38a26,26,0,0,1-6.5,6.17v-.1l.08-.81c.08-.88.13-1.77.14-2.66a28.16,28.16,0,0,0-1.75-10.46,21.42,21.42,0,0,0-2.43-4.62,8.76,8.76,0,0,0-3.86-3.28,9.12,9.12,0,0,0-4.84-.27c-1.54.27-3,.62-4.38,1A58.33,58.33,0,0,0,77,188.38a13.51,13.51,0,0,0-3.37,1.84,6.23,6.23,0,0,0-1.35,1.45,4.33,4.33,0,0,0-.67,1.91,6.22,6.22,0,0,0,1.12,3.73c.68,1.09,1.43,2.09,2.2,3.09a67,67,0,0,0,5,5.64l1.31,1.39c.09.09.17.14.2.12s0-.05,0-.13h0l-.06-.07c-.21-.27-.71-.84-1.36-1.56-1.84-2.14-3.66-4.29-5.27-6.59-.27-.41-.56-.82-.84-1.23a3.53,3.53,0,0,1,.07-.56A4.53,4.53,0,0,1,75.61,195a13.78,13.78,0,0,1,3.33-1.9c1.2-.52,2.42-1,3.63-1.45A53.79,53.79,0,0,1,88.16,190a28.79,28.79,0,0,1,3.25-.62,9.49,9.49,0,0,1,2.53,0,6.42,6.42,0,0,1,3.21,1.49,10.66,10.66,0,0,1,1.36,1.44c.33.41.63.85.86,1.19a26.11,26.11,0,0,1,1.33,5.27,32.11,32.11,0,0,1,.24,7l-.08,1c0,.05-.08,0-.11,0l-.21-.08-.58-.24-1.19-.4-1.21-.34a23.88,23.88,0,0,0-5-.68,24.64,24.64,0,0,0-5.48.45,21.62,21.62,0,0,0-3.43,1,17.79,17.79,0,0,0-2,.92C81.48,207.49,81.45,207.52,81.47,207.55Zm16.38-17.31a20.87,20.87,0,0,1,1.23,2.57,9.69,9.69,0,0,0-2.32-2.48h0a6.43,6.43,0,0,0-3.6-1.3,13.92,13.92,0,0,0-3.87.4,67.81,67.81,0,0,0-6.85,1.87,39.91,39.91,0,0,0-5.13,2A8.84,8.84,0,0,0,75.05,195a4.3,4.3,0,0,0-1.26,2.48c0,.13,0,.25,0,.35a8.66,8.66,0,0,1-1.45-3.15,3.59,3.59,0,0,1,.4-2.4,5.58,5.58,0,0,1,1.75-1.84,23.47,23.47,0,0,1,4.79-2.29c1.67-.63,3.36-1.19,5-1.67.82-.23,1.81-.49,3-.75a15.33,15.33,0,0,1,3.78-.47,6.35,6.35,0,0,1,4,1.44A12.62,12.62,0,0,1,97.85,190.24ZM87.51,212v0a9.34,9.34,0,0,0-.17,1.53,24.5,24.5,0,0,0,.5,6.28c.24,1.29.55,2.58.85,3.87a10,10,0,0,0,1.51,3.82,5,5,0,0,0,1.6,1.41,3.7,3.7,0,0,0,2.11.41,15.43,15.43,0,0,0,3.82-1.25,87.25,87.25,0,0,0,10.66-5.28c1-.59,2-1.21,3-1.83a21.27,21.27,0,0,0,2.68-2,7.47,7.47,0,0,0,1.83-2.34,5.12,5.12,0,0,0,.51-2.34,8,8,0,0,0-1.11-3.58,32.63,32.63,0,0,0-2-3.12c-.43-.67-4.2-5.68-4.91-6.67.11-.16.23-.31.33-.48l.39-.58.08-.1s.07.08.1.12L110,201l.9,1.26,1.84,2.47c1.22,1.65,2.42,3.3,3.5,5a9.5,9.5,0,0,1,1.88,5.44,6.81,6.81,0,0,1-2.78,4.68,39.12,39.12,0,0,1-4.54,3.09c-1.53.93-3,1.79-4.49,2.56-2.54,1.37-5.16,2.61-7.83,3.74-1.34.55-2.7,1.12-4,1.58a5.72,5.72,0,0,1-2,.34,3.35,3.35,0,0,1-1.84-.64,6.18,6.18,0,0,1-2.19-3.41c-.4-1.36-.69-2.81-1-4.21a43.1,43.1,0,0,1-1.11-8.58c0-1,.11-1.81.15-2.19a.65.65,0,0,0,0-.22.71.71,0,0,0,.22,0ZM101,207.73a26.8,26.8,0,0,0,4.67-3.74,13.77,13.77,0,0,0,1-1.11,12.37,12.37,0,0,0,1-1.18l.49-.63c.72,1.29,5.06,7,5.5,7.81l0,0a17.34,17.34,0,0,1,1.79,3.31,5.52,5.52,0,0,1,.21,3.67,7,7,0,0,1-2.23,3,29.52,29.52,0,0,1-3.18,2.21,74.37,74.37,0,0,1-12.77,6.49c-.86.32-1.73.68-2.58.93a3.78,3.78,0,0,1-2.51,0,4.28,4.28,0,0,1-1.88-1.7,9.06,9.06,0,0,1-1-2.49c-.86-3.6-2-7.18-2-10.86,0-.66.06-1.15.07-1.4V212c.52,0,1.18-.05,1.93-.13a25.8,25.8,0,0,0,4.68-1A28.59,28.59,0,0,0,101,207.73Z" transform="translate(-18.52 -17.93)"/><path class="cls-3" d="M101,207.75l0,0h0Z" transform="translate(-18.52 -17.93)"/><path class="cls-3" d="M70.65,204a4.77,4.77,0,0,0,1.57-1.68,5.49,5.49,0,0,0,.42-.84.88.88,0,0,1,.06-.23h.06s.06,0,.06,0a.73.73,0,0,1,0,.23,3.12,3.12,0,0,1-2,2.93,3.72,3.72,0,0,1-2.36.22,3.64,3.64,0,0,1-2.08-1.41h0a3.21,3.21,0,0,1-.39-.67,1.84,1.84,0,0,1-.2-.77s0,0,0,0a.08.08,0,0,1,.07,0c0,.08.13.36.25.61a2.76,2.76,0,0,0,.31.54A3.91,3.91,0,0,0,69,204.35,2.72,2.72,0,0,0,70.65,204Z" transform="translate(-18.52 -17.93)"/><path class="cls-3" d="M73.15,211.19c.08.13.39.92.46,1a6.28,6.28,0,0,0,.59.77,5.87,5.87,0,0,0,1.18,1,4.05,4.05,0,0,0,1.41.57,8.71,8.71,0,0,0,2,0c.27,0,.54,0,.82-.08a.68.68,0,0,1,.2,0h0s0,0,0,0,0,0,0,.05a.75.75,0,0,1-.17.1,3.7,3.7,0,0,1-3,.29,6.09,6.09,0,0,1-1.79-.86,4.89,4.89,0,0,1-1.4-1.61h0a3.83,3.83,0,0,1-.46-1.24l0,0S73.14,211.17,73.15,211.19Z" transform="translate(-18.52 -17.93)"/><path class="cls-3" d="M68.47,215.21s0,0,0,0,0,.63,0,.7a6,6,0,0,0,.09.61,7.16,7.16,0,0,0,.27,1,4,4,0,0,0,.45.87,11.74,11.74,0,0,0,.86,1l.36.39s.08.07.09.1h0s0,0,0,0,0,0,0,0l-.11,0a3,3,0,0,1-1.37-1.35,5,5,0,0,1-.73-2.46h0a2.92,2.92,0,0,1,.07-.83Z" transform="translate(-18.52 -17.93)"/><path class="cls-3" d="M78.48,222.76h0a2.47,2.47,0,0,1-.07-.86s0,0,0,0h0c0,.1.08.66.11.73a6.08,6.08,0,0,0,.21.6,6.22,6.22,0,0,0,.47.93,4.18,4.18,0,0,0,.66.79,12.34,12.34,0,0,0,1.12.77l.46.3.12.06h0a0,0,0,0,1,0,0s0,0,0,0l-.13,0a2.92,2.92,0,0,1-1.73-1A4.87,4.87,0,0,1,78.48,222.76Z" transform="translate(-18.52 -17.93)"/><path class="cls-3" d="M74.08,187.29a8.68,8.68,0,0,0-2.4.31,4.38,4.38,0,0,0-2.39,2.14c-.07.1-.34.87-.39,1h0s0,0,0,0a3,3,0,0,1,.24-.92,4.63,4.63,0,0,1,.37-.78,4.21,4.21,0,0,1,.94-1,5.64,5.64,0,0,1,1.19-.71,3.36,3.36,0,0,1,1.82-.34,3.23,3.23,0,0,1,.71.2l.17.07h0s0,0,0,0,0,0,0,0A.48.48,0,0,1,74.08,187.29Z" transform="translate(-18.52 -17.93)"/><path class="cls-3" d="M84.9,181.79a3.14,3.14,0,0,1-2.44.32,5.09,5.09,0,0,1-1.5-.62,3.84,3.84,0,0,1-1.23-1.21h0a3.24,3.24,0,0,1-.47-1s0,0,0,0h0c.08.1.39.71.45.78a4.22,4.22,0,0,0,.54.58,4.7,4.7,0,0,0,1,.75,3.48,3.48,0,0,0,1.18.4,8.26,8.26,0,0,0,1.65-.05l.67-.08a.45.45,0,0,1,.16,0h0l0,0a0,0,0,0,1,0,0Z" transform="translate(-18.52 -17.93)"/><path class="cls-3" d="M97.58,184.41l0,0a0,0,0,0,1,0,0l-.06-.13a6.61,6.61,0,0,0-1.31-1.84,3.72,3.72,0,0,0-2.86-.84h0a9.71,9.71,0,0,0-1,.22l0,0s0,0,0-.05a2.4,2.4,0,0,1,.84-.29,4.28,4.28,0,0,1,.8-.11,3.68,3.68,0,0,1,1.28.23,5.15,5.15,0,0,1,1.14.63,2.92,2.92,0,0,1,1.1,1.35,3.16,3.16,0,0,1,.14.68.49.49,0,0,1,0,.16Z" transform="translate(-18.52 -17.93)"/><path class="cls-3" d="M109,190.57a4,4,0,0,1-1.4.7,3.37,3.37,0,0,1-1.67,0h0a2.69,2.69,0,0,1-1-.42s0,0,0,0,0,0,0,0,.72.29.81.29a3.17,3.17,0,0,0,.75.06,4,4,0,0,0,1.19-.18,2.84,2.84,0,0,0,1-.61,5.26,5.26,0,0,0,.89-1.3,5.07,5.07,0,0,0,.29-.57.32.32,0,0,1,0-.15h0l0,0v.15A2.7,2.7,0,0,1,109,190.57Z" transform="translate(-18.52 -17.93)"/><path class="cls-3" d="M122.45,201.36h0l0,0a.72.72,0,0,1,0-.15,6.4,6.4,0,0,0-.59-2.22,3,3,0,0,0-1-1.1,4.09,4.09,0,0,0-1.49-.63h0a8,8,0,0,0-1-.07s0,0,0,0,0,0,0,0a2.4,2.4,0,0,1,.92-.05,4.58,4.58,0,0,1,.81.14,3.58,3.58,0,0,1,1.17.63,4.39,4.39,0,0,1,.89,1,2.9,2.9,0,0,1,.57,1.68,2.7,2.7,0,0,1-.12.7A.43.43,0,0,1,122.45,201.36Z" transform="translate(-18.52 -17.93)"/><path class="cls-3" d="M122.62,212.44a3.61,3.61,0,0,0,.73-.07,3.57,3.57,0,0,0,1.11-.41,2.6,2.6,0,0,0,.84-.8,5.18,5.18,0,0,0,.51-1.46,6.17,6.17,0,0,0,.1-.62v-.16h0s0,0,0,0a.42.42,0,0,1,.05.14,2.52,2.52,0,0,1-.5,2.28,3.35,3.35,0,0,1-1.19,1,2.92,2.92,0,0,1-1.61.3h0a2.31,2.31,0,0,1-1-.26s0,0,0,0a0,0,0,0,1,0,0C121.9,212.3,122.53,212.45,122.62,212.44Z" transform="translate(-18.52 -17.93)"/><path class="cls-3" d="M118.53,224.67a3.46,3.46,0,0,0,.62-.28,5.66,5.66,0,0,0,.9-.62,3.87,3.87,0,0,0,.71-.82,9.5,9.5,0,0,0,.56-1.32c.06-.18.13-.36.18-.55a.29.29,0,0,1,0-.14h0s0,0,0,0h0a.49.49,0,0,1,0,.14,2.82,2.82,0,0,1-.64,2,4.5,4.5,0,0,1-2.28,1.68h0a2.48,2.48,0,0,1-.91.14s0,0,0,0,0,0,0,0S118.47,224.72,118.53,224.67Z" transform="translate(-18.52 -17.93)"/><path class="cls-3" d="M109.13,229.27s0,0,0,0,.14.66.18.72a4.09,4.09,0,0,0,.3.59,5.06,5.06,0,0,0,.65.83,3.36,3.36,0,0,0,.85.6,5.75,5.75,0,0,0,1.33.38,4.85,4.85,0,0,0,.55.09h.15a0,0,0,0,1,0,0s0,0,0,0l-.13,0a2.46,2.46,0,0,1-2-.35,4,4,0,0,1-1.78-2.09h0a2.32,2.32,0,0,1-.14-.88S109.11,229.27,109.13,229.27Z" transform="translate(-18.52 -17.93)"/><path class="cls-3" d="M98.54,233.73c.1,0,.64.23.72.22a2.51,2.51,0,0,0,.67,0,3.49,3.49,0,0,0,1-.19,2.63,2.63,0,0,0,.89-.55,5.61,5.61,0,0,0,.78-1.16c.09-.17.17-.33.25-.51a.49.49,0,0,1,0-.14h0l0,0a.32.32,0,0,1,0,.14,2.38,2.38,0,0,1-1,1.85,3.64,3.64,0,0,1-1.22.65,2.86,2.86,0,0,1-1.48,0h0a2.18,2.18,0,0,1-.85-.33,0,0,0,0,1,0,0A0,0,0,0,1,98.54,233.73Z" transform="translate(-18.52 -17.93)"/><path class="cls-3" d="M140.93,262.93s.08-.2.09-.47a28.13,28.13,0,0,1,.59-5.12,34.61,34.61,0,0,1,2.7-7.88,47.15,47.15,0,0,1,4.2-7.07,42.81,42.81,0,0,1,3-3.75l0,.05a33.49,33.49,0,0,1,8.05-6.61,25.77,25.77,0,0,1,10-3.31,22.18,22.18,0,0,1,5.34.09,20.37,20.37,0,0,1,5.13,1.48,24.73,24.73,0,0,1,8.46,6.35,30.3,30.3,0,0,1,7.37,18.85,28.88,28.88,0,0,1-1.29,9.53,28.43,28.43,0,0,1-4,8A29,29,0,0,1,179,282.6a26.93,26.93,0,0,1-7.27,2,31,31,0,0,1-7.58.06A30.18,30.18,0,0,1,150,279.4a23.24,23.24,0,0,1-5.33-5.33,20.14,20.14,0,0,1-3.12-6.86,23.07,23.07,0,0,1-.53-3.83c0-.26-.06-.45-.11-.45s-.06,0-.07.23h0v.19a19,19,0,0,0,.5,4.21,20.12,20.12,0,0,0,3.66,7.85,23.69,23.69,0,0,0,6.47,5.83,29.57,29.57,0,0,0,10.27,3.95,30.84,30.84,0,0,0,11.13.1,27.16,27.16,0,0,0,10.32-4.16,30.12,30.12,0,0,0,7.86-7.65,30.94,30.94,0,0,0,3.07-5.51,28,28,0,0,0,2.08-7.68,31.24,31.24,0,0,0-3.33-18.18c-3-5.79-8-10.55-13.48-12.64a20.72,20.72,0,0,0-7.95-1.38,24,24,0,0,0-6.38,1,27.69,27.69,0,0,0-9.06,4.75,37,37,0,0,0-7.11,7.35,46.72,46.72,0,0,0-5.64,9.71c-.49,1.18-.92,2.4-1.28,3.58a32.11,32.11,0,0,0-.79,3.4,23.49,23.49,0,0,0-.36,4.56C140.85,262.85,140.88,262.93,140.93,262.93Z" transform="translate(-18.52 -17.93)"/><path class="cls-3" d="M162.23,265.83a4.66,4.66,0,0,0,.31.74,1.46,1.46,0,0,0,.69.62,1.16,1.16,0,0,0,1-.22,3,3,0,0,0,.75-.86,9.54,9.54,0,0,0,.93-2.32,9.65,9.65,0,0,0,.38-2.48,7.71,7.71,0,0,0-.2-1.93,8.56,8.56,0,0,0-.42-1.3,2.3,2.3,0,0,0-.84-1.15,1.2,1.2,0,0,0-.59-.16,1.51,1.51,0,0,0-.95.35,2.31,2.31,0,0,0-.75,1.4c0,.05,0,.07.07.09s.08,0,.1,0,.38-1,1-1.29a1,1,0,0,1,.85-.08.87.87,0,0,1,.37.31,5,5,0,0,1,.48,1.2,8.45,8.45,0,0,1,.26,1.33,8.86,8.86,0,0,1-.09,2.72,11,11,0,0,1-.8,2.51,3.89,3.89,0,0,1-.64,1c-.24.26-.57.36-.68.29a1,1,0,0,1-.37-.55,5.13,5.13,0,0,1-.2-.9,15.38,15.38,0,0,1-.16-1.94c0-1.31-.06-2.64-.06-4l0-.49a.08.08,0,0,0-.07-.08s-.07,0-.09,0h0v0a1.61,1.61,0,0,0-.17.54,14.25,14.25,0,0,0-.46,2.25,13,13,0,0,0,0,2.92A8.47,8.47,0,0,0,162.23,265.83Z" transform="translate(-18.52 -17.93)"/><path class="cls-3" d="M168.63,263.53a1.11,1.11,0,0,0-1.1,0,1.59,1.59,0,0,0-.77.88,2.85,2.85,0,0,0-.16,1.19s0,0,.07,0a.07.07,0,0,0,.07,0,5.41,5.41,0,0,1,.34-1.25,1.45,1.45,0,0,1,.49-.52,1,1,0,0,1,.38-.14c.58-.05,1,.59,1.21,1.21a7.86,7.86,0,0,1,.35,2,6.42,6.42,0,0,1-.19,2,2.27,2.27,0,0,1-.91,1.37l-.29.13-.29.05a.54.54,0,0,1-.43-.19,2.64,2.64,0,0,1-.44-1.22c-.14-1-.14-2-.21-3a3.79,3.79,0,0,0,0-.39.07.07,0,0,0-.07-.05,0,0,0,0,0-.06,0h0a2.38,2.38,0,0,0-.08.42,12.55,12.55,0,0,0-.27,1.72,5.29,5.29,0,0,0,.27,2.27,1.51,1.51,0,0,0,.93,1,1.7,1.7,0,0,0,1.24-.29,2.66,2.66,0,0,0,.91-1.22,6,6,0,0,0,.36-1.88,7,7,0,0,0-.58-3.31A2.08,2.08,0,0,0,168.63,263.53Z" transform="translate(-18.52 -17.93)"/><path class="cls-3" d="M176.17,262.12a1.48,1.48,0,0,0-.42-1,1.09,1.09,0,0,0-.38-.26,1,1,0,0,0-.79.06,1.88,1.88,0,0,0-.8.93s0,.05,0,.08a.06.06,0,0,0,.08,0c.12-.1.46-.65.95-.8a.67.67,0,0,1,.62.14,1.11,1.11,0,0,1,.24.32,3.18,3.18,0,0,1-.2,1.94,8.61,8.61,0,0,1-.89,1.92,13,13,0,0,1-1.24,1.64,4.47,4.47,0,0,1-.69.63,1.15,1.15,0,0,1-.33.17c-.1,0-.11,0-.17,0a.65.65,0,0,1-.11-.48,3.38,3.38,0,0,1,.1-.69,14.79,14.79,0,0,1,.45-1.43c.35-1,.73-1.91,1.07-2.88a1.84,1.84,0,0,0,.15-.36s0-.05,0-.07,0,0-.07,0h0l0,0a2.15,2.15,0,0,0-.24.35,13.77,13.77,0,0,0-.94,1.49,9.85,9.85,0,0,0-.85,2.09,6.15,6.15,0,0,0-.21,1.15,2.19,2.19,0,0,0,0,.62,1,1,0,0,0,.34.63.75.75,0,0,0,.42.14,1,1,0,0,0,.43-.13,3,3,0,0,0,.67-.53,11.1,11.1,0,0,0,1.22-1.46,8.57,8.57,0,0,0,1.44-3.07A4.61,4.61,0,0,0,176.17,262.12Z" transform="translate(-18.52 -17.93)"/><path class="cls-3" d="M172.94,259.78a5.75,5.75,0,0,0,0-.93,1.45,1.45,0,0,0-.33-.9,1,1,0,0,0-.32-.25.76.76,0,0,0-.69,0,1.55,1.55,0,0,0-.72.82s0,0,0,.06a.06.06,0,0,0,.07,0c.1-.09.4-.59.83-.7s.71.39.73.47a4.3,4.3,0,0,1-.07,1.77,10.35,10.35,0,0,1-.47,1.82,8,8,0,0,1-.76,1.61,1.4,1.4,0,0,1-.56.48.35.35,0,0,1-.46-.1,1.61,1.61,0,0,1-.27-1.08c0-.43.1-.88.18-1.31a18.52,18.52,0,0,1,.68-2.58,1.48,1.48,0,0,0,.13-.31s0,0,0-.07,0,0-.06,0h0a1.64,1.64,0,0,0-.22.32,7.57,7.57,0,0,0-.75,1.37,7.1,7.1,0,0,0-.45,2,2.45,2.45,0,0,0,.46,2,.79.79,0,0,0,.66.25,1.32,1.32,0,0,0,.72-.37,4.24,4.24,0,0,0,.88-1.47A9.79,9.79,0,0,0,172.94,259.78Z" transform="translate(-18.52 -17.93)"/><path class="cls-3" d="M167.62,255.92a5.38,5.38,0,0,0-.82,1.9,5.49,5.49,0,0,0-.06,2.1,1.49,1.49,0,0,0,.29.6.88.88,0,0,0,.84.26,2.28,2.28,0,0,0,1.4-1.13,11.74,11.74,0,0,0,1.16-2.82,10.58,10.58,0,0,0,.31-1.87,1.61,1.61,0,0,0-.05-.4.7.7,0,0,0-.52-.5,1.18,1.18,0,0,0-1,.42s0,0,0,.07a.05.05,0,0,0,.07,0c.07,0,.21-.12.4-.2a.69.69,0,0,1,.61,0,.56.56,0,0,1,.24.51,2.22,2.22,0,0,1,0,.4,14.72,14.72,0,0,1-1.22,3.64,2.8,2.8,0,0,1-1.08,1.35.72.72,0,0,1-.64.08.71.71,0,0,1-.28-.51,4.4,4.4,0,0,1,.07-1.29,8.19,8.19,0,0,1,.35-1.29,8.85,8.85,0,0,1,1.29-2.35l.24-.26a.08.08,0,0,0,0-.08.09.09,0,0,0-.06,0h0a1.87,1.87,0,0,0-.32.23A5.23,5.23,0,0,0,167.62,255.92Z" transform="translate(-18.52 -17.93)"/><path class="cls-3" d="M164.91,254.83a2.35,2.35,0,0,0,.74.88,1.27,1.27,0,0,0,.65.28,1,1,0,0,0,.84-.34A4.13,4.13,0,0,0,168,254a11.55,11.55,0,0,0,.49-3.16,2.3,2.3,0,0,0-.76-1.85,1.38,1.38,0,0,0-1.1-.25,1.13,1.13,0,0,0-.59.46,1.45,1.45,0,0,0-.18.41s0,.05,0,.07a.06.06,0,0,0,.08,0c.1-.1.36-.68.86-.7a1.21,1.21,0,0,1,.93.46,2.82,2.82,0,0,1,.3,1.82,14.88,14.88,0,0,1-.32,2,6,6,0,0,1-.65,1.79,1,1,0,0,1-.54.49.64.64,0,0,1-.57-.2,2.74,2.74,0,0,1-.69-2.43,16.42,16.42,0,0,1,.53-2.8c0-.16.1-.29.11-.35a.08.08,0,0,0,0-.07s-.05,0-.06,0h0a2.07,2.07,0,0,0-.2.35,7.87,7.87,0,0,0-.71,1.53,5.19,5.19,0,0,0-.26,2.16A3.38,3.38,0,0,0,164.91,254.83Z" transform="translate(-18.52 -17.93)"/><path class="cls-3" d="M170.13,249.11a.08.08,0,0,0,.06-.05,2.83,2.83,0,0,1,.14-1.11.86.86,0,0,1,.78-.49,2.06,2.06,0,0,1,1.41.87,4.45,4.45,0,0,1,1,3.31A2,2,0,0,1,173,253a.7.7,0,0,1-.9-.11,3.39,3.39,0,0,1-.73-1,23,23,0,0,1-1.06-2.42,1.76,1.76,0,0,0-.1-.32.06.06,0,0,0-.07,0,.05.05,0,0,0,0,0h0v0a1.41,1.41,0,0,0,0,.37,8.94,8.94,0,0,0,.28,1.53,5.38,5.38,0,0,0,.88,1.8,2.13,2.13,0,0,0,.88.67,1.2,1.2,0,0,0,1.13-.2,2.14,2.14,0,0,0,.6-1.22,4.77,4.77,0,0,0,0-1.69,4.55,4.55,0,0,0-1.39-2.63,1.81,1.81,0,0,0-1.76-.54,1.11,1.11,0,0,0-.35.2,1.05,1.05,0,0,0-.36.56,1.87,1.87,0,0,0,0,1.07S170.1,249.11,170.13,249.11Z" transform="translate(-18.52 -17.93)"/><path class="cls-3" d="M174.42,259.15a1.69,1.69,0,0,0,.34.48.9.9,0,0,0,.59.24,1.49,1.49,0,0,0,1.21-.74,5.68,5.68,0,0,0,.67-1.59,6,6,0,0,0,0-3,3.54,3.54,0,0,0-.36-.89,1.44,1.44,0,0,0-.74-.63,1.06,1.06,0,0,0-.4-.08,1,1,0,0,0-.64.27,1.7,1.7,0,0,0-.54.95s0,0,0,.06a.07.07,0,0,0,.08,0,2.37,2.37,0,0,1,.69-.88.79.79,0,0,1,.91.08A2.72,2.72,0,0,1,177,255a5.87,5.87,0,0,1,0,1.87,5.7,5.7,0,0,1-.54,1.71c-.24.5-.67.89-1,.84s-.47-.4-.57-.81a7.69,7.69,0,0,1-.17-1.3c0-.89,0-1.8,0-2.71l0-.34s0,0,0-.05,0,0-.06,0h0a1.61,1.61,0,0,0-.13.37,8.06,8.06,0,0,0-.33,1.55,7.22,7.22,0,0,0,0,2A4.2,4.2,0,0,0,174.42,259.15Z" transform="translate(-18.52 -17.93)"/><path class="cls-3" d="M178.39,240.68a5.92,5.92,0,0,0,.81-.27h0a7.14,7.14,0,0,1,2.56-.33,7.64,7.64,0,0,0,1.93.14h.13s0,0,0-.06,0,0,0-.06h0a.48.48,0,0,0-.12-.08,2.34,2.34,0,0,0-.51-.33,2.6,2.6,0,0,0-1.46-.11c-.24,0-.66,0-1.09.09a5.35,5.35,0,0,0-1.07.23l-.62.29c-.06,0-.61.25-.66.37a.11.11,0,0,0,0,.07S178.37,240.67,178.39,240.68Z" transform="translate(-18.52 -17.93)"/><path class="cls-3" d="M183.14,249s0,0,0,.06a.26.26,0,0,0,0,.07,3.19,3.19,0,0,0,.78.28h0c.81.3,1.78.46,2.46.72a3.75,3.75,0,0,0,1.88.33h.12s0,0,0-.06a.15.15,0,0,0,0-.06h0a.31.31,0,0,0-.12-.08,2.66,2.66,0,0,0-.47-.3,3.61,3.61,0,0,0-1.33-.29c-.44-.05-1.54-.39-2-.46l-.63-.08C183.77,249.07,183.25,248.9,183.14,249Z" transform="translate(-18.52 -17.93)"/><path class="cls-3" d="M186.1,261.71a.06.06,0,0,0,0,0H186a.13.13,0,0,0-.05.09,2,2,0,0,0-.22.37,3,3,0,0,0-.17,1c0,.33-.24,1.19-.28,1.54l0,.48c0,.06-.11.46-.06.55l0,0h.05a3,3,0,0,0,.19-.61h0c.2-.63.28-1.38.46-1.91a2.83,2.83,0,0,0,.18-1.45A.78.78,0,0,0,186.1,261.71Z" transform="translate(-18.52 -17.93)"/><path class="cls-3" d="M176.06,275.53s-.38-.11-.45-.07,0,0,0,0,0,0,0,0a2.51,2.51,0,0,0,.5.18h0c.53.19,1.15.28,1.6.45a2.52,2.52,0,0,0,1.22.2H179l0,0v0h0s0,0-.08,0a1.44,1.44,0,0,0-.31-.19,2.28,2.28,0,0,0-.86-.18c-.28,0-1-.24-1.29-.29Z" transform="translate(-18.52 -17.93)"/><path class="cls-3" d="M164.41,276h0a.18.18,0,0,0-.06.08,1.64,1.64,0,0,0-.28.31,2.62,2.62,0,0,0-.36.94c-.09.31-.46,1.08-.56,1.4l-.13.45c0,.05-.2.41-.17.5l0,0h.05a2.63,2.63,0,0,0,.3-.54h0c.32-.55.54-1.24.81-1.71a2.75,2.75,0,0,0,.45-1.34s0-.07,0-.09,0,0,0,0Z" transform="translate(-18.52 -17.93)"/><path class="cls-3" d="M153,271.43a1.78,1.78,0,0,0,.61-.27h0a5.63,5.63,0,0,0,1.58-1.38,2.06,2.06,0,0,0,.63-1.43.16.16,0,0,0,0-.1s0,0,0,0h-.06a.18.18,0,0,0-.06.08,2.86,2.86,0,0,0-.29.33,5.81,5.81,0,0,0-.5.92,4.87,4.87,0,0,1-1.08,1.14,3.8,3.8,0,0,1-.37.33s-.43.23-.47.32a.13.13,0,0,0,0,.05S153,271.43,153,271.43Z" transform="translate(-18.52 -17.93)"/><path class="cls-3" d="M146.53,259.68h0c.61.12,1.32.13,1.83.24a2.58,2.58,0,0,0,1.38,0l.09,0a.06.06,0,0,0,0,0v0h0l-.1,0a1.73,1.73,0,0,0-.37-.16,2.64,2.64,0,0,0-1-.06c-.32,0-1.15-.11-1.47-.11l-.46,0a1.73,1.73,0,0,0-.51,0s0,0,0,0,0,0,0,.05A2.54,2.54,0,0,0,146.53,259.68Z" transform="translate(-18.52 -17.93)"/><path class="cls-3" d="M158.39,249.36s0,0-.06,0h-.07a.37.37,0,0,0-.07.13,3.66,3.66,0,0,0-.31.49,4,4,0,0,0-.27,1.37c0,.45-.37,1.6-.43,2.06l-.07.65c0,.07-.17.62-.11.73l.07,0h.06a3.39,3.39,0,0,0,.28-.81h0c.29-.84.44-1.83.69-2.54a3.77,3.77,0,0,0,.3-1.94A.24.24,0,0,0,158.39,249.36Z" transform="translate(-18.52 -17.93)"/><path class="cls-3" d="M154.85,242.35c.09,0,.41-.43.47-.47a4.8,4.8,0,0,1,1.69-1.07,6.6,6.6,0,0,0,1.43-.46.19.19,0,0,0,.1,0,.07.07,0,0,0,0-.05v0h0a.16.16,0,0,0-.11,0,1.9,1.9,0,0,0-.46-.1,2,2,0,0,0-1.1.36c-.16.1-.47.23-.75.41a4.34,4.34,0,0,0-.69.52q-.18.21-.33.42s-.35.39-.33.49,0,0,0,0Z" transform="translate(-18.52 -17.93)"/><path class="cls-3" d="M168,239.83a2.07,2.07,0,0,0,.38-.61h0a6.23,6.23,0,0,0,.54-2.19,2.24,2.24,0,0,0-.32-1.65l-.06-.09h-.05l0,0h0a.24.24,0,0,0,0,.12,4,4,0,0,0-.06.47,7,7,0,0,0,.13,1.11,3.34,3.34,0,0,1-.06.84c-.05.33-.15.65-.19.84s-.08.34-.13.51-.24.47-.22.57l0,0S168,239.84,168,239.83Z" transform="translate(-18.52 -17.93)"/><path class="cls-3" d="M204.44,237.6a1.49,1.49,0,0,0-.42-1,1.09,1.09,0,0,0-.38-.26,1,1,0,0,0-.79.06,1.94,1.94,0,0,0-.8.93s0,.06,0,.08a.06.06,0,0,0,.08,0c.12-.1.46-.65,1-.8a.67.67,0,0,1,.62.14,1.26,1.26,0,0,1,.24.32,3.22,3.22,0,0,1-.2,1.95,9,9,0,0,1-.89,1.92,12,12,0,0,1-1.24,1.63,4.47,4.47,0,0,1-.69.63,1.15,1.15,0,0,1-.33.17c-.1,0-.11,0-.17,0s-.12-.26-.11-.48a4.42,4.42,0,0,1,.1-.69c.12-.48.28-1,.45-1.43.35-.95.73-1.91,1.07-2.88a2.72,2.72,0,0,0,.16-.36.09.09,0,0,0,0-.07s-.05,0-.07,0h0a1.59,1.59,0,0,0-.25.35,13.77,13.77,0,0,0-.94,1.49,10.4,10.4,0,0,0-.85,2.09,6.15,6.15,0,0,0-.21,1.15,2.63,2.63,0,0,0,0,.62,1,1,0,0,0,.34.63.75.75,0,0,0,.42.14,1,1,0,0,0,.43-.13,2.79,2.79,0,0,0,.67-.53,10.48,10.48,0,0,0,1.22-1.46,8.4,8.4,0,0,0,1.44-3.07A4.59,4.59,0,0,0,204.44,237.6Z" transform="translate(-18.52 -17.93)"/><path class="cls-3" d="M199.57,239.61a4.57,4.57,0,0,0,.89-1.48,10,10,0,0,0,.75-2.88,5.62,5.62,0,0,0,0-.92,1.45,1.45,0,0,0-.33-.91,1,1,0,0,0-.32-.25.79.79,0,0,0-.69,0,1.47,1.47,0,0,0-.71.82s0,0,0,.06a.06.06,0,0,0,.07,0c.1-.09.4-.59.83-.7s.71.39.73.47a4.3,4.3,0,0,1-.07,1.77,10.13,10.13,0,0,1-.47,1.82,8,8,0,0,1-.76,1.61,1.4,1.4,0,0,1-.56.48.35.35,0,0,1-.46-.1,1.61,1.61,0,0,1-.27-1.08c0-.43.1-.88.18-1.31a18.08,18.08,0,0,1,.69-2.57,2.43,2.43,0,0,0,.12-.32s0-.05,0-.07a.07.07,0,0,0-.06,0h0a1.64,1.64,0,0,0-.22.32,6.77,6.77,0,0,0-.74,1.38,6.63,6.63,0,0,0-.46,1.94,2.52,2.52,0,0,0,.46,2,.81.81,0,0,0,.66.24A1.37,1.37,0,0,0,199.57,239.61Z" transform="translate(-18.52 -17.93)"/><path class="cls-3" d="M199,230.43a1.61,1.61,0,0,0,0-.4.7.7,0,0,0-.52-.5,1.18,1.18,0,0,0-1,.42s0,0,0,.07a.07.07,0,0,0,.07,0c.07,0,.21-.13.4-.21a.73.73,0,0,1,.61,0,.56.56,0,0,1,.24.51c0,.19,0,.34,0,.4a15.17,15.17,0,0,1-1.23,3.64,2.8,2.8,0,0,1-1.08,1.35.72.72,0,0,1-.64.08.71.71,0,0,1-.28-.51,4.4,4.4,0,0,1,.07-1.29,8.19,8.19,0,0,1,.35-1.29,8.62,8.62,0,0,1,1.3-2.35l.23-.26a.08.08,0,0,0,0-.08s0,0,0,0h0a1.87,1.87,0,0,0-.32.23,5.23,5.23,0,0,0-1.14,1.16,5.35,5.35,0,0,0-.82,1.91,5.43,5.43,0,0,0-.06,2.09,1.49,1.49,0,0,0,.29.6.88.88,0,0,0,.84.26,2.28,2.28,0,0,0,1.4-1.13,11.74,11.74,0,0,0,1.16-2.82A10.58,10.58,0,0,0,199,230.43Z" transform="translate(-18.52 -17.93)"/><path class="cls-3" d="M196.24,229.46a12,12,0,0,0,.5-3.16,2.27,2.27,0,0,0-.77-1.84,1.33,1.33,0,0,0-1.1-.26,1.1,1.1,0,0,0-.59.47,1.32,1.32,0,0,0-.18.4s0,.06,0,.07a.06.06,0,0,0,.08,0c.1-.1.36-.68.86-.69a1.18,1.18,0,0,1,.93.45,2.77,2.77,0,0,1,.3,1.82,14.88,14.88,0,0,1-.32,2,6,6,0,0,1-.65,1.79,1,1,0,0,1-.54.49.64.64,0,0,1-.57-.2,2.74,2.74,0,0,1-.69-2.43,16.42,16.42,0,0,1,.53-2.8c.05-.16.1-.28.11-.35a.06.06,0,0,0,0-.07h-.08a2.07,2.07,0,0,0-.2.35,8.51,8.51,0,0,0-.71,1.53,5.19,5.19,0,0,0-.26,2.16,3.31,3.31,0,0,0,.29,1.11,2.44,2.44,0,0,0,.74.88,1.27,1.27,0,0,0,.65.28,1,1,0,0,0,.84-.34A4.13,4.13,0,0,0,196.24,229.46Z" transform="translate(-18.52 -17.93)"/><path class="cls-3" d="M198.4,224.58s.06,0,.06-.05a3,3,0,0,1,.14-1.1.86.86,0,0,1,.78-.5,2.06,2.06,0,0,1,1.41.87,4.45,4.45,0,0,1,1,3.31,2,2,0,0,1-.56,1.33.7.7,0,0,1-.9-.11,3.39,3.39,0,0,1-.73-1,23,23,0,0,1-1.06-2.42,1.76,1.76,0,0,0-.1-.32.06.06,0,0,0-.07,0,.05.05,0,0,0-.05,0h0v0a1.16,1.16,0,0,0,0,.37,7.91,7.91,0,0,0,.27,1.53,5.22,5.22,0,0,0,.89,1.8,2,2,0,0,0,.87.67,1.2,1.2,0,0,0,1.13-.2,2.11,2.11,0,0,0,.6-1.22,4.77,4.77,0,0,0,0-1.69,4.55,4.55,0,0,0-1.39-2.63,1.8,1.8,0,0,0-1.76-.54,1.13,1.13,0,0,0-.71.76,1.87,1.87,0,0,0,0,1.07A0,0,0,0,0,198.4,224.58Z" transform="translate(-18.52 -17.93)"/><path class="cls-3" d="M202.69,234.62a1.56,1.56,0,0,0,.34.48.9.9,0,0,0,.59.24,1.49,1.49,0,0,0,1.21-.74,5.4,5.4,0,0,0,.67-1.59,6,6,0,0,0,0-3,3.33,3.33,0,0,0-.36-.88,1.41,1.41,0,0,0-.74-.64.94.94,0,0,0-.4-.07,1,1,0,0,0-.64.26,1.7,1.7,0,0,0-.54.95s0,0,0,.06a.06.06,0,0,0,.07,0,2.37,2.37,0,0,1,.69-.88.78.78,0,0,1,.91.08,2.72,2.72,0,0,1,.67,1.61,5.87,5.87,0,0,1,0,1.87,5.7,5.7,0,0,1-.54,1.71c-.24.5-.67.89-1,.84s-.47-.4-.56-.81a6.79,6.79,0,0,1-.18-1.3c0-.89,0-1.8,0-2.71l0-.34a.05.05,0,0,0,0-.05h-.08a1.43,1.43,0,0,0-.12.37,8.08,8.08,0,0,0-.34,1.55,6.87,6.87,0,0,0,0,2A3.77,3.77,0,0,0,202.69,234.62Z" transform="translate(-18.52 -17.93)"/><path class="cls-3" d="M206.66,216.15a5.92,5.92,0,0,0,.81-.27h0a7.14,7.14,0,0,1,2.56-.33,8.13,8.13,0,0,0,1.93.15h.13s0,0,0-.06,0,0,0-.06h0l-.12-.08a2.34,2.34,0,0,0-.51-.33A2.69,2.69,0,0,0,210,215c-.24,0-.66,0-1.09.09a5.35,5.35,0,0,0-1.07.23c-.21.09-.42.19-.62.3s-.61.24-.66.37a.1.1,0,0,0,0,.06A.16.16,0,0,0,206.66,216.15Z" transform="translate(-18.52 -17.93)"/><path class="cls-3" d="M211.41,224.43s0,0,0,.06,0,.06,0,.07a2.92,2.92,0,0,0,.78.28h0c.81.3,1.78.46,2.46.72a3.65,3.65,0,0,0,1.88.33h.12s0,0,0-.06a.15.15,0,0,0,0-.06h0a.31.31,0,0,0-.12-.08,2.66,2.66,0,0,0-.47-.3,3.61,3.61,0,0,0-1.33-.29c-.44-.05-1.54-.39-2-.46l-.63-.08C212,224.54,211.52,224.37,211.41,224.43Z" transform="translate(-18.52 -17.93)"/><path class="cls-3" d="M214.37,237.18a.06.06,0,0,0-.05,0h0a.13.13,0,0,0-.05.09,2.4,2.4,0,0,0-.22.37,3,3,0,0,0-.17,1c0,.33-.24,1.2-.28,1.54l0,.48c0,.06-.11.47-.06.55l.05,0h.05a2.51,2.51,0,0,0,.19-.61h0c.2-.63.28-1.37.46-1.91a2.83,2.83,0,0,0,.18-1.45A.78.78,0,0,0,214.37,237.18Z" transform="translate(-18.52 -17.93)"/><path class="cls-3" d="M204.33,251s-.38-.11-.45-.07,0,0,0,0,0,0,0,0a2.51,2.51,0,0,0,.5.18h0c.53.19,1.15.28,1.6.45a2.52,2.52,0,0,0,1.22.2h.08a.11.11,0,0,0,0,0v0h0s0,0-.08-.05a1.44,1.44,0,0,0-.31-.19,2.28,2.28,0,0,0-.86-.18c-.28,0-1-.24-1.29-.29Z" transform="translate(-18.52 -17.93)"/><path class="cls-3" d="M186.81,215.68h0s-.06,0-.11,0a1.5,1.5,0,0,0-.46-.09,2,2,0,0,0-1.1.35c-.16.1-.47.23-.75.41a3.79,3.79,0,0,0-.69.53,4.23,4.23,0,0,0-.33.41s-.34.39-.33.5,0,0,0,0l.05,0c.09,0,.41-.43.47-.47h0a5,5,0,0,1,1.69-1.07,6.6,6.6,0,0,0,1.43-.46.19.19,0,0,0,.1,0,.12.12,0,0,0,0-.05.11.11,0,0,1,0,0Z" transform="translate(-18.52 -17.93)"/><path class="cls-3" d="M196.29,215.31a2.25,2.25,0,0,0,.38-.62h0a6.23,6.23,0,0,0,.54-2.19,2.17,2.17,0,0,0-.32-1.64.29.29,0,0,0-.06-.1h-.05a.06.06,0,0,0-.05,0h0a.24.24,0,0,0,0,.12,4,4,0,0,0-.06.47,7,7,0,0,0,.13,1.11,3.44,3.44,0,0,1-.06.85c0,.32-.15.64-.19.83s-.08.34-.13.52-.24.46-.22.56l0,0Z" transform="translate(-18.52 -17.93)"/><path class="cls-3" d="M194.88,241.14v.05c0,.11.11.21.16.32a2.84,2.84,0,0,0,0-.34.07.07,0,0,0-.07,0s-.05,0-.06,0Z" transform="translate(-18.52 -17.93)"/><path class="cls-3" d="M232.71,213.07a1.49,1.49,0,0,0-.42-1,1.09,1.09,0,0,0-.38-.26,1,1,0,0,0-.79.07,1.89,1.89,0,0,0-.8.92s0,.06,0,.08a.08.08,0,0,0,.08,0c.12-.11.46-.66.95-.81a.67.67,0,0,1,.62.14,1,1,0,0,1,.24.32,3.22,3.22,0,0,1-.2,1.95,9,9,0,0,1-.89,1.92,12,12,0,0,1-1.24,1.63,4.47,4.47,0,0,1-.69.63,1,1,0,0,1-.33.17c-.1,0-.11,0-.17,0s-.12-.25-.11-.47a4.54,4.54,0,0,1,.1-.7,13.18,13.18,0,0,1,.46-1.43c.34-.95.72-1.9,1.07-2.88.07-.16.13-.29.15-.36a.09.09,0,0,0,0-.07.06.06,0,0,0-.07,0h0a1.59,1.59,0,0,0-.25.35,13,13,0,0,0-.94,1.5,10.08,10.08,0,0,0-.85,2.08,7.08,7.08,0,0,0-.21,1.15,2.63,2.63,0,0,0,0,.62,1,1,0,0,0,.35.63.65.65,0,0,0,.41.14,1.19,1.19,0,0,0,.43-.12,3.4,3.4,0,0,0,.67-.53,11.2,11.2,0,0,0,1.22-1.47,8.4,8.4,0,0,0,1.44-3.07A4.59,4.59,0,0,0,232.71,213.07Z" transform="translate(-18.52 -17.93)"/><path class="cls-3" d="M227.85,215.08a4.61,4.61,0,0,0,.88-1.48,10,10,0,0,0,.75-2.88,5.59,5.59,0,0,0,0-.92,1.45,1.45,0,0,0-.33-.91,1,1,0,0,0-.32-.25.79.79,0,0,0-.69,0,1.5,1.5,0,0,0-.71.82s0,0,0,.06a.06.06,0,0,0,.07,0c.1-.09.4-.59.83-.7s.71.39.73.47a4.3,4.3,0,0,1-.07,1.77,10.13,10.13,0,0,1-.47,1.82,8.34,8.34,0,0,1-.76,1.62,1.46,1.46,0,0,1-.56.47.35.35,0,0,1-.46-.09,1.65,1.65,0,0,1-.27-1.09c0-.43.1-.88.18-1.31a19.52,19.52,0,0,1,.69-2.57,2.43,2.43,0,0,0,.12-.32s0-.05,0-.07a.07.07,0,0,0-.06,0h0v0a1.24,1.24,0,0,0-.22.31,6.88,6.88,0,0,0-1.2,3.32,2.52,2.52,0,0,0,.46,2,.81.81,0,0,0,.66.24A1.44,1.44,0,0,0,227.85,215.08Z" transform="translate(-18.52 -17.93)"/><path class="cls-3" d="M227.28,205.9a1.61,1.61,0,0,0-.05-.4.7.7,0,0,0-.52-.5,1.21,1.21,0,0,0-1,.42s0,.05,0,.07a.06.06,0,0,0,.07,0c.07,0,.21-.13.4-.21a.76.76,0,0,1,.61,0,.56.56,0,0,1,.24.51c0,.19,0,.34,0,.4a15.17,15.17,0,0,1-1.23,3.64,2.74,2.74,0,0,1-1.08,1.35.55.55,0,0,1-.92-.43,4.4,4.4,0,0,1,.07-1.29,8.19,8.19,0,0,1,.35-1.29,8.76,8.76,0,0,1,1.3-2.35l.23-.26a.08.08,0,0,0,0-.08s0,0-.05,0h0a1.87,1.87,0,0,0-.32.23,5.41,5.41,0,0,0-1.13,1.16,5,5,0,0,0-.82,1.91,5.24,5.24,0,0,0-.07,2.09,1.4,1.4,0,0,0,.3.6.89.89,0,0,0,.83.27,2.38,2.38,0,0,0,1.41-1.14,11.9,11.9,0,0,0,1.15-2.82A10.58,10.58,0,0,0,227.28,205.9Z" transform="translate(-18.52 -17.93)"/><path class="cls-3" d="M224.51,204.94a12.15,12.15,0,0,0,.5-3.16,2.31,2.31,0,0,0-.77-1.85,1.3,1.3,0,0,0-1.1-.25,1.07,1.07,0,0,0-.59.46,1.25,1.25,0,0,0-.18.41s0,0,0,.06a.06.06,0,0,0,.08,0c.1-.1.36-.68.86-.69a1.18,1.18,0,0,1,.93.45,2.79,2.79,0,0,1,.3,1.83,16.48,16.48,0,0,1-.31,2,6.33,6.33,0,0,1-.66,1.79,1,1,0,0,1-.54.49.64.64,0,0,1-.57-.2,2.74,2.74,0,0,1-.69-2.43,16.42,16.42,0,0,1,.53-2.8c0-.16.1-.28.11-.35s0-.05,0-.07,0,0-.06,0h0a2.61,2.61,0,0,0-.2.35,7.83,7.83,0,0,0-.7,1.53,5,5,0,0,0-.27,2.16,3.31,3.31,0,0,0,.29,1.11,2.56,2.56,0,0,0,.74.89,1.36,1.36,0,0,0,.65.27,1,1,0,0,0,.84-.34A4.15,4.15,0,0,0,224.51,204.94Z" transform="translate(-18.52 -17.93)"/><path class="cls-3" d="M226.68,200.05s0,0,0-.05a3,3,0,0,1,.14-1.1.86.86,0,0,1,.78-.5,2,2,0,0,1,1.41.87,4.48,4.48,0,0,1,1,3.31,2,2,0,0,1-.56,1.33.7.7,0,0,1-.9-.11,3.39,3.39,0,0,1-.73-1,20.29,20.29,0,0,1-1.05-2.42c0-.15-.08-.26-.11-.32a0,0,0,0,0-.06,0s-.05,0-.06,0h0v0a1.16,1.16,0,0,0,0,.37,7.91,7.91,0,0,0,.27,1.53,5.22,5.22,0,0,0,.89,1.8,2,2,0,0,0,.87.67,1.17,1.17,0,0,0,1.13-.2,2.11,2.11,0,0,0,.6-1.22,4.77,4.77,0,0,0,0-1.69,4.55,4.55,0,0,0-1.39-2.63,1.78,1.78,0,0,0-1.76-.53.86.86,0,0,0-.35.19,1.17,1.17,0,0,0-.36.57,1.84,1.84,0,0,0,0,1.06S226.64,200.06,226.68,200.05Z" transform="translate(-18.52 -17.93)"/><path class="cls-3" d="M231,210.1a1.87,1.87,0,0,0,.34.47.92.92,0,0,0,.59.24,1.49,1.49,0,0,0,1.21-.74,5.4,5.4,0,0,0,.67-1.59,5.93,5.93,0,0,0,0-3,3,3,0,0,0-.36-.88,1.41,1.41,0,0,0-.74-.64.9.9,0,0,0-.4-.07,1,1,0,0,0-.64.26,1.7,1.7,0,0,0-.54.95s0,.05,0,.06a.06.06,0,0,0,.07,0,2.37,2.37,0,0,1,.69-.88.78.78,0,0,1,.91.08,2.74,2.74,0,0,1,.67,1.61,6.17,6.17,0,0,1,0,1.87,5.91,5.91,0,0,1-.55,1.71c-.24.51-.67.89-1,.84s-.47-.4-.56-.81a6.79,6.79,0,0,1-.17-1.3c-.05-.89-.05-1.8,0-2.71l0-.33a.05.05,0,0,0,0-.06h-.08a1.43,1.43,0,0,0-.12.37,8.25,8.25,0,0,0-.34,1.55,6.86,6.86,0,0,0,0,2A3.94,3.94,0,0,0,231,210.1Z" transform="translate(-18.52 -17.93)"/><path class="cls-3" d="M234.93,191.62a5.92,5.92,0,0,0,.81-.27h0a7.18,7.18,0,0,1,2.56-.34,7.64,7.64,0,0,0,1.93.15h.13s0,0,0-.06,0,0,0-.06h0a.48.48,0,0,0-.12-.08,3,3,0,0,0-.51-.33,2.68,2.68,0,0,0-1.46-.11c-.24,0-.66,0-1.09.09a5.35,5.35,0,0,0-1.07.23c-.21.09-.42.19-.62.3s-.61.24-.66.37a.1.1,0,0,0,0,.06A.16.16,0,0,0,234.93,191.62Z" transform="translate(-18.52 -17.93)"/><path class="cls-3" d="M239.68,199.9s0,0,0,.06,0,.06,0,.07a3.05,3.05,0,0,0,.78.28h0c.81.3,1.78.46,2.46.72a3.65,3.65,0,0,0,1.88.33h.12s0,0,0-.06a.11.11,0,0,0,0,0h0a.31.31,0,0,0-.12-.08,3.38,3.38,0,0,0-.47-.3,3.83,3.83,0,0,0-1.33-.29c-.44-.05-1.54-.39-2-.46l-.63-.08A2.5,2.5,0,0,0,239.68,199.9Z" transform="translate(-18.52 -17.93)"/><path class="cls-3" d="M242.64,212.65a.06.06,0,0,0,0,0h-.05a.13.13,0,0,0,0,.09,2.4,2.4,0,0,0-.22.37,3,3,0,0,0-.17,1c0,.34-.24,1.2-.28,1.54l0,.48a2.44,2.44,0,0,0-.06.55l.05,0h0a2.51,2.51,0,0,0,.19-.61h0c.2-.63.29-1.37.46-1.9a2.88,2.88,0,0,0,.18-1.46A.22.22,0,0,0,242.64,212.65Z" transform="translate(-18.52 -17.93)"/><path class="cls-3" d="M232.61,226.47c-.05,0-.39-.11-.46-.07s0,0,0,0,0,0,0,0a1.94,1.94,0,0,0,.51.18h0c.53.19,1.16.29,1.6.45a2.52,2.52,0,0,0,1.22.2h.08s0,0,0,0v0h0s0,0-.08-.05a2,2,0,0,0-.31-.19,2.28,2.28,0,0,0-.86-.18c-.28,0-1-.24-1.29-.28Z" transform="translate(-18.52 -17.93)"/><path class="cls-3" d="M215.08,191.15h0s-.06,0-.11,0a1.87,1.87,0,0,0-.46-.09,2,2,0,0,0-1.1.35c-.16.1-.47.24-.75.41a3.79,3.79,0,0,0-.69.53,4.23,4.23,0,0,0-.33.41c0,.05-.34.39-.33.5s0,0,0,0l0,0c.09,0,.41-.43.47-.47h0a5,5,0,0,1,1.69-1.07,6.6,6.6,0,0,0,1.43-.46l.1,0a.35.35,0,0,0,0-.06.11.11,0,0,1,0,0Z" transform="translate(-18.52 -17.93)"/><path class="cls-3" d="M224.56,190.78a2.25,2.25,0,0,0,.38-.62h0a6.23,6.23,0,0,0,.54-2.19,2.17,2.17,0,0,0-.32-1.64.29.29,0,0,0-.06-.1h0a.06.06,0,0,0-.05,0h0a.16.16,0,0,0,0,.12,2.59,2.59,0,0,0-.05.47,6.18,6.18,0,0,0,.12,1.12,3.81,3.81,0,0,1-.05.84c-.06.33-.16.64-.2.83s-.08.34-.13.52-.24.46-.22.56l0,0A.06.06,0,0,0,224.56,190.78Z" transform="translate(-18.52 -17.93)"/><path class="cls-3" d="M251.28,191.9c-3.21-6.25-8.64-11.38-14.54-13.64a22.28,22.28,0,0,0-8.58-1.48,25.69,25.69,0,0,0-6.87,1.11,29.65,29.65,0,0,0-9.78,5.12,40.53,40.53,0,0,0-7.67,7.92,51,51,0,0,0-6.08,10.48l0,.05h0a25.81,25.81,0,0,0-4.72,1,29.65,29.65,0,0,0-9.78,5.12,40.53,40.53,0,0,0-7.67,7.92,50.66,50.66,0,0,0-6.08,10.48s0,0,0,.05a25.81,25.81,0,0,0-4.72,1,29.65,29.65,0,0,0-9.78,5.12A40.25,40.25,0,0,0,147.3,240a50.66,50.66,0,0,0-6.08,10.48,40.65,40.65,0,0,0-1.38,3.86A33.26,33.26,0,0,0,139,258a24.74,24.74,0,0,0-.39,4.93c0,.39,0,.48.09.48s.09-.22.1-.5a31.23,31.23,0,0,1,.64-5.53,37.94,37.94,0,0,1,2.91-8.5,50.61,50.61,0,0,1,4.53-7.62,44.52,44.52,0,0,1,3.24-4.05l-.05.06a36,36,0,0,1,8.69-7.14,27.74,27.74,0,0,1,10.84-3.56,23.63,23.63,0,0,1,5.76.09,22.11,22.11,0,0,1,5.52,1.6A26.73,26.73,0,0,1,190,235.1,32.74,32.74,0,0,1,198,255.43a31,31,0,0,1-18.24,29.18,29.31,29.31,0,0,1-7.85,2.2,33.92,33.92,0,0,1-8.18.06,32.64,32.64,0,0,1-15.18-5.7,25.35,25.35,0,0,1-5.75-5.76,21.45,21.45,0,0,1-3.36-7.39,24,24,0,0,1-.58-4.13c0-.28-.06-.49-.12-.49s-.06.05-.07.25h0v.2a20.76,20.76,0,0,0,.54,4.54,21.66,21.66,0,0,0,4,8.47,22.8,22.8,0,0,0,3.2,3.46,26,26,0,0,0,3.78,2.83,31.86,31.86,0,0,0,11.07,4.26,33.2,33.2,0,0,0,12,.1A29.18,29.18,0,0,0,184.3,283a32.32,32.32,0,0,0,8.48-8.25,33.38,33.38,0,0,0,3.31-5.94,30.88,30.88,0,0,0,1.74-5.43h0a31.17,31.17,0,0,0,3.61-.42,29.36,29.36,0,0,0,11.13-4.49,32.32,32.32,0,0,0,8.48-8.25,33,33,0,0,0,3.31-5.94,30.88,30.88,0,0,0,1.74-5.43,31.17,31.17,0,0,0,3.61-.42A29.36,29.36,0,0,0,240.84,234a32.32,32.32,0,0,0,8.48-8.25,33,33,0,0,0,3.31-5.94,29.74,29.74,0,0,0,2.24-8.29A33.66,33.66,0,0,0,251.28,191.9Zm-30.81,57.94A31.2,31.2,0,0,1,208,260.08a29,29,0,0,1-7.85,2.2c-.7.09-1.4.16-2.11.21h0c.12-.63.23-1.27.31-1.93a33.26,33.26,0,0,0-1.5-14.67c0,.11.07.23.11.34h0a2.72,2.72,0,0,0,.9-1.22,6,6,0,0,0,.36-1.88,7.07,7.07,0,0,0-.58-3.31,2.08,2.08,0,0,0-.75-.81,1.11,1.11,0,0,0-1.1,0,1.59,1.59,0,0,0-.77.88,2.86,2.86,0,0,0-.16,1.19s0,.05.07.05a.07.07,0,0,0,.07,0,5.07,5.07,0,0,1,.35-1.25,1.35,1.35,0,0,1,.48-.52,1,1,0,0,1,.38-.14c.58,0,1,.59,1.21,1.22a7.72,7.72,0,0,1,.35,2,6.42,6.42,0,0,1-.19,2,2.33,2.33,0,0,1-.82,1.3v0a32.39,32.39,0,0,0-2-4.78c-.21-.41-.43-.82-.66-1.22l.15-.48a10,10,0,0,0,.37-2.48,8.35,8.35,0,0,0-.19-1.93,9.89,9.89,0,0,0-.43-1.3,2.3,2.3,0,0,0-.84-1.15,1.2,1.2,0,0,0-.59-.16,1.57,1.57,0,0,0-1,.35,2.31,2.31,0,0,0-.75,1.4s0,.07.07.09a.07.07,0,0,0,.1,0c.12-.17.38-1,1-1.29a1,1,0,0,1,.85-.08,1,1,0,0,1,.37.31,5,5,0,0,1,.48,1.2,8.45,8.45,0,0,1,.26,1.33,8.85,8.85,0,0,1-.09,2.72c-.05.27-.13.53-.2.8s.14.25.22.37a31.16,31.16,0,0,0-3.06-4.29l.14.16c0-.21,0-.42,0-.63s0-.39,0-.49,0-.06-.07-.08-.07,0-.09,0h0a0,0,0,0,0,0,0,1.61,1.61,0,0,0-.17.54c0,.07,0,.14-.05.21a29.14,29.14,0,0,0-5.15-4.69,4.77,4.77,0,0,0,.23-.73h0c.29-.83.44-1.83.7-2.54a3.87,3.87,0,0,0,.29-1.94c0-.06,0-.11,0-.13s0,0-.06,0h-.07a.25.25,0,0,0-.07.12,3.66,3.66,0,0,0-.31.49,4,4,0,0,0-.27,1.38c0,.44-.37,1.59-.43,2.05l-.07.65a5.14,5.14,0,0,0-.11.55,23.79,23.79,0,0,0-5.08-2.72,22.24,22.24,0,0,0-8-1.49c.14-.3.26-.6.4-.9a47.15,47.15,0,0,1,4.2-7.07,42.06,42.06,0,0,1,3-3.7,33.35,33.35,0,0,1,8.06-6.61,25.67,25.67,0,0,1,10-3.31,22.18,22.18,0,0,1,5.34.09,20.37,20.37,0,0,1,5.13,1.48,24.63,24.63,0,0,1,8.46,6.35A30.3,30.3,0,0,1,224.14,231a28.88,28.88,0,0,1-1.29,9.53,28.43,28.43,0,0,1-4,8,29,29,0,0,1-11.59,9.5,26.93,26.93,0,0,1-7.27,2c-.53.07-1.06.12-1.59.16l0,.3c0,.2-.07.38-.09.58,1-.08,1.95-.2,2.92-.37a27,27,0,0,0,10.32-4.16,29.81,29.81,0,0,0,7.86-7.65,30.33,30.33,0,0,0,3.07-5.51,28,28,0,0,0,2.08-7.68,31.25,31.25,0,0,0-3.33-18.18c-3-5.79-8-10.55-13.48-12.64a20.72,20.72,0,0,0-8-1.38,24,24,0,0,0-6.38,1,27.69,27.69,0,0,0-9.06,4.75,37.23,37.23,0,0,0-7.11,7.35,47,47,0,0,0-5.39,9.13h-.17c-.59,0-1.16.06-1.71.11h0c.23-.53.45-1.07.71-1.59a49.44,49.44,0,0,1,4.52-7.63,45.2,45.2,0,0,1,3.19-4A35.76,35.76,0,0,1,187,205.6,27.6,27.6,0,0,1,197.86,202a23.14,23.14,0,0,1,5.76.1,21.56,21.56,0,0,1,5.52,1.59,26.73,26.73,0,0,1,9.14,6.85,32.76,32.76,0,0,1,7.94,20.33,30.36,30.36,0,0,1-5.75,18.94Zm32.63-33.19a30.63,30.63,0,0,1-4.36,8.66,31.31,31.31,0,0,1-12.49,10.25,29.29,29.29,0,0,1-7.85,2.19c-.7.09-1.4.16-2.11.21.12-.63.23-1.27.31-1.93a33.26,33.26,0,0,0-1.5-14.67,3.58,3.58,0,0,1,.11.35l0,0a2.72,2.72,0,0,0,.9-1.22,5.71,5.71,0,0,0,.36-1.88,7.07,7.07,0,0,0-.58-3.31,2.13,2.13,0,0,0-.74-.81,1.13,1.13,0,0,0-1.11,0,1.63,1.63,0,0,0-.77.88,2.86,2.86,0,0,0-.16,1.19s0,.05.07.05a.07.07,0,0,0,.07,0,4.92,4.92,0,0,1,.35-1.24,1.32,1.32,0,0,1,.48-.53,1,1,0,0,1,.38-.14c.58,0,1,.59,1.21,1.22a7.79,7.79,0,0,1,.35,2,6.42,6.42,0,0,1-.19,2,2.28,2.28,0,0,1-.82,1.3v0a32.86,32.86,0,0,0-2-4.78c-.21-.41-.43-.82-.66-1.22l.15-.48a10,10,0,0,0,.37-2.48,8.41,8.41,0,0,0-.19-1.93,9.89,9.89,0,0,0-.43-1.3,2.25,2.25,0,0,0-.84-1.15,1.16,1.16,0,0,0-.59-.16,1.6,1.6,0,0,0-.95.35,2.36,2.36,0,0,0-.75,1.41c0,.05,0,.06.07.08a.09.09,0,0,0,.11,0,2.92,2.92,0,0,1,1-1.29,1,1,0,0,1,.85-.08.87.87,0,0,1,.37.32,4.42,4.42,0,0,1,.48,1.19,8.45,8.45,0,0,1,.26,1.33,8.54,8.54,0,0,1-.09,2.72c0,.27-.13.53-.2.8a32.54,32.54,0,0,0-2.7-3.76c0-.21,0-.42,0-.62s0-.4,0-.5,0-.06-.07-.08-.07,0-.09,0h0a0,0,0,0,0,0,0,1.61,1.61,0,0,0-.17.54c0,.07,0,.14,0,.21a29.14,29.14,0,0,0-5.15-4.69,4.77,4.77,0,0,0,.23-.73h0c.29-.83.44-1.83.7-2.54a4,4,0,0,0,.3-1.94.42.42,0,0,0,0-.13l-.07,0h-.06s-.05.06-.08.12a2.8,2.8,0,0,0-.3.49,3.61,3.61,0,0,0-.27,1.38c0,.44-.38,1.59-.44,2.05l-.07.65a5.14,5.14,0,0,0-.11.55,24.42,24.42,0,0,0-5.07-2.72,22.06,22.06,0,0,0-8-1.48c.14-.3.26-.61.4-.91a47.15,47.15,0,0,1,4.2-7.07,39.9,39.9,0,0,1,3-3.69,33.39,33.39,0,0,1,8.06-6.62,25.67,25.67,0,0,1,10-3.31,22.18,22.18,0,0,1,5.34.09,19.87,19.87,0,0,1,5.13,1.49,24.48,24.48,0,0,1,8.46,6.34,30.32,30.32,0,0,1,7.37,18.85A28.18,28.18,0,0,1,247.08,224a29,29,0,0,1-11.59,9.5,26.93,26.93,0,0,1-7.27,2c-.53.07-1.06.12-1.59.16l0,.3c0,.2-.07.38-.09.58a29,29,0,0,0,2.93-.37,27,27,0,0,0,10.31-4.16,30,30,0,0,0,7.87-7.65,31,31,0,0,0,3.06-5.51,28,28,0,0,0,2.08-7.68,31.25,31.25,0,0,0-3.33-18.18c-3-5.79-8-10.55-13.48-12.64A20.69,20.69,0,0,0,228,179a24.45,24.45,0,0,0-6.38,1,27.79,27.79,0,0,0-9.06,4.75,37.23,37.23,0,0,0-7.11,7.35,47,47,0,0,0-5.39,9.13h-.17c-.59,0-1.16.06-1.71.11.23-.53.45-1.07.71-1.59a50.25,50.25,0,0,1,4.52-7.63,45.2,45.2,0,0,1,3.19-4,35.76,35.76,0,0,1,8.69-7.13,27.76,27.76,0,0,1,10.84-3.57,23.13,23.13,0,0,1,5.76.1,21.37,21.37,0,0,1,5.53,1.6,26.63,26.63,0,0,1,9.13,6.84,32.76,32.76,0,0,1,7.94,20.33A30.92,30.92,0,0,1,253.1,216.65Z" transform="translate(-18.52 -17.93)"/><path class="cls-3" d="M223.15,216.61v0c.05.11.11.21.16.32a2.93,2.93,0,0,0,0-.34.07.07,0,0,0-.07,0s-.05,0-.06,0Z" transform="translate(-18.52 -17.93)"/><path class="cls-3" d="M152.5,131.7a6.64,6.64,0,0,0,1.17-1.77,5.64,5.64,0,0,0,.48-2.1,5.52,5.52,0,0,0-.27-1.94c.17,0,.36,0,.57-.08a8.07,8.07,0,0,0,4-1.56,6.13,6.13,0,0,0,1.79-2.15l.33-.64c.07-.23.13-.47.2-.71l.1-.35,0-.37c0-.24,0-.49,0-.73a6,6,0,0,0-.92-2.71,11,11,0,0,0-.75-1c.37-.1,1-.28,1.84-.57a29.23,29.23,0,0,0,7.39-4.15,48.94,48.94,0,0,0,5.83-5.26c.91-1,1.79-1.95,2.64-3,.42-.51.84-1,1.25-1.54l.6-.78.44-.59.53-.73c-.43,0-.88-.08-1.3-.1h-.45c-.13,0-.25,0-.37,0a11.66,11.66,0,0,0-1.46.2,21.16,21.16,0,0,0-2.79.74,25.45,25.45,0,0,0-2.75,1.06,16.27,16.27,0,0,0-1.59.83,15.78,15.78,0,0,1-1.6,1,44.2,44.2,0,0,1-6.57,2.34,22.4,22.4,0,0,0,2.16-1.94c1-1,2-2.14,2.82-3.19,1.68-2.07,3-4,4-5.48l0,0h0l0-.06.91-1.36-1.28,1-.06,0h0a4,4,0,0,1-1,.6c-.73.31-1.54.54-2.33.8l-2.37.77a23.84,23.84,0,0,0-2.34.89,19.45,19.45,0,0,0-2.18,1.24,39.41,39.41,0,0,0-4.39,3.29,47.19,47.19,0,0,0-4.11,3.87l-.15-.48a7.28,7.28,0,0,0-.83-1.85,3.61,3.61,0,0,0-.59-.68,2.58,2.58,0,0,0-.64-.45,5.55,5.55,0,0,0-5,.3,8.89,8.89,0,0,0-2.19,1.71,9.74,9.74,0,0,0-1.49,2.08,4.08,4.08,0,0,0-.91-1,5.13,5.13,0,0,0-2.17-1,10.45,10.45,0,0,0-3.7-.1,8.25,8.25,0,0,0-3.33,1.53,12,12,0,0,0-2.78,2.87,14.46,14.46,0,0,0-1.87,3.53l-.34-.18a7,7,0,0,0-3.61-.4,11.13,11.13,0,0,0-3.45,1,9.53,9.53,0,0,0-3.23,2.22,8.24,8.24,0,0,0-2,3.43,5.59,5.59,0,0,0-1.45-.41,5.75,5.75,0,0,0-3.42.5,6.67,6.67,0,0,0-1.2.71,9.15,9.15,0,0,0-1.74,1.65,11.84,11.84,0,0,0-2,3.3l-.13,0a4.38,4.38,0,0,0-2,.38A9,9,0,0,0,97.88,126a8.79,8.79,0,0,0-2.48,4.65,14.09,14.09,0,0,0,0,5.26,24.89,24.89,0,0,0,4.79,10.73c.12.14.16.16.2.13s0-.13-.06-.25c-.23-.35-.78-1.16-1.41-2.23a30.81,30.81,0,0,1-1.84-3.85,22.88,22.88,0,0,1-1.17-3.88c.38-.3,1.22-1,1.37-1.11h0a22.53,22.53,0,0,1,5.22-3c1.39-.53,2.82-.91,4.24-1.4l.09,0c0,.21.09.41.12.62s.1.46.16.69a3.73,3.73,0,0,0,.21.67,11.38,11.38,0,0,0,1.3,2.44,26.9,26.9,0,0,0,3.46,4,49.84,49.84,0,0,0,3.79,3.31l1.91,1.43a10.52,10.52,0,0,1,1.59,1.53,6.83,6.83,0,0,1,1.56,3.33,5.24,5.24,0,0,1,0,1.81,8.16,8.16,0,0,1-.26.88,4.84,4.84,0,0,1-.39.83,9.17,9.17,0,0,1-2.51,2.76,6.19,6.19,0,0,1-3.39,1.26,7.69,7.69,0,0,1-3.62-.78,17,17,0,0,1-3.27-2,31.61,31.61,0,0,1-3.64-3.31,16.08,16.08,0,0,0,1.69-.85h0a26.61,26.61,0,0,0,5.41-4,13.77,13.77,0,0,0,3.09-3.95,2.11,2.11,0,0,0,.15-.28,0,0,0,0,0,0-.06.08.08,0,0,0-.06,0h0a1.5,1.5,0,0,0-.22.27l-.94,1c-.78.86-1.5,1.83-2.29,2.68a21.57,21.57,0,0,1-1.95,1.78c-.81.66-1.67,1.24-2.15,1.58s-.91.61-1.38.9c-.12.09-1,.54-1.44.78-.62-.65-1.22-1.3-1.81-2l-1.27-1.54c-.09-.1-.17-.16-.22-.13s0,.06,0,.14h0l0,.08c.2.3.65,1,1.29,1.74a31.8,31.8,0,0,0,6.19,6.4,11.53,11.53,0,0,0,5.23,2.33,6.83,6.83,0,0,0,1.5,0,3.8,3.8,0,0,0,.74-.12,3.64,3.64,0,0,0,.74-.18,6.76,6.76,0,0,0,1.36-.64l.63-.4c.2-.15.38-.31.57-.47a9.76,9.76,0,0,0,2-2.18,6.69,6.69,0,0,0,1-2.63,4.46,4.46,0,0,0,1.2.14,8.56,8.56,0,0,0,5.6-1.68,7,7,0,0,0,2.31-3.07,5.39,5.39,0,0,0,.21-3.08q.4,0,1,.06a12.3,12.3,0,0,0,6-1.09,8.51,8.51,0,0,0,3.14-2.46,5.46,5.46,0,0,0,1-4c0-.15-.07-.3-.1-.45.28,0,.64,0,1.07-.07a18.74,18.74,0,0,0,6.05-1.26A9.33,9.33,0,0,0,152.5,131.7Zm-21.56,11.22c-.06-.19-.12-.38-.19-.57a8.26,8.26,0,0,0-2.34-3.08c-.24-.2-.5-.39-.75-.58l-.78-.52c-.5-.32-1-.64-1.48-1l-.31-.22a10.12,10.12,0,0,0,1.51-.44h0a17.89,17.89,0,0,0,5.73-3.32,10.88,10.88,0,0,0,3.08-3.85h0a3.07,3.07,0,0,0,.31.17c.48.27.9.46,1.3.74a9.45,9.45,0,0,1,3.34,3.65,5,5,0,0,1,.17,4.56A5.74,5.74,0,0,1,139,140.3a9.5,9.5,0,0,1-2.12,1.34,14.13,14.13,0,0,1-4.95,1.27Zm6.93-13.18c-.12-.08-.24-.17-.37-.24-.53-.33-1.24-.64-1.93-1a14.19,14.19,0,0,1-2.16-1.53,14.4,14.4,0,0,1-3.63-5,10.49,10.49,0,0,1-.52-1.52,15.26,15.26,0,0,1-.29-1.58.5.5,0,0,0,0-.12c.41-.4,1.15-1.17,1.29-1.27h0a23.93,23.93,0,0,1,5.4-3.73c1.43-.67,2.92-1.2,4.4-1.82,0,0,0,0,0,0a7.51,7.51,0,0,0,1.19,3.71,13.24,13.24,0,0,0,2.39,2.84,22.67,22.67,0,0,0,4.51,3.14l-.84,1c-.76.87-1.5,1.84-2.31,2.67a17,17,0,0,1-2,1.7,26,26,0,0,1-2.26,1.42c-.48.27-1,.54-1.46.78l-.84.34ZM145.42,119a12.54,12.54,0,0,1-4.08-4.77,6.92,6.92,0,0,1-.28-.76,6.76,6.76,0,0,1-.17-.78c0-.1,0-.21,0-.31.38-.33,1-.85,1.08-.92h0a19.26,19.26,0,0,1,4.85-2.78c1.31-.47,2.65-.8,4-1.21h0c.06.21.12.42.19.62a6.5,6.5,0,0,0,1.33,2.34,17,17,0,0,0,2,1.63c.9.69,1.77,1.36,2.54,2l-.56.94c-.49.78-1,1.62-1.51,2.37a12.53,12.53,0,0,1-1.42,1.55c-.61.56-1.29,1-1.66,1.33s-.72.5-1.1.73c-.07.05-.54.28-.91.46l0,0A21.81,21.81,0,0,1,145.42,119Zm-27.12,4.84h0a20.39,20.39,0,0,1,5.35-3.62,18,18,0,0,1,4.57-1.16c0,.28.09.57.14.85a11.47,11.47,0,0,0,1.27,3.55,15.78,15.78,0,0,0,2.08,3,14,14,0,0,0,2.59,2.3c.32.21.64.41,1,.59v0c-.33.37-.62.71-.9,1-.75.85-1.48,1.77-2.3,2.56a14.75,14.75,0,0,1-2,1.59,23.13,23.13,0,0,1-2.28,1.27c-.48.23-1,.46-1.47.65-.08,0-.46.15-.85.27l-.52.15a31.36,31.36,0,0,1-3.07-2.57,24.67,24.67,0,0,1-2-2.16,8.9,8.9,0,0,1-1.48-2.67A35.83,35.83,0,0,1,117,125Zm-.86,19.45-.53-.39a8,8,0,0,0,1-.61h0a12.15,12.15,0,0,0,3.28-3.32,7.66,7.66,0,0,0,1.31-3c.79.7,1.59,1.35,2.37,1.94s1.43,1,2.07,1.48a10.48,10.48,0,0,1,1.74,1.65,5.09,5.09,0,0,1,1.24,4.27,6.52,6.52,0,0,1-2.61,3.77,9,9,0,0,1-4.53,1.63,7.75,7.75,0,0,1-1.06,0,6,6,0,0,0-.35-2.81,8.82,8.82,0,0,0-1.48-2.47A13.15,13.15,0,0,0,117.44,143.24Zm-10-12.09c.34-.29,1-.87,1.09-.94a16.33,16.33,0,0,1,4.5-2.53c1.18-.4,2.4-.66,3.61-1,.08.27.15.53.23.79a23.11,23.11,0,0,0,1.25,3.34,8.27,8.27,0,0,0,.94,1.53c.36.46.73.89,1.11,1.3a28,28,0,0,0,2.2,2.17l-.34.76c-.35.71-.67,1.48-1.08,2.17a9.84,9.84,0,0,1-1.09,1.46,16.18,16.18,0,0,1-1.32,1.28c-.28.25-.57.49-.88.72-.07.06-.57.35-.87.54-.8-.6-1.65-1.27-2.51-2a36.3,36.3,0,0,1-3.29-3.19,17,17,0,0,1-2.79-3.92,8.81,8.81,0,0,1-.46-1.1c-.09-.38-.19-.76-.26-1.18C107.47,131.29,107.45,131.22,107.44,131.15Zm-4.94-6.8a3,3,0,0,1,2.18,1.12,12,12,0,0,1,2,4.93c0,.19.07.38.11.56l-.11,0a11.1,11.1,0,0,0-1.28.13,11.94,11.94,0,0,0-3.06,1.06c-.47.22-1.34.61-2.17,1.06a21.52,21.52,0,0,0-2.07,1.3q-.6.47-1.17,1a13,13,0,0,0-1,.93c-.06-.28-.11-.54-.15-.77l-.08-.7c0-.42-.09-.73-.09-.9v0a11.16,11.16,0,0,1,.86-5.16c.19-.39.43-.77.64-1.16s.56-.68.83-1l1-.89a10.92,10.92,0,0,1,1.12-.75A4.88,4.88,0,0,1,102.5,124.35Zm9.72-5.77a5.67,5.67,0,0,1,2.43,2.23c1.06,1.68,1.41,3.73,1.95,5.73a8.28,8.28,0,0,0-1,0,9.36,9.36,0,0,0-2.69.79c-.41.18-1.17.49-1.9.88a16.39,16.39,0,0,0-1.79,1.12q-.51.4-1,.84c-.08.06-.54.48-.83.77-.13-.68-.28-1.36-.46-2a9.31,9.31,0,0,0-2.17-4.22,3.48,3.48,0,0,0-1.68-.89,17.24,17.24,0,0,1,2.44-3.47,8.25,8.25,0,0,1,2.07-1.63,8.05,8.05,0,0,1,.88-.38l.52-.14A5.57,5.57,0,0,1,112.22,118.58Zm13.55-5.27a7,7,0,0,1,1.82,3,14.91,14.91,0,0,1,.59,2.52,6.66,6.66,0,0,0-1.34-.07,8.87,8.87,0,0,0-3.37,1,19.83,19.83,0,0,0-4.38,2.9c-.4.37-.78.75-1.17,1.13-.09.09-.65.61-1,1-.1-.43-.21-.85-.32-1.26a9.81,9.81,0,0,0-2.3-4.32,5.69,5.69,0,0,0-1.44-1,11.92,11.92,0,0,1,.73-1.46,9.66,9.66,0,0,1,1.78-2.17,9.86,9.86,0,0,1,2.3-1.51c.36-.15.68-.31.94-.39l.55-.18a10.45,10.45,0,0,1,3.47-.4A5.17,5.17,0,0,1,125.77,113.31Zm14.17-5.06a9.76,9.76,0,0,1,.15,1.81c0,.55,0,1.06-.05,1.64a12,12,0,0,0-1.33.24,13,13,0,0,0-3.27,1.42c-.48.28-1.4.78-2.27,1.36a21.72,21.72,0,0,0-2.13,1.61c-.41.38-.8.76-1.18,1.16-.09.08-.61.61-1,1a15.07,15.07,0,0,0-.7-2.76,8,8,0,0,0-1.44-2.49,4.86,4.86,0,0,0-1.3-1.07,21.07,21.07,0,0,1,2.39-3.87,11.49,11.49,0,0,1,2-2,9.09,9.09,0,0,1,1.35-.88,8,8,0,0,1,6.88,0A3.8,3.8,0,0,1,139.94,108.25Zm10.31-2.76c.18.58.34,1.18.52,1.78h0a9.69,9.69,0,0,0-1.2.09,10.8,10.8,0,0,0-2.88.94c-.44.2-1.26.55-2,1a19.82,19.82,0,0,0-1.92,1.22c-.37.3-.73.6-1.08.91-.08.06-.47.4-.78.7,0-.34,0-.68,0-1.06a12,12,0,0,0-.22-3.29,4.62,4.62,0,0,0-.53-1.32,13,13,0,0,1,1.91-2.37,7.49,7.49,0,0,1,2.6-1.66,6,6,0,0,1,2.42-.25,3.06,3.06,0,0,1,2.13,1A6.33,6.33,0,0,1,150.25,105.49Zm8.9,9.94a11.38,11.38,0,0,0-.9-.94c-.4-.38-.94-.85-1.56-1.35.61-.23,1.85-.8,2-.89h0c2.42-1,5-2.51,7-3.58a17.85,17.85,0,0,0,4.74-3.45,2.81,2.81,0,0,0,.26-.27.06.06,0,0,0,0-.07s0,0-.06,0h0a2.21,2.21,0,0,0-.34.23l-1.39.85c-1.16.71-2.29,1.57-3.43,2.31s-4.25,2.36-5.46,3l-1.71.91c-.15.09-1.29.6-1.77.86-.3-.24-.62-.49-1-.74l-1.23-.94c.36-.09.86-.25.95-.29h0a32.31,32.31,0,0,0,3.88-1.55,10.19,10.19,0,0,0,2.66-1.62.75.75,0,0,0,.15-.13s0,0,0,0,0,0,0,0h0l-.2.1-.78.39c-.64.33-1.28.73-1.92,1.08a29.52,29.52,0,0,1-3,1.33l-.95.38-.85.28-.4-.31a6,6,0,0,1-1.59-1.58,5.64,5.64,0,0,1-.48-1c.39-.36,1.26-1.25,1.39-1.38a65,65,0,0,1,5-4.49c1.33-1,2.7-1.94,4-3a3.1,3.1,0,0,0,.26-.18.06.06,0,0,0,0-.07l0,0h0l-.32.14a10.2,10.2,0,0,0-1.3.6,15.69,15.69,0,0,0-2.88,2.18c-.88.74-3.19,2.76-4,3.63l-1.13,1.23c-.1.1-.76.77-1.09,1.16-.31-.79-.52-1.62-.75-2.42.62-.55,2.71-2.56,4.94-4.37,1.12-.9,2.27-1.75,3.22-2.38a21.43,21.43,0,0,1,2-1.18,26.64,26.64,0,0,1,4.35-1.57l2.3-.7a11.17,11.17,0,0,0,1.13-.42c-1.25,1.77-2.57,3.52-4,5.18-.84,1-1.71,2-2.62,2.85a13.76,13.76,0,0,1-2.94,2.33l-2.19,1.19,2.4-.65a59.56,59.56,0,0,0,7.58-2.5,9.88,9.88,0,0,0,1.72-.93,10.8,10.8,0,0,1,1.55-.9,24,24,0,0,1,3.24-1.25,21.74,21.74,0,0,1,2.73-.67,11,11,0,0,1,1.38-.16l.35,0h.3l0,0-.46.57-.95,1.17c-.65.77-1.31,1.53-2,2.27-1.34,1.5-2.77,2.92-4.24,4.29a37.57,37.57,0,0,1-9.83,6.82C160.08,115.1,159.47,115.3,159.15,115.43Zm-5.34,10.23a6.48,6.48,0,0,0-1-1.79,7.83,7.83,0,0,0-3-2.35,8.31,8.31,0,0,0,1-.51h0a14.72,14.72,0,0,0,4.15-3.45,8.81,8.81,0,0,0,1.92-3.41c.3.26.58.53.84.8a8.56,8.56,0,0,1,2,2.94,4.49,4.49,0,0,1-.07,3.36A6.66,6.66,0,0,1,157.6,124a9.3,9.3,0,0,1-3.28,1.52ZM148,133.33a25.57,25.57,0,0,1-5.07,1.51l-1,.14a8.35,8.35,0,0,0-1.5-2.92,10.88,10.88,0,0,0-2.37-2.18,12.27,12.27,0,0,0,1.51-.58h0a20.58,20.58,0,0,0,5.67-3.69,12,12,0,0,0,3.05-3.87l.95.49a6.73,6.73,0,0,1,3.38,3.51,4.83,4.83,0,0,1-.58,4.59A9.55,9.55,0,0,1,148,133.33Z" transform="translate(-18.52 -17.93)"/><polygon class="cls-3" points="90.01 112.29 90.01 112.28 90.01 112.28 90.01 112.29"/><path class="cls-3" d="M196.5,161.59a6.62,6.62,0,0,0,1.18-1.76,5.87,5.87,0,0,0,.21-4.05,4.49,4.49,0,0,0,.56-.07,8.2,8.2,0,0,0,4-1.56,6.27,6.27,0,0,0,1.79-2.16l.32-.64c.07-.23.14-.47.2-.7l.1-.35c0-.12,0-.25,0-.37a5,5,0,0,0-.89-3.45,10.56,10.56,0,0,0-.75-1c.37-.1,1-.27,1.84-.57a28.92,28.92,0,0,0,7.39-4.15,48.17,48.17,0,0,0,5.83-5.26c.91-1,1.79-1.94,2.64-3,.42-.5.84-1,1.25-1.53l.6-.79.44-.59.53-.72c-.43,0-.87-.08-1.3-.1h-.45l-.37,0a11.94,11.94,0,0,0-1.46.21,22,22,0,0,0-2.79.73,25.72,25.72,0,0,0-2.75,1.07,15.09,15.09,0,0,0-1.58.83,15.82,15.82,0,0,1-1.61,1,42,42,0,0,1-6.57,2.34,21.15,21.15,0,0,0,2.16-1.94c1-1.05,2-2.14,2.82-3.19,1.68-2.06,3-4,4-5.48l0,0h0l0-.06.91-1.35-1.27,1-.07,0h0v0a4.21,4.21,0,0,1-1,.59,24.35,24.35,0,0,1-2.32.8l-2.37.78a23,23,0,0,0-2.35.88,22.26,22.26,0,0,0-2.18,1.24,40.81,40.81,0,0,0-4.39,3.29,48.42,48.42,0,0,0-4.11,3.88l-.15-.49a7.05,7.05,0,0,0-.83-1.84,3.28,3.28,0,0,0-.59-.68,2.41,2.41,0,0,0-.64-.45,5.5,5.5,0,0,0-5,.3,8.56,8.56,0,0,0-2.2,1.7,10.39,10.39,0,0,0-1.49,2.08,3.89,3.89,0,0,0-.91-1,5.26,5.26,0,0,0-2.17-1,10.69,10.69,0,0,0-3.7-.1,8.38,8.38,0,0,0-3.33,1.53,12.09,12.09,0,0,0-2.78,2.88,14.26,14.26,0,0,0-1.87,3.52l-.34-.17a7,7,0,0,0-3.61-.41,11.41,11.41,0,0,0-3.45,1,9.46,9.46,0,0,0-3.23,2.23,8.35,8.35,0,0,0-2,3.43,5.66,5.66,0,0,0-1.44-.42,5.94,5.94,0,0,0-3.43.5,7,7,0,0,0-1.2.71,9.45,9.45,0,0,0-1.73,1.65,11.94,11.94,0,0,0-2,3.3l-.13,0a4.6,4.6,0,0,0-2,.38,9.12,9.12,0,0,0-2.79,1.88,8.76,8.76,0,0,0-2.48,4.65,14.31,14.31,0,0,0,0,5.26,24.37,24.37,0,0,0,1.69,5.51,24.1,24.1,0,0,0,3.09,5.21c.12.15.16.17.21.14s0-.13-.07-.25c-.23-.36-.78-1.16-1.4-2.24a30,30,0,0,1-1.85-3.84,22.61,22.61,0,0,1-1.16-3.89c.38-.29,1.22-1,1.36-1.11h0a22.53,22.53,0,0,1,5.21-3c1.39-.52,2.83-.91,4.25-1.39l.08,0c0,.2.09.41.13.62s.1.45.15.68a3.86,3.86,0,0,0,.22.68,10.7,10.7,0,0,0,1.3,2.43,26.35,26.35,0,0,0,3.45,4,46,46,0,0,0,3.8,3.3l1.9,1.44a10.57,10.57,0,0,1,1.6,1.53A6.94,6.94,0,0,1,165,179a5.56,5.56,0,0,1,0,1.82c-.09.29-.14.59-.26.88a5.67,5.67,0,0,1-.39.83,9.28,9.28,0,0,1-2.51,2.76,6.24,6.24,0,0,1-3.39,1.26,7.84,7.84,0,0,1-3.62-.78,16.94,16.94,0,0,1-3.26-2,32.74,32.74,0,0,1-3.65-3.32,14.58,14.58,0,0,0,1.69-.84h0a26.44,26.44,0,0,0,5.4-4,13.64,13.64,0,0,0,3.09-4,2.65,2.65,0,0,0,.16-.28.06.06,0,0,0,0-.06s0,0-.05,0h0a1.35,1.35,0,0,0-.22.26l-.94,1c-.77.87-1.5,1.83-2.29,2.69a19.11,19.11,0,0,1-1.95,1.78c-.81.65-1.67,1.23-2.15,1.57s-.9.62-1.37.91c-.12.09-1,.53-1.44.77-.62-.64-1.23-1.3-1.82-2l-1.27-1.53c-.09-.1-.17-.17-.21-.13s0,0,0,.14h0l0,.08c.2.3.65,1,1.29,1.74a32.39,32.39,0,0,0,6.19,6.41,11.52,11.52,0,0,0,5.23,2.32,6.83,6.83,0,0,0,1.5,0,3.9,3.9,0,0,0,.75-.12,4.58,4.58,0,0,0,.73-.18,7.09,7.09,0,0,0,1.36-.65l.63-.4c.2-.15.38-.31.57-.46a9.81,9.81,0,0,0,2-2.19,6.64,6.64,0,0,0,1-2.62,5.47,5.47,0,0,0,1.2.14,8.56,8.56,0,0,0,5.6-1.68,7,7,0,0,0,2.32-3.08,5.38,5.38,0,0,0,.2-3.08,8.75,8.75,0,0,0,1,.06,12.32,12.32,0,0,0,6-1.09,8.55,8.55,0,0,0,3.13-2.45,5.44,5.44,0,0,0,1-4c0-.15-.07-.29-.1-.44.28,0,.64,0,1.07-.08a18.74,18.74,0,0,0,6.05-1.26A9.33,9.33,0,0,0,196.5,161.59Zm-21.56,11.23a4.76,4.76,0,0,0-.19-.57,7.91,7.91,0,0,0-2.34-3.08c-.24-.21-.5-.39-.74-.59l-.78-.52c-.51-.31-1-.64-1.49-1l-.31-.22a10.12,10.12,0,0,0,1.51-.44h0a17.76,17.76,0,0,0,5.72-3.32,10.94,10.94,0,0,0,3.08-3.84v0l.31.18a14,14,0,0,1,1.3.73,9.52,9.52,0,0,1,3.34,3.65,5,5,0,0,1,.17,4.57A5.93,5.93,0,0,1,183,170.2a10.16,10.16,0,0,1-2.13,1.33,13.86,13.86,0,0,1-4.95,1.27C175.51,172.82,175.19,172.82,174.94,172.82Zm6.93-13.19-.37-.24c-.53-.33-1.24-.64-1.93-1a12.94,12.94,0,0,1-2.15-1.52,14.43,14.43,0,0,1-3.64-5,12,12,0,0,1-.52-1.53,14.81,14.81,0,0,1-.28-1.58.5.5,0,0,1,0-.12c.41-.39,1.14-1.16,1.28-1.27h0a23.3,23.3,0,0,1,5.4-3.73c1.43-.68,2.93-1.21,4.4-1.82v0a7.54,7.54,0,0,0,1.18,3.72,13.79,13.79,0,0,0,2.39,2.84,23.09,23.09,0,0,0,4.52,3.13c-.31.35-.58.68-.85,1-.76.88-1.5,1.84-2.31,2.67a16.71,16.71,0,0,1-2,1.7,26.38,26.38,0,0,1-2.27,1.43c-.47.27-1,.53-1.46.77-.07.05-.46.18-.84.34Zm7.55-10.78a12.57,12.57,0,0,1-4.08-4.78c-.12-.24-.18-.5-.28-.75a7.25,7.25,0,0,1-.17-.78c0-.11,0-.21,0-.32.39-.32,1-.85,1.09-.92h0a19,19,0,0,1,4.85-2.78c1.31-.47,2.66-.81,4-1.22h0c.07.2.12.41.2.62a6.43,6.43,0,0,0,1.33,2.34,18,18,0,0,0,2,1.63c.91.68,1.77,1.35,2.54,2l-.56.93c-.49.78-.95,1.63-1.51,2.37a11.78,11.78,0,0,1-1.42,1.55,19.46,19.46,0,0,1-1.66,1.33c-.35.26-.72.5-1.09.73-.08.06-.55.28-.91.46l0,0A21.18,21.18,0,0,1,189.42,148.85Zm-27.12,4.83h0a20.69,20.69,0,0,1,5.35-3.63,18.43,18.43,0,0,1,4.58-1.15c0,.28.08.56.13.85a11.43,11.43,0,0,0,1.28,3.54,15.37,15.37,0,0,0,2.07,3,14.28,14.28,0,0,0,2.59,2.29c.32.22.64.41,1,.6l0,0c-.33.38-.61.72-.9,1-.75.85-1.48,1.78-2.3,2.57a15.26,15.26,0,0,1-2,1.58,25.69,25.69,0,0,1-2.28,1.27c-.49.24-1,.46-1.48.66-.08,0-.46.14-.85.26l-.51.15a27.79,27.79,0,0,1-3.08-2.57,22,22,0,0,1-2-2.16,9.09,9.09,0,0,1-1.49-2.66,36.5,36.5,0,0,1-1.36-4.45C161.4,154.52,162.17,153.79,162.3,153.68Zm-.86,19.45-.53-.39a7.33,7.33,0,0,0,1-.61h0a12.26,12.26,0,0,0,3.28-3.31,7.73,7.73,0,0,0,1.31-3c.8.7,1.6,1.34,2.38,1.93s1.42,1,2.06,1.48a10.21,10.21,0,0,1,1.75,1.66,5.1,5.1,0,0,1,1.23,4.26,6.49,6.49,0,0,1-2.6,3.78,9,9,0,0,1-4.53,1.62,7.93,7.93,0,0,1-1.06,0,6.07,6.07,0,0,0-.36-2.81,8.68,8.68,0,0,0-1.48-2.47A12.82,12.82,0,0,0,161.44,173.13Zm-10-12.09c.34-.28,1-.86,1.09-.93a16.08,16.08,0,0,1,4.5-2.53c1.18-.4,2.4-.67,3.62-1,.07.26.14.52.23.78a23.18,23.18,0,0,0,1.24,3.35,8.4,8.4,0,0,0,.94,1.52c.36.46.73.89,1.11,1.31.72.78,1.46,1.5,2.21,2.17l-.35.75c-.34.72-.67,1.49-1.08,2.18a9.66,9.66,0,0,1-1.09,1.45,16.78,16.78,0,0,1-1.31,1.29c-.29.25-.58.49-.89.71-.07.07-.56.36-.87.55-.8-.6-1.65-1.27-2.51-2a36.1,36.1,0,0,1-3.29-3.18,17.24,17.24,0,0,1-2.79-3.92,9.56,9.56,0,0,1-.45-1.11,10.52,10.52,0,0,1-.26-1.17C151.47,161.19,151.46,161.12,151.44,161Zm-4.94-6.79a2.92,2.92,0,0,1,2.18,1.12,11.77,11.77,0,0,1,2,4.93c0,.18.08.37.11.56h-.11a10.93,10.93,0,0,0-1.27.13,12.27,12.27,0,0,0-3.07,1.06c-.47.23-1.33.61-2.17,1.07a18.17,18.17,0,0,0-2.07,1.3c-.4.3-.79.62-1.17.95-.1.08-.73.6-1,.93-.05-.27-.1-.53-.15-.77l-.08-.7c0-.41-.08-.72-.09-.89v0a11.14,11.14,0,0,1,.86-5.16c.2-.4.43-.77.64-1.16s.56-.69.83-1l1-.88A11.51,11.51,0,0,1,144,155,4.88,4.88,0,0,1,146.5,154.25Zm9.72-5.77a5.5,5.5,0,0,1,2.43,2.23c1.07,1.68,1.41,3.73,1.95,5.72a8.44,8.44,0,0,0-1,0,9.78,9.78,0,0,0-2.69.79c-.41.19-1.17.5-1.9.89a13.79,13.79,0,0,0-1.79,1.12q-.51.4-1,.84a10.62,10.62,0,0,0-.82.77c-.14-.69-.29-1.36-.47-2a9.36,9.36,0,0,0-2.17-4.22,3.46,3.46,0,0,0-1.68-.88,17.37,17.37,0,0,1,2.44-3.48,8,8,0,0,1,2.07-1.62,8.36,8.36,0,0,1,.88-.39l.52-.13A5.49,5.49,0,0,1,156.22,148.48Zm13.56-5.28a7.19,7.19,0,0,1,1.81,3,15.14,15.14,0,0,1,.59,2.52,6.59,6.59,0,0,0-1.33-.06,8.69,8.69,0,0,0-3.38,1,20.82,20.82,0,0,0-2.28,1.3,17.17,17.17,0,0,0-2.09,1.6c-.4.37-.79.74-1.17,1.12-.1.09-.66.61-1,1l-.33-1.25a9.75,9.75,0,0,0-2.3-4.32,5.09,5.09,0,0,0-1.44-1,12.68,12.68,0,0,1,.73-1.47,9.62,9.62,0,0,1,1.78-2.16,9.92,9.92,0,0,1,2.3-1.52c.37-.15.68-.3.94-.39l.55-.17a10.46,10.46,0,0,1,3.47-.41A5.28,5.28,0,0,1,169.78,143.2Zm14.16-5.06a9.9,9.9,0,0,1,.15,1.81c0,.55,0,1.07-.05,1.64-.45,0-.89.15-1.33.24a13,13,0,0,0-3.26,1.42c-.49.29-1.41.78-2.28,1.36a21.55,21.55,0,0,0-2.13,1.62c-.4.37-.8.76-1.17,1.16a13,13,0,0,0-1,1,15.59,15.59,0,0,0-.71-2.75,7.81,7.81,0,0,0-1.44-2.5,5.06,5.06,0,0,0-1.3-1.07,22,22,0,0,1,2.39-3.87,11.85,11.85,0,0,1,2-2,9.33,9.33,0,0,1,1.36-.88,7.37,7.37,0,0,1,3.41-.75,7.26,7.26,0,0,1,3.47.79A3.83,3.83,0,0,1,183.94,138.14Zm10.32-2.76c.17.58.33,1.18.51,1.78h0c-.4,0-.8.05-1.2.09a10.8,10.8,0,0,0-2.88.94c-.44.21-1.25.56-2,1a16,16,0,0,0-1.93,1.22c-.37.29-.73.59-1.08.91-.07.05-.47.4-.77.7a9.61,9.61,0,0,1,0-1.07,11.88,11.88,0,0,0-.21-3.28,4.71,4.71,0,0,0-.54-1.33A12.7,12.7,0,0,1,186,134a7.66,7.66,0,0,1,2.6-1.67,5.85,5.85,0,0,1,2.43-.24,3,3,0,0,1,2.13,1A6.5,6.5,0,0,1,194.26,135.38Zm8.9,9.94q-.43-.49-.9-.93c-.41-.39-.95-.85-1.57-1.36.62-.22,1.85-.79,2-.89h0c2.42-1.05,5-2.52,7-3.59a17.65,17.65,0,0,0,4.74-3.44,2.73,2.73,0,0,0,.26-.27.08.08,0,0,0,0-.08.09.09,0,0,0-.06,0h0l-.33.22-1.4.86c-1.16.7-2.29,1.56-3.43,2.3s-4.25,2.37-5.46,3l-1.71.92c-.15.09-1.29.59-1.77.86q-.45-.37-1-.75l-1.22-.93c.36-.1.86-.26.94-.29h0a31.63,31.63,0,0,0,3.88-1.56,9.68,9.68,0,0,0,2.66-1.62l.16-.12a0,0,0,0,0,0,0s0,0,0,0h0a.89.89,0,0,0-.19.1l-.79.38c-.64.33-1.28.73-1.91,1.09s-2.36,1.06-3,1.32l-.95.38c-.07,0-.54.18-.85.29l-.4-.31a6,6,0,0,1-1.59-1.59,6.93,6.93,0,0,1-.48-.94c.39-.37,1.26-1.26,1.39-1.39a64.57,64.57,0,0,1,5-4.48c1.33-1,2.7-1.94,4-3a1.58,1.58,0,0,0,.26-.19,0,0,0,0,0,0-.07s0,0,0,0h0a1.37,1.37,0,0,0-.32.14,9,9,0,0,0-1.3.6,16.1,16.1,0,0,0-2.88,2.17c-.87.75-3.19,2.77-4,3.64l-1.14,1.22c-.1.11-.76.78-1.08,1.17a22.42,22.42,0,0,1-.75-2.42c.61-.56,2.71-2.57,4.93-4.37,1.12-.91,2.27-1.75,3.23-2.39a21.75,21.75,0,0,1,2-1.18,28,28,0,0,1,4.35-1.57l2.3-.7a11.33,11.33,0,0,0,1.14-.42c-1.25,1.78-2.58,3.53-4,5.19-.83,1-1.7,1.95-2.62,2.85a14.42,14.42,0,0,1-2.94,2.33l-2.19,1.19,2.4-.66a57.53,57.53,0,0,0,7.58-2.5,9.88,9.88,0,0,0,1.72-.93,10.36,10.36,0,0,1,1.55-.89,22.78,22.78,0,0,1,3.24-1.26,23.25,23.25,0,0,1,2.74-.66,13,13,0,0,1,1.38-.17c.11,0,.23,0,.34,0h.3l0,0-.45.58-1,1.16c-.64.78-1.31,1.53-2,2.28q-2,2.24-4.25,4.28a37.68,37.68,0,0,1-9.82,6.82Zm-5.35,10.23a6.54,6.54,0,0,0-1-1.78,7.94,7.94,0,0,0-3-2.36,10.21,10.21,0,0,0,1-.51h0a14.86,14.86,0,0,0,4.15-3.44A9.08,9.08,0,0,0,201,144c.29.27.57.53.83.81a8.69,8.69,0,0,1,2,2.93,4.52,4.52,0,0,1-.08,3.37,6.68,6.68,0,0,1-2.14,2.77,9.32,9.32,0,0,1-3.28,1.53ZM192,163.23a26.33,26.33,0,0,1-5.08,1.5l-1,.15a8.29,8.29,0,0,0-1.51-2.92,10.69,10.69,0,0,0-2.37-2.19,12.7,12.7,0,0,0,1.51-.57h0a20.41,20.41,0,0,0,5.67-3.68,12,12,0,0,0,3.05-3.88l.95.5a6.67,6.67,0,0,1,3.38,3.5,4.83,4.83,0,0,1-.58,4.59A9.56,9.56,0,0,1,192,163.23Z" transform="translate(-18.52 -17.93)"/><polygon class="cls-3" points="134.01 142.18 134.01 142.18 134.01 142.18 134.01 142.18"/><polygon class="cls-3" points="339.22 110.29 339.21 110.3 339.21 110.3 339.22 110.29"/><path class="cls-3" d="M273.44,98.73c1.26.58,9.38,3.47,10.43,3.84h0c10.82,4,23.26,8.24,32.4,11.63,8,2.92,16.06,5.91,24.23,8.3.72.24,1.27.41,1.55.48.1,0,.19,0,.21,0s0-.08-.06-.12h0l-.07,0c-.26-.13-.86-.36-1.63-.65-2.22-.93-4.45-1.82-6.69-2.69-5.59-2.18-11.58-4.11-17.26-6-5.52-1.85-20.18-7.13-25.87-9.08l-8.06-2.71c-.87-.29-7.85-2.81-9.08-3.09-.15,0-.19,0-.21,0S273.34,98.69,273.44,98.73Z" transform="translate(-18.52 -17.93)"/><path class="cls-3" d="M204.46,71.77h0l-.12-.06c-.5-.2-1.59-.59-3-1.09q-6.11-2.27-12.25-4.46C178.86,62.5,168,59,157.73,55.6c-10-3.3-36.69-12.45-47-15.89L96.1,34.89C94.52,34.37,81.83,30,79.63,29.4c-.27-.07-.34-.06-.36,0s.12.13.3.21c2.33.92,17.09,5.94,19,6.59l0,0c19.71,6.85,42.29,14.37,59,20.17,14.54,5,29.27,10.15,44,14.67,1.31.43,2.31.75,2.8.89.19,0,.34.07.36,0S204.59,71.83,204.46,71.77Z" transform="translate(-18.52 -17.93)"/><path class="cls-3" d="M370.16,161.1a3.19,3.19,0,0,0-.45-1.47,2.09,2.09,0,0,0-.55-.6,1.81,1.81,0,0,0-.77-.29H368l-.62-.28c-2.36-1.06-7.54-3.28-14.22-6.13q-29-12.62-58.16-25.08l-13.08-5.59h0c-1-2.13-2.14-4.25-3.3-6.34a137.83,137.83,0,0,0-10.24-15.68l5,1.76c7.65,2.68,69.1,24.49,79.63,27.95.54.18.89.29,1.14.35a1.25,1.25,0,0,0,.34.15s.07,0,.09-.06,0,0,0,0l0,0s-.1-.12-.29-.22a1.07,1.07,0,0,1-.16-.14,3.3,3.3,0,0,1-.48-2,9.46,9.46,0,0,1,1.72-5.17,3.21,3.21,0,0,1,1.36-1,1.25,1.25,0,0,1,.95,0,1.48,1.48,0,0,1,.7.79,4.67,4.67,0,0,1,.26,2.3,9.72,9.72,0,0,1-.38,1.81,7.75,7.75,0,0,1-1.16,2.36,4.63,4.63,0,0,1-1.06,1,2.12,2.12,0,0,1-1.4.35.11.11,0,0,0-.09.08.07.07,0,0,0,0,.1,1.26,1.26,0,0,0,.75.11,2.67,2.67,0,0,0,1.1-.46,5.31,5.31,0,0,0,1.26-1.29,7.92,7.92,0,0,0,1.51-5.6,3.4,3.4,0,0,0-.55-1.44,2.11,2.11,0,0,0-.6-.55,1.82,1.82,0,0,0-.78-.24l-.38,0h-.05l-.63-.23c-2.43-.89-7.76-2.74-14.63-5.1q-29.87-10.5-59.8-20.86Q269,89.78,256,85.33c-.82-.83-1.64-1.63-2.45-2.4a144.65,144.65,0,0,0-18.64-15.07l.3.21a137.91,137.91,0,0,0-47.79-20.65,140,140,0,0,0-49.57-1.93l-8.37-2.81L56.54,18a1.49,1.49,0,0,0-1,0,2.34,2.34,0,0,0-.8.51,4.62,4.62,0,0,0-1,1.55,5.31,5.31,0,0,0-.43,2,3.36,3.36,0,0,0,.17,1.14,2.24,2.24,0,0,0,.34.59,1.54,1.54,0,0,0,.63.44l68.51,24.2h0q-4.58,1.17-9.08,2.66h0l-38.08-16a1.51,1.51,0,0,0-1,0,2.52,2.52,0,0,0-.84.45A4.64,4.64,0,0,0,72.71,37a5.28,5.28,0,0,0-.57,2,3.22,3.22,0,0,0,.09,1.14,2.3,2.3,0,0,0,.29.62,1.64,1.64,0,0,0,.6.48l31,13.53A135.59,135.59,0,0,0,84.13,65a139.71,139.71,0,0,0-39,36.32,137.86,137.86,0,0,0-22.29,47.36,141.58,141.58,0,0,0-3.37,50.58,139.15,139.15,0,0,0,13.82,46.3A134,134,0,0,0,45.31,265.3a147.35,147.35,0,0,0,14.52,16.92l3.47,3.27c.58.54,1.14,1.11,1.75,1.62l1.81,1.55,1.81,1.55c.6.52,1.2,1.05,1.84,1.52l3.77,2.93c.62.5,1.27,1,1.92,1.41l2,1.38c1.3.91,2.59,1.84,4,2.67l4,2.56L90.31,305c.7.39,1.38.8,2.09,1.16l2.13,1.08c1.43.71,2.83,1.48,4.29,2.12l4.37,2,1.1.49,1.11.43,2.24.87c3,1.22,6,2.14,9,3.16,1.52.47,3.07.87,4.61,1.31l2.31.64,2.34.53a139.46,139.46,0,0,0,75.76-3.51l4.54-1.58,4.45-1.79c.74-.3,1.49-.59,2.23-.91l2.17-1c1.45-.68,2.92-1.31,4.35-2,2.83-1.49,5.7-2.93,8.42-4.61S233.3,300,236,298.2c1.31-.91,2.59-1.87,3.89-2.8l1.94-1.42,1.87-1.5c1.24-1,2.51-2,3.72-3l3.59-3.18.89-.79.86-.83,1.72-1.68c1.14-1.12,2.31-2.21,3.37-3.4l3.27-3.51c1-1.2,2.06-2.43,3.1-3.65.51-.61,1-1.21,1.53-1.83l1.46-1.9c1-1.28,2-2.52,2.88-3.82l2.72-3.94.68-1,.63-1,1.26-2c1.74-2.67,3.21-5.5,4.77-8.27.73-1.42,1.42-2.85,2.13-4.27.35-.72.71-1.43,1.05-2.15l.95-2.19a134.6,134.6,0,0,0,6.46-17.9l1.22-4.6c.41-1.53.68-3.09,1-4.64.73-3.08,1.12-6.23,1.65-9.34.3-2.25.51-4.38.74-6.34.13-1,.17-1.93.23-2.83s.11-1.77.16-2.58.09-1.6.14-2.32,0-1.41,0-2c0-1.26,0-2.32,0-3.15,0-1.3-.06-2.27-.22-2.27s-.19.22-.25,1.16v.05c0,.24,0,.56,0,.91-.11,1.74-.07,4.51-.41,8.06-.15,1.77-.22,3.74-.53,5.86-.14,1.06-.27,2.17-.42,3.31q-.1.85-.21,1.74c-.11.58-.21,1.17-.32,1.77a132.91,132.91,0,0,1-5.18,20.64l-.86,2.51-.43,1.26-.48,1.24-2,4.94c-1.46,3.23-2.87,6.49-4.55,9.61a134.34,134.34,0,0,1-11.16,18,145.81,145.81,0,0,1-13.76,16.12A138.06,138.06,0,0,1,105.71,310a136.51,136.51,0,0,1-63.84-52.92c-.41-.61-.81-1.23-1.22-1.86l-1.14-1.93-2.31-4c-1.41-2.76-3-5.53-4.28-8.5-.34-.74-.69-1.48-1-2.23l-.52-1.12-.46-1.15L29,231.65c-.6-1.59-1.13-3.21-1.7-4.83-.27-.82-.6-1.62-.83-2.46s-.49-1.67-.73-2.51c-1.06-3.34-1.82-6.82-2.65-10.33q-.5-2.66-1-5.36c-.18-.89-.31-1.8-.43-2.71s-.24-1.83-.37-2.75-.25-1.83-.36-2.76-.15-1.85-.23-2.79c-.14-1.86-.37-3.73-.39-5.62s-.14-3.79-.18-5.7.07-3.82.11-5.74A136.89,136.89,0,0,1,54.49,92.25,143.34,143.34,0,0,1,70.92,76.48l2.18-1.73c.73-.58,1.44-1.17,2.2-1.7l4.45-3.21,4.54-3,1.12-.73,1.16-.68,2.3-1.35a135.15,135.15,0,0,1,17.4-8.49l12.48,5.44h0l-1,.35c-1.38.47-2.79.88-4.16,1.41l-4.11,1.57-1,.4-1,.44-2,.89c-2.71,1.13-5.3,2.51-7.93,3.82-1.29.68-2.56,1.43-3.84,2.15l-1.92,1.08-1.86,1.17a128.12,128.12,0,0,0-46.95,51.51l-1.92,4-1.74,4.06c-.28.68-.58,1.36-.85,2L37.61,138c-.49,1.39-1,2.75-1.49,4.15-.88,2.81-1.8,5.61-2.49,8.47s-1.32,5.73-1.94,8.6c-.26,1.45-.46,2.91-.7,4.36l-.34,2.17-.24,2.19c-.15,1.47-.34,2.92-.45,4.39l-.27,4.4-.06,1.1,0,1.1,0,2.2c0,1.47-.06,2.94,0,4.4l.16,4.4c.1,1.46.24,2.93.36,4.39.06.73.11,1.46.19,2.19l.29,2.18c.21,1.45.36,2.91.61,4.35l.79,4.32.2,1.09.25,1.07.5,2.13c.6,2.87,1.49,5.67,2.27,8.48.45,1.39.93,2.77,1.4,4.16.24.69.46,1.39.71,2.07l.8,2a123.58,123.58,0,0,0,7.44,15.84L47.76,248c.73,1.26,1.57,2.45,2.35,3.68,1.53,2.48,3.32,4.78,5,7.14,1.27,1.66,2.51,3.18,3.63,4.6.56.72,1.15,1.36,1.7,2L62,267.2l1.42,1.6c.44.5.9.93,1.3,1.34l2,2.06c.85.84,1.52,1.43,1.62,1.33s0-.27-.59-.92l0,0L67.2,272c-1.06-1.19-2.89-3-5-5.49-1-1.25-2.29-2.59-3.46-4.17-.61-.77-1.23-1.58-1.88-2.41l-1-1.27L55,257.26a122.23,122.23,0,0,1-10-16.78l-1.08-2.19-.54-1.1-.49-1.12-1.94-4.48c-1.15-3.05-2.34-6.08-3.28-9.2A127,127,0,0,1,67.89,94.77,126.41,126.41,0,0,1,108.7,66.93a123.27,123.27,0,0,1,12.86-4.64h0l95.87,41.79,53.23,23h0c1,2,1.91,4,2.77,6a126.3,126.3,0,0,1,10,42A129.87,129.87,0,0,1,283,196c-.1.85-.19,1.7-.29,2.55s-.17,1.69-.33,2.52c-.27,1.67-.53,3.34-.8,5s-.68,3.26-1,4.87l-.25,1.21-.32,1.19c-.2.79-.41,1.58-.62,2.37a120.32,120.32,0,0,1-6.2,17.78c-.3.69-.57,1.39-.89,2.07l-1,2c-.65,1.32-1.25,2.66-1.94,3.93-1.39,2.53-2.7,5-4.19,7.35a126.42,126.42,0,0,1-99.76,60.45c-1.25.12-3.6.14-6.79.26l-5.38-.08c-2-.05-4.12-.24-6.41-.37-1.15-.08-2.32-.25-3.53-.37s-2.45-.25-3.7-.45c-2.51-.43-5.15-.76-7.8-1.38a126.29,126.29,0,0,1-16.36-4.52l-4.07-1.5c-1.35-.51-2.66-1.11-4-1.66l-2-.84c-.65-.28-1.28-.61-1.93-.91l-3.79-1.84a131.58,131.58,0,0,1-13.5-8l-2.91-2-2.63-2-2.44-1.85L76.06,280c-2.76-2.21-4.74-4.13-6-5.27s-1.55-1.31-1.64-1.21.51.77,1.37,1.61l2.68,2.58c1.11,1,2.5,2.18,4,3.51A132.24,132.24,0,0,0,88.17,290a135.49,135.49,0,0,0,15.94,8.84,134,134,0,0,0,18.75,6.95,128.74,128.74,0,0,0,37.28,4.78,133.11,133.11,0,0,0,21.9-2.32l-.33.05a126.57,126.57,0,0,0,44.47-17.63A129,129,0,0,0,261.63,257a126.66,126.66,0,0,0,20.27-44.9,128.27,128.27,0,0,0-9.06-84l13.2,5.72.12.09.21.5c.29.72.52,1.46.78,2.19.5,1.46,1,2.9,1.51,4.33a143.56,143.56,0,0,1,4.2,16.58c.24,1.29.48,2.54.71,3.76s.33,2.41.49,3.56.31,2.24.46,3.3.19,2.07.27,3c.42,3.83.47,6.84.59,8.7s.18,2.2.33,2.2.2-1,.19-2.3c0-1,0-2.39-.08-4s-.25-3.6-.4-5.8-.52-4.62-.84-7.27c-.09-.66-.15-1.33-.28-2s-.25-1.37-.37-2.08c-.26-1.4-.53-2.86-.8-4.35a148,148,0,0,0-5.46-19.08l-.27-.71h0c11.49,5,66.29,29,76.07,33,.52.22.87.35,1.11.43a1.14,1.14,0,0,0,.33.17.08.08,0,0,0,.1-.05s0,0,0,0a0,0,0,0,0,0,0s-.09-.13-.28-.24l-.14-.15a3.2,3.2,0,0,1-.33-2.07,9.37,9.37,0,0,1,2.08-5,3.26,3.26,0,0,1,1.43-.93,1.21,1.21,0,0,1,.95.1,1.5,1.5,0,0,1,.64.84,4.86,4.86,0,0,1,.1,2.3,9.26,9.26,0,0,1-.52,1.78,7.94,7.94,0,0,1-1.32,2.27,4.39,4.39,0,0,1-1.13.89,2.13,2.13,0,0,1-1.42.25c-.05,0-.07,0-.09.07a.09.09,0,0,0,0,.11,1.34,1.34,0,0,0,.74.15,2.68,2.68,0,0,0,1.14-.37,5.39,5.39,0,0,0,1.35-1.2A7.93,7.93,0,0,0,370.16,161.1Zm-97.55-53.6A128.72,128.72,0,0,1,280.44,121h0l-15.05-6.39h0a129.35,129.35,0,0,0-18.07-22.37L266.56,99h0c.37.48.75,1,1.11,1.46C269.27,102.69,271,105,272.61,107.5ZM148,57.32l54.78,19.35,41,14.36c.8.75,1.61,1.5,2.41,2.27l3.66,3.8a130.64,130.64,0,0,1,13,16.45c-38.59-16.33-78.09-32.74-116.11-48.62l-13.31-5.59h0A127,127,0,0,1,148,57.32Zm8.42-11.66a139,139,0,0,1,49.19,8.54,136.8,136.8,0,0,1,42.93,25.59c.53.43,1.25,1.1,2.15,2l3,2.79h0q-13.89-4.76-27.93-9.5a129.54,129.54,0,0,0-28.14-13.35,123.38,123.38,0,0,0-20.68-5c-2.92-.45-5.84-.8-8.74-1.05h0l-26.88-9A135.74,135.74,0,0,1,156.46,45.66ZM218.58,72.6Q197.31,65.42,176,58.28h0q4.14.6,8.52,1.54l2,.41,2,.52,4.07,1.07c2.71.88,5.53,1.65,8.31,2.74l2.11.78,1.06.39,1,.45,4.25,1.8c1.42.64,2.82,1.35,4.24,2,.71.36,1.44.67,2.14,1.06l2.1,1.16.69.36ZM54.81,23.07c-.08,0-.13-.08-.21-.26a1.75,1.75,0,0,1-.11-.64,3.85,3.85,0,0,1,.28-1.45,3.36,3.36,0,0,1,.72-1.18,1.42,1.42,0,0,1,.42-.32.34.34,0,0,1,.25,0l72.89,24.86c70.73,24.18,142.41,48.72,213.42,72,6.35,2.12,11.19,3.72,13.55,4.48l.31.09a3.17,3.17,0,0,0-.45.23,4.89,4.89,0,0,0-1,.84,7.93,7.93,0,0,0-1.89,3.82,6.08,6.08,0,0,0-.05,2.17,3.48,3.48,0,0,0,.59,1.47l-.46-.17c-11.39-4.27-82.81-29.54-92.06-32.8l.26.09C193.23,72,118.29,45.55,54.81,23.07Zm61.31,29,.3-.09c3-.88,6-1.8,8.88-2.44l.43-.1,18.17,6.42c-1.62.16-3.23.36-4.84.59-1.45.17-2.88.48-4.32.71s-2.89.49-4.31.83l-.13,0h0l-14.18-6ZM367,159.05a5.14,5.14,0,0,0-1.07.77,8.06,8.06,0,0,0-2.16,3.68,6,6,0,0,0-.2,2.16,3.44,3.44,0,0,0,.48,1.51l-.44-.21c-11.06-5.07-80.49-35.38-89.48-39.3l.25.11C208.21,98.71,135.34,67,73.64,40c-.09,0-.14-.08-.2-.27a1.88,1.88,0,0,1-.07-.65,3.87,3.87,0,0,1,.39-1.43,3.53,3.53,0,0,1,.8-1.12,1.44,1.44,0,0,1,.44-.29.36.36,0,0,1,.25,0l70.93,30c68.83,29.18,138.56,58.78,207.73,87,6.19,2.58,10.9,4.52,13.2,5.44l.3.12A4.89,4.89,0,0,0,367,159.05Z" transform="translate(-18.52 -17.93)"/><polygon class="cls-3" points="349.74 148.66 349.75 148.65 349.74 148.65 349.74 148.66"/><path class="cls-3" d="M353.12,160.07l-.06,0c-.26-.15-.84-.43-1.59-.77-2.14-1.09-4.3-2.13-6.47-3.16-5.43-2.57-11.26-4.93-16.79-7.24-5.38-2.24-19.62-8.56-25.16-10.9l-7.84-3.28c-.85-.36-7.63-3.37-8.84-3.74-.14-.05-.18,0-.21,0s0,.13.13.18c1.22.67,9.11,4.12,10.13,4.57h0c10.51,4.75,22.61,9.89,31.49,13.92,7.75,3.48,15.6,7,23.57,10,.7.29,1.24.5,1.51.59.11,0,.19,0,.22,0s0-.08-.05-.13Z" transform="translate(-18.52 -17.93)"/><path class="cls-3" d="M219.42,99.31h0l-.12-.06c-.48-.24-1.54-.71-2.91-1.3-3.95-1.81-7.92-3.58-11.9-5.34C194.55,88.24,184,84,174,79.84c-9.75-4-35.7-15-45.76-19.21L114,54.77c-1.55-.63-13.89-5.88-16-6.64-.26-.1-.32-.09-.35,0s.1.14.28.23c2.26,1.08,16.62,7.14,18.48,7.93l0,0c19.18,8.24,41.16,17.36,57.36,24.33,14.14,6.06,28.46,12.22,42.8,17.78,1.28.52,2.26.91,2.74,1.08.18.07.33.1.35,0S219.54,99.39,219.42,99.31Z" transform="translate(-18.52 -17.93)"/></g></g></g></svg>