<svg xmlns="http://www.w3.org/2000/svg" width="501" height="110" viewBox="0 0 501 110">
  <g id="japanese" transform="translate(-714.711 620.5) rotate(-90)">
    <g id="Rectangle_2" data-name="Rectangle 2" transform="translate(620.5 714.711) rotate(90)" fill="none" stroke="#e97171" stroke-width="3">
      <rect width="501" height="110" stroke="none"/>
      <rect x="1.5" y="1.5" width="498" height="107" fill="none"/>
    </g>
    <g id="Layer_2" data-name="Layer 2" transform="translate(523.944 741.338)">
      <g id="Layer_1" data-name="Layer 1">
        <path id="Path_1" data-name="Path 1" d="M64.544,55.021H58.78V51.109H41.748v4.317H35.984V26.878H19.108v39.5H75.186v5.5H19.108V78.4H13.344V26.878H.29V21.362H13.331V1.865l7.447.509c-.078.6-.509,1.017-1.7,1.187v17.8h16.9V0l7.46.509c-.091.6-.6,1.017-1.7,1.187V21.362H58.78V1.017l7.46.509c-.078.6-.587,1.017-1.7,1.187V21.362H78.029v5.516H64.544Zm-22.8-9.377H58.78V26.878H41.748Z" transform="translate(0.088)" fill="#e97171"/>
        <path id="Path_2" data-name="Path 2" d="M70.773,107.1H55.254c6.025,7.029,15.767,12.885,25.443,15.767a21.192,21.192,0,0,0-3.912,4.825,61.751,61.751,0,0,1-19.327-11.229,1.852,1.852,0,0,1-1.1.43v30.216H50.676V115.32l5.764.339a48.251,48.251,0,0,1-7.707-8.555H34.062a54.3,54.3,0,0,1-7.707,8.307l6.351.417c-.078.6-.587,1.017-1.7,1.108v3.912c0,8.725-1.865,19.666-18.479,27.2a18.349,18.349,0,0,0-3.808-4.317c15.336-6.521,16.784-15.936,16.784-23.057v-4.5A68.231,68.231,0,0,1,5.671,127.918a23.827,23.827,0,0,0-3.821-4.577c9.494-3.052,19.418-9.246,25.6-16.275H11.944V71.58H70.773ZM17.539,76.418V86.929H38.222V76.418Zm0,15.167v10.6H38.222v-10.6Zm47.47-4.656V76.418H43.778V86.929Zm0,15.258v-10.6H43.778v10.6Z" transform="translate(0.563 21.769)" fill="#e97171"/>
        <path id="Path_3" data-name="Path 3" d="M0,142.63H78.5V148.9H0Z" transform="translate(0 43.377)" fill="#e97171"/>
        <path id="Path_4" data-name="Path 4" d="M43.641,168.072a2.2,2.2,0,0,1-2.113,1.3c-3.052,26.356-11.868,49.335-25.939,49.335C8.521,218.763,2,211.643,2,198.249,2,177.9,17.845,160.86,40.146,160.86c24.491,0,35.094,15.519,35.094,32.042,0,20.175-11.737,29.93-32.212,34.677a33.909,33.909,0,0,0-3.56-5.216c19.562-3.73,29.5-13.224,29.5-29.238,0-13.993-8.985-26.708-28.821-26.708-.848,0-1.787.091-2.543.17ZM35.5,166.963A31.208,31.208,0,0,0,7.79,198.08c0,9.064,3.912,14.75,7.968,14.75C26.009,212.829,33.39,190.19,35.5,166.963Z" transform="translate(0.608 48.921)" fill="#e97171"/>
        <path id="Path_5" data-name="Path 5" d="M77.916,255.777H32.572a82.6,82.6,0,0,1-4.069,9.664H54.664v-8.646l7.46.43c-.078.587-.509,1.017-1.7,1.187v7.029H76.312v5.216H60.454v18.727c0,3.482-.848,5.086-3.56,5.934s-7.368,1.017-14.828,1.017A26.083,26.083,0,0,0,40.031,291c3.052.078,5.842.078,8.046.078,6.364,0,6.612-.17,6.612-1.774V270.657H25.621A62.024,62.024,0,0,1,4.937,291.888,32.495,32.495,0,0,0,.36,287.572a54.082,54.082,0,0,0,18.049-16.954H2.394V265.4H21.63a81.641,81.641,0,0,0,4.408-9.664H.608v-5.086H27.9c.769-2.374,1.448-4.747,2.126-7.29H11.119v-4.825h20.07l1.552-7.316H6.411v-4.995H33.537c.509-2.882.939-5.764,1.3-8.816l7.825,1.3c-.17.678-.756,1.109-1.943,1.187-.261,2.126-.6,4.238-.939,6.364H72.752v4.956H38.923c-.417,2.608-.926,5.008-1.435,7.381H67.327v4.825H36.3c-.6,2.543-1.3,4.917-2.034,7.29H77.916ZM33.928,289.906A87.2,87.2,0,0,0,21.8,277.361l4.577-3.221a97.882,97.882,0,0,1,12.3,12.115Z" transform="translate(0.109 66.119)" fill="#e97171"/>
        <path id="Path_6" data-name="Path 6" d="M69.665,288.08v64.932c0,8.138-3.391,8.307-19.757,8.307a26.8,26.8,0,0,0-2.034-6.273c3.052.091,6.1.17,8.568.17,7.2,0,7.368,0,7.368-2.2V293.6H1.59V288.08ZM53.729,302.66v5.216H1.681V302.66Zm-8.816,14.345V345.7H13.118v7.968H7.524V316.992Zm-5.595,5.086h-26.2v18.558h26.2Z" transform="translate(0.484 87.612)" fill="#e97171"/>
      </g>
    </g>
  </g>
</svg>
