<svg id="linkedin-svgrepo-com" xmlns="http://www.w3.org/2000/svg" width="59" height="59" viewBox="0 0 59 59">
  <path id="Path_13700" data-name="Path 13700" d="M29.5,0A29.5,29.5,0,1,0,59,29.5,29.533,29.533,0,0,0,29.5,0Zm0,55.625A26.125,26.125,0,1,1,55.625,29.5,26.154,26.154,0,0,1,29.5,55.625Z" fill="#fff"/>
  <path id="Path_13701" data-name="Path 13701" d="M105.014,121.119a1.687,1.687,0,0,0-1.688,1.688V136.76a1.688,1.688,0,1,0,3.375,0V122.807A1.687,1.687,0,0,0,105.014,121.119Z" transform="translate(-83.951 -98.408)" fill="#fff"/>
  <path id="Path_13702" data-name="Path 13702" d="M105.014,79.116a1.69,1.69,0,1,0,1.193.5A1.692,1.692,0,0,0,105.014,79.116Z" transform="translate(-83.951 -64.281)" fill="#fff"/>
  <path id="Path_13703" data-name="Path 13703" d="M154.936,122.432a8.063,8.063,0,0,0-4.735,1.532v-1.157a1.688,1.688,0,1,0-3.375,0V136.76a1.688,1.688,0,1,0,3.375,0v-6.219a4.735,4.735,0,0,1,9.469,0v6.594a1.688,1.688,0,0,0,3.375,0v-6.594A8.119,8.119,0,0,0,154.936,122.432Z" transform="translate(-119.295 -98.408)" fill="#fff"/>
</svg>
