<svg xmlns="http://www.w3.org/2000/svg" width="48.095" height="39.823" viewBox="0 0 48.095 39.823">
  <path id="Path_13709" data-name="Path 13709" d="M47.709,40.717l-9.6-2.893L17.556,9.339a1.166,1.166,0,0,0-1.89,1.364l3.043,4.218a9.353,9.353,0,0,0-2.99-.5,9.518,9.518,0,0,0-1.707.157A9.391,9.391,0,0,0,7.654,28.644l-5.71-1.722a1.165,1.165,0,0,0-.672,2.231l10.355,3.121a9.31,9.31,0,0,0,2.777.837l22.277,6.714,6.06,8.4a1.164,1.164,0,1,0,1.888-1.364l-4.277-5.927,6.684,2.014a1.165,1.165,0,1,0,.672-2.231ZM15.7,30.882a7.206,7.206,0,0,1-.787-.049L12.5,30.1a7.061,7.061,0,0,1,1.935-13.233,7.187,7.187,0,0,1,1.286-.118A7.064,7.064,0,0,1,15.7,30.882Zm4.044,1.406a9.408,9.408,0,0,0,5.35-8.517l9.341,12.946Z" transform="translate(-0.444 -8.884)" fill="#d94e4e"/>
</svg>
