<svg xmlns="http://www.w3.org/2000/svg" xmlns:xlink="http://www.w3.org/1999/xlink" width="538.054" height="765.938" viewBox="0 0 538.054 765.938">
  <defs>
    <clipPath id="clip-path">
      <rect id="Rectangle_3" data-name="Rectangle 3" width="765.938" height="538.054" fill="none"/>
    </clipPath>
  </defs>
  <g id="Layer_2" data-name="Layer 2" transform="translate(17.93 747.418) rotate(-90)">
    <g id="POST_2" data-name="POST 2" transform="translate(-18.52 -17.93)">
      <g id="Group_9" data-name="Group 9" clip-path="url(#clip-path)">
        <path id="Path_13588" data-name="Path 13588" d="M67.155,259.065a50.507,50.507,0,0,1-6.721-16.59,45.417,45.417,0,0,1,0-17.93,54.819,54.819,0,0,1,6.508-16.8,117.43,117.43,0,0,1,10.14-14.686,58,58,0,0,1,13.074-12.141,34.636,34.636,0,0,1,16.9-5.595,56.16,56.16,0,0,1,20.863,3.4,160.658,160.658,0,0,1,20.708,8.955c6.877,3.5,13.851,7.168,20.747,11.364a90.018,90.018,0,0,1,19.115,15.249,48.564,48.564,0,0,1,7.265,10.16,36.792,36.792,0,0,1,3.885,11.966,44.019,44.019,0,0,1-4.526,24.515,104.4,104.4,0,0,1-13.462,20.9,51.248,51.248,0,0,1-8.7,8.7,40.328,40.328,0,0,1-10.432,5.828,45.244,45.244,0,0,1-10.9,2.622,61.267,61.267,0,0,1-19.057-1.029c-13.6-2.661-26.031-8.9-29.547-10.3-.563-.233-.971-.447-.932-.525s.214,0,1.01.233c3.283,1.127,14.181,6.313,25.6,9.111a73.313,73.313,0,0,0,16.143,2.215,47.635,47.635,0,0,0,9.363-.719,41.008,41.008,0,0,0,20.708-10.1,62.516,62.516,0,0,0,7.77-8.722,110.066,110.066,0,0,0,6.682-9.713,77.332,77.332,0,0,0,6.624-13.054,41.921,41.921,0,0,0,2.914-17.872,36.909,36.909,0,0,0-7.3-19.037,60.7,60.7,0,0,0-7.246-8.12,90.2,90.2,0,0,0-8.567-6.993A162.287,162.287,0,0,0,156.941,193c-6.352-3.4-12.568-6.566-18.571-9.208a105.068,105.068,0,0,0-17.075-6,46.991,46.991,0,0,0-14.122-1.418,33.587,33.587,0,0,0-11.85,3.05A41.2,41.2,0,0,0,85.1,186.432a93.576,93.576,0,0,0-15.541,19.795,54.489,54.489,0,0,0-8.217,23.466,46.33,46.33,0,0,0,4.487,24.049A61.269,61.269,0,0,0,77.14,269.827a71.175,71.175,0,0,0,24.088,16.881l.388.175h0c.389.175.466.253.447.33s-.466,0-1.03-.272a56.808,56.808,0,0,1-8.139-3.885,70.2,70.2,0,0,1-25.739-23.991Z" transform="translate(56.121 165.232)" fill="#d94e4e"/>
        <path id="Path_13589" data-name="Path 13589" d="M112.46,237.71h0Z" transform="translate(106.002 224.059)" fill="#d94e4e"/>
        <path id="Path_13590" data-name="Path 13590" d="M113.5,239.56h0Z" transform="translate(106.982 225.803)" fill="#d94e4e"/>
        <path id="Path_13591" data-name="Path 13591" d="M201.131,264.256a111.037,111.037,0,0,1-14.356,22.165,54.681,54.681,0,0,1-9.227,9.247,43.473,43.473,0,0,1-11.073,6.2,48.566,48.566,0,0,1-11.655,2.8,65.33,65.33,0,0,1-20.222-1.107c-14.336-2.836-27.623-9.441-31.353-10.917-.583-.253-1.03-.486-.991-.563s.233,0,1.068.233c3.5,1.2,15.055,6.721,27.2,9.713a78.21,78.21,0,0,0,17.114,2.37,51.823,51.823,0,0,0,9.946-.777,43.415,43.415,0,0,0,21.97-10.723,66.571,66.571,0,0,0,8.217-9.247q3.788-4.954,7.09-10.218a81.584,81.584,0,0,0,7.032-13.851,44.427,44.427,0,0,0,3.089-18.979,38.851,38.851,0,0,0-7.77-20.183,66.805,66.805,0,0,0-7.77-8.625,96.049,96.049,0,0,0-9.111-7.421,170.542,170.542,0,0,0-19.989-12.044c-6.721-3.613-13.326-6.974-19.7-9.713a110.055,110.055,0,0,0-18.124-6.372,49.05,49.05,0,0,0-14.977-1.5,35.51,35.51,0,0,0-12.588,3.205,44.251,44.251,0,0,0-10.82,7.459,98.878,98.878,0,0,0-16.512,21,57.773,57.773,0,0,0-8.722,24.9,49.244,49.244,0,0,0,4.759,25.506,65.62,65.62,0,0,0,11.986,17.075,80.322,80.322,0,0,0,16.415,13.074,78.029,78.029,0,0,0,9.188,4.643l.408.194h0c.427.214.505.291.486.369s-.505,0-1.107-.291a60.986,60.986,0,0,1-8.625-4.1,74.615,74.615,0,0,1-27.313-25.506,53.362,53.362,0,0,1-6.741-17.755,47.885,47.885,0,0,1,0-19,58.452,58.452,0,0,1,6.78-17.755,121.334,121.334,0,0,1,10.762-15.541,60.726,60.726,0,0,1,13.87-12.879,36.6,36.6,0,0,1,17.93-5.944,59.462,59.462,0,0,1,22.145,3.613,173.14,173.14,0,0,1,21.971,9.5c7.285,3.73,14.686,7.615,21.99,12.063a94.9,94.9,0,0,1,20.281,16.182,51.166,51.166,0,0,1,7.77,10.781,38.852,38.852,0,0,1,4.1,12.7C207.211,247.18,204.861,256.174,201.131,264.256Z" transform="translate(54.104 163.422)" fill="#d94e4e"/>
        <path id="Path_13592" data-name="Path 13592" d="M90.766,229.019h.447a47.768,47.768,0,0,1,12.238-3.769A44.679,44.679,0,0,1,115.767,225h0a44.346,44.346,0,0,1,9.713,2.253c.8.253,1.573.583,2.35.913l.932.389h0c-1.224.816-2.487,1.593-3.769,2.312a54.7,54.7,0,0,1-11.4,4.565,59.173,59.173,0,0,1-12.821,1.943c-.369,0-.466,0-.486.136s0,0-.136.214h0v.194a29,29,0,0,0-.466,4.662,80.092,80.092,0,0,0,1.943,19c.408,1.943.758,3.885,1.321,5.828a15.308,15.308,0,0,0,2.817,5.614,8.761,8.761,0,0,0,5.459,3.264,13.326,13.326,0,0,0,6.275-1.107,178.711,178.711,0,0,0,21.971-10.3c3.38-1.943,8.139-4.6,13.4-8.081a29.626,29.626,0,0,0,7.557-6.6,12.161,12.161,0,0,0,2.215-4.915,11.772,11.772,0,0,0-.253-5.459,33.626,33.626,0,0,0-4.954-9.48q-2.914-4.312-5.828-8.139c-1.943-2.545-3.671-4.934-5.206-7.11l-1.263-1.826-.389-.563-.194-.291v-.136l-.1.155-.8,1.2a21.34,21.34,0,0,1-1.943,2.681A50.507,50.507,0,0,1,129.093,228.3v-.194l.155-1.573c.155-1.709.253-3.438.272-5.167a54.7,54.7,0,0,0-3.4-20.319,41.61,41.61,0,0,0-4.72-8.975,17.017,17.017,0,0,0-7.5-6.372,17.716,17.716,0,0,0-9.4-.525c-2.992.525-5.828,1.2-8.508,1.943a113.3,113.3,0,0,0-13.909,4.662,26.244,26.244,0,0,0-6.546,3.574,12.1,12.1,0,0,0-2.622,2.817,8.411,8.411,0,0,0-1.3,3.71,12.083,12.083,0,0,0,2.176,7.246c1.321,2.117,2.778,4.06,4.274,6a130.158,130.158,0,0,0,9.713,10.956l2.545,2.7c.175.175.33.272.389.233s0-.1,0-.253h0l-.117-.136c-.408-.525-1.379-1.632-2.642-3.03-3.574-4.157-7.11-8.334-10.237-12.8-.524-.8-1.088-1.593-1.632-2.389a6.857,6.857,0,0,1,.136-1.088,8.8,8.8,0,0,1,3.166-4.682,26.77,26.77,0,0,1,6.469-3.691c2.331-1.01,4.7-1.943,7.052-2.817a104.489,104.489,0,0,1,10.859-3.205,55.917,55.917,0,0,1,6.313-1.2,18.433,18.433,0,0,1,4.915,0,12.471,12.471,0,0,1,6.236,2.895,20.709,20.709,0,0,1,2.642,2.8c.641.8,1.224,1.651,1.671,2.312a50.721,50.721,0,0,1,2.584,10.237,62.375,62.375,0,0,1,.466,13.6l-.155,1.943c0,.1-.155,0-.214,0l-.408-.155-1.127-.466-2.312-.777-2.35-.66a46.39,46.39,0,0,0-9.713-1.321,47.862,47.862,0,0,0-10.645.874A42,42,0,0,0,95,226.94a34.552,34.552,0,0,0-3.885,1.787C90.785,228.9,90.727,228.96,90.766,229.019Zm31.819-33.626a40.543,40.543,0,0,1,2.389,4.992,18.824,18.824,0,0,0-4.507-4.818h0a12.491,12.491,0,0,0-6.993-2.525,27.042,27.042,0,0,0-7.518.777,131.728,131.728,0,0,0-13.307,3.633,77.525,77.525,0,0,0-9.965,3.885,17.172,17.172,0,0,0-4.39,3.3,8.353,8.353,0,0,0-2.448,4.818v.68a16.823,16.823,0,0,1-2.817-6.119,6.974,6.974,0,0,1,.777-4.662,10.839,10.839,0,0,1,3.4-3.574,45.593,45.593,0,0,1,9.3-4.448c3.244-1.224,6.527-2.312,9.713-3.244,1.593-.447,3.516-.952,5.828-1.457a29.781,29.781,0,0,1,7.343-.913,12.336,12.336,0,0,1,7.77,2.8,24.516,24.516,0,0,1,5.42,6.877ZM102.5,237.663h0a18.145,18.145,0,0,0-.33,2.972,47.594,47.594,0,0,0,.971,12.2c.466,2.506,1.068,5.012,1.651,7.518a19.425,19.425,0,0,0,2.933,7.421,9.713,9.713,0,0,0,3.108,2.739,7.187,7.187,0,0,0,4.1.8,29.971,29.971,0,0,0,7.421-2.428,169.491,169.491,0,0,0,20.708-10.257c1.943-1.146,3.885-2.35,5.828-3.555a41.318,41.318,0,0,0,5.206-3.885,14.51,14.51,0,0,0,3.555-4.546,9.946,9.946,0,0,0,.991-4.546,15.54,15.54,0,0,0-2.156-6.954,63.394,63.394,0,0,0-3.885-6.061c-.835-1.3-8.159-11.034-9.538-12.957.214-.311.447-.6.641-.932l.758-1.127.155-.194s.136.155.194.233l1.379,2.2,1.748,2.448,3.574,4.8c2.37,3.205,4.7,6.41,6.8,9.713a18.455,18.455,0,0,1,3.652,10.568,13.229,13.229,0,0,1-5.4,9.091,76,76,0,0,1-8.819,6c-2.972,1.807-5.828,3.477-8.722,4.973-4.934,2.661-10.024,5.07-15.21,7.265-2.6,1.068-5.245,2.176-7.77,3.069a11.113,11.113,0,0,1-3.885.66,6.508,6.508,0,0,1-3.574-1.243,12,12,0,0,1-4.254-6.624c-.777-2.642-1.34-5.459-1.943-8.178a83.726,83.726,0,0,1-2.156-16.667,36.274,36.274,0,0,1,.291-4.254,1.263,1.263,0,0,0,0-.427,1.378,1.378,0,0,0,.427,0Zm26.205-8.295a52.058,52.058,0,0,0,9.072-7.265,26.755,26.755,0,0,0,1.943-2.156,24.033,24.033,0,0,0,1.943-2.292l.952-1.224c1.4,2.506,9.829,13.6,10.684,15.172h0a33.682,33.682,0,0,1,3.477,6.43,10.723,10.723,0,0,1,.408,7.129,13.6,13.6,0,0,1-4.332,5.828,57.346,57.346,0,0,1-6.177,4.293,144.472,144.472,0,0,1-24.807,12.607c-1.671.622-3.361,1.321-5.012,1.807a7.343,7.343,0,0,1-4.876,0,8.314,8.314,0,0,1-3.652-3.3,17.6,17.6,0,0,1-1.943-4.837c-1.671-6.993-3.885-13.948-3.885-21.1,0-1.282.117-2.234.136-2.72v-.078a37.351,37.351,0,0,0,3.749-.253,50.116,50.116,0,0,0,9.091-1.943,55.538,55.538,0,0,0,13.229-6.1Z" transform="translate(67.496 174.163)" fill="#d94e4e"/>
        <path id="Path_13593" data-name="Path 13593" d="M101,207.75Z" transform="translate(95.2 195.82)" fill="#d94e4e"/>
        <path id="Path_13594" data-name="Path 13594" d="M75.231,206.592a9.266,9.266,0,0,0,3.05-3.264A10.663,10.663,0,0,0,79.1,201.7a1.709,1.709,0,0,1,.117-.447h.233a1.418,1.418,0,0,1,0,.447,6.061,6.061,0,0,1-3.885,5.692,7.226,7.226,0,0,1-4.584.427,7.071,7.071,0,0,1-4.041-2.739h0a6.238,6.238,0,0,1-.758-1.3,3.574,3.574,0,0,1-.389-1.5h0a.156.156,0,0,1,.136,0,5.739,5.739,0,0,0,.486,1.185,5.362,5.362,0,0,0,.6,1.049,7.6,7.6,0,0,0,5.012,2.758A5.284,5.284,0,0,0,75.231,206.592Z" transform="translate(62.012 189.693)" fill="#d94e4e"/>
        <path id="Path_13595" data-name="Path 13595" d="M73.3,211.2c.155.253.758,1.787.894,1.943a12.2,12.2,0,0,0,1.146,1.5,11.4,11.4,0,0,0,2.292,1.943,7.867,7.867,0,0,0,2.739,1.107,16.921,16.921,0,0,0,3.885,0,5.615,5.615,0,0,0,1.593-.155,1.323,1.323,0,0,1,.389,0h0v.1a1.457,1.457,0,0,1-.33.194,7.188,7.188,0,0,1-5.828.563,11.83,11.83,0,0,1-3.477-1.671,9.5,9.5,0,0,1-2.72-3.128h0a7.44,7.44,0,0,1-.894-2.409h0S73.281,211.163,73.3,211.2Z" transform="translate(68.799 199.051)" fill="#d94e4e"/>
        <path id="Path_13596" data-name="Path 13596" d="M68.56,215.21h0v1.36a11.651,11.651,0,0,0,.175,1.185,13.91,13.91,0,0,0,.525,1.943,7.77,7.77,0,0,0,.874,1.69A22.806,22.806,0,0,0,71.8,223.33l.7.758a.908.908,0,0,1,.175.194h-.214a5.828,5.828,0,0,1-2.661-2.622,9.713,9.713,0,0,1-1.418-4.779h0a5.672,5.672,0,0,1,.136-1.612Z" transform="translate(64.448 202.852)" fill="#d94e4e"/>
        <path id="Path_13597" data-name="Path 13597" d="M78.556,223.571h0a4.8,4.8,0,0,1-.136-1.671h0a10.342,10.342,0,0,0,.214,1.418,11.816,11.816,0,0,0,.408,1.166,12.086,12.086,0,0,0,.913,1.807,8.12,8.12,0,0,0,1.282,1.535,23.962,23.962,0,0,0,2.176,1.5l.894.583.233.117h-.253a5.672,5.672,0,0,1-3.361-1.943,9.461,9.461,0,0,1-2.37-4.507Z" transform="translate(73.897 209.157)" fill="#d94e4e"/>
        <path id="Path_13598" data-name="Path 13598" d="M78.963,187.587a16.86,16.86,0,0,0-4.662.6,8.508,8.508,0,0,0-4.643,4.157c-.136.194-.66,1.69-.758,1.943h0a5.829,5.829,0,0,1,.466-1.787,8.992,8.992,0,0,1,.719-1.515,8.178,8.178,0,0,1,1.826-1.943,10.954,10.954,0,0,1,2.312-1.379A6.527,6.527,0,0,1,77.758,187a6.274,6.274,0,0,1,1.379.389l.33.136h0a.932.932,0,0,1-.505.058Z" transform="translate(64.943 176.238)" fill="#d94e4e"/>
        <path id="Path_13599" data-name="Path 13599" d="M90.216,184.156a6.1,6.1,0,0,1-4.74.622,9.887,9.887,0,0,1-2.914-1.2,7.459,7.459,0,0,1-2.389-2.351h0a6.294,6.294,0,0,1-.913-1.943h0c.155.194.758,1.379.874,1.515a8.2,8.2,0,0,0,1.049,1.127,9.13,9.13,0,0,0,1.943,1.457,6.76,6.76,0,0,0,2.292.777,16.043,16.043,0,0,0,3.205-.1l1.3-.155a.873.873,0,0,1,.311,0h0Z" transform="translate(74.708 168.985)" fill="#d94e4e"/>
        <path id="Path_13600" data-name="Path 13600" d="M102.51,187.275h0l-.117-.253a12.841,12.841,0,0,0-2.545-3.574,7.226,7.226,0,0,0-5.556-1.632h0a18.86,18.86,0,0,0-1.943.427h0v-.1a4.663,4.663,0,0,1,1.632-.563,8.313,8.313,0,0,1,1.554-.214,7.147,7.147,0,0,1,2.485.446,10,10,0,0,1,2.216,1.224,5.672,5.672,0,0,1,2.137,2.622,6.139,6.139,0,0,1,.272,1.321.951.951,0,0,1,0,.311Z" transform="translate(87.047 170.955)" fill="#d94e4e"/>
        <path id="Path_13601" data-name="Path 13601" d="M112.836,192.625a7.77,7.77,0,0,1-2.72,1.36,6.546,6.546,0,0,1-3.244,0h0a5.226,5.226,0,0,1-1.943-.816h0a15.725,15.725,0,0,0,1.573.563,6.159,6.159,0,0,0,1.457.117,7.77,7.77,0,0,0,2.312-.35,5.517,5.517,0,0,0,1.943-1.185,10.219,10.219,0,0,0,1.729-2.525,9.849,9.849,0,0,0,.563-1.107.621.621,0,0,1,0-.291h0v.291a5.245,5.245,0,0,1-1.671,3.943Z" transform="translate(98.904 177.572)" fill="#d94e4e"/>
        <path id="Path_13602" data-name="Path 13602" d="M126.3,205.359h0a1.4,1.4,0,0,1,0-.291,12.433,12.433,0,0,0-1.146-4.313,5.827,5.827,0,0,0-1.943-2.137,7.945,7.945,0,0,0-2.894-1.224h0a15.532,15.532,0,0,0-1.943-.136h0a4.661,4.661,0,0,1,1.787-.1,8.9,8.9,0,0,1,1.573.272A6.954,6.954,0,0,1,124,198.658a8.528,8.528,0,0,1,1.729,1.943,5.634,5.634,0,0,1,1.107,3.263,5.246,5.246,0,0,1-.233,1.36A.834.834,0,0,1,126.3,205.359Z" transform="translate(111.573 185.797)" fill="#d94e4e"/>
        <path id="Path_13603" data-name="Path 13603" d="M123.525,215.758a7.01,7.01,0,0,0,1.418-.136,6.934,6.934,0,0,0,2.156-.8,5.05,5.05,0,0,0,1.632-1.554,10.062,10.062,0,0,0,.991-2.836,11.986,11.986,0,0,0,.194-1.2v-.311h0a.816.816,0,0,1,.1.272,4.9,4.9,0,0,1-.971,4.429,6.507,6.507,0,0,1-2.312,1.943,5.672,5.672,0,0,1-3.128.583h0a4.488,4.488,0,0,1-1.943-.505h0A7.494,7.494,0,0,1,123.525,215.758Z" transform="translate(114.674 196.923)" fill="#d94e4e"/>
        <path id="Path_13604" data-name="Path 13604" d="M119.341,228.186a6.717,6.717,0,0,0,1.2-.544,10.994,10.994,0,0,0,1.748-1.2,7.519,7.519,0,0,0,1.379-1.593,18.455,18.455,0,0,0,1.088-2.564c.117-.35.253-.7.35-1.068a.563.563,0,0,1,0-.272h0a.951.951,0,0,1,0,.272,5.478,5.478,0,0,1-1.243,3.885,8.742,8.742,0,0,1-4.429,3.264h0a4.817,4.817,0,0,1-1.768.272h0A15.6,15.6,0,0,0,119.341,228.186Z" transform="translate(110.913 208.252)" fill="#d94e4e"/>
        <path id="Path_13605" data-name="Path 13605" d="M109.169,229.374h0s.272,1.282.35,1.4a7.95,7.95,0,0,0,.583,1.146,9.83,9.83,0,0,0,1.263,1.612,6.528,6.528,0,0,0,1.651,1.166,11.171,11.171,0,0,0,2.584.738,9.43,9.43,0,0,0,1.068.175h.039a4.778,4.778,0,0,1-3.885-.68,7.77,7.77,0,0,1-3.458-4.06h0a4.507,4.507,0,0,1-.272-1.709S109.13,229.374,109.169,229.374Z" transform="translate(102.824 216)" fill="#d94e4e"/>
        <path id="Path_13606" data-name="Path 13606" d="M98.766,235.926c.194,0,1.243.447,1.4.427a4.874,4.874,0,0,0,1.3,0,6.781,6.781,0,0,0,1.943-.369,5.108,5.108,0,0,0,1.729-1.068,10.9,10.9,0,0,0,1.515-2.253c.175-.33.33-.641.486-.991a.952.952,0,0,1,0-.272h0a.622.622,0,0,1,0,.272,4.623,4.623,0,0,1-1.943,3.594,7.071,7.071,0,0,1-2.37,1.263,5.556,5.556,0,0,1-2.875,0h0a4.235,4.235,0,0,1-1.651-.641Z" transform="translate(92.655 218.112)" fill="#d94e4e"/>
        <path id="Path_13607" data-name="Path 13607" d="M141.038,295.775a3.008,3.008,0,0,0,.175-.913,54.647,54.647,0,0,1,1.146-9.946,67.235,67.235,0,0,1,5.245-15.307,91.592,91.592,0,0,1,8.159-13.734,83.154,83.154,0,0,1,5.828-7.285v.1a65.057,65.057,0,0,1,15.638-12.84,50.06,50.06,0,0,1,19.426-6.43,43.087,43.087,0,0,1,10.373.175,39.571,39.571,0,0,1,9.965,2.875A48.04,48.04,0,0,1,233.426,244.8a58.86,58.86,0,0,1,14.317,36.618,56.1,56.1,0,0,1-2.506,18.513,55.227,55.227,0,0,1-7.77,15.54,56.334,56.334,0,0,1-22.476,18.513,52.31,52.31,0,0,1-14.123,3.885,60.222,60.222,0,0,1-14.725.117,58.628,58.628,0,0,1-27.487-10.218A45.145,45.145,0,0,1,148.3,317.415a39.122,39.122,0,0,1-6.061-13.326,44.816,44.816,0,0,1-1.03-7.44c0-.505-.117-.874-.214-.874s-.117,0-.136.447h0v.369a36.912,36.912,0,0,0,.971,8.178,39.085,39.085,0,0,0,7.11,15.249,46.02,46.02,0,0,0,12.568,11.325,57.441,57.441,0,0,0,19.95,7.673,59.911,59.911,0,0,0,21.621.194,52.761,52.761,0,0,0,20.047-8.081A58.51,58.51,0,0,0,238.4,316.269a60.109,60.109,0,0,0,5.964-10.7,54.392,54.392,0,0,0,4.041-14.919,60.686,60.686,0,0,0-6.469-35.316c-5.828-11.247-15.541-20.494-26.186-24.554a40.251,40.251,0,0,0-15.443-2.681,46.623,46.623,0,0,0-12.394,1.943,53.789,53.789,0,0,0-17.6,9.227A71.875,71.875,0,0,0,156.5,253.543a90.761,90.761,0,0,0-10.956,18.863c-.952,2.292-1.787,4.662-2.487,6.954a62.387,62.387,0,0,0-1.535,6.6,45.633,45.633,0,0,0-.7,8.858C140.882,295.62,140.94,295.775,141.038,295.775Z" transform="translate(132.729 214.986)" fill="#d94e4e"/>
        <path id="Path_13608" data-name="Path 13608" d="M162.637,274.37a9.051,9.051,0,0,0,.6,1.437,2.836,2.836,0,0,0,1.34,1.2,2.254,2.254,0,0,0,1.943-.427,5.828,5.828,0,0,0,1.457-1.671,18.532,18.532,0,0,0,1.807-4.507,18.748,18.748,0,0,0,.738-4.818,14.978,14.978,0,0,0-.389-3.749,16.631,16.631,0,0,0-.816-2.525,4.468,4.468,0,0,0-1.632-2.234,2.331,2.331,0,0,0-1.146-.311,2.933,2.933,0,0,0-1.845.68,4.487,4.487,0,0,0-1.457,2.72c0,.1,0,.136.136.175a.288.288,0,0,0,.194,0c.039,0,.738-1.943,1.943-2.506a1.942,1.942,0,0,1,1.651-.155,1.69,1.69,0,0,1,.719.6,9.713,9.713,0,0,1,.932,2.331,16.412,16.412,0,0,1,.505,2.584,17.209,17.209,0,0,1-.175,5.284,21.365,21.365,0,0,1-1.554,4.876,7.555,7.555,0,0,1-1.243,1.943c-.466.505-1.107.7-1.321.563a1.943,1.943,0,0,1-.719-1.068,9.966,9.966,0,0,1-.389-1.748,29.875,29.875,0,0,1-.311-3.769c0-2.545-.117-5.128-.117-7.77v-.952a.155.155,0,0,0-.136-.155h-.175a3.128,3.128,0,0,0-.33,1.049,27.686,27.686,0,0,0-.894,4.371,25.255,25.255,0,0,0,0,5.672,16.454,16.454,0,0,0,.68,2.875Z" transform="translate(152.506 242.025)" fill="#d94e4e"/>
        <path id="Path_13609" data-name="Path 13609" d="M170.879,263.667a2.156,2.156,0,0,0-2.137,0,3.088,3.088,0,0,0-1.5,1.709,5.535,5.535,0,0,0-.311,2.312h.136a.136.136,0,0,0,.136,0,10.511,10.511,0,0,1,.66-2.428,2.817,2.817,0,0,1,.952-1.01,1.944,1.944,0,0,1,.738-.272c1.127-.1,1.943,1.146,2.351,2.35a15.27,15.27,0,0,1,.68,3.885,12.472,12.472,0,0,1-.369,3.885,4.41,4.41,0,0,1-1.768,2.661l-.563.253-.563.1a1.049,1.049,0,0,1-.835-.369,5.129,5.129,0,0,1-.855-2.37c-.272-1.943-.272-3.885-.408-5.828a7.373,7.373,0,0,0,0-.758.136.136,0,0,0-.136-.1h-.117a4.625,4.625,0,0,0-.155.816,24.384,24.384,0,0,0-.524,3.341,10.276,10.276,0,0,0,.524,4.41,2.933,2.933,0,0,0,1.807,1.943,3.3,3.3,0,0,0,2.409-.563,5.168,5.168,0,0,0,1.768-2.37,11.656,11.656,0,0,0,.7-3.652,13.6,13.6,0,0,0-1.127-6.43A4.041,4.041,0,0,0,170.879,263.667Z" transform="translate(156.697 248.259)" fill="#d94e4e"/>
        <path id="Path_13610" data-name="Path 13610" d="M180.593,263.359a2.875,2.875,0,0,0-.816-1.943,2.118,2.118,0,0,0-.738-.505,1.943,1.943,0,0,0-1.535.117,3.652,3.652,0,0,0-1.554,1.807v.155a.117.117,0,0,0,.155,0c.233-.194.894-1.263,1.845-1.554a1.3,1.3,0,0,1,1.2.272,2.157,2.157,0,0,1,.466.622,6.177,6.177,0,0,1-.388,3.769,16.727,16.727,0,0,1-1.729,3.73,25.254,25.254,0,0,1-2.409,3.186,8.685,8.685,0,0,1-1.34,1.224,2.233,2.233,0,0,1-.641.33h-.33a1.263,1.263,0,0,1-.214-.932,6.565,6.565,0,0,1,.194-1.34,28.733,28.733,0,0,1,.874-2.778c.68-1.943,1.418-3.71,2.079-5.595a3.574,3.574,0,0,0,.291-.7v-.136c0-.039,0,0-.136,0h0a4.181,4.181,0,0,0-.466.68,26.743,26.743,0,0,0-1.826,2.894,19.135,19.135,0,0,0-1.651,4.06,11.946,11.946,0,0,0-.408,2.234,4.252,4.252,0,0,0,0,1.2,1.942,1.942,0,0,0,.661,1.224,1.457,1.457,0,0,0,.816.272,1.942,1.942,0,0,0,.835-.253,5.825,5.825,0,0,0,1.3-1.03,21.565,21.565,0,0,0,2.37-2.836,16.647,16.647,0,0,0,2.8-5.964,8.956,8.956,0,0,0,.291-2.215Z" transform="translate(161.631 245.829)" fill="#d94e4e"/>
        <path id="Path_13611" data-name="Path 13611" d="M176.3,261.819a11.176,11.176,0,0,0,0-1.807,2.816,2.816,0,0,0-.641-1.748,1.944,1.944,0,0,0-.622-.486,1.476,1.476,0,0,0-1.34,0,3.01,3.01,0,0,0-1.4,1.593v.116a.117.117,0,0,0,.136,0c.194-.175.777-1.146,1.612-1.36s1.379.758,1.418.913a8.354,8.354,0,0,1-.136,3.438,20.107,20.107,0,0,1-.913,3.535,15.539,15.539,0,0,1-1.476,3.128,2.72,2.72,0,0,1-1.088.932.68.68,0,0,1-.894-.194,3.127,3.127,0,0,1-.525-2.1,14.314,14.314,0,0,1,.35-2.545,35.972,35.972,0,0,1,1.321-5.012,2.876,2.876,0,0,0,.253-.6s0,0,0-.136,0,0-.117,0h0a3.187,3.187,0,0,0-.427.622,14.71,14.71,0,0,0-1.457,2.661,13.793,13.793,0,0,0-.874,3.885,4.76,4.76,0,0,0,.894,3.885,1.535,1.535,0,0,0,1.282.486,2.564,2.564,0,0,0,1.4-.719,8.236,8.236,0,0,0,1.709-2.856A19.018,19.018,0,0,0,176.3,261.819Z" transform="translate(159.652 242.823)" fill="#d94e4e"/>
        <path id="Path_13612" data-name="Path 13612" d="M168.519,257.677a10.451,10.451,0,0,0-1.593,3.691,10.665,10.665,0,0,0-.117,4.079,2.893,2.893,0,0,0,.563,1.165,1.709,1.709,0,0,0,1.632.505,4.429,4.429,0,0,0,2.72-2.2,22.806,22.806,0,0,0,2.253-5.478,20.55,20.55,0,0,0,.6-3.633,3.125,3.125,0,0,0-.1-.777,1.36,1.36,0,0,0-1.01-.971,2.292,2.292,0,0,0-1.943.816s0,0,0,.136a.1.1,0,0,0,.136,0,6.832,6.832,0,0,0,.777-.389,1.34,1.34,0,0,1,1.185,0,1.088,1.088,0,0,1,.466.991,4.313,4.313,0,0,1,0,.777,28.6,28.6,0,0,1-2.37,7.071,5.439,5.439,0,0,1-2.1,2.622,1.4,1.4,0,0,1-1.243.155,1.379,1.379,0,0,1-.544-.991,8.549,8.549,0,0,1,.136-2.506,15.91,15.91,0,0,1,.68-2.506,17.188,17.188,0,0,1,2.506-4.565l.466-.5a.156.156,0,0,0,0-.155.175.175,0,0,0-.117,0h0a3.634,3.634,0,0,0-.622.447A10.157,10.157,0,0,0,168.519,257.677Z" transform="translate(157.095 239.467)" fill="#d94e4e"/>
        <path id="Path_13613" data-name="Path 13613" d="M165.157,260.6a4.565,4.565,0,0,0,1.438,1.709,2.466,2.466,0,0,0,1.263.544,1.943,1.943,0,0,0,1.632-.66,8.023,8.023,0,0,0,1.671-3.205,22.437,22.437,0,0,0,.952-6.139,4.468,4.468,0,0,0-1.476-3.594,2.681,2.681,0,0,0-2.137-.486,2.195,2.195,0,0,0-1.146.894,2.819,2.819,0,0,0-.35.8s0,.1,0,.136a.116.116,0,0,0,.155,0c.194-.194.7-1.321,1.671-1.36a2.351,2.351,0,0,1,1.807.894,5.478,5.478,0,0,1,.583,3.536,28.907,28.907,0,0,1-.622,3.885,11.655,11.655,0,0,1-1.263,3.477,1.943,1.943,0,0,1-1.049.952,1.243,1.243,0,0,1-1.107-.389,5.323,5.323,0,0,1-1.34-4.72,31.9,31.9,0,0,1,1.03-5.439,2.144,2.144,0,0,1,.214-.68.155.155,0,0,0,0-.136h-.117a4.022,4.022,0,0,0-.388.68,15.289,15.289,0,0,0-1.379,2.972,10.082,10.082,0,0,0-.505,4.2A6.567,6.567,0,0,0,165.157,260.6Z" transform="translate(155.193 234.431)" fill="#d94e4e"/>
        <path id="Path_13614" data-name="Path 13614" d="M170.279,250.92a.155.155,0,0,0,.117-.1,5.5,5.5,0,0,1,.272-2.156,1.671,1.671,0,0,1,1.515-.952,4,4,0,0,1,2.739,1.69,8.645,8.645,0,0,1,1.943,6.43,3.885,3.885,0,0,1-1.01,2.642,1.36,1.36,0,0,1-1.748-.214,6.585,6.585,0,0,1-1.418-1.943,44.671,44.671,0,0,1-2.059-4.7,3.417,3.417,0,0,0-.194-.622.116.116,0,0,0-.136,0s0,0,0,0h0a2.74,2.74,0,0,0,0,.719,17.364,17.364,0,0,0,.544,2.972,10.451,10.451,0,0,0,1.71,3.5,4.137,4.137,0,0,0,1.709,1.3,2.331,2.331,0,0,0,2.2-.389,4.157,4.157,0,0,0,1.166-2.37,9.266,9.266,0,0,0,0-3.283,8.839,8.839,0,0,0-2.7-5.109,3.516,3.516,0,0,0-3.419-1.049,2.157,2.157,0,0,0-.68.389,2.04,2.04,0,0,0-.7,1.088,3.632,3.632,0,0,0,0,2.079A.372.372,0,0,0,170.279,250.92Z" transform="translate(160.211 232.995)" fill="#d94e4e"/>
        <path id="Path_13615" data-name="Path 13615" d="M174.693,265a3.284,3.284,0,0,0,.66.932,1.748,1.748,0,0,0,1.146.466,2.894,2.894,0,0,0,2.351-1.437,11.035,11.035,0,0,0,1.3-3.089,11.656,11.656,0,0,0,0-5.828,6.876,6.876,0,0,0-.7-1.729,2.8,2.8,0,0,0-1.438-1.224,2.06,2.06,0,0,0-.777-.155,1.943,1.943,0,0,0-1.243.525,3.3,3.3,0,0,0-1.049,1.845v.117a.136.136,0,0,0,.155,0,4.6,4.6,0,0,1,1.34-1.71,1.535,1.535,0,0,1,1.768.155,5.284,5.284,0,0,1,1.5,3.069,11.4,11.4,0,0,1,0,3.633,11.073,11.073,0,0,1-1.049,3.322c-.466.971-1.3,1.729-1.943,1.632s-.913-.777-1.107-1.573a14.943,14.943,0,0,1-.33-2.525v-6.022c0-.1,0,0-.117,0h0a3.13,3.13,0,0,0-.253.719,15.652,15.652,0,0,0-.641,3.011,14.024,14.024,0,0,0,0,3.885A8.157,8.157,0,0,0,174.693,265Z" transform="translate(164.131 238.415)" fill="#d94e4e"/>
        <path id="Path_13616" data-name="Path 13616" d="M178.49,241.771a11.512,11.512,0,0,0,1.573-.525h0a13.869,13.869,0,0,1,4.973-.641,14.841,14.841,0,0,0,3.749.272h.253v-.233h0a.933.933,0,0,0-.233-.155,4.546,4.546,0,0,0-.991-.641,5.051,5.051,0,0,0-2.836-.214,16.444,16.444,0,0,0-4.2.622l-1.2.563a3.415,3.415,0,0,0-1.282.719.214.214,0,0,0,0,.136Z" transform="translate(168.046 225.768)" fill="#d94e4e"/>
        <path id="Path_13617" data-name="Path 13617" d="M183.142,249.029v.117a.5.5,0,0,0,0,.136,6.2,6.2,0,0,0,1.515.544h0c1.573.583,3.458.894,4.779,1.4a7.285,7.285,0,0,0,3.652.641h.233v-.117a.29.29,0,0,0,0-.117h0a.6.6,0,0,0-.233-.155,5.166,5.166,0,0,0-.913-.583,7.014,7.014,0,0,0-2.584-.563c-.855-.1-2.992-.758-3.885-.894l-1.224-.155C184.366,249.165,183.356,248.835,183.142,249.029Z" transform="translate(172.621 234.672)" fill="#d94e4e"/>
        <path id="Path_13618" data-name="Path 13618" d="M186.942,261.71h-.194a.253.253,0,0,0-.1.175,3.887,3.887,0,0,0-.427.719,5.829,5.829,0,0,0-.33,1.943c0,.641-.466,2.312-.544,2.992v.933c0,.116-.214.894-.117,1.068h.1a5.826,5.826,0,0,0,.369-1.185h0c.389-1.224.544-2.681.894-3.71a5.5,5.5,0,0,0,.35-2.817Q186.944,261.768,186.942,261.71Z" transform="translate(174.571 246.681)" fill="#d94e4e"/>
        <path id="Path_13619" data-name="Path 13619" d="M176.513,275.6s-.738-.214-.874-.136h0a4.88,4.88,0,0,0,.971.35h0c1.03.369,2.234.544,3.108.874a4.895,4.895,0,0,0,2.37.389h-.019a2.8,2.8,0,0,0-.6-.369,4.429,4.429,0,0,0-1.671-.35,24.3,24.3,0,0,1-2.506-.563Z" transform="translate(165.496 259.633)" fill="#d94e4e"/>
        <path id="Path_13620" data-name="Path 13620" d="M165.883,276.008h0a.35.35,0,0,0-.117.155,3.186,3.186,0,0,0-.544.6,5.09,5.09,0,0,0-.7,1.826c-.175.6-.894,2.1-1.088,2.719l-.253.874c0,.1-.389.8-.33.971h.1a5.106,5.106,0,0,0,.583-1.049h0c.622-1.068,1.049-2.409,1.573-3.322a5.342,5.342,0,0,0,.874-2.6s0-.136,0-.175h0Z" transform="translate(153.495 260.142)" fill="#d94e4e"/>
        <path id="Path_13621" data-name="Path 13621" d="M153.012,274.427a3.458,3.458,0,0,0,1.185-.524h0a10.937,10.937,0,0,0,3.069-2.681,4,4,0,0,0,1.224-2.778.311.311,0,0,0,0-.194h-.117a.35.35,0,0,0-.117.155,5.551,5.551,0,0,0-.563.641,11.286,11.286,0,0,0-.971,1.787,9.46,9.46,0,0,1-2.1,2.215,7.374,7.374,0,0,1-.719.641,4.007,4.007,0,0,0-.913.622.252.252,0,0,0,0,.1Z" transform="translate(144.202 252.846)" fill="#d94e4e"/>
        <path id="Path_13622" data-name="Path 13622" d="M147.1,259.783h0c1.185.233,2.564.253,3.555.466a5.011,5.011,0,0,0,2.681,0h-.019a3.363,3.363,0,0,0-.719-.311,5.129,5.129,0,0,0-1.943-.117c-.622,0-2.234-.214-2.856-.214h-.894a3.36,3.36,0,0,0-.991,0h0v.1a4.932,4.932,0,0,0,1.185.078Z" transform="translate(137.54 244.665)" fill="#d94e4e"/>
        <path id="Path_13623" data-name="Path 13623" d="M159.712,249.36h-.253a.72.72,0,0,0-.136.253,7.112,7.112,0,0,0-.6.952,7.771,7.771,0,0,0-.524,2.661c0,.874-.719,3.108-.835,4l-.136,1.263c0,.136-.33,1.2-.214,1.418h.253a6.583,6.583,0,0,0,.544-1.573h0c.563-1.632.855-3.555,1.34-4.934a7.324,7.324,0,0,0,.583-3.769.467.467,0,0,0-.019-.272Z" transform="translate(147.972 235.04)" fill="#d94e4e"/>
        <path id="Path_13624" data-name="Path 13624" d="M154.926,244.377c.175,0,.8-.835.913-.913a9.324,9.324,0,0,1,3.283-2.079,12.819,12.819,0,0,0,2.778-.894.368.368,0,0,0,.194,0,.136.136,0,0,0,0-.1h0a.311.311,0,0,0-.214,0,3.69,3.69,0,0,0-.894-.194,3.885,3.885,0,0,0-2.137.7c-.311.194-.913.447-1.457.8a8.428,8.428,0,0,0-1.34,1.01q-.35.408-.641.816s-.68.758-.641.952h0Z" transform="translate(145.881 226.406)" fill="#d94e4e"/>
        <path id="Path_13625" data-name="Path 13625" d="M168.039,244.109a4.02,4.02,0,0,0,.738-1.185h0a12.1,12.1,0,0,0,1.049-4.254,4.352,4.352,0,0,0-.622-3.205l-.117-.175h-.1a.467.467,0,0,0,0,.233,7.762,7.762,0,0,0-.117.913,13.6,13.6,0,0,0,.253,2.156,6.491,6.491,0,0,1-.117,1.632c-.1.641-.291,1.263-.369,1.632s-.155.66-.253.991-.466.913-.427,1.107h0A1.157,1.157,0,0,0,168.039,244.109Z" transform="translate(158.313 221.778)" fill="#d94e4e"/>
        <path id="Path_13626" data-name="Path 13626" d="M208.812,238.839A2.9,2.9,0,0,0,208,236.9a2.117,2.117,0,0,0-.738-.505,1.943,1.943,0,0,0-1.535.117,3.768,3.768,0,0,0-1.554,1.807v.155a.117.117,0,0,0,.155,0,4.633,4.633,0,0,1,1.943-1.554,1.3,1.3,0,0,1,1.2.272,2.45,2.45,0,0,1,.466.622,6.255,6.255,0,0,1-.389,3.788,17.482,17.482,0,0,1-1.729,3.73,23.308,23.308,0,0,1-2.409,3.166,8.685,8.685,0,0,1-1.34,1.224,2.233,2.233,0,0,1-.641.33h-.33c-.117,0-.233-.505-.214-.932a8.586,8.586,0,0,1,.194-1.34,23.23,23.23,0,0,1,.874-2.778c.68-1.845,1.418-3.71,2.079-5.595a5.284,5.284,0,0,0,.311-.7.175.175,0,0,0,0-.136h-.136a3.091,3.091,0,0,0-.486.68,26.747,26.747,0,0,0-1.826,2.894,20.2,20.2,0,0,0-1.651,4.06,11.948,11.948,0,0,0-.408,2.234,5.107,5.107,0,0,0,0,1.2,1.943,1.943,0,0,0,.66,1.224,1.457,1.457,0,0,0,.816.272,1.942,1.942,0,0,0,.835-.253,5.42,5.42,0,0,0,1.3-1.03,20.358,20.358,0,0,0,2.37-2.836,16.317,16.317,0,0,0,2.8-5.964,8.917,8.917,0,0,0,.194-2.215Z" transform="translate(188.328 222.717)" fill="#d94e4e"/>
        <path id="Path_13627" data-name="Path 13627" d="M201.367,245.755a8.877,8.877,0,0,0,1.729-2.875,19.426,19.426,0,0,0,1.457-5.595,10.924,10.924,0,0,0,0-1.787,2.817,2.817,0,0,0-.641-1.768,1.943,1.943,0,0,0-.622-.486,1.535,1.535,0,0,0-1.34,0,2.856,2.856,0,0,0-1.379,1.593s0,0,0,.117a.117.117,0,0,0,.136,0c.194-.175.777-1.146,1.612-1.36s1.379.758,1.418.913a8.353,8.353,0,0,1-.136,3.438,19.678,19.678,0,0,1-.913,3.535,15.541,15.541,0,0,1-1.476,3.128,2.72,2.72,0,0,1-1.088.932.68.68,0,0,1-.894-.194,3.128,3.128,0,0,1-.524-2.1,14.315,14.315,0,0,1,.35-2.545,35.111,35.111,0,0,1,1.34-4.992,4.721,4.721,0,0,0,.233-.622v-.136a.136.136,0,0,0-.117,0h0a3.185,3.185,0,0,0-.427.622,13.148,13.148,0,0,0-1.438,2.681,12.878,12.878,0,0,0-.894,3.769,4.9,4.9,0,0,0,.894,3.885,1.573,1.573,0,0,0,1.282.466A2.661,2.661,0,0,0,201.367,245.755Z" transform="translate(186.312 219.705)" fill="#d94e4e"/>
        <path id="Path_13628" data-name="Path 13628" d="M202.67,231.282a3.132,3.132,0,0,0,0-.777,1.36,1.36,0,0,0-1.01-.971,2.292,2.292,0,0,0-1.943.816v.136a.136.136,0,0,0,.136,0c.136,0,.408-.253.777-.408a1.418,1.418,0,0,1,1.185,0,1.088,1.088,0,0,1,.466.991v.777a29.468,29.468,0,0,1-2.389,7.071,5.439,5.439,0,0,1-2.1,2.622,1.4,1.4,0,0,1-1.243.155,1.379,1.379,0,0,1-.544-.991,8.547,8.547,0,0,1,.136-2.506,15.91,15.91,0,0,1,.68-2.506,16.745,16.745,0,0,1,2.525-4.565l.447-.505a.155.155,0,0,0,0-.156h0a3.633,3.633,0,0,0-.622.447,10.159,10.159,0,0,0-2.215,2.253,10.393,10.393,0,0,0-1.593,3.71,10.549,10.549,0,0,0-.117,4.06,2.894,2.894,0,0,0,.563,1.166,1.71,1.71,0,0,0,1.632.505,4.429,4.429,0,0,0,2.72-2.2,22.806,22.806,0,0,0,2.253-5.478A20.55,20.55,0,0,0,202.67,231.282Z" transform="translate(183.902 216.346)" fill="#d94e4e"/>
        <path id="Path_13629" data-name="Path 13629" d="M199.418,234.445a23.308,23.308,0,0,0,.971-6.139,4.41,4.41,0,0,0-1.5-3.574,2.584,2.584,0,0,0-2.137-.5,2.137,2.137,0,0,0-1.146.913,2.564,2.564,0,0,0-.35.777v.136a.117.117,0,0,0,.155,0c.194-.194.7-1.321,1.671-1.34a2.292,2.292,0,0,1,1.807.874,5.381,5.381,0,0,1,.583,3.535,28.9,28.9,0,0,1-.622,3.885,11.655,11.655,0,0,1-1.263,3.477,1.943,1.943,0,0,1-1.049.952,1.243,1.243,0,0,1-1.107-.388,5.323,5.323,0,0,1-1.34-4.72,31.9,31.9,0,0,1,1.03-5.439c.1-.311.194-.544.214-.68a.117.117,0,0,0,0-.136h-.155a4.018,4.018,0,0,0-.389.68,16.523,16.523,0,0,0-1.379,2.972,10.083,10.083,0,0,0-.5,4.2,6.429,6.429,0,0,0,.563,2.156,4.74,4.74,0,0,0,1.438,1.709,2.467,2.467,0,0,0,1.263.544,1.943,1.943,0,0,0,1.632-.66,8.023,8.023,0,0,0,1.612-3.225Z" transform="translate(181.793 211.299)" fill="#d94e4e"/>
        <path id="Path_13630" data-name="Path 13630" d="M198.643,226.419s.117,0,.117-.1a5.828,5.828,0,0,1,.272-2.137,1.671,1.671,0,0,1,1.515-.971,4,4,0,0,1,2.739,1.69,8.645,8.645,0,0,1,1.943,6.43,3.885,3.885,0,0,1-1.088,2.584,1.36,1.36,0,0,1-1.748-.214,6.585,6.585,0,0,1-1.418-1.943,44.688,44.688,0,0,1-2.059-4.7,3.422,3.422,0,0,0-.194-.622.117.117,0,0,0-.136,0,.1.1,0,0,0-.1,0h0a2.254,2.254,0,0,0,0,.719,15.365,15.365,0,0,0,.525,2.972,10.141,10.141,0,0,0,1.729,3.5,3.886,3.886,0,0,0,1.69,1.3,2.331,2.331,0,0,0,2.2-.388,4.1,4.1,0,0,0,1.166-2.37,9.266,9.266,0,0,0,0-3.283,8.839,8.839,0,0,0-2.7-5.109,3.5,3.5,0,0,0-3.419-1.049,2.2,2.2,0,0,0-1.379,1.476,3.632,3.632,0,0,0,0,2.079Z" transform="translate(186.763 209.844)" fill="#d94e4e"/>
        <path id="Path_13631" data-name="Path 13631" d="M203.089,240.465a3.03,3.03,0,0,0,.661.932,1.748,1.748,0,0,0,1.146.466,2.894,2.894,0,0,0,2.35-1.438,10.492,10.492,0,0,0,1.3-3.089,11.655,11.655,0,0,0,0-5.828,6.467,6.467,0,0,0-.7-1.709,2.739,2.739,0,0,0-1.437-1.243,1.826,1.826,0,0,0-.777-.136,1.943,1.943,0,0,0-1.243.505,3.3,3.3,0,0,0-1.049,1.845v.117a.117.117,0,0,0,.136,0,4.6,4.6,0,0,1,1.34-1.71,1.515,1.515,0,0,1,1.768.155,5.284,5.284,0,0,1,1.3,3.128,11.4,11.4,0,0,1,0,3.633,11.073,11.073,0,0,1-1.049,3.322c-.466.971-1.3,1.729-1.943,1.632s-.913-.777-1.088-1.573a13.19,13.19,0,0,1-.35-2.525v-5.925a.1.1,0,0,0,0-.1H203.3a2.778,2.778,0,0,0-.233.719,15.691,15.691,0,0,0-.66,3.011,13.346,13.346,0,0,0,0,3.885A7.324,7.324,0,0,0,203.089,240.465Z" transform="translate(190.652 215.302)" fill="#d94e4e"/>
        <path id="Path_13632" data-name="Path 13632" d="M206.759,217.267a11.5,11.5,0,0,0,1.574-.525h0a13.87,13.87,0,0,1,4.973-.641,15.793,15.793,0,0,0,3.749.291h.253v-.233h0l-.233-.155a4.545,4.545,0,0,0-.991-.641,5.226,5.226,0,0,0-2.836-.33,16.442,16.442,0,0,0-4.2.622c-.408.175-.816.369-1.2.583s-1.185.466-1.282.719a.194.194,0,0,0,0,.117.311.311,0,0,0,.194.194Z" transform="translate(194.694 202.621)" fill="#d94e4e"/>
        <path id="Path_13633" data-name="Path 13633" d="M211.41,224.442v.253a5.672,5.672,0,0,0,1.515.544h0c1.573.583,3.458.894,4.779,1.4a7.09,7.09,0,0,0,3.652.641h.233v-.117a.291.291,0,0,0,0-.117h0a.6.6,0,0,0-.233-.155,5.164,5.164,0,0,0-.913-.583,7.012,7.012,0,0,0-2.584-.563c-.855-.1-2.992-.758-3.885-.894l-1.224-.155C212.556,224.656,211.624,224.325,211.41,224.442Z" transform="translate(199.27 211.53)" fill="#d94e4e"/>
        <path id="Path_13634" data-name="Path 13634" d="M215.165,237.185a.117.117,0,0,0-.1,0h0a.252.252,0,0,0-.1.175,4.663,4.663,0,0,0-.427.719,5.827,5.827,0,0,0-.33,1.943c0,.641-.466,2.331-.544,2.992v.932c0,.117-.214.913-.117,1.068h.194a4.875,4.875,0,0,0,.369-1.185h0c.389-1.224.544-2.661.894-3.71a5.5,5.5,0,0,0,.35-2.817,1.515,1.515,0,0,0-.194-.116Z" transform="translate(201.265 223.555)" fill="#d94e4e"/>
        <path id="Path_13635" data-name="Path 13635" d="M204.783,251.074s-.738-.214-.874-.136h0a4.876,4.876,0,0,0,.971.35h0c1.03.369,2.234.544,3.108.874a4.9,4.9,0,0,0,2.37.389h.155l-.155-.1a2.8,2.8,0,0,0-.6-.369,4.43,4.43,0,0,0-1.671-.35,24.3,24.3,0,0,1-2.506-.563Z" transform="translate(192.143 236.512)" fill="#d94e4e"/>
        <path id="Path_13636" data-name="Path 13636" d="M190.364,215.765h-.214a2.915,2.915,0,0,0-.894-.175,3.885,3.885,0,0,0-2.137.68c-.311.194-.913.447-1.457.8a7.362,7.362,0,0,0-1.34,1.03,8.218,8.218,0,0,0-.641.8s-.66.758-.641.971h.1c.175,0,.8-.835.913-.913h0a9.713,9.713,0,0,1,3.283-2.079,12.822,12.822,0,0,0,2.778-.894.369.369,0,0,0,.194,0,.232.232,0,0,0,0-.1h0Z" transform="translate(172.529 203.21)" fill="#d94e4e"/>
        <path id="Path_13637" data-name="Path 13637" d="M196.376,219.6a4.371,4.371,0,0,0,.738-1.2h0a12.1,12.1,0,0,0,1.049-4.254,4.215,4.215,0,0,0-.622-3.186.563.563,0,0,0-.117-.194h-.1a.117.117,0,0,0-.1,0h0a.466.466,0,0,0,0,.233,7.761,7.761,0,0,0-.117.913,13.6,13.6,0,0,0,.253,2.156,6.682,6.682,0,0,1-.117,1.651,6.854,6.854,0,0,1-.369,1.612c-.078.369-.155.66-.253,1.01s-.466.894-.427,1.088h0Z" transform="translate(184.932 198.652)" fill="#d94e4e"/>
        <path id="Path_13638" data-name="Path 13638" d="M194.88,241.14v.1c0,.214.214.408.311.622a5.526,5.526,0,0,0,0-.66.136.136,0,0,0-.136,0h-.117Z" transform="translate(183.689 227.292)" fill="#d94e4e"/>
        <path id="Path_13639" data-name="Path 13639" d="M237.129,214.305a2.9,2.9,0,0,0-.816-1.943,2.117,2.117,0,0,0-.738-.505,1.943,1.943,0,0,0-1.535.136,3.672,3.672,0,0,0-1.554,1.787s0,.117,0,.155a.156.156,0,0,0,.155,0c.233-.214.894-1.282,1.845-1.573a1.3,1.3,0,0,1,1.2.272,1.942,1.942,0,0,1,.466.622,6.255,6.255,0,0,1-.389,3.788,17.481,17.481,0,0,1-1.729,3.73,23.311,23.311,0,0,1-2.409,3.166,8.683,8.683,0,0,1-1.34,1.224,1.943,1.943,0,0,1-.641.33h-.33c-.117,0-.233-.486-.214-.913a8.815,8.815,0,0,1,.194-1.36,25.59,25.59,0,0,1,.894-2.778c.66-1.845,1.4-3.691,2.079-5.595.136-.311.253-.563.291-.7a.175.175,0,0,0,0-.136.117.117,0,0,0-.136,0h0a3.09,3.09,0,0,0-.486.68,25.261,25.261,0,0,0-1.826,2.914,19.585,19.585,0,0,0-1.651,4.041,13.752,13.752,0,0,0-.408,2.234,5.109,5.109,0,0,0,0,1.2,1.942,1.942,0,0,0,.68,1.224,1.263,1.263,0,0,0,.8.272,2.313,2.313,0,0,0,.835-.233,6.606,6.606,0,0,0,1.3-1.03,21.759,21.759,0,0,0,2.37-2.856,16.319,16.319,0,0,0,2.8-5.964,8.916,8.916,0,0,0,.291-2.2Z" transform="translate(214.927 199.599)" fill="#d94e4e"/>
        <path id="Path_13640" data-name="Path 13640" d="M229.657,221.225a8.956,8.956,0,0,0,1.71-2.875,19.426,19.426,0,0,0,1.457-5.595,10.868,10.868,0,0,0,0-1.787,2.817,2.817,0,0,0-.641-1.768,1.943,1.943,0,0,0-.622-.486,1.535,1.535,0,0,0-1.34,0,2.914,2.914,0,0,0-1.379,1.593v.117a.117.117,0,0,0,.136,0c.194-.175.777-1.146,1.612-1.36s1.379.758,1.418.913a8.353,8.353,0,0,1-.136,3.438,19.678,19.678,0,0,1-.913,3.535,16.2,16.2,0,0,1-1.476,3.147,2.835,2.835,0,0,1-1.088.913.68.68,0,0,1-.894-.175,3.205,3.205,0,0,1-.525-2.117,14.317,14.317,0,0,1,.35-2.545,37.92,37.92,0,0,1,1.34-4.992,4.72,4.72,0,0,0,.233-.622v-.136a.136.136,0,0,0-.117,0h0a2.41,2.41,0,0,0-.427.6,13.365,13.365,0,0,0-2.331,6.449,4.9,4.9,0,0,0,.894,3.885,1.573,1.573,0,0,0,1.282.466,2.8,2.8,0,0,0,1.457-.6Z" transform="translate(212.959 196.584)" fill="#d94e4e"/>
        <path id="Path_13641" data-name="Path 13641" d="M231.044,206.751a3.129,3.129,0,0,0-.1-.777,1.36,1.36,0,0,0-1.01-.971,2.35,2.35,0,0,0-1.943.816v.136a.117.117,0,0,0,.136,0c.136,0,.408-.253.777-.408a1.476,1.476,0,0,1,1.185,0,1.088,1.088,0,0,1,.466.991v.777a29.466,29.466,0,0,1-2.389,7.071,5.322,5.322,0,0,1-2.1,2.622,1.068,1.068,0,0,1-1.787-.835,8.546,8.546,0,0,1,.136-2.506,15.907,15.907,0,0,1,.68-2.506,17.018,17.018,0,0,1,2.525-4.565l.447-.505a.155.155,0,0,0,0-.155h-.1a3.63,3.63,0,0,0-.622.447,10.508,10.508,0,0,0-2.2,2.253,9.713,9.713,0,0,0-1.593,3.71,10.179,10.179,0,0,0-.136,4.06,2.719,2.719,0,0,0,.583,1.165,1.729,1.729,0,0,0,1.612.524,4.623,4.623,0,0,0,2.739-2.214A23.117,23.117,0,0,0,230.6,210.4a20.552,20.552,0,0,0,.447-3.652Z" transform="translate(210.464 193.225)" fill="#d94e4e"/>
        <path id="Path_13642" data-name="Path 13642" d="M227.67,209.929a23.6,23.6,0,0,0,.971-6.139,4.488,4.488,0,0,0-1.5-3.594,2.525,2.525,0,0,0-2.137-.486,2.078,2.078,0,0,0-1.146.894,2.429,2.429,0,0,0-.35.8v.117a.117.117,0,0,0,.155,0c.194-.194.7-1.321,1.671-1.34a2.292,2.292,0,0,1,1.807.874,5.42,5.42,0,0,1,.583,3.555,32.02,32.02,0,0,1-.6,3.885,12.3,12.3,0,0,1-1.282,3.477,1.943,1.943,0,0,1-1.049.952,1.243,1.243,0,0,1-1.107-.389,5.323,5.323,0,0,1-1.34-4.72,31.9,31.9,0,0,1,1.03-5.439,2.331,2.331,0,0,1,.214-.68c.019-.136,0-.1,0-.136s0,0-.117,0h0a5.071,5.071,0,0,0-.389.68,15.208,15.208,0,0,0-1.36,2.972,9.713,9.713,0,0,0-.524,4.2,6.43,6.43,0,0,0,.563,2.156,4.973,4.973,0,0,0,1.438,1.729,2.642,2.642,0,0,0,1.263.525,1.943,1.943,0,0,0,1.632-.66A8.063,8.063,0,0,0,227.67,209.929Z" transform="translate(208.457 188.182)" fill="#d94e4e"/>
        <path id="Path_13643" data-name="Path 13643" d="M226.98,201.884v-.1a5.827,5.827,0,0,1,.272-2.137,1.671,1.671,0,0,1,1.515-.971,3.885,3.885,0,0,1,2.739,1.69,8.7,8.7,0,0,1,1.943,6.43,3.885,3.885,0,0,1-1.088,2.584,1.36,1.36,0,0,1-1.748-.214,6.584,6.584,0,0,1-1.418-1.943,39.41,39.41,0,0,1-2.04-4.7,1.273,1.273,0,0,0-.214-.622h-.233a2.254,2.254,0,0,0,0,.719,15.367,15.367,0,0,0,.525,2.972,10.141,10.141,0,0,0,1.729,3.5,3.885,3.885,0,0,0,1.69,1.3,2.273,2.273,0,0,0,2.2-.388,4.1,4.1,0,0,0,1.166-2.37,9.267,9.267,0,0,0,0-3.283,8.839,8.839,0,0,0-2.7-5.109,3.458,3.458,0,0,0-3.419-1.03,1.671,1.671,0,0,0-.68.369,2.273,2.273,0,0,0-.7,1.107,3.575,3.575,0,0,0,0,2.059A1.931,1.931,0,0,0,226.98,201.884Z" transform="translate(213.363 186.728)" fill="#d94e4e"/>
        <path id="Path_13644" data-name="Path 13644" d="M231.4,215.955a3.633,3.633,0,0,0,.66.913,1.787,1.787,0,0,0,1.146.466,2.894,2.894,0,0,0,2.351-1.438,10.491,10.491,0,0,0,1.3-3.089,11.52,11.52,0,0,0,0-5.828,5.83,5.83,0,0,0-.7-1.709,2.739,2.739,0,0,0-1.437-1.243,1.748,1.748,0,0,0-.777-.136,1.942,1.942,0,0,0-1.243.505,3.3,3.3,0,0,0-1.049,1.845v.117a.117.117,0,0,0,.136,0,4.6,4.6,0,0,1,1.34-1.71,1.515,1.515,0,0,1,1.768.155,5.323,5.323,0,0,1,1.3,3.127,11.984,11.984,0,0,1,0,3.633,11.48,11.48,0,0,1-1.068,3.322c-.466.991-1.3,1.729-1.943,1.632s-.913-.777-1.088-1.574a13.186,13.186,0,0,1-.33-2.525,47.589,47.589,0,0,1,0-5.264v-.641a.1.1,0,0,0,0-.117h-.155a2.779,2.779,0,0,0-.233.719,16.028,16.028,0,0,0-.66,3.011,13.327,13.327,0,0,0,0,3.885,7.654,7.654,0,0,0,.68,1.943Z" transform="translate(217.336 192.18)" fill="#d94e4e"/>
        <path id="Path_13645" data-name="Path 13645" d="M235.029,192.708a11.5,11.5,0,0,0,1.574-.524h0a13.949,13.949,0,0,1,4.973-.66,14.84,14.84,0,0,0,3.749.291h.253v-.233h0a.932.932,0,0,0-.233-.155,5.827,5.827,0,0,0-.991-.641,5.206,5.206,0,0,0-2.836-.214,16.442,16.442,0,0,0-4.2.622c-.408.175-.816.369-1.2.583s-1.185.466-1.282.719a.194.194,0,0,0,0,.117A.311.311,0,0,0,235.029,192.708Z" transform="translate(221.34 179.528)" fill="#d94e4e"/>
        <path id="Path_13646" data-name="Path 13646" d="M239.68,199.9v.253a5.927,5.927,0,0,0,1.515.544h0c1.573.583,3.458.894,4.779,1.4a7.09,7.09,0,0,0,3.652.641h.233v-.117h0a.6.6,0,0,0-.233-.155,6.566,6.566,0,0,0-.913-.583,7.439,7.439,0,0,0-2.584-.563c-.855-.1-2.992-.758-3.885-.894l-1.224-.155a4.855,4.855,0,0,0-1.34-.369Z" transform="translate(225.916 188.421)" fill="#d94e4e"/>
        <path id="Path_13647" data-name="Path 13647" d="M243.375,212.65h-.1a.252.252,0,0,0,0,.175,4.661,4.661,0,0,0-.427.719,5.827,5.827,0,0,0-.33,1.943c0,.66-.466,2.331-.544,2.992v.932a4.736,4.736,0,0,0-.117,1.068h.1a4.879,4.879,0,0,0,.369-1.185h0c.388-1.224.563-2.661.894-3.691a5.594,5.594,0,0,0,.35-2.836.427.427,0,0,0-.194-.117Z" transform="translate(227.971 200.438)" fill="#d94e4e"/>
        <path id="Path_13648" data-name="Path 13648" d="M233.073,226.544c-.1,0-.758-.214-.894-.136h0a3.769,3.769,0,0,0,.991.35h0c1.03.369,2.253.563,3.108.874a4.895,4.895,0,0,0,2.37.389h.155l-.155-.1a3.889,3.889,0,0,0-.6-.369,4.43,4.43,0,0,0-1.671-.35c-.544,0-1.943-.466-2.506-.544Z" transform="translate(218.789 213.391)" fill="#d94e4e"/>
        <path id="Path_13649" data-name="Path 13649" d="M218.634,191.235h-.214a3.634,3.634,0,0,0-.894-.175,3.886,3.886,0,0,0-2.137.68c-.311.194-.913.466-1.457.8a7.362,7.362,0,0,0-1.34,1.03,8.212,8.212,0,0,0-.641.8c0,.1-.66.758-.641.971h0c.175,0,.8-.835.913-.913h0a9.714,9.714,0,0,1,3.283-2.079,12.82,12.82,0,0,0,2.778-.894h.194a.679.679,0,0,0,0-.117Z" transform="translate(199.175 180.088)" fill="#d94e4e"/>
        <path id="Path_13650" data-name="Path 13650" d="M224.606,195.074a4.371,4.371,0,0,0,.738-1.2h0a12.1,12.1,0,0,0,1.049-4.254,4.216,4.216,0,0,0-.622-3.186.563.563,0,0,0-.117-.194h0a.117.117,0,0,0-.1,0h0a.311.311,0,0,0,0,.233,5.032,5.032,0,0,0-.1.913,12,12,0,0,0,.233,2.176,7.4,7.4,0,0,1-.1,1.632c-.117.641-.311,1.243-.389,1.612s-.155.66-.253,1.01-.466.894-.427,1.088h0a.117.117,0,0,0,.078.175Z" transform="translate(211.619 175.531)" fill="#d94e4e"/>
        <path id="Path_13651" data-name="Path 13651" d="M357.485,206.159c-6.236-12.141-16.784-22.107-28.245-26.5a43.281,43.281,0,0,0-16.667-2.875,49.9,49.9,0,0,0-13.345,2.156,57.6,57.6,0,0,0-19,9.946,78.734,78.734,0,0,0-14.9,15.385,99.074,99.074,0,0,0-11.811,20.358v.1h0a50.136,50.136,0,0,0-9.169,1.943,57.6,57.6,0,0,0-19,9.946A78.733,78.733,0,0,0,210.452,252a98.412,98.412,0,0,0-11.811,20.358s0,0,0,.1a50.145,50.145,0,0,0-9.169,1.943,57.6,57.6,0,0,0-19,9.946A78.188,78.188,0,0,0,155.5,299.6a98.411,98.411,0,0,0-11.811,20.358,78.971,78.971,0,0,0-2.681,7.5,64.6,64.6,0,0,0-1.632,7.11,48.06,48.06,0,0,0-.758,9.577c0,.758,0,.932.175.932s.175-.427.194-.971a60.662,60.662,0,0,1,1.243-10.742,73.7,73.7,0,0,1,5.653-16.512,98.319,98.319,0,0,1,8.8-14.8,86.491,86.491,0,0,1,6.294-7.867l-.1.117a69.93,69.93,0,0,1,16.881-13.87,53.885,53.885,0,0,1,21.057-6.916,45.907,45.907,0,0,1,11.189.175,42.949,42.949,0,0,1,10.723,3.108,51.926,51.926,0,0,1,17.716,13.287,63.6,63.6,0,0,1,15.541,39.492,60.22,60.22,0,0,1-35.433,56.684,56.934,56.934,0,0,1-15.249,4.274,65.9,65.9,0,0,1-15.89.117,63.406,63.406,0,0,1-29.488-11.073,49.245,49.245,0,0,1-11.17-11.189,41.669,41.669,0,0,1-6.527-14.356A46.617,46.617,0,0,1,139.1,346c0-.544-.117-.952-.233-.952s-.117.1-.136.486h0v.389a40.328,40.328,0,0,0,1.049,8.819,42.077,42.077,0,0,0,7.77,16.454,44.294,44.294,0,0,0,6.216,6.721,50.507,50.507,0,0,0,7.343,5.5,61.89,61.89,0,0,0,21.5,8.275,64.5,64.5,0,0,0,23.311.194,56.684,56.684,0,0,0,21.446-8.761A62.785,62.785,0,0,0,243.844,367.1a64.847,64.847,0,0,0,6.43-11.539,59.986,59.986,0,0,0,3.38-10.548h0a60.553,60.553,0,0,0,7.013-.816,57.033,57.033,0,0,0,21.621-8.722,62.785,62.785,0,0,0,16.473-16.026,64.1,64.1,0,0,0,6.43-11.539,59.993,59.993,0,0,0,3.38-10.548,60.569,60.569,0,0,0,7.013-.816,57.033,57.033,0,0,0,21.621-8.606,62.785,62.785,0,0,0,16.473-16.026,64.1,64.1,0,0,0,6.43-11.539,57.771,57.771,0,0,0,4.351-16.1,65.387,65.387,0,0,0-6.974-38.113ZM297.634,318.711A60.609,60.609,0,0,1,273.41,338.6a56.332,56.332,0,0,1-15.249,4.274c-1.36.175-2.72.311-4.1.408h0c.233-1.224.447-2.467.6-3.749a64.61,64.61,0,0,0-2.914-28.5,2.186,2.186,0,0,0,.214.66h0a5.284,5.284,0,0,0,1.748-2.37,11.654,11.654,0,0,0,.7-3.652,13.735,13.735,0,0,0-1.127-6.43,4.041,4.041,0,0,0-1.457-1.573,2.156,2.156,0,0,0-2.137,0,3.089,3.089,0,0,0-1.5,1.709,5.555,5.555,0,0,0-.311,2.312s0,.1.136.1a.136.136,0,0,0,.136,0,9.853,9.853,0,0,1,.68-2.428,2.622,2.622,0,0,1,.932-1.01,1.944,1.944,0,0,1,.738-.272c1.127,0,1.943,1.146,2.351,2.37a15,15,0,0,1,.68,3.885,12.472,12.472,0,0,1-.369,3.885,4.526,4.526,0,0,1-1.593,2.525h0a62.922,62.922,0,0,0-3.885-9.286c-.408-.8-.835-1.593-1.282-2.37l.291-.932a19.427,19.427,0,0,0,.719-4.818,16.22,16.22,0,0,0-.369-3.749,19.214,19.214,0,0,0-.835-2.525,4.467,4.467,0,0,0-1.632-2.234,2.331,2.331,0,0,0-1.146-.311,3.05,3.05,0,0,0-1.943.68,4.487,4.487,0,0,0-1.457,2.72.187.187,0,0,0,.136.175.136.136,0,0,0,.194,0c.233-.33.738-1.943,1.943-2.506a1.7,1.7,0,0,1,2.37.447,9.712,9.712,0,0,1,.932,2.331,16.421,16.421,0,0,1,.505,2.584,17.193,17.193,0,0,1-.175,5.284c-.1.524-.253,1.03-.388,1.554s.272.486.427.719a60.536,60.536,0,0,0-5.944-8.334l.272.311V288.31c0-.194,0-.117-.136-.155a.227.227,0,0,0-.175,0h0a3.127,3.127,0,0,0-.33,1.049.637.637,0,0,1-.1.408,56.6,56.6,0,0,0-10-9.111,9.274,9.274,0,0,0,.447-1.418h0c.563-1.612.855-3.555,1.36-4.934a7.518,7.518,0,0,0,.563-3.769v-.252c0-.039,0,0-.117,0h-.136a.485.485,0,0,0-.136.233,7.111,7.111,0,0,0-.6.952,7.771,7.771,0,0,0-.524,2.681c0,.855-.719,3.089-.835,3.982l-.136,1.263a9.995,9.995,0,0,0-.214,1.068,46.213,46.213,0,0,0-9.868-5.284,43.2,43.2,0,0,0-15.541-2.895c.272-.583.505-1.166.777-1.748a91.592,91.592,0,0,1,8.159-13.734,81.71,81.71,0,0,1,5.828-7.188,64.784,64.784,0,0,1,15.657-12.84,49.866,49.866,0,0,1,19.426-6.43,43.088,43.088,0,0,1,10.373.175,39.571,39.571,0,0,1,9.965,2.875,47.846,47.846,0,0,1,16.434,12.335,58.86,58.86,0,0,1,14.317,36.54,56.1,56.1,0,0,1-2.506,18.513,55.224,55.224,0,0,1-7.77,15.541,56.335,56.335,0,0,1-22.514,18.454,52.314,52.314,0,0,1-14.122,3.885c-1.03.136-2.059.233-3.089.311v.583a11.294,11.294,0,0,1-.175,1.127c1.943-.155,3.788-.389,5.672-.719a52.451,52.451,0,0,0,20.047-8.081,57.908,57.908,0,0,0,15.269-14.861,58.918,58.918,0,0,0,5.964-10.7,54.39,54.39,0,0,0,4.041-14.919,60.7,60.7,0,0,0-6.469-35.316c-5.828-11.247-15.541-20.494-26.186-24.554a40.251,40.251,0,0,0-15.541-2.681,46.621,46.621,0,0,0-12.394,1.943,53.789,53.789,0,0,0-17.6,9.227,72.324,72.324,0,0,0-13.812,14.278,91.3,91.3,0,0,0-10.471,17.736h-.33c-1.146,0-2.253.117-3.322.214h0c.447-1.03.874-2.079,1.379-3.089a96.046,96.046,0,0,1,8.78-14.822,87.8,87.8,0,0,1,6.2-7.77,69.467,69.467,0,0,1,16.8-13.637,53.614,53.614,0,0,1,21.1-6.993,44.954,44.954,0,0,1,11.189.194,41.882,41.882,0,0,1,10.723,3.089,51.925,51.925,0,0,1,17.755,13.307A63.639,63.639,0,0,1,308.8,281.861a58.977,58.977,0,0,1-11.17,36.792Zm63.386-64.474a59.5,59.5,0,0,1-8.47,16.823,60.822,60.822,0,0,1-24.263,19.911,56.9,56.9,0,0,1-15.249,4.254c-1.36.175-2.72.311-4.1.408.233-1.224.447-2.467.6-3.749a64.61,64.61,0,0,0-2.914-28.5,6.94,6.94,0,0,1,.214.68h0a5.283,5.283,0,0,0,1.748-2.37,11.092,11.092,0,0,0,.7-3.652,13.733,13.733,0,0,0-1.127-6.43,4.137,4.137,0,0,0-1.437-1.573,2.2,2.2,0,0,0-2.156,0,3.166,3.166,0,0,0-1.5,1.71,5.555,5.555,0,0,0-.311,2.312s0,.1.136.1a.136.136,0,0,0,.136,0,9.558,9.558,0,0,1,.68-2.409,2.564,2.564,0,0,1,.932-1.03,1.942,1.942,0,0,1,.738-.272c1.127,0,1.943,1.146,2.351,2.37a15.133,15.133,0,0,1,.68,3.885,12.47,12.47,0,0,1-.369,3.885,4.43,4.43,0,0,1-1.593,2.525h0a63.828,63.828,0,0,0-3.885-9.286c-.408-.8-.835-1.593-1.282-2.37l.291-.932a19.425,19.425,0,0,0,.719-4.818,16.335,16.335,0,0,0-.369-3.749,19.213,19.213,0,0,0-.835-2.525,4.371,4.371,0,0,0-1.632-2.234,2.253,2.253,0,0,0-1.146-.311,3.108,3.108,0,0,0-1.845.68,4.584,4.584,0,0,0-1.457,2.739c0,.1,0,.117.136.155a.175.175,0,0,0,.214,0,5.673,5.673,0,0,1,1.943-2.506,1.943,1.943,0,0,1,1.651-.155,1.69,1.69,0,0,1,.719.622,8.585,8.585,0,0,1,.932,2.312,16.411,16.411,0,0,1,.5,2.584,16.59,16.59,0,0,1-.175,5.284,6.508,6.508,0,0,1-.388,1.554,63.209,63.209,0,0,0-5.245-7.3c0-.408,0-.816,0-1.2v-.971c0-.194,0-.117-.136-.155a.227.227,0,0,0-.175,0h0a3.129,3.129,0,0,0-.33,1.049q0,.2,0,.408a56.6,56.6,0,0,0-10-9.111,9.266,9.266,0,0,0,.447-1.418h0c.563-1.612.855-3.555,1.36-4.934a7.771,7.771,0,0,0,.583-3.769.816.816,0,0,0,0-.253h-.253a1.428,1.428,0,0,0-.155.233,5.441,5.441,0,0,0-.583.952,7.012,7.012,0,0,0-.525,2.681c0,.855-.738,3.089-.855,3.982l-.136,1.263a9.989,9.989,0,0,0-.214,1.068,47.442,47.442,0,0,0-9.849-5.284,42.853,42.853,0,0,0-15.541-2.875c.272-.583.505-1.185.777-1.768a91.6,91.6,0,0,1,8.159-13.734,77.5,77.5,0,0,1,5.828-7.168,64.863,64.863,0,0,1,15.657-12.86,49.865,49.865,0,0,1,19.426-6.43,43.087,43.087,0,0,1,10.373.175,38.6,38.6,0,0,1,9.965,2.894,47.554,47.554,0,0,1,16.434,12.316,58.9,58.9,0,0,1,14.317,36.618,54.742,54.742,0,0,1-10.548,33.956,56.335,56.335,0,0,1-22.514,18.454,52.311,52.311,0,0,1-14.123,3.885c-1.03.136-2.059.233-3.089.311v.583a11.294,11.294,0,0,1-.175,1.127,56.342,56.342,0,0,0,5.692-.719,52.45,52.45,0,0,0,20.028-8.081,58.277,58.277,0,0,0,15.288-14.861,60.226,60.226,0,0,0,5.944-10.7,54.388,54.388,0,0,0,4.041-14.919,60.7,60.7,0,0,0-6.469-35.316c-5.828-11.248-15.541-20.494-26.186-24.554a40.191,40.191,0,0,0-15.5-2.623,47.5,47.5,0,0,0-12.394,1.943,53.986,53.986,0,0,0-17.6,9.227,72.324,72.324,0,0,0-13.812,14.278,91.3,91.3,0,0,0-10.47,17.736h-.33c-1.146,0-2.253.117-3.322.214.447-1.03.874-2.079,1.379-3.089a97.615,97.615,0,0,1,8.78-14.822,87.811,87.811,0,0,1,6.2-7.77,69.466,69.466,0,0,1,16.881-13.851,53.926,53.926,0,0,1,21.057-6.935,44.934,44.934,0,0,1,11.189.194,41.511,41.511,0,0,1,10.742,3.108A51.731,51.731,0,0,1,348.3,194.62a63.639,63.639,0,0,1,15.424,39.493,60.065,60.065,0,0,1-2.7,20.125Z" transform="translate(130.645 166.621)" fill="#d94e4e"/>
        <path id="Path_13652" data-name="Path 13652" d="M223.15,216.638h0c.1.214.214.408.311.622a5.7,5.7,0,0,0,0-.66.136.136,0,0,0-.136,0h-.116Z" transform="translate(210.336 204.143)" fill="#d94e4e"/>
        <path id="Path_13653" data-name="Path 13653" d="M206.554,168.168a12.9,12.9,0,0,0,2.273-3.438,10.956,10.956,0,0,0,.932-4.079,10.723,10.723,0,0,0-.525-3.769,2.927,2.927,0,0,0,1.107-.155,15.677,15.677,0,0,0,7.77-3.03,11.908,11.908,0,0,0,3.477-4.177l.641-1.243c.136-.447.253-.913.389-1.379l.194-.68V144.08a11.656,11.656,0,0,0-1.787-5.264,21.372,21.372,0,0,0-1.457-1.943c.719-.194,1.943-.544,3.574-1.107A56.781,56.781,0,0,0,237.5,127.7a95.072,95.072,0,0,0,11.325-10.218c1.768-1.943,3.477-3.788,5.128-5.828.816-.991,1.632-1.943,2.428-2.992l1.166-1.515.855-1.146,1.03-1.418c-.835,0-1.709-.155-2.525-.194h-1.593a22.651,22.651,0,0,0-2.836.389,41.1,41.1,0,0,0-5.42,1.437,49.45,49.45,0,0,0-5.342,2.059,31.606,31.606,0,0,0-3.089,1.612,30.653,30.653,0,0,1-3.108,1.943,85.86,85.86,0,0,1-12.763,4.546,43.511,43.511,0,0,0,4.2-3.769,69.935,69.935,0,0,0,5.478-6.2c3.263-4.021,5.828-7.77,7.77-10.645h0v-.117l1.768-2.642-2.486,1.943h-.117a7.771,7.771,0,0,1-1.943,1.166c-1.418.6-2.992,1.049-4.526,1.554l-4.6,1.5a46.309,46.309,0,0,0-4.546,1.729,37.789,37.789,0,0,0-4.235,2.409,76.558,76.558,0,0,0-8.528,6.391A91.661,91.661,0,0,0,203,117.214l-.291-.932a14.142,14.142,0,0,0-1.612-3.594,7.012,7.012,0,0,0-1.146-1.321,5.013,5.013,0,0,0-1.243-.874,10.781,10.781,0,0,0-9.713.583,17.27,17.27,0,0,0-4.254,3.322,18.922,18.922,0,0,0-2.894,4.041,7.925,7.925,0,0,0-1.768-1.943,9.965,9.965,0,0,0-4.215-1.943,20.3,20.3,0,0,0-7.188-.194,16.026,16.026,0,0,0-6.469,2.972,23.311,23.311,0,0,0-5.4,5.575,28.09,28.09,0,0,0-3.633,6.857l-.66-.35a13.6,13.6,0,0,0-7.013-.777,21.621,21.621,0,0,0-6.7,1.943,18.513,18.513,0,0,0-6.275,4.313,16.007,16.007,0,0,0-3.885,6.663,10.858,10.858,0,0,0-2.817-.8,11.17,11.17,0,0,0-6.644.971,12.957,12.957,0,0,0-2.331,1.379,17.775,17.775,0,0,0-3.38,3.205,23,23,0,0,0-3.885,6.411h-.253a8.508,8.508,0,0,0-3.885.738,17.482,17.482,0,0,0-4.992,3.633,17.075,17.075,0,0,0-4.818,9.033,27.371,27.371,0,0,0,0,10.218,48.35,48.35,0,0,0,9.3,20.844c.233.272.311.311.388.253s0-.253-.117-.486c-.447-.68-1.515-2.253-2.739-4.332a59.854,59.854,0,0,1-3.574-7.479,44.445,44.445,0,0,1-2.273-7.537c.738-.583,2.37-1.943,2.661-2.156h0a43.766,43.766,0,0,1,10.14-5.828c2.7-1.03,5.478-1.768,8.236-2.72h.175a8.776,8.776,0,0,0,.233,1.2,13.147,13.147,0,0,0,.311,1.34,7.245,7.245,0,0,0,.408,1.3,22.108,22.108,0,0,0,2.525,4.74,52.254,52.254,0,0,0,6.721,7.77,96.826,96.826,0,0,0,7.362,6.43l3.71,2.778a20.435,20.435,0,0,1,3.089,2.972,13.268,13.268,0,0,1,3.03,6.469,10.179,10.179,0,0,1,0,3.516,15.855,15.855,0,0,1-.505,1.709,9.4,9.4,0,0,1-.758,1.612,17.813,17.813,0,0,1-4.876,5.361,12.024,12.024,0,0,1-6.585,2.448,14.938,14.938,0,0,1-7.032-1.515,33.023,33.023,0,0,1-6.352-3.885,61.414,61.414,0,0,1-7.071-6.43,31.239,31.239,0,0,0,3.283-1.651h0a51.691,51.691,0,0,0,10.509-7.77,26.749,26.749,0,0,0,6-7.673,4.1,4.1,0,0,0,.291-.544v-.117a.155.155,0,0,0-.117,0h0a2.913,2.913,0,0,0-.427.524l-1.826,1.943c-1.515,1.671-2.914,3.555-4.449,5.206a41.905,41.905,0,0,1-3.788,3.458c-1.573,1.282-3.244,2.409-4.177,3.069s-1.768,1.185-2.681,1.748c-.233.175-1.943,1.049-2.8,1.515-1.2-1.263-2.37-2.525-3.516-3.885l-2.467-2.992c-.175-.194-.33-.311-.427-.253s0,.117,0,.272h0v.155a31.759,31.759,0,0,0,2.506,3.38,61.774,61.774,0,0,0,12.025,12.433,22.4,22.4,0,0,0,10.16,4.526,13.269,13.269,0,0,0,2.914,0,7.385,7.385,0,0,0,1.438-.233,7.071,7.071,0,0,0,1.437-.35,13.137,13.137,0,0,0,2.642-1.243l1.224-.777c.389-.291.738-.6,1.107-.913a18.959,18.959,0,0,0,3.885-4.235,13,13,0,0,0,1.943-5.109,8.664,8.664,0,0,0,2.331.272,16.628,16.628,0,0,0,10.878-3.264,13.6,13.6,0,0,0,4.487-5.964,10.47,10.47,0,0,0,.408-5.983q.777,0,1.943.117a23.893,23.893,0,0,0,11.655-2.117,16.531,16.531,0,0,0,6.1-4.779,10.606,10.606,0,0,0,1.943-7.77,4.708,4.708,0,0,0-.194-.874,12.275,12.275,0,0,0,2.079-.136,36.405,36.405,0,0,0,11.753-2.448A18.124,18.124,0,0,0,206.554,168.168Zm-41.882,21.8c-.117-.369-.233-.738-.369-1.107a16.046,16.046,0,0,0-4.546-5.983c-.466-.389-.971-.758-1.457-1.127l-1.515-1.01c-.971-.622-1.943-1.243-2.875-1.943l-.6-.427a19.664,19.664,0,0,0,2.933-.855h0a34.754,34.754,0,0,0,11.131-6.449,21.136,21.136,0,0,0,5.983-7.479h0a5.952,5.952,0,0,0,.6.33c.932.525,1.748.894,2.525,1.438a18.357,18.357,0,0,1,6.488,7.09,9.713,9.713,0,0,1,.33,8.858,11.152,11.152,0,0,1-2.972,3.574,18.454,18.454,0,0,1-4.118,2.6,27.449,27.449,0,0,1-9.616,2.467Zm13.462-25.6c-.233-.155-.466-.33-.719-.466-1.03-.641-2.409-1.243-3.749-1.943a27.565,27.565,0,0,1-4.2-2.972,27.974,27.974,0,0,1-7.052-9.713,20.377,20.377,0,0,1-1.01-2.953,29.628,29.628,0,0,1-.563-3.069.972.972,0,0,0,0-.233c.8-.777,2.234-2.273,2.506-2.467h0a46.486,46.486,0,0,1,10.49-7.246c2.778-1.3,5.672-2.331,8.547-3.535h0a14.589,14.589,0,0,0,2.312,7.207,25.721,25.721,0,0,0,4.643,5.517,44.037,44.037,0,0,0,8.761,6.1l-1.632,1.943c-1.476,1.69-2.914,3.574-4.487,5.187a33.021,33.021,0,0,1-3.885,3.3,50.506,50.506,0,0,1-4.39,2.758c-.932.524-1.943,1.049-2.836,1.515l-1.632.66ZM192.8,143.5a24.36,24.36,0,0,1-7.926-9.266,13.449,13.449,0,0,1-.544-1.476,13.14,13.14,0,0,1-.33-1.515v-.6c.738-.641,1.943-1.651,2.1-1.787h0a37.417,37.417,0,0,1,9.421-5.4c2.545-.913,5.148-1.554,7.77-2.351h0c.117.408.233.816.369,1.2a12.627,12.627,0,0,0,2.584,4.546,33.019,33.019,0,0,0,3.885,3.166c1.748,1.34,3.438,2.642,4.934,3.885l-1.088,1.826c-.952,1.515-1.943,3.147-2.933,4.6a24.342,24.342,0,0,1-2.758,3.011c-1.185,1.088-2.506,1.943-3.225,2.584a12.725,12.725,0,0,1-2.137,1.418c-.136.1-1.049.544-1.768.894h0a42.368,42.368,0,0,1-8.353-4.74Zm-52.683,9.4h0a39.609,39.609,0,0,1,10.393-7.032,34.968,34.968,0,0,1,8.878-2.253,9.757,9.757,0,0,0,.272,1.651,22.282,22.282,0,0,0,2.467,6.9,30.653,30.653,0,0,0,4.041,5.828,27.2,27.2,0,0,0,5.031,4.468,18.918,18.918,0,0,0,1.943,1.146h0c-.641.719-1.2,1.379-1.748,1.943-1.457,1.651-2.875,3.438-4.468,4.973a28.654,28.654,0,0,1-3.885,3.089,44.933,44.933,0,0,1-4.429,2.467c-.932.447-1.943.894-2.856,1.263-.155,0-.894.291-1.651.524l-1.01.291a60.922,60.922,0,0,1-5.964-4.992,47.927,47.927,0,0,1-3.885-4.2,17.288,17.288,0,0,1-2.875-5.187,69.606,69.606,0,0,1-2.778-8.625Zm-1.671,37.783-1.03-.758a15.537,15.537,0,0,0,1.943-1.185h0a23.6,23.6,0,0,0,6.372-6.449,14.88,14.88,0,0,0,2.545-5.828c1.535,1.36,3.089,2.623,4.6,3.769s2.778,1.943,4.021,2.875a20.358,20.358,0,0,1,3.38,3.205,9.888,9.888,0,0,1,2.409,8.295,12.666,12.666,0,0,1-5.07,7.324,17.483,17.483,0,0,1-8.8,3.166,15.049,15.049,0,0,1-2.059,0,11.656,11.656,0,0,0-.68-5.459,17.133,17.133,0,0,0-2.875-4.8,25.544,25.544,0,0,0-4.759-4.254ZM119.022,167.2c.66-.563,1.943-1.69,2.117-1.826a31.723,31.723,0,0,1,8.742-4.915c2.292-.777,4.662-1.282,7.013-1.943.155.524.291,1.03.447,1.535a44.892,44.892,0,0,0,2.428,6.488,16.066,16.066,0,0,0,1.826,2.972c.7.894,1.418,1.729,2.156,2.525a54.392,54.392,0,0,0,4.274,4.215l-.66,1.476c-.68,1.379-1.3,2.875-2.1,4.215a19.114,19.114,0,0,1-2.117,2.836,31.435,31.435,0,0,1-2.564,2.487c-.544.486-1.107.952-1.709,1.4-.136.117-1.107.68-1.69,1.049-1.554-1.166-3.205-2.467-4.876-3.885a70.506,70.506,0,0,1-6.391-6.2,33.025,33.025,0,0,1-5.42-7.615,17.111,17.111,0,0,1-.894-2.137c-.175-.738-.369-1.476-.505-2.292-.019-.214-.058-.35-.078-.486Zm-9.6-13.21a5.828,5.828,0,0,1,4.235,2.176,23.311,23.311,0,0,1,3.885,9.577,5.136,5.136,0,0,0,.214,1.088h-.214a21.567,21.567,0,0,0-2.487.253,23.2,23.2,0,0,0-5.944,2.059c-.913.427-2.6,1.185-4.215,2.059a41.805,41.805,0,0,0-4.021,2.525q-1.166.913-2.273,1.943a25.256,25.256,0,0,0-1.943,1.807c-.117-.544-.214-1.049-.291-1.5l-.155-1.36c0-.816-.175-1.418-.175-1.748h0a21.679,21.679,0,0,1,1.671-10.024c.369-.758.835-1.5,1.243-2.253a12.066,12.066,0,0,1,1.612-1.943l1.943-1.729a21.209,21.209,0,0,1,2.176-1.457,9.48,9.48,0,0,1,4.74-1.573Zm18.882-11.209a11.014,11.014,0,0,1,4.72,4.332c2.059,3.264,2.739,7.246,3.788,11.131a16.078,16.078,0,0,0-1.943,0,18.182,18.182,0,0,0-5.226,1.535c-.8.35-2.273.952-3.691,1.709a31.838,31.838,0,0,0-3.477,2.176q-.991.777-1.943,1.632c-.155.117-1.049.932-1.612,1.5-.253-1.321-.544-2.642-.894-3.885a18.085,18.085,0,0,0-4.215-8.2,6.76,6.76,0,0,0-3.264-1.729,33.489,33.489,0,0,1,4.74-6.741,16.026,16.026,0,0,1,4.021-3.166,15.636,15.636,0,0,1,1.709-.738l1.01-.272a10.82,10.82,0,0,1,6.275.622Zm26.322-10.237a13.6,13.6,0,0,1,3.535,5.828,28.962,28.962,0,0,1,1.146,4.9,12.935,12.935,0,0,0-2.6-.136,17.23,17.23,0,0,0-6.546,1.943,38.522,38.522,0,0,0-8.508,5.633c-.777.719-1.515,1.457-2.273,2.2-.175.175-1.263,1.185-1.943,1.943-.194-.835-.408-1.651-.622-2.448A19.057,19.057,0,0,0,132.348,144a11.053,11.053,0,0,0-2.8-1.943,23.156,23.156,0,0,1,1.418-2.836,18.766,18.766,0,0,1,3.458-4.215,19.154,19.154,0,0,1,4.468-2.933c.7-.291,1.321-.6,1.826-.758l1.068-.35a20.3,20.3,0,0,1,6.741-.777,10.043,10.043,0,0,1,6.1,2.253Zm27.526-9.829a18.963,18.963,0,0,1,.291,3.516c0,1.068,0,2.059-.1,3.186a23.313,23.313,0,0,0-2.584.466,25.254,25.254,0,0,0-6.352,2.758c-.932.544-2.72,1.515-4.41,2.642a42.2,42.2,0,0,0-4.138,3.128c-.8.738-1.554,1.476-2.292,2.253-.175.155-1.185,1.185-1.943,1.943a29.279,29.279,0,0,0-1.36-5.362,15.541,15.541,0,0,0-2.8-4.837,9.442,9.442,0,0,0-2.525-2.079,40.932,40.932,0,0,1,4.643-7.518,22.32,22.32,0,0,1,3.885-3.885,17.654,17.654,0,0,1,2.622-1.709,15.541,15.541,0,0,1,13.365,0,7.382,7.382,0,0,1,3.691,5.4Zm20.028-5.362c.35,1.127.66,2.292,1.01,3.458h0a18.824,18.824,0,0,0-2.331.175,20.98,20.98,0,0,0-5.595,1.826,35.652,35.652,0,0,0-3.885,1.943,38.5,38.5,0,0,0-3.73,2.37c-.719.583-1.418,1.166-2.1,1.768-.155.117-.913.777-1.515,1.36V128.19a23.313,23.313,0,0,0-.427-6.391,8.976,8.976,0,0,0-1.03-2.564,25.253,25.253,0,0,1,3.71-4.6,14.55,14.55,0,0,1,5.051-3.225,11.655,11.655,0,0,1,4.7-.486,5.944,5.944,0,0,1,4.138,1.943,12.3,12.3,0,0,1,2,4.39Zm17.289,19.309a22.1,22.1,0,0,0-1.748-1.826c-.777-.738-1.826-1.651-3.03-2.622,1.185-.447,3.594-1.554,3.885-1.729h0c4.7-1.943,9.713-4.876,13.6-6.954a34.674,34.674,0,0,0,9.208-6.7,5.46,5.46,0,0,0,.505-.525.117.117,0,0,0,0-.136h-.117a4.292,4.292,0,0,0-.66.447l-2.7,1.651c-2.253,1.379-4.449,3.05-6.663,4.487s-8.256,4.584-10.606,5.828l-3.322,1.768c-.291.175-2.506,1.166-3.438,1.671-.583-.466-1.2-.952-1.943-1.437l-2.389-1.826c.7-.175,1.671-.486,1.845-.563h0a62.763,62.763,0,0,0,7.537-3.011,19.794,19.794,0,0,0,5.167-3.147,1.457,1.457,0,0,0,.291-.253h0l-.389.194-1.515.758c-1.243.641-2.487,1.418-3.73,2.1a57.351,57.351,0,0,1-5.828,2.584l-1.845.738-1.651.544-.777-.6a11.655,11.655,0,0,1-3.089-3.069,10.959,10.959,0,0,1-.932-1.943c.758-.7,2.448-2.428,2.7-2.681a126.265,126.265,0,0,1,9.713-8.722c2.584-1.943,5.245-3.769,7.77-5.828a6.015,6.015,0,0,0,.505-.35.117.117,0,0,0,0-.136h0l-.622.272a19.813,19.813,0,0,0-2.525,1.166,30.478,30.478,0,0,0-5.595,4.235c-1.709,1.438-6.2,5.362-7.77,7.052l-2.2,2.389c-.194.194-1.476,1.5-2.117,2.253-.6-1.535-1.01-3.147-1.457-4.7,1.2-1.068,5.264-4.973,9.6-8.489,2.176-1.748,4.41-3.4,6.255-4.623a41.636,41.636,0,0,1,3.885-2.292,51.748,51.748,0,0,1,8.45-3.05l4.468-1.36a21.7,21.7,0,0,0,2.2-.816c-2.428,3.438-4.992,6.838-7.77,10.063a63.453,63.453,0,0,1-5.09,5.536,26.731,26.731,0,0,1-5.711,4.526l-4.254,2.312,4.662-1.263a115.7,115.7,0,0,0,14.725-4.856,19.193,19.193,0,0,0,3.341-1.807,20.98,20.98,0,0,1,3.011-1.748,46.623,46.623,0,0,1,6.294-2.428,42.227,42.227,0,0,1,5.3-1.3,21.372,21.372,0,0,1,2.681-.311h1.263l-.894,1.107-1.845,2.273c-1.263,1.5-2.545,2.972-3.885,4.41-2.6,2.914-5.381,5.672-8.237,8.334a72.983,72.983,0,0,1-19.1,13.248,31.826,31.826,0,0,0-3.419,1.068ZM209.1,156.532a12.588,12.588,0,0,0-1.943-3.477,15.21,15.21,0,0,0-5.828-4.565,16.139,16.139,0,0,0,1.943-.991h0a28.6,28.6,0,0,0,8.062-6.7,17.114,17.114,0,0,0,3.73-6.624c.583.505,1.127,1.03,1.632,1.554a16.628,16.628,0,0,1,3.885,5.711,8.722,8.722,0,0,1-.136,6.527,12.938,12.938,0,0,1-3.982,5.245,18.066,18.066,0,0,1-6.372,2.953Zm-11.286,14.8a49.668,49.668,0,0,1-9.849,2.933l-1.943.272a16.222,16.222,0,0,0-2.914-5.672,21.134,21.134,0,0,0-4.6-4.235,23.834,23.834,0,0,0,2.933-1.127h0a39.98,39.98,0,0,0,11.014-7.168,23.311,23.311,0,0,0,5.925-7.518l1.845.952a13.073,13.073,0,0,1,6.566,6.818,9.383,9.383,0,0,1-1.127,8.916A18.552,18.552,0,0,1,197.813,171.335Z" transform="translate(89.688 87.669)" fill="#d94e4e"/>
        <path id="Path_13654" data-name="Path 13654" d="M90.01,112.3v-.019h0Z" transform="translate(120.818 140.663)" fill="#d94e4e"/>
        <path id="Path_13655" data-name="Path 13655" d="M250.739,198.03a12.859,12.859,0,0,0,2.292-3.419,11.4,11.4,0,0,0,.408-7.867,8.715,8.715,0,0,0,1.088-.136,15.93,15.93,0,0,0,7.77-3.03,12.18,12.18,0,0,0,3.477-4.2l.622-1.243c.136-.447.272-.913.389-1.36l.194-.68v-.719a9.713,9.713,0,0,0-1.729-6.7,20.518,20.518,0,0,0-1.457-1.943c.719-.194,1.943-.525,3.574-1.107a56.178,56.178,0,0,0,14.356-8.062,93.576,93.576,0,0,0,11.325-10.218c1.768-1.943,3.477-3.769,5.128-5.828.816-.971,1.632-1.943,2.428-2.972l1.166-1.535.855-1.146,1.03-1.4c-.835,0-1.69-.155-2.525-.194h-1.593a23.192,23.192,0,0,0-2.836.408,42.739,42.739,0,0,0-5.42,1.418,49.965,49.965,0,0,0-5.342,2.079,29.324,29.324,0,0,0-3.069,1.612,30.729,30.729,0,0,1-3.128,1.943,81.585,81.585,0,0,1-12.763,4.546,41.092,41.092,0,0,0,4.2-3.769c1.943-2.04,3.885-4.157,5.478-6.2,3.263-4,5.828-7.77,7.77-10.645h0v-.117l1.768-2.622-2.467,1.943h-.136a8.177,8.177,0,0,1-1.943,1.146,47.3,47.3,0,0,1-4.507,1.554l-4.6,1.515a44.69,44.69,0,0,0-4.565,1.709,43.247,43.247,0,0,0-4.235,2.409,79.275,79.275,0,0,0-8.528,6.391,94.058,94.058,0,0,0-7.984,7.537l-.291-.952a13.7,13.7,0,0,0-1.612-3.574,6.372,6.372,0,0,0-1.146-1.321,4.68,4.68,0,0,0-1.243-.874,10.684,10.684,0,0,0-9.713.583,16.629,16.629,0,0,0-4.274,3.3,20.184,20.184,0,0,0-2.894,4.041,7.557,7.557,0,0,0-1.768-1.943,10.218,10.218,0,0,0-4.215-1.943,20.766,20.766,0,0,0-7.188-.194,16.279,16.279,0,0,0-6.469,2.972,23.487,23.487,0,0,0-5.4,5.595,27.7,27.7,0,0,0-3.633,6.838l-.661-.33a13.6,13.6,0,0,0-7.013-.8,22.166,22.166,0,0,0-6.7,1.943,18.377,18.377,0,0,0-6.275,4.332,16.22,16.22,0,0,0-3.885,6.663,10.993,10.993,0,0,0-2.8-.816,11.539,11.539,0,0,0-6.663.971,13.6,13.6,0,0,0-2.331,1.379,18.359,18.359,0,0,0-3.361,3.205,23.2,23.2,0,0,0-3.885,6.41h-.253a8.936,8.936,0,0,0-3.885.738,17.717,17.717,0,0,0-5.42,3.652,17.017,17.017,0,0,0-4.818,9.033,27.8,27.8,0,0,0,0,10.218,47.341,47.341,0,0,0,3.283,10.7,46.814,46.814,0,0,0,6,10.121c.233.291.311.33.408.272s0-.253-.136-.486c-.447-.7-1.515-2.253-2.72-4.351a58.279,58.279,0,0,1-3.594-7.459,43.922,43.922,0,0,1-2.253-7.557c.738-.563,2.37-1.943,2.642-2.156h0a43.765,43.765,0,0,1,10.121-5.828c2.7-1.01,5.5-1.768,8.256-2.7h.155a7.014,7.014,0,0,0,.253,1.2c.078.408.194.874.291,1.321a7.5,7.5,0,0,0,.427,1.321,20.786,20.786,0,0,0,2.525,4.72,51.19,51.19,0,0,0,6.7,7.77,89.35,89.35,0,0,0,7.382,6.41l3.691,2.8a20.535,20.535,0,0,1,3.108,2.972,13.482,13.482,0,0,1,3.574,6.508,10.8,10.8,0,0,1,0,3.536c-.175.563-.272,1.146-.505,1.709a11.014,11.014,0,0,1-.758,1.612,18.026,18.026,0,0,1-4.876,5.361,12.122,12.122,0,0,1-6.585,2.448A15.23,15.23,0,0,1,169.792,245a32.909,32.909,0,0,1-6.333-3.885,63.6,63.6,0,0,1-7.09-6.449,28.326,28.326,0,0,0,3.283-1.632h0a51.362,51.362,0,0,0,10.49-7.77,26.5,26.5,0,0,0,6-7.77,5.148,5.148,0,0,0,.311-.544.116.116,0,0,0,0-.117h-.1a2.622,2.622,0,0,0-.427.505l-1.826,1.943c-1.5,1.69-2.914,3.555-4.448,5.226a37.118,37.118,0,0,1-3.788,3.458c-1.573,1.263-3.244,2.389-4.176,3.05s-1.748,1.2-2.661,1.768c-.233.175-1.943,1.03-2.8,1.5-1.2-1.243-2.389-2.525-3.535-3.885l-2.467-2.972c-.175-.194-.33-.33-.408-.253s0,0,0,.272h0v.155a31.76,31.76,0,0,0,2.506,3.38,62.92,62.92,0,0,0,12.025,12.452,22.378,22.378,0,0,0,10.16,4.507,13.27,13.27,0,0,0,2.914,0,7.58,7.58,0,0,0,1.457-.233,8.89,8.89,0,0,0,1.418-.35,13.769,13.769,0,0,0,2.642-1.263l1.224-.777c.389-.291.738-.6,1.107-.894a19.057,19.057,0,0,0,3.885-4.254,12.9,12.9,0,0,0,1.943-5.09,10.627,10.627,0,0,0,2.331.272,16.628,16.628,0,0,0,10.878-3.263,13.6,13.6,0,0,0,4.507-5.983,10.451,10.451,0,0,0,.388-5.983,17,17,0,0,0,1.943.117,23.932,23.932,0,0,0,11.655-2.117,16.609,16.609,0,0,0,6.08-4.759,10.568,10.568,0,0,0,1.943-7.77,4.518,4.518,0,0,0-.194-.855,10.766,10.766,0,0,0,2.079-.155,36.406,36.406,0,0,0,11.753-2.448,18.123,18.123,0,0,0,6.275-4.1Zm-41.882,21.815a9.252,9.252,0,0,0-.369-1.107,15.366,15.366,0,0,0-4.546-5.983c-.466-.408-.971-.758-1.438-1.146l-1.515-1.01c-.991-.6-1.943-1.243-2.894-1.943l-.6-.427a19.663,19.663,0,0,0,2.933-.855h0a34.5,34.5,0,0,0,11.112-6.449,21.252,21.252,0,0,0,5.983-7.46h0l.6.35a27.2,27.2,0,0,1,2.525,1.418,18.493,18.493,0,0,1,6.488,7.09,9.713,9.713,0,0,1,.33,8.878,11.52,11.52,0,0,1-2.953,3.555,19.738,19.738,0,0,1-4.138,2.584,26.925,26.925,0,0,1-9.616,2.467c-.8.039-1.418.039-1.9.039Zm13.462-25.623-.719-.466c-1.03-.641-2.409-1.243-3.749-1.943a25.134,25.134,0,0,1-4.177-2.953,28.031,28.031,0,0,1-7.071-9.713,23.315,23.315,0,0,1-1.01-2.972,28.775,28.775,0,0,1-.544-3.069.97.97,0,0,1,0-.233c.8-.758,2.215-2.253,2.487-2.467h0a45.26,45.26,0,0,1,10.49-7.246c2.778-1.321,5.692-2.351,8.547-3.536h0a14.647,14.647,0,0,0,2.292,7.226,26.79,26.79,0,0,0,4.643,5.517,44.854,44.854,0,0,0,8.78,6.08c-.6.68-1.127,1.321-1.651,1.943-1.476,1.71-2.914,3.574-4.487,5.187a32.462,32.462,0,0,1-3.885,3.3,51.253,51.253,0,0,1-4.41,2.778c-.913.525-1.943,1.03-2.836,1.5-.136.1-.894.35-1.632.66Zm14.666-20.941A24.418,24.418,0,0,1,229.06,164c-.233-.466-.35-.971-.544-1.457a14.1,14.1,0,0,1-.33-1.515c0-.214,0-.408,0-.622.758-.622,1.943-1.651,2.117-1.787h0a36.909,36.909,0,0,1,9.421-5.4c2.545-.913,5.167-1.573,7.77-2.37h0c.136.389.233.8.389,1.2a12.49,12.49,0,0,0,2.584,4.546,34.972,34.972,0,0,0,3.885,3.166c1.768,1.321,3.438,2.623,4.934,3.885l-1.088,1.807c-.952,1.515-1.845,3.166-2.933,4.6a22.879,22.879,0,0,1-2.758,3.011,37.8,37.8,0,0,1-3.225,2.584c-.68.505-1.4.971-2.117,1.418-.155.117-1.068.544-1.768.894h0a41.141,41.141,0,0,1-8.411-4.682ZM184.3,182.664h0a40.192,40.192,0,0,1,10.393-7.052,35.8,35.8,0,0,1,8.9-2.234,10.005,10.005,0,0,0,.253,1.651,22.2,22.2,0,0,0,2.486,6.877,29.856,29.856,0,0,0,4.021,5.828,27.738,27.738,0,0,0,5.031,4.448,19.031,19.031,0,0,0,1.943,1.166h0c-.641.738-1.185,1.4-1.748,1.943-1.457,1.651-2.875,3.458-4.468,4.992a29.643,29.643,0,0,1-3.885,3.069,49.9,49.9,0,0,1-4.429,2.467c-.952.466-1.943.894-2.875,1.282-.155,0-.894.272-1.651.505l-.991.291a53.986,53.986,0,0,1-5.983-4.992,42.738,42.738,0,0,1-3.885-4.2,17.658,17.658,0,0,1-2.894-5.167,70.9,70.9,0,0,1-2.642-8.644C182.555,184.3,184.051,182.878,184.3,182.664Zm-1.671,37.783-1.03-.758a14.235,14.235,0,0,0,1.943-1.185h0a23.816,23.816,0,0,0,6.372-6.43,15.016,15.016,0,0,0,2.545-5.828c1.554,1.36,3.108,2.6,4.623,3.749s2.758,1.943,4,2.875a19.834,19.834,0,0,1,3.4,3.225,9.907,9.907,0,0,1,2.389,8.275,12.607,12.607,0,0,1-5.051,7.343,17.483,17.483,0,0,1-8.8,3.147,15.4,15.4,0,0,1-2.059,0,11.792,11.792,0,0,0-.7-5.459,16.863,16.863,0,0,0-2.875-4.8,24.9,24.9,0,0,0-4.759-4.157Zm-19.426-23.486c.66-.544,1.943-1.671,2.117-1.807a31.236,31.236,0,0,1,8.742-4.915c2.292-.777,4.662-1.3,7.032-1.943.136.505.272,1.01.447,1.515a45.026,45.026,0,0,0,2.409,6.508,16.316,16.316,0,0,0,1.826,2.953c.7.894,1.418,1.729,2.156,2.545,1.4,1.515,2.836,2.914,4.293,4.215l-.68,1.457c-.66,1.4-1.3,2.894-2.1,4.235a18.766,18.766,0,0,1-2.117,2.817,32.594,32.594,0,0,1-2.545,2.506c-.563.486-1.127.952-1.729,1.379-.136.136-1.088.7-1.69,1.068-1.554-1.166-3.205-2.467-4.876-3.885a70.134,70.134,0,0,1-6.391-6.177,33.49,33.49,0,0,1-5.42-7.615,18.569,18.569,0,0,1-.874-2.156,20.43,20.43,0,0,1-.505-2.273,4.7,4.7,0,0,1-.1-.505Zm-9.6-13.19a5.672,5.672,0,0,1,4.235,2.176,22.864,22.864,0,0,1,3.885,9.577,7.677,7.677,0,0,0,.214,1.088h-.214a21.23,21.23,0,0,0-2.467.253,23.836,23.836,0,0,0-5.964,2.059c-.913.447-2.584,1.185-4.215,2.079a35.3,35.3,0,0,0-4.021,2.525c-.777.583-1.535,1.2-2.273,1.845a17.5,17.5,0,0,0-1.943,1.807c-.1-.524-.194-1.03-.291-1.5l-.155-1.36a14.611,14.611,0,0,0-.175-1.729h0a21.64,21.64,0,0,1,1.671-10.024c.389-.777.835-1.5,1.243-2.253a11.275,11.275,0,0,1,1.612-1.943l1.943-1.71a22.372,22.372,0,0,1,2.059-1.437A9.48,9.48,0,0,1,153.611,183.771Zm18.882-11.209a10.684,10.684,0,0,1,4.72,4.332c2.079,3.264,2.739,7.246,3.788,11.112a16.39,16.39,0,0,0-1.943,0,19,19,0,0,0-5.226,1.535c-.8.369-2.273.971-3.691,1.729a26.784,26.784,0,0,0-3.477,2.176q-.991.777-1.943,1.632a20.64,20.64,0,0,0-1.593,1.5c-.272-1.34-.563-2.642-.913-3.885a18.183,18.183,0,0,0-4.215-8.2,6.721,6.721,0,0,0-3.263-1.709,33.744,33.744,0,0,1,4.74-6.76,15.542,15.542,0,0,1,4.021-3.147,16.242,16.242,0,0,1,1.71-.758l1.01-.253A10.665,10.665,0,0,1,172.492,172.563Zm26.341-10.257a13.967,13.967,0,0,1,3.516,5.828,29.413,29.413,0,0,1,1.146,4.9,12.8,12.8,0,0,0-2.584-.116,16.88,16.88,0,0,0-6.566,1.943,40.448,40.448,0,0,0-4.429,2.525,33.348,33.348,0,0,0-4.06,3.108c-.777.719-1.535,1.438-2.273,2.176-.194.175-1.282,1.185-1.943,1.943L181,182.179a18.94,18.94,0,0,0-4.468-8.392,9.886,9.886,0,0,0-2.8-1.943,24.63,24.63,0,0,1,1.418-2.856,18.69,18.69,0,0,1,3.458-4.2,19.27,19.27,0,0,1,4.468-2.953c.719-.291,1.321-.583,1.826-.758l1.068-.33a20.319,20.319,0,0,1,6.741-.8,10.256,10.256,0,0,1,6.119,2.351Zm27.507-9.829a19.228,19.228,0,0,1,.291,3.516c0,1.068,0,2.079-.1,3.186a13.121,13.121,0,0,0-2.584.466,25.254,25.254,0,0,0-6.333,2.758c-.952.563-2.739,1.515-4.429,2.642a41.862,41.862,0,0,0-4.138,3.147c-.777.719-1.554,1.476-2.273,2.253a25.258,25.258,0,0,0-1.943,1.943,30.285,30.285,0,0,0-1.379-5.342,15.172,15.172,0,0,0-2.8-4.856,9.83,9.83,0,0,0-2.525-2.079,42.735,42.735,0,0,1,4.643-7.518,23.019,23.019,0,0,1,3.885-3.885A18.125,18.125,0,0,1,209.3,147a14.317,14.317,0,0,1,6.624-1.457,14.1,14.1,0,0,1,6.741,1.535,7.44,7.44,0,0,1,3.671,5.4Zm20.047-5.361c.33,1.127.641,2.292.991,3.458h0c-.777,0-1.554.1-2.331.175a20.98,20.98,0,0,0-5.595,1.826c-.855.408-2.428,1.088-3.885,1.943a31.092,31.092,0,0,0-3.749,2.37c-.719.563-1.418,1.146-2.1,1.768-.136.1-.913.777-1.5,1.36a18.664,18.664,0,0,1,0-2.079,23.078,23.078,0,0,0-.408-6.372,9.152,9.152,0,0,0-1.049-2.584,24.671,24.671,0,0,1,3.574-4.546,14.88,14.88,0,0,1,5.051-3.244,11.363,11.363,0,0,1,4.72-.466,5.828,5.828,0,0,1,4.138,1.943,12.628,12.628,0,0,1,2.137,4.449Zm17.289,19.309q-.835-.952-1.748-1.807c-.8-.758-1.845-1.651-3.05-2.642a37.1,37.1,0,0,0,3.885-1.729h0c4.7-2.04,9.713-4.9,13.6-6.974a34.287,34.287,0,0,0,9.208-6.682,5.293,5.293,0,0,0,.505-.524.155.155,0,0,0,0-.155.175.175,0,0,0-.117,0h0l-.641.427-2.72,1.671c-2.253,1.36-4.448,3.03-6.663,4.468s-8.256,4.6-10.606,5.828l-3.322,1.787c-.291.175-2.506,1.146-3.438,1.671q-.874-.719-1.943-1.457l-2.37-1.807c.7-.194,1.671-.505,1.826-.563h0a61.443,61.443,0,0,0,7.537-3.03,18.807,18.807,0,0,0,5.167-3.147l.311-.233h0a1.727,1.727,0,0,0-.369.194l-1.535.738c-1.243.641-2.486,1.418-3.71,2.117s-4.585,2.059-5.828,2.564l-1.845.738c-.136,0-1.049.35-1.651.563l-.777-.6a11.656,11.656,0,0,1-3.089-3.089,13.456,13.456,0,0,1-.932-1.826c.758-.719,2.448-2.448,2.7-2.7a125.448,125.448,0,0,1,9.713-8.7c2.584-1.943,5.245-3.769,7.77-5.828a3.071,3.071,0,0,0,.505-.369v-.136h0a2.663,2.663,0,0,0-.622.272,17.489,17.489,0,0,0-2.525,1.166,31.276,31.276,0,0,0-5.595,4.215c-1.69,1.457-6.2,5.381-7.77,7.071l-2.215,2.37c-.194.214-1.476,1.515-2.1,2.273a43.542,43.542,0,0,1-1.457-4.7c1.185-1.088,5.264-4.992,9.577-8.489,2.176-1.768,4.41-3.4,6.275-4.643a42.24,42.24,0,0,1,3.885-2.292,54.4,54.4,0,0,1,8.45-3.05l4.468-1.36a22.012,22.012,0,0,0,2.215-.816c-2.428,3.458-5.012,6.857-7.77,10.082a72.512,72.512,0,0,1-5.09,5.536,28.013,28.013,0,0,1-5.711,4.526l-4.254,2.312,4.662-1.282a111.762,111.762,0,0,0,14.725-4.856,19.2,19.2,0,0,0,3.341-1.807,20.125,20.125,0,0,1,3.011-1.729,44.245,44.245,0,0,1,6.294-2.448,45.163,45.163,0,0,1,5.323-1.282,25.261,25.261,0,0,1,2.681-.33h1.243l-.874,1.127-1.943,2.253c-1.243,1.515-2.545,2.972-3.885,4.429a111.087,111.087,0,0,1-8.256,8.314A73.195,73.195,0,0,1,267.057,165.3ZM253.284,186.3a12.7,12.7,0,0,0-1.943-3.458,15.424,15.424,0,0,0-5.828-4.584,19.836,19.836,0,0,0,1.943-.991h0a28.867,28.867,0,0,0,8.062-6.682,17.639,17.639,0,0,0,3.963-6.721c.563.525,1.107,1.03,1.612,1.573a16.881,16.881,0,0,1,3.885,5.692,8.78,8.78,0,0,1-.155,6.546,12.977,12.977,0,0,1-4.157,5.381,18.1,18.1,0,0,1-6.372,2.972ZM242,201.216a51.149,51.149,0,0,1-9.868,2.914l-1.943.291a16.1,16.1,0,0,0-2.933-5.672,20.767,20.767,0,0,0-4.6-4.254,24.665,24.665,0,0,0,2.933-1.107h0a39.647,39.647,0,0,0,11.014-7.149,23.311,23.311,0,0,0,5.925-7.537l1.845.971a12.957,12.957,0,0,1,6.566,6.8,9.383,9.383,0,0,1-1.127,8.916A18.57,18.57,0,0,1,242,201.216Z" transform="translate(130.977 115.871)" fill="#d94e4e"/>
        <path id="Path_13656" data-name="Path 13656" d="M134.01,142.18Z" transform="translate(162.291 168.846)" fill="#d94e4e"/>
        <path id="Path_13657" data-name="Path 13657" d="M339.229,110.29l-.019.019h0Z" transform="translate(355.707 138.787)" fill="#d94e4e"/>
        <path id="Path_13658" data-name="Path 13658" d="M273.549,98.815c2.448,1.127,18.221,6.741,20.261,7.459h0c21.019,7.77,45.184,16.007,62.939,22.592,15.541,5.672,31.2,11.481,47.069,16.123,1.4.466,2.467.8,3.011.932h.408c.039,0,0-.155-.117-.233h-.136c-.505-.253-1.671-.7-3.166-1.263-4.313-1.807-8.644-3.535-13-5.226-10.859-4.235-22.495-7.984-33.529-11.655-10.723-3.594-39.2-13.851-50.254-17.639l-15.657-5.264c-1.69-.563-15.249-5.459-17.639-6h-.408C273.3,98.64,273.355,98.737,273.549,98.815Z" transform="translate(257.628 92.976)" fill="#d94e4e"/>
        <path id="Path_13659" data-name="Path 13659" d="M322.463,111.753h0l-.233-.117c-.971-.389-3.089-1.146-5.828-2.117q-11.869-4.41-23.8-8.664c-19.873-7.11-40.969-13.909-60.919-20.514-19.426-6.41-71.273-24.185-91.3-30.868l-28.42-9.363c-3.069-1.01-27.721-9.5-31.994-10.665-.524-.136-.66-.117-.7,0s.233.253.583.408c4.526,1.787,33.2,11.539,36.909,12.8h0c38.288,13.307,82.151,27.915,114.612,39.182,28.245,9.713,56.859,19.717,85.473,28.5,2.545.835,4.487,1.457,5.439,1.729.369,0,.66.136.7,0S322.715,111.869,322.463,111.753Z" transform="translate(74.716 27.666)" fill="#d94e4e"/>
        <path id="Path_13660" data-name="Path 13660" d="M701.57,296.064a6.2,6.2,0,0,0-.874-2.856,4.059,4.059,0,0,0-1.068-1.166,3.516,3.516,0,0,0-1.5-.563h-.758l-1.2-.544c-4.584-2.059-14.647-6.372-27.623-11.908q-56.335-24.515-112.98-48.72l-25.409-10.859h0c-1.943-4.138-4.157-8.256-6.41-12.316a267.746,267.746,0,0,0-19.892-30.46l9.713,3.419c14.861,5.206,134.232,47.574,154.687,54.295,1.049.35,1.729.563,2.215.68a2.427,2.427,0,0,0,.66.291.189.189,0,0,0,.175-.117h0a1.994,1.994,0,0,0-.563-.427,2.079,2.079,0,0,1-.311-.272,6.411,6.411,0,0,1-.932-3.885,18.377,18.377,0,0,1,3.341-10.043,6.235,6.235,0,0,1,2.642-1.943,2.428,2.428,0,0,1,1.845,0,2.875,2.875,0,0,1,1.36,1.535,9.071,9.071,0,0,1,.505,4.468,18.877,18.877,0,0,1-.738,3.516,15.054,15.054,0,0,1-2.253,4.584,8.992,8.992,0,0,1-2.059,1.943,4.118,4.118,0,0,1-2.72.68.214.214,0,0,0-.175.155.136.136,0,0,0,0,.194,2.448,2.448,0,0,0,1.457.214,5.186,5.186,0,0,0,2.137-.894,10.315,10.315,0,0,0,2.448-2.506,15.385,15.385,0,0,0,2.933-10.878,6.6,6.6,0,0,0-1.068-2.8,4.1,4.1,0,0,0-1.165-1.068,3.536,3.536,0,0,0-1.515-.466h-.835l-1.224-.447c-4.721-1.729-15.074-5.323-28.42-9.907q-58.025-20.4-116.166-40.522-24.768-8.955-50.022-17.6c-1.593-1.612-3.186-3.166-4.759-4.662a280.985,280.985,0,0,0-36.21-29.275l.583.408a267.9,267.9,0,0,0-92.836-40.114,271.961,271.961,0,0,0-96.293-3.749l-16.259-5.459L92.339,18.081a2.894,2.894,0,0,0-1.943,0,4.546,4.546,0,0,0-1.554.991A8.974,8.974,0,0,0,86.9,22.083a10.315,10.315,0,0,0-.835,3.885,6.527,6.527,0,0,0,.33,2.215,4.351,4.351,0,0,0,.66,1.146,2.991,2.991,0,0,0,1.224.855l133.086,47.01h0q-8.9,2.273-17.639,5.167h0L129.753,51.28a2.933,2.933,0,0,0-1.943,0,4.9,4.9,0,0,0-1.632.874,9.014,9.014,0,0,0-2.428,2.836,10.257,10.257,0,0,0-1.107,3.885,6.256,6.256,0,0,0,.175,2.215,4.468,4.468,0,0,0,.563,1.2,3.186,3.186,0,0,0,1.166.932l60.22,26.283a263.4,263.4,0,0,0-38.832,19.873,271.4,271.4,0,0,0-75.76,70.554,267.8,267.8,0,0,0-43.3,92,275.029,275.029,0,0,0-6.546,98.255,270.31,270.31,0,0,0,26.846,89.941,260.307,260.307,0,0,0,23.35,38.346A286.235,286.235,0,0,0,98.73,531.349l6.741,6.352c1.127,1.049,2.215,2.156,3.4,3.147l3.516,3.011,3.516,3.011c1.166,1.01,2.331,2.04,3.574,2.953l7.323,5.692a40.716,40.716,0,0,0,3.73,2.739l3.885,2.681c2.525,1.768,5.031,3.574,7.77,5.187l7.77,4.973,7.984,4.507c1.36.758,2.681,1.554,4.06,2.253l4.138,2.1c2.778,1.379,5.5,2.875,8.334,4.118l8.489,3.885,2.137.952,2.156.835,4.351,1.69c5.828,2.37,11.655,4.157,17.483,6.139,2.953.913,5.964,1.69,8.955,2.545l4.487,1.243,4.546,1.03a270.911,270.911,0,0,0,147.17-6.818l8.819-3.069,8.644-3.477c1.438-.583,2.894-1.146,4.332-1.768l4.215-1.943c2.817-1.321,5.672-2.545,8.45-3.885,5.5-2.894,11.073-5.692,16.356-8.955s10.645-6.585,15.89-10.082c2.545-1.768,5.031-3.633,7.557-5.439l3.769-2.758,3.633-2.914c2.409-1.943,4.876-3.885,7.226-5.828l6.974-6.177,1.729-1.535,1.671-1.612,3.341-3.264c2.215-2.176,4.487-4.293,6.547-6.6l6.352-6.818c1.943-2.331,4-4.72,6.022-7.09.991-1.185,1.943-2.35,2.972-3.555l2.836-3.691c1.943-2.486,3.885-4.9,5.595-7.421l5.284-7.654,1.321-1.943L515,486.145l2.448-3.885c3.38-5.187,6.236-10.684,9.266-16.065,1.418-2.758,2.758-5.536,4.138-8.295.68-1.4,1.379-2.778,2.04-4.177l1.845-4.254A261.477,261.477,0,0,0,547.29,414.7l2.37-8.936c.8-2.972,1.321-6,1.943-9.014,1.418-5.983,2.176-12.1,3.205-18.144.583-4.371.991-8.508,1.437-12.316.253-1.943.33-3.749.447-5.5s.214-3.438.311-5.012.175-3.108.272-4.507,0-2.739,0-3.885v-6.119c0-2.525-.117-4.41-.427-4.41s-.369.427-.486,2.253v1.865c-.214,3.38-.136,8.761-.8,15.657-.291,3.438-.427,7.265-1.03,11.383-.272,2.059-.524,4.215-.816,6.43q-.194,1.651-.408,3.38c-.214,1.127-.408,2.273-.622,3.438a258.187,258.187,0,0,1-10.063,40.095l-1.671,4.876-.835,2.448-.932,2.409-3.885,9.6c-2.836,6.275-5.575,12.607-8.839,18.668a260.963,260.963,0,0,1-21.679,34.966,283.248,283.248,0,0,1-26.73,31.314,268.192,268.192,0,0,1-290.2,59.676,265.18,265.18,0,0,1-124.014-102.8c-.8-1.185-1.574-2.389-2.37-3.613l-2.215-3.749-4.487-7.77c-2.739-5.362-5.828-10.742-8.314-16.512-.66-1.437-1.34-2.875-1.943-4.332L43.5,444.36l-.894-2.234-3.769-9.014c-1.166-3.089-2.2-6.236-3.3-9.383-.525-1.593-1.166-3.147-1.612-4.779s-.952-3.244-1.418-4.876c-2.059-6.488-3.535-13.248-5.148-20.067q-.971-5.167-1.943-10.412c-.35-1.729-.6-3.5-.835-5.264s-.466-3.555-.719-5.342-.486-3.555-.7-5.362-.291-3.594-.447-5.42c-.272-3.613-.719-7.246-.758-10.917s-.272-7.362-.35-11.073.136-7.421.214-11.15A265.919,265.919,0,0,1,88.357,162.318a278.445,278.445,0,0,1,31.917-30.634l4.235-3.361c1.418-1.127,2.8-2.273,4.274-3.3l8.644-6.236,8.819-5.828,2.176-1.418,2.253-1.321,4.468-2.622a262.537,262.537,0,0,1,33.8-16.492l24.243,10.568h0l-1.943.68c-2.681.913-5.42,1.709-8.081,2.739l-7.984,3.05-1.943.777-1.943.855-3.885,1.729c-5.264,2.2-10.3,4.876-15.4,7.421-2.506,1.321-4.973,2.778-7.459,4.177l-3.73,2.1-3.613,2.273A248.883,248.883,0,0,0,66,227.53l-3.73,7.77-3.38,7.887c-.544,1.321-1.127,2.642-1.651,3.885l-1.671,4.118c-.952,2.7-1.943,5.342-2.894,8.062-1.709,5.459-3.5,10.9-4.837,16.454s-2.564,11.131-3.769,16.706c-.505,2.817-.894,5.653-1.36,8.47l-.66,4.215-.466,4.254c-.291,2.856-.66,5.672-.874,8.528l-.525,8.547-.117,2.137v6.411c0,2.856-.117,5.711,0,8.547l.311,8.547c.194,2.836.466,5.692.7,8.528.117,1.418.214,2.836.369,4.254l.563,4.235c.408,2.817.7,5.653,1.185,8.45l1.535,8.392.389,2.117.486,2.079.971,4.138c1.166,5.575,2.894,11.014,4.41,16.473.874,2.7,1.807,5.381,2.72,8.081.466,1.34.894,2.7,1.379,4.021l1.554,3.885a240.068,240.068,0,0,0,14.453,30.77l4.2,7.382c1.418,2.448,3.05,4.759,4.565,7.149,2.972,4.818,6.449,9.285,9.713,13.87,2.467,3.225,4.876,6.177,7.052,8.936,1.088,1.4,2.234,2.642,3.3,3.885l3.03,3.458,2.758,3.108c.855.971,1.748,1.807,2.525,2.6l3.885,4c1.651,1.632,2.953,2.778,3.147,2.584s0-.524-1.146-1.787h0l-1.068-1.185c-2.059-2.312-5.614-5.828-9.713-10.665-1.943-2.428-4.448-5.031-6.721-8.1-1.185-1.5-2.389-3.069-3.652-4.682l-1.943-2.467-1.671-2.72a237.441,237.441,0,0,1-19.426-32.6l-2.1-4.254-1.049-2.137-.952-2.176L62.055,433c-2.234-5.925-4.546-11.811-6.372-17.872A246.306,246.306,0,0,1,193.664,113.132a239.465,239.465,0,0,1,24.982-9.014h0L404.88,185.3l103.4,44.679h0c1.943,3.885,3.71,7.77,5.381,11.655a245.346,245.346,0,0,1,19.426,81.588,252.281,252.281,0,0,1-.835,40.639c-.194,1.651-.369,3.3-.563,4.954s-.33,3.283-.641,4.9c-.524,3.244-1.03,6.488-1.554,9.713s-1.321,6.333-1.943,9.46l-.486,2.351-.622,2.312c-.388,1.535-.8,3.069-1.2,4.6A233.743,233.743,0,0,1,513.2,436.687c-.583,1.34-1.107,2.7-1.729,4.021l-1.943,3.885c-1.263,2.564-2.428,5.167-3.769,7.634-2.7,4.915-5.245,9.713-8.139,14.278A245.581,245.581,0,0,1,303.827,583.934c-2.428.233-6.993.272-13.19.505l-10.451-.155c-3.885-.1-8-.466-12.452-.719-2.234-.155-4.507-.486-6.857-.719s-4.759-.486-7.188-.874c-4.876-.835-10-1.476-15.152-2.681a245.326,245.326,0,0,1-31.781-8.78l-7.906-2.914c-2.622-.991-5.167-2.156-7.77-3.225l-3.885-1.632c-1.263-.544-2.486-1.185-3.749-1.768l-7.362-3.574a255.62,255.62,0,0,1-26.225-15.541l-5.653-3.885-5.109-3.885-4.74-3.594-4.1-3.458c-5.362-4.293-9.208-8.023-11.655-10.237s-3.011-2.545-3.186-2.35.991,1.5,2.661,3.128l5.206,5.012c2.156,1.943,4.856,4.235,7.77,6.818a256.877,256.877,0,0,0,22.728,17.056,263.2,263.2,0,0,0,30.965,17.172,260.3,260.3,0,0,0,36.423,13.5,250.085,250.085,0,0,0,72.419,9.286,258.566,258.566,0,0,0,42.542-4.507l-.641.1a245.873,245.873,0,0,0,86.386-34.248,250.593,250.593,0,0,0,68.864-65.406,246.046,246.046,0,0,0,39.376-87.222,249.174,249.174,0,0,0-17.6-163.176L538.16,243.07l.233.175.408.971c.563,1.4,1.01,2.836,1.515,4.254.971,2.836,1.943,5.633,2.933,8.411a278.875,278.875,0,0,1,8.159,32.208c.466,2.506.932,4.934,1.379,7.3s.641,4.682.952,6.916.6,4.351.894,6.411.369,4.021.524,5.828c.816,7.44.913,13.287,1.146,16.9s.35,4.274.641,4.274.389-1.943.369-4.468c0-1.943,0-4.643-.155-7.77s-.486-6.993-.777-11.267-1.01-8.975-1.632-14.122c-.175-1.282-.291-2.584-.544-3.885s-.486-2.661-.719-4.041c-.505-2.72-1.03-5.556-1.554-8.45a287.491,287.491,0,0,0-10.606-37.064l-.524-1.379h0c22.32,9.713,128.773,56.335,147.772,64.1,1.01.427,1.69.68,2.156.835a2.217,2.217,0,0,0,.641.33.155.155,0,0,0,.194-.1h0a1.793,1.793,0,0,0-.544-.466l-.272-.291a6.217,6.217,0,0,1-.641-4.021,18.2,18.2,0,0,1,4.041-9.713,6.333,6.333,0,0,1,2.778-1.807,2.35,2.35,0,0,1,1.845.194,2.914,2.914,0,0,1,1.243,1.632,9.441,9.441,0,0,1,.194,4.468,17.98,17.98,0,0,1-1.01,3.458,15.425,15.425,0,0,1-2.564,4.41,8.527,8.527,0,0,1-2.2,1.729,4.138,4.138,0,0,1-2.759.486c-.1,0-.136,0-.175.136a.175.175,0,0,0,0,.214,2.6,2.6,0,0,0,1.438.291,5.206,5.206,0,0,0,2.215-.719,10.471,10.471,0,0,0,2.622-2.331,15.4,15.4,0,0,0,3.788-11.053Zm-189.5-104.122a250.044,250.044,0,0,1,15.21,26.225h0l-29.236-12.413h0a251.275,251.275,0,0,0-35.1-43.455l37.375,13.132h0c.719.932,1.457,1.943,2.156,2.836,3.108,4.332,6.469,8.819,9.6,13.676ZM270.007,94.463l106.414,37.589,79.646,27.9c1.554,1.457,3.128,2.914,4.682,4.41l7.11,7.382a253.773,253.773,0,0,1,25.253,31.955c-74.964-31.722-151.7-63.6-225.552-94.448L241.7,98.387h0a246.711,246.711,0,0,1,28.3-3.924Zm16.357-22.65A270.017,270.017,0,0,1,381.919,88.4a265.744,265.744,0,0,1,83.395,49.71c1.03.835,2.428,2.137,4.177,3.885l5.828,5.42h0q-26.982-9.247-54.256-18.454A251.641,251.641,0,0,0,366.4,103.03a239.672,239.672,0,0,0-40.172-9.713c-5.672-.874-11.345-1.554-16.978-2.04h0L257.031,73.794a263.681,263.681,0,0,1,29.411-1.981Zm120.75,52.333Q365.8,110.2,324.4,96.328h0q8.042,1.166,16.551,2.992l3.885.8,3.885,1.01,7.906,2.079c5.264,1.709,10.742,3.205,16.143,5.323l4.1,1.515,2.059.758,1.943.874,8.256,3.5c2.758,1.243,5.478,2.622,8.237,3.885,1.379.7,2.8,1.3,4.157,2.059l4.079,2.253,1.34.7ZM88.979,27.93c-.155,0-.253-.155-.408-.505a3.4,3.4,0,0,1-.214-1.243,7.479,7.479,0,0,1,.544-2.817,6.527,6.527,0,0,1,1.4-2.292,2.758,2.758,0,0,1,.816-.622.66.66,0,0,1,.486,0L233.2,68.744c137.4,46.971,276.642,94.642,414.584,139.865,12.335,4.118,21.737,7.226,26.322,8.7l.6.175a6.158,6.158,0,0,0-.874.447,9.5,9.5,0,0,0-1.943,1.632,15.4,15.4,0,0,0-3.672,7.421,11.81,11.81,0,0,0-.1,4.215,6.759,6.759,0,0,0,1.146,2.856l-.894-.33c-22.126-8.295-160.865-57.384-178.833-63.716l.505.175C357.87,122.98,212.293,71.6,88.979,27.93Zm119.1,56.335.583-.175c5.828-1.709,11.655-3.5,17.25-4.74l.835-.194,35.3,12.471c-3.147.311-6.275.7-9.4,1.146-2.817.33-5.595.932-8.392,1.379s-5.614.952-8.372,1.612h-.253L208.078,84.11ZM695.431,292.082a9.989,9.989,0,0,0-2.079,1.5,15.658,15.658,0,0,0-4.2,7.149,11.655,11.655,0,0,0-.389,4.2,6.682,6.682,0,0,0,.932,2.933l-.855-.408C667.361,297.6,532.488,238.719,515.024,231.1l.486.214c-128.54-56.451-270.1-118.05-389.952-170.5-.175,0-.272-.155-.389-.524a3.652,3.652,0,0,1-.136-1.263,7.518,7.518,0,0,1,.758-2.778,6.857,6.857,0,0,1,1.554-2.176,2.8,2.8,0,0,1,.855-.563.7.7,0,0,1,.486,0l137.787,58.277C400.179,168.476,535.635,225.976,670,280.8c12.025,5.012,21.174,8.78,25.642,10.568l.583.233Q695.818,291.819,695.431,292.082Z" transform="translate(17.494 16.885)" fill="#d94e4e"/>
        <path id="Path_13661" data-name="Path 13661" d="M349.74,148.669l.019-.019h-.019Z" transform="translate(365.632 174.944)" fill="#d94e4e"/>
        <path id="Path_13662" data-name="Path 13662" d="M416.245,187.51h-.117c-.505-.291-1.632-.835-3.089-1.5-4.157-2.117-8.353-4.138-12.568-6.139-10.548-4.992-21.873-9.577-32.616-14.064-10.451-4.351-38.113-16.628-48.875-21.174l-15.23-6.372c-1.651-.7-14.822-6.546-17.172-7.265a.507.507,0,0,0-.408,0c-.058,0,0,.253.253.35,2.37,1.3,17.7,8,19.678,8.878h0c20.416,9.227,43.922,19.212,61.172,27.041,15.055,6.76,30.3,13.6,45.786,19.426,1.36.563,2.409.971,2.933,1.146h.427c.058,0,0-.155-.1-.253Z" transform="translate(269.717 123.437)" fill="#d94e4e"/>
        <path id="Path_13663" data-name="Path 13663" d="M334.2,147.618h0l-.233-.117c-.932-.466-2.992-1.379-5.653-2.525-7.673-3.516-15.385-6.954-23.117-10.373-19.309-8.489-39.8-16.726-59.229-24.807-18.94-7.77-69.35-29.139-88.892-37.317L129.415,61.1c-3.011-1.224-26.982-11.422-31.081-12.9-.505-.194-.622-.175-.68,0s.194.272.544.447c4.39,2.1,32.286,13.87,35.9,15.4h0c37.259,16.007,79.956,33.723,111.426,47.263,27.468,11.772,55.286,23.738,83.142,34.539,2.487,1.01,4.39,1.768,5.323,2.1.35.136.641.194.68,0S334.434,147.774,334.2,147.618Z" transform="translate(92.038 45.299)" fill="#d94e4e"/>
      </g>
    </g>
  </g>
</svg>
