<svg xmlns="http://www.w3.org/2000/svg" viewBox="0 0 193.74 126.03"><defs><style>.cls-1{fill:#3b4954;}</style></defs><g id="Layer_2" data-name="Layer 2"><g id="OBJECTS"><path class="cls-1" d="M137.29,91.13c.6-.09-.06-2.1.09-2.85,3,.5,4.2,4.89,7.38,5.18,2.43-.14,2.39-2.77,1.28-4.37,1.39.66,3.07.84,3.88-.82-1.36,1.68-3.75,1-5.24-.42-1.62-.9-2.53-3.66-3.59-4.31a7,7,0,0,0,1.83,3c-1.25-.51-3.33-1.84-4.35-1.61,1.73,1.2,4.19,1.17,5.6,2.87-2,0-3.94-.8-5.84-1.4.69,1.31,4.26,1.55,6,1.53a8.42,8.42,0,0,0,1.35,1,41.8,41.8,0,0,1-8.29-.86c.31-8.52,11.31-8,13.12-.3C148.66,77.28,134.13,81,137.29,91.13Zm4-.44a28.3,28.3,0,0,0,5.28.52C146.34,94.78,142.37,92.53,141.25,90.69Zm-2.12-1.94a34.75,34.75,0,0,0,6.68.31,8.12,8.12,0,0,1,.7,2c-1.87-.28-3.78-.3-5.63-.74A10.33,10.33,0,0,0,139.13,88.75Z"/><path class="cls-1" d="M160,78.25c2.82-.71,5.11-3.27,8-3.56-.08.13-.49.09-.67.2a42.29,42.29,0,0,0-.64,5.13c4.94-.72-3.18.82-3.54,3,4.56,3,9.18-4,5.75-7.56-.7,5.32-1.58,4.86-.11-.12-.15-.26-.66-.49-.69-.7,5.44,2.81-.23,12.54-5.07,8.46,0-1.43,1.87-2.51,3.38-3a20.52,20.52,0,0,1,.82-5.18,7.78,7.78,0,0,0-1.82,1c-.35,5.71-1.7,6.92-.15.09-.53.36-1.07.7-1.63,1-.3,5.41-1.44,5.48-.24.13a12.84,12.84,0,0,1-1.89.85c-.15,3.61-.84,3.55-.16.06-3.46.87-1.48,3.32.76,4a.11.11,0,0,1-.09.2C160.36,81.78,157.65,79.7,160,78.25Z"/><path class="cls-1" d="M130.5,94.84c4.74,11.68,25.35,10.24,24.1-3.92,9.62,7.19,22.25,2.42,20.75-10.55h0c-.09-10.38-11.07-14.49-15.95-3.88,4.78-8.24,12.52-7.92,15.56,1.47,1.74,10.3-12.32,12.63-18.12,6.25-6.12-7.5.84-12.26,7.2-13.94-6.24.5-11.23,5.41-10.15,11.89l-.1,0c-4.88-7.42-20-7.56-21.42,2.66-1.16,1-2.22,12.06-1.22,8.18,2.07,2.84,4.83,7.75,8.81,7.38-4.05-.28-6.49-5-8.77-7.94,0-.6.07-1.21.12-1.81,1.84,3,4.4,6.68,8.15,7.09-3.79-1.08-6.05-4.48-8.09-7.65a16.81,16.81,0,0,1,.32-1.86c1.73,4.24,6.33,8.49,11.13,8.2-4.77-.41-9.23-4.31-11-8.71.17-.68.35-1.35.54-2,.06,1.39,1,3.89,2,4.23-8.79-14.48,20.14-17.72,20.28-3.32a.14.14,0,0,0,0,.2c.62,8.49-12.18,10.24-16.91,5.74C141.46,97,152.5,96,154.41,90.09c-.07,1.88-.68,3.83-.42,5.72C148.45,106.21,135.44,103,130.5,94.84Zm24.12-4.11c0-.35,0-.7,0-1,1.73,1.53,5.3,3.55,7.41,2.57-2.83.27-5.2-1.53-7.41-2.83.07-.75.29-1.5.29-2.25,2.38,2.5,7.17,5,10.25,3.53-3.77.66-7.77-1.28-10.23-4.08a9.19,9.19,0,0,0-.49-3c2.06,2.67,5.29,5.54,8.86,5.27A13.05,13.05,0,0,1,154,82.22c.39-1-.14-2.42.2-3.52.16,10.36,18.52,13.44,20.94,2.78C175.6,94,163.69,96.73,154.62,90.73Z"/><path class="cls-1" d="M123.56,36.56c-.53,2.5.33,2.23.36-.09,1.1,3.76,6.06,7.21,9.27,6.92-4-.92-8.4-3.54-9.14-7.93-.15-13.21,27.27-3.87,18,6.28A10.68,10.68,0,0,0,139,43.53c-7.47,2.34-17.79-9.07-7.31-10.67-.64.53-.66,1-.37,1.43-3.79.82.31,6.12,3.15,4.85.06.11.25.11.27,0,1.08-.21,3-.14,3.58-1.27.6.17,1.59.33,2,0-2.41,0-4-1.47-6.08-2.34-1.18-.47-3.92-1.11-2.12-2.61a13.51,13.51,0,0,1,9.68,4.56c-2.55-4.09-11.13-7.18-14.46-2.7-1.92,6.21,6,10.09,11.26,9.14a7.57,7.57,0,0,0-2.65,5.66c-1.78.07-4.15-.65-5.53-.75a8.19,8.19,0,0,0,5.51.85c-2,9,.62,13.07,9.9,13.11-2.52-1-7.7-.88-9.92-3.95,0-.69,0-1.39,0-2.09,2,1.7,6.07,3,8.26,2.6-3-.66-5.75-1.18-8.28-3,0-.35,0-.7,0-1.05,2.42,2,6.78,3.39,9.54,2.74-3.24-.37-7.14-.7-9.55-3.2,0-.75,0-1.51.08-2.26,1.7,2.33,5.63,4.49,8.21,4.08-3-.44-6.64-1.91-8.17-4.64.05-.62.1-1.24.13-1.86.84,4.61,9.11,6.87,12.23,5.07-8.43,1.72-17.25-5.68-7.94-12.2,6.68-4.73,21.49,1.93,15.45,10.73-8.92.16-11.17,9.34-9.88,16.75.77,3.43,5.2,5.44,8.14,6.88-1.52-2-6.67-3.24-7.89-6.69a5.61,5.61,0,0,0,.06-.92c1.58,1.87,4.23,4.22,6.56,4.24a15.12,15.12,0,0,1-6.57-4.75c0-.57,0-1.14-.09-1.71,2.17,2.38,5.67,5,8.6,5.61-3.1-1.71-6.33-3.35-8.63-6.13,0-.61-.05-1.21,0-1.82,1.5,2.84,4.77,5.51,7.8,6-3.23-.77-6.26-3.67-7.77-6.44a19,19,0,0,1,.2-2.13c1.44,4.77,7.89,7.74,12.14,7.89-7.06-1.17-17.64-8.37-8.16-14.5-4.28,6,4.22,13.85,10.27,11.24-5.55,1.55-13.41-4.27-10.4-10.38C157.06,48,175.86,61,164.64,69.17c9-4.5.35-16.89-8.55-15.45,5.78-7.79-6.55-14.57-13.43-12.16C151.17,30.23,122.17,21.9,123.56,36.56Zm8.85-1.36s0-.06,0-.08c2,.67,3.67,1.83,5.6,2.62-.62.9-2.25.86-3.19,1a3.92,3.92,0,0,1,.8-1.82c-.58-.13-1,1.26-1.12,1.86a7.47,7.47,0,0,1-1.7,0,6,6,0,0,1,1.34-2.94c-.91.54-1.9,1.85-1.45,2.93a2.69,2.69,0,0,1-1.62-1A3.61,3.61,0,0,1,132.41,35.2Zm-1-.79a3.15,3.15,0,0,0,1,.71,3.13,3.13,0,0,0-1.63,2.38C130,36.48,129.65,34.52,131.39,34.41Z"/><path class="cls-1" d="M126.53,62c-2.68.28-4.19,3-5.29,4.42A5.65,5.65,0,0,1,126.53,62Z"/><path class="cls-1" d="M143.08,53c-4.53-1.67-6-7.14.39-8.27-2.09,2.37,1.79,6.31,3.77,5.3a3.46,3.46,0,0,0,.28-1.48,15,15,0,0,0,4,3,14.71,14.71,0,0,1-5.73-6.95c3.7.25,8.39,3.5,5.93,7.12,3.81-4-3.21-7.48-6.54-7.53C138.39,43.63,136,51.5,143.08,53Zm.94-8.36a7.82,7.82,0,0,1,1.27-.06,5.23,5.23,0,0,1,.4.56c-.73,0-2.15.85-2,1.45a4.43,4.43,0,0,1,2.15-1.22c.39.74.61,1.56,1,2.3-.49-.27-2.33.31-1.79.8a2.47,2.47,0,0,1,1.85-.65A3.51,3.51,0,0,1,147.1,50,5.39,5.39,0,0,1,143.72,48a3.71,3.71,0,0,1,1.75-1.5c-.18-.72-1.69.72-1.88,1.28C143.11,46.8,143.08,45.19,144,44.62Z"/><path class="cls-1" d="M104.44,39.22c-.09,1.34-.17,2.67-.32,4-.14,0-.1.17,0,.27-.1,1-.21,2.09-.29,3.13-.85,4.92,5.71,6.72,9.53,7.2-2.56-1.3-9.82-1.81-9.23-6.61,1.76,2.23,5.19,5,7.86,4.53a12.89,12.89,0,0,1-7.82-5l.06-.51c1.44,2.31,5.44,3.65,7.76,3.85-2.8-1-5.9-1.74-7.71-4.33.07-.55.13-1.1.2-1.65,1.86,2.37,4.65,4.75,7.8,4.46-3.1-.24-5.92-2.42-7.75-5,0-.27,0-.54.07-.81,1.22,2,3.1,3.83,5.42,4.23A11.1,11.1,0,0,1,104.62,42c0-.21,0-.42,0-.64,2.93,6.91,16.06,8.43,19,.8-.09,1-.18,2.07-.25,3.1a.14.14,0,0,0,0,.19c-.32,1.75.22,2.91.35.36a13,13,0,0,0,3.4,2.31c-5-1.07-13-.84-13.39,5.8-1.22,5.44.13,13.94,6.73,14.45-2.31-1.14-5.05-2.41-6.26-4.85,0-.11,0-.26,0-.39a12.46,12.46,0,0,0,5.42,3.66c-1.71-1.11-4.1-2.39-5.45-4.29q-.06-.81-.15-1.62a10.06,10.06,0,0,0,5.56,3.75,15.21,15.21,0,0,1-5.62-4.3,43.69,43.69,0,0,1-.09-4.72c.76,3.55,6.87,6.65,9.56,5.44-13.4-3.57-2-14.89,6.37-8.08a.51.51,0,0,1,0,.17c-1.06,2.52-6.68,2.32-9.33.94-.18.75,2,1.22,2.89,1.34.66.81,1.87,2.28,2.77,2.26a11.33,11.33,0,0,1-2.36-2.22,11.89,11.89,0,0,0,3.36-.31c1.11,1.44,1.91,1,.11,0,.53-.13,2.23-.65,2.62-1.42a5.18,5.18,0,0,1-4.76,5.19,20.56,20.56,0,0,1-2.64-3c0,.89,1.53,2.27,2.31,3a8,8,0,0,1-4.14-1.06c-.13-.07-.25.14-.13.22,3.67,3,10.92.1,9.34-5-4.89-6.56-21.23,1.42-8.11,7.86-17.09-5-3-18.77,10.29-10.45,4.12,2.7,1.64,7.9-1.74,10,1.37-.27,3.08-2.48,3.75-4-.11,1.46-.06,2.95,0,4.4-7.82-.75-16.14,6.76-5.6,11,4,1.52,11.09,1.54,11.3-4.23-.69,4-5,5.75-9.06,4.41-6.79-1.84-3.53-10.41,2.86-7-.05.42,0,.88,0,1.28-5.89-1.84-6.43-1,0,.13a4.6,4.6,0,0,1-1,2.89c-5.22-1.51-5.62-.33-.1.15-.44.65-.65,1.36.2,1.84.09,0,.17-.08.12-.15-.6-.73-.39-1.11.11-1.76,2.14-2.33-.73-7.91,5.61-4.26-.65-1.32-4.11-2.2-4.85-.29-5.27-3.27-10.09,3-4.8,6.75-6.81-2.17-6.36-8.47.55-9.86C142.9,57.33,147.7,73.61,133.73,76c-5.3.39-10.67-2.49-12.43-7.6-.52-1.66-.09,3.25-.08,3.95-.77,6.58,5.15,11.19,11.12,10.57-3.59-.72-7.12-1.78-9.93-4.26a7.08,7.08,0,0,0-.08-1.13,11.4,11.4,0,0,0,7.13,3.1c-2.21-.74-5.4-1.58-7.21-3.67,0-.38-.12-.77-.2-1.16,2.16,2.49,6.46,4.14,9.48,3.57-3.81-.41-9.92-1.61-9.91-6.34,1.82,2.36,5.22,5.12,8.12,4.45-3.46-.2-6.19-2.46-8.19-5.14-.09-1-.15-2-.19-3,3.08,8.24,18,10.12,20.71.69a40.3,40.3,0,0,0-.45,6.1c1.75-6.36,1.78-15.5-7.35-15.22,1.26-12.7-2.16-9.49-10.54-15.54,0-.53.11-1.06.14-1.59a14,14,0,0,0,9.9,4c-3.6-.67-7.24-1.83-9.88-4.33,0-.63.06-1.26,0-1.89,2.79,2.59,7,5.62,11,4.66-4,.22-8.11-2.34-11-5.15a7.84,7.84,0,0,0-.24-1.73c2.31,2.72,6.1,5.92,9.89,5.1-8.41.15-11.78-11.94-20.41-10.77,13.77,1,13.68,14.82-.47,13-13.85-2.37-6.81-17.14,4.1-10.9-1.86-.62-5.06-1.3-5.58,1-2.45-.25-4.12,2.92-2.11,4.56,3,4,13.83,2.62,10.18-3.72C115.8,32.47,106.05,32.67,104.44,39.22ZM117.11,36c9.65,7.15-9.22,10.81-8.36,2.38a4.15,4.15,0,0,1,2.44-1.52c.14,1,1.69,1.44,2.14,2.4s2.16,2.8,3.26,2.78c-.48-.8-1.88-.85-2.14-1.85,1.19-.75,2.2-1.92,3.76-1.77-.2-1-3.24.76-3.8,1.61-.06,0-.08,0-.07.07l-.06.07c-.11-.16-.21-.33-.31-.5a4.42,4.42,0,0,1,1.59-3.43c-1,0-1.81,1.93-1.84,3-.94-.9-.57-2.23-.15-3.3-.37-.85-.9,1.81-.71,2.23C108.82,35.43,115.11,35.09,117.11,36Z"/><path class="cls-1" d="M153.58,59.15c-.26,2.15,5.12,5.77,6.14,3.11.83,1,1,3.1,1.82,3.73C169,61.81,156.9,51.52,153.58,59.15Zm.35-.27c3.81-6.3,13.77,2.8,7.65,7a11.09,11.09,0,0,0-1.84-4c-.09-1-1-2.09-.77-3,0-.14-.2-.21-.25-.08-.57-.45-3.05-1.26-3-.27a4.57,4.57,0,0,1,2.95.37c-.26,1,.47,1.78.72,2.75-2.28.1-2.61,1.38,0,0,.08,2.73-3.71.41-4.81-.76,4.59-1.6,3-2.18-.14-.16A2,2,0,0,1,153.93,58.88Z"/><path class="cls-1" d="M128,66.61c1,0,5.26.65,4.79,1.58C131.4,67.26,129.2,67.28,128,66.61Z"/><path class="cls-1" d="M126,56.07c.35.24,2.33,1.71,1.59,1.81C127.25,57.25,126.09,56.59,126,56.07Z"/><path class="cls-1" d="M119.9,55.14c.47.93,1.55,2,1.9,2.66C121.26,57.64,119.05,55.15,119.9,55.14Z"/><path class="cls-1" d="M156.4,60.92c.52-.46,2.12-.69,2.43-.21C158.22,60.33,156.3,61.45,156.4,60.92Z"/><path class="cls-1" d="M116,41.38c.3-.42,3-1.3,2.65-.57C117.71,40.7,116.6,41.49,116,41.38Z"/><path class="cls-1" d="M114.08,58.35c1.86,2.17,4.4,4.18,7.2,4.48C118.67,63,114.66,60.44,114.08,58.35Z"/><path class="cls-1" d="M135.27,14.68c2.13,2.36,56,71.12,58.46,74.22.1.72-.77,2.93-.9,4.18-.54-.55.45-2.88.75-3.88-4.72-7.29-16.37-14.17-21-22.29,4.19,5.65,9.94,10.74,15.51,15.38C173.92,64.13,136.33,16.78,135.27,14.68Z"/><path class="cls-1" d="M135.06,125.88c4-2.92,12.54-7.1,28.56-16.12.15-3.3,1.14-4.61.14-.08L182,99.61c.17-2.18.87-2.86.16-.09l1.31-.73c0-2.39,1.05-3.7.18-.1,5.24-2.73,8.54-5.15,8.8-4.74-.64.7-53.83,29.93-54.61,30.45C137.07,124.7,135.33,126.58,135.06,125.88Z"/><path class="cls-1" d="M90.89,55c2.24,2.28,43.66,63.16,45.25,66.23,4-3,12.18-6.91,28-15.84a40.85,40.85,0,0,0-3.66-4,18.27,18.27,0,0,1,3.86,3.89c15-8.26,40.15-22.37,23.2-12.56-.53,2.58-1,3.4-.32.19-5.32,3-13.32,7.42-21.3,11.84.19.52.2,2-.25,2.14a4.7,4.7,0,0,0,0-2c-16.76,9.27-24.86,13.64-29.54,16.58.42.7-1,5.18-1.48,3.9a8.89,8.89,0,0,0,1.23-4.3C133.63,118.05,92.85,58,90.89,55Z"/><path class="cls-1" d="M88.23,58.34c.67.85,4.93,7,10.64,15.28.7-4.48,1.08-3.19.2.29l2,3c0-.89,0-2.61.51-3.05a18.8,18.8,0,0,0-.25,3.43l1,1.49c.74-5,.89-3.35.29.43,3.63,5.26,7.58,11,11.45,16.63.3-2.45.36-1.22.26.38l.5.72c.64-1.91.85-1,.2.29l.82,1.2c.78-4.34.91-3.06.26.38l3.33,4.83c.9-4.64,1.33-3.19.24.36l1.48,2.14c0-.75.31-2.48.88-2.65-2.06,4.77,4.64,9.22,6.08,12.78,0-2.31.54-1,.1.15l1.05,1.52c.25-1.88.38-1.14.14.2l1.1,1.6c.35-4.56.63-3.31.21.31l.89,1.29a6.21,6.21,0,0,1,.6-2.73,13.06,13.06,0,0,0-.38,3.05c9.48,14.26-7.69-10.23-17.59-24.82-.19.07-.21-.14-.19-.28C108.2,87.54,89.82,61.88,88.23,58.34Z"/><path class="cls-1" d="M108.78,34.59c1.27-1.41,20.61-25.14,22-26.44C129.93,9.28,110,34.69,108.78,34.59Z"/><path class="cls-1" d="M115.84,26.15c5.24-2.51,14-9.49,19.28-11.71C131.11,16.59,120.09,25.28,115.84,26.15Z"/><path class="cls-1" d="M45.64,68.5c1.59-.49,2.48,1.29,2.39,2.65-.19.16-.39.23-.28.45-1,.25-1.54-.71-1.9-1.49-.78-.11.28,1.53.72,1.65.3.36,2.14.08,1.64-.26,4-3.09,59.05-44.41,69.21-52-3.49,3.77-7.68,8.3-12.24,13.21-3.1,3.59-16.1,9.32-19.53,12.53.06,1.38,1.77,4.71,2.95,4.52-1-1.49-2.4-2.68-2.76-4.58,3.53-1.92,14.79-8.25,17.52-10.5L86,53.4c-.33-.55-.72-1-1-1.57,2.08-13.53-2-1.62.81,1.83C68.86,72.41,51.32,89.75,52.22,90a3.29,3.29,0,0,1,2.19,4l-.42.44c-1.72,0-2.05-2.09-2.46-2.94-.1,1.28.69,3.18,2.18,3.23,6.34-5.32,49.31-53,50.6-54.43C103,41.51,62.26,85.65,54.85,93.6a3.28,3.28,0,0,0-2.49-3.69c2.45-2.34,17.61-18.61,33.69-36a.13.13,0,0,0,.14-.15c15.24-16.48,30-32.39,41.33-44.85,3.51-2.77,3.12-3.72-.12-.19C121.78,13.31,46.88,66.27,45.64,68.5Zm.62-.36C48,66.56,116.41,17.2,126.74,9.49,117,22.19,60.29,60.64,48.37,70.88A2.38,2.38,0,0,0,46.26,68.14Z"/><path class="cls-1" d="M130.14,6.65c.21.44.73.92.75,1.41.37-.25-.15-1-.36-1.3,1.64-1.36,6.73-5.28,8.35-6.53a2.78,2.78,0,0,1,.6,1.37c-.58.36-8.88,6.72-9.12,7-.34,1.27,8.73-6.62,9.28-6.75.41-.44-.24-1.36-.6-1.72-.17-.87-7.95,5.81-8.61,6.57C130.38,6.5,130.08,6.42,130.14,6.65Z"/><path class="cls-1" d="M119.59,93.12c5.51,7,13.14,14.87,16.78,22.19C131.46,107.52,124.81,100.38,119.59,93.12Z"/><path class="cls-1" d="M131.81,102.54c3,4.12,6.09,8.23,9.48,12.07C137.89,112.45,134.17,106.16,131.81,102.54Z"/><path class="cls-1" d="M179.8,78.44a37.55,37.55,0,0,1,5.4,8.09C183.62,84,180.62,80.63,179.8,78.44Z"/><path class="cls-1" d="M180.71,82.55c1.73,3.09,2.32,6.69,4.33,9.65C182.8,90.82,181.88,85.09,180.71,82.55Z"/><path class="cls-1" d="M161,97.54a17.18,17.18,0,0,1,3.18,3.79C163.24,100.12,161.33,98.6,161,97.54Z"/><path class="cls-1" d="M118.48,80.75c2.09,2.86,6.41,4.29,7.94,7.23C124.52,85.12,119.37,83.6,118.48,80.75Z"/><path class="cls-1" d="M104.91,69.91c4.1,4.62,7.57,9.77,12,14.1A71.62,71.62,0,0,1,104.91,69.91Z"/><path class="cls-1" d="M123,90.86c.64.85,2.38,2.3,2.22,3.13C124.53,93,123.55,91.76,123,90.86Z"/><path class="cls-1" d="M190.81,91.72a17.7,17.7,0,0,1-.47,3C189.78,94.41,190.63,92.48,190.81,91.72Z"/><path class="cls-1" d="M13.18,25.12c1.54,3.67,5.69,4.38,9.25,4.22,5.32-.11,10.78,2.13,15.68,2.81C31,28.43,20.09,31,14.54,26.47c-5-6.16,2-9.8,7.79-8-2.52.89-.71,4.87-1.06,6.73,0,.2.26.25.34.08.79-2.2-1.52-5.17.93-6.77A39.22,39.22,0,0,1,32,21.43c-2.08,1.3-.11,4.16-1.85,5.71-.12.13,0,.36.17.28,2.24-1.26-.14-4.47,1.86-5.9A18.61,18.61,0,0,1,37,24.91c-1.06.7-1,2.6-2.5,2.89a.18.18,0,0,0,.11.34C36.07,28,36.48,26,37,25a23.44,23.44,0,0,1,2,2.29c0,1.23-.87,2.11-1.65,3,.37,1,2.23-2.11,1.81-2.81a20.36,20.36,0,0,0,2.15,2.39c-.25,1.15-1.26,1.84-1.84,2.79.49.68,2-1.92,2-2.61a8.82,8.82,0,0,0,2,1.33c.25.73.81,1.39,1,2.17-1.06.24-3.24-.86-3.74-.09,2.28,2.48,3.69,6.5,7.27,7.4.86-1.87-1.85-4.26-2.77-6,14.76,1,2.83-1.68-1.88-3.84-4.37-3.41-7-8.89-12.68-10.6C25.27,17.91,9.4,14.31,13.18,25.12ZM44,31.46c2.19,1.64,5.19,1.78,7.49,3.23-9.72-.13-6.15-1.56-3.53,5.69-3.11-1-4.5-4.45-6.48-6.82C43.91,33.89,46.2,34.67,44,31.46Z"/><path class="cls-1" d="M25.75,26.27c.93-1.79-1-6.41,1.77-6.44C24.76,20.38,27.72,25.9,25.75,26.27Z"/><path class="cls-1" d="M16.24,21.41c-.08-.6.12-3.58.84-2.92-.95,2.17.16,4.66-.95,6.76C16,24.19,16.41,22.69,16.24,21.41Z"/><path class="cls-1" d="M30.44,35.77c1.27.82,1.91-.17,2.83-.65.72.55,3.43,1.58,2.92-.22,0-.14.11-.24.23-.24a1.62,1.62,0,0,0,1.64-2.18c.94.6-.1,2.62-1.41,2.58.37,1.91-2.3,1.27-3.45.55a2,2,0,0,1-3,.43C30.13,35.93,30.29,35.7,30.44,35.77Z"/><path class="cls-1" d="M19.19,34.73c2.22.69,4.81,1.39,6.9.41.86,1,2.08.69,3.22.45-.57.82-2.6.8-3.39-.05C25,36.57,18.72,35.87,19.19,34.73Z"/><path class="cls-1" d="M13.25,27.05c.95-.69-.56,3,1.29,3.1.41.75.25,2,1.6,1.88.37.8.27,1.89,1.53,2.08-.49.69-1.92-.8-1.76-1.68a1.74,1.74,0,0,1-1.6-1.91C12.91,30.05,12.92,28.29,13.25,27.05Z"/><path class="cls-1" d="M32,32.77A1.56,1.56,0,0,0,34,32.5c.36.63-1.72,1.38-2.22.51A.15.15,0,0,1,32,32.77Z"/><path class="cls-1" d="M29.49,31.8c0-.37.82-.86.9-.52-.79.19-.69,1-.2,1.47C30.13,33.51,29.23,32.18,29.49,31.8Z"/><path class="cls-1" d="M26.4,32.88c.25,1.29,1.5,1,2.17.71C27.31,35.48,25.07,32.32,26.4,32.88Z"/><path class="cls-1" d="M21.46,33.46c1,.68,1.75-.68,2.71-.16-.86.13-1.92,1.28-2.86.38C21.21,33.59,21.34,33.4,21.46,33.46Z"/><path class="cls-1" d="M17.59,30.85c.26,1,.74,1.13,1.94,1.16C19.82,32.92,16.7,32.05,17.59,30.85Z"/><path class="cls-1" d="M22.11,30.68c.75.91,1.84-.07,2.67-.27C25.33,31.21,21.75,31.78,22.11,30.68Z"/><path class="cls-1" d="M85.13,19.92C83.89,10.59,58.88,11,53.28,16.71c-2.57,3.38.71,8.32,4.08,9-3.38-2.14-6-4.38-4-8.72,4.49,6.16,3.74,6.73,10.64,2.49.23,1-.4,2.2-.38,3a5.23,5.23,0,0,0,.69-3.08,19,19,0,0,1,5.3-1.25c-1.22,4-.29,3.81.33,0,4.21-.49,8.22.49,12.25,1.52-1.61,4-.86,3.83.36.08a10.45,10.45,0,0,0,2.4.27c-.21,1.69-1.17,3.05-1.65,4.65A38.33,38.33,0,0,0,75.35,23c1.51-4.42,1.05-4.5-.33,0-5.42-.38-11.42.21-15.91,3.46-1-.44-.44-2.2-1.1-2.93,0,.94,0,2.85,1,3.33A1.76,1.76,0,0,0,61.39,28a1.7,1.7,0,0,0,2.11,1.24c.16-.05.15-.32,0-.31-1.19.25-1.41-.75-2-1.35a1.52,1.52,0,0,1-2.16-.9.14.14,0,0,0,0-.1,10.63,10.63,0,0,1,1.32-.74c.18.67,2.18,1,2,.33A1.54,1.54,0,0,1,61,25.67a21.24,21.24,0,0,1,8.22-2.34c-.51.48-.07,1.87.53,1.47-.69-.29-.6-1-.21-1.5,4.71-.82,9.82,1,14.07,1.38C84.12,23.18,85.31,21.57,85.13,19.92ZM84,19.59c-3.47-.9-6.86-1-9.34-3.7.49.51,1.2,1.36,1.73,2a22.86,22.86,0,0,0-6.4-.22c-.78-1.14-2.24-2.57-3.54-2.78a16.15,16.15,0,0,1,3.18,2.82A25.45,25.45,0,0,0,64.33,19a6.8,6.8,0,0,0-4.12-3.13c1.06.82,2.77,1.8,3.69,3.16a.3.3,0,0,0,0,.13c-7.38,4.26-5.46,3.33-10.48-2.35A47.16,47.16,0,0,1,58,14.35c.36.06.85.69,1.09.57a1.66,1.66,0,0,0-.74-.72c2.32-1.25,5.07-.6,7.21.16a7.65,7.65,0,0,0-2.29-1.08c3.23.17,6.68-1.1,9.48.91a5,5,0,0,0-1.44-1.13c3.27.48,7.24.87,9.08,3.94a4.41,4.41,0,0,0-1.74-2.38,6.87,6.87,0,0,1,6.19,5A4.65,4.65,0,0,0,84,19.59Z"/><path class="cls-1" d="M69.4,29.69c-1.1.57-1.87-.37-2.73-.51-.57.76-1.38.42-2,0-.22.53,1.5,1.18,2,.57.25-.22.16-.14.43,0C67.44,30.34,70.12,30.47,69.4,29.69Z"/><path class="cls-1" d="M78.44,28.78c-.2-.64-1,1.39-2,.55-.62.19-1.08,1.12-1.89.41-.7.3-1.35.49-2-.13a.18.18,0,0,0-.25.06c-.4.69-1.13.48-1.75.34-.16.57,1.66.56,2,0,.67.52,3.4.56,3.86-.32A1.45,1.45,0,0,0,78.44,28.78Z"/><path class="cls-1" d="M82.83,25.56c-.54-.4,0,1.84-1.17,1.69-.41,1-.77,1.57-2,1.66a1.61,1.61,0,0,0,2.2-1.3A1.57,1.57,0,0,0,82.83,25.56Z"/><path class="cls-1" d="M65.52,26.28A2.3,2.3,0,0,1,64,27C64.25,27.71,66.55,26.42,65.52,26.28Z"/><path class="cls-1" d="M70,26.49c-.58,1.07-1.81,1-2.56,1.18C68.06,28.48,71.07,26.92,70,26.49Z"/><path class="cls-1" d="M73.48,28.15a1.41,1.41,0,0,1-1.07-1.9c-.89.75,0,2.18,1,2.17C73.6,28.43,73.62,28.2,73.48,28.15Z"/><path class="cls-1" d="M76.84,27.51c-.56.38-1.28.76-1.87.18C74.36,28.69,77.87,28.23,76.84,27.51Z"/><path class="cls-1" d="M81,26.25c-.14,1-1.4.67-2.14.43C78.39,27.6,81.82,27.51,81,26.25Z"/><path class="cls-1" d="M79.84,24.9c-.25-.54-.77.9-1.76-.11C77.67,25.38,79.82,26,79.84,24.9Z"/><path class="cls-1" d="M74.64,24.21a.09.09,0,0,0-.18,0c.05.73-.62,1-1.23,1C72.87,26.13,75.25,25.13,74.64,24.21Z"/><path class="cls-1" d="M67.15,25.27c-.5,0-1.08-.09-1.24-.65,0-.2-.37-.12-.31.08C65.68,25.35,66.9,25.7,67.15,25.27Z"/><path class="cls-1" d="M31.63,55.46a30.58,30.58,0,0,0-7.74-1.92c-4.84-.88-10.57,1-.66.15-6.56,4.58-9,12.41-4,19.09-13.32,4.78-12.8-11-5.19-17.32-5.44,3.7-8.69,13.59-2.21,18.25-.81.85-1.87.16-2.69.34-.6,1.26-1.29,1.37-2.27.57a1.25,1.25,0,1,1-1.48-2,.17.17,0,0,0,0-.26c-2.8-1.78,2.62-3,2.43-4-2.37,0-6.61,7.1-7.54,2.7,3.18.34,4.87-3.65,7.47-4.8.18-.08,0-.41-.15-.33C5.05,66.94,3.29,71.1.23,70.67a8.53,8.53,0,0,1,1.05-1.49c1.71-.56,3-2.79,4.53-3.59-1.71.35-2.69,2.11-4.07,3,3-5,4.75-11.13,11.34-12.48-4.89.14-8.87,5.58-10.25,10.25C2.46,68.08-.27,69.52,0,71c.13,3.62,2.82,1.35,4.4,0A1.37,1.37,0,0,0,5,72.53,1.62,1.62,0,0,0,7,75.09c.73,1,2.1.19,2.48-.73a2.34,2.34,0,0,0,2.78-.47c2.2.77,5.46-.19,7.32-1a2.07,2.07,0,0,0,2.36-.54,2.91,2.91,0,0,0,3.58-.71c1.66,1.06,2.67-.45,4.28-.93,1.27-.39,2.25-.68,1.88-2.1A1.8,1.8,0,0,0,33,66.48c1.89-.57,3.06-3.92,1.15-5.08-.19-.12-.42.18-.24.32,1.81,1.54.1,3.91-1.38,4.65a1.41,1.41,0,0,1-1.24,1.82.23.23,0,0,0-.16.29c.64,1.38-.82,1.6-1.81,1.86-1.91,1-2,1.49-4.07.88-.85,1.4-2.43.89-3.57.74-.55.85-1.37.73-2.23.66-4.81-6.89-2.2-14.3,4.32-18.93,3.36,1.43,9.69.83,10.33,5.36,0,.22.37.24.37,0A3.83,3.83,0,0,0,31.63,55.46Z"/><path class="cls-1" d="M32.21,57.07A30.34,30.34,0,0,1,30.4,60c-4.94-1-5.49-.52-.23.35-2.11,6.84-8.54,1.54-13.28,3.24,3.82-1,11,3.7,12.94-1.91C30.38,60.4,33,58.06,32.21,57.07Z"/><path class="cls-1" d="M34.66,60c-1.55.79-2.18,2.9-3.07,4.58-1.17-3.27-1.14-1.91-.24.43a5.53,5.53,0,0,1-.65.91c-1.13-3-1.28-2.32-.26.26a3,3,0,0,1-.64.43c-.75-1.54-1.38-1.48-.35.14-3.79.57-9.46-3.47-12.46-.9C27.44,64.07,28.46,73,34.66,60Z"/><path class="cls-1" d="M8.51,72.27c-1.44.23-1.41-.69-1.65-1.49-.66,1.06.7,2.29,1.74,1.82A.18.18,0,0,0,8.51,72.27Z"/><path class="cls-1" d="M21.92,69.63c-.58-.4,0,1.4-1.64,1.5C20.76,71.66,22.47,70.54,21.92,69.63Z"/><path class="cls-1" d="M25.68,68.93c-.36.67-1.08,1.21-1.67.39-.42.18.59,1,1,.76C25.4,70.09,26.42,69,25.68,68.93Z"/><path class="cls-1" d="M28.66,61.44c-1.79.43-3.91-.2-5.51-.14C24.5,61.51,28.25,62.83,28.66,61.44Z"/><path class="cls-1" d="M28,56.87c-.75-.32-2.45-.9-3-.53C25.81,56.27,27.61,57.48,28,56.87Z"/><path class="cls-1" d="M29.55,68c-.2.43-.48.81-1,.63a.1.1,0,0,0-.08.19C29,69.49,30.47,68.05,29.55,68Z"/><path class="cls-1" d="M21.11,67.46a2.31,2.31,0,0,1-2.37.35C18.16,68.82,21.51,68.2,21.11,67.46Z"/></g></g></svg>