<svg xmlns="http://www.w3.org/2000/svg" width="716.3" height="465.747" viewBox="0 0 716.3 465.747">
  <g id="Layer_2" data-name="Layer 2" transform="translate(0.019 -0.052)">
    <g id="OBJECTS" transform="translate(-0.019 0.052)">
      <path id="Path_13490" data-name="Path 13490" d="M138.5,117.117c2.218-.333-.222-7.764.333-10.536,11.091,1.848,15.527,18.078,27.283,19.15,8.983-.518,8.836-10.24,4.732-16.155,5.139,2.44,11.35,3.105,14.344-3.031-5.028,6.211-13.863,3.7-19.372-1.553-5.989-3.327-9.353-13.531-13.272-15.934a25.879,25.879,0,0,0,6.765,11.091c-4.621-1.885-12.311-6.8-16.082-5.952,6.4,4.436,15.49,4.325,20.7,10.61-7.394,0-14.566-2.958-21.59-5.176,2.551,4.843,15.749,5.73,22.181,5.656a31.125,31.125,0,0,0,4.991,3.7,154.527,154.527,0,0,1-30.647-3.179c1.146-31.5,41.812-29.575,48.5-1.109C180.532,65.914,126.816,79.667,138.5,117.117Zm14.788-1.627a104.627,104.627,0,0,0,19.52,1.922c-.85,13.2-15.527,4.88-19.668-1.922Zm-7.837-7.172a128.465,128.465,0,0,0,24.7,1.146,30.017,30.017,0,0,1,2.588,7.394c-6.913-1.035-13.974-1.109-20.814-2.736a38.189,38.189,0,0,0-6.617-5.8Z" transform="translate(369.119 219.59)" fill="#d94e4e"/>
      <path id="Path_13491" data-name="Path 13491" d="M162.476,87.986C172.9,85.361,181.368,75.9,192.052,74.825c-.3.481-1.811.333-2.477.739a156.352,156.352,0,0,0-2.366,18.965c18.263-2.662-11.756,3.031-13.087,11.091,16.858,11.091,33.938-14.788,21.257-27.949-2.588,19.668-5.841,17.967-.407-.444-.554-.961-2.44-1.811-2.551-2.588,20.111,10.388-.85,46.359-18.743,31.276,0-5.287,6.913-9.279,12.5-11.091a75.862,75.862,0,0,1,3.031-19.15,28.763,28.763,0,0,0-6.728,3.7c-1.294,21.109-6.285,25.583-.555.333a67.483,67.483,0,0,1-6.026,3.7c-1.109,20-5.324,20.259-.887.481a47.472,47.472,0,0,1-6.987,3.142c-.555,13.346-3.105,13.124-.592.222-12.791,3.216-5.471,12.274,2.81,14.788a.407.407,0,0,1-.333.739C163.807,101.036,153.789,93.346,162.476,87.986Z" transform="translate(429.097 201.105)" fill="#d94e4e"/>
      <path id="Path_13492" data-name="Path 13492" d="M130.5,161.1c17.523,43.18,93.717,37.856,89.1-14.492,35.564,26.581,82.256,8.947,76.711-39h0c-.333-38.374-40.925-53.568-58.966-14.344C255.012,62.8,283.626,63.985,294.864,98.7c6.433,38.078-45.546,46.692-66.988,23.106-22.625-27.727,3.105-45.324,26.618-51.535-23.069,1.848-41.516,20-37.524,43.956h-.37C198.56,86.8,142.663,86.278,137.413,124.06c-4.288,3.7-8.207,44.585-4.51,30.241,7.653,10.5,17.856,28.651,32.57,27.283C150.5,180.549,141.48,163.1,133.051,152.23c0-2.218.259-4.473.444-6.691,6.8,11.091,16.266,24.7,30.13,26.211-14.011-3.993-22.366-16.562-29.908-28.281a62.161,62.161,0,0,1,1.183-6.876c6.4,15.675,23.4,31.387,41.147,30.315-17.634-1.516-34.122-15.934-40.666-32.2.628-2.514,1.294-4.991,2-7.394.222,5.139,3.7,14.381,7.394,15.638-32.5-53.531,74.456-65.509,74.973-12.274a.518.518,0,0,0,0,.739c2.292,31.387-45.028,37.856-62.515,21.22,13.789,16.451,54.6,12.754,61.664-9.094-.259,6.95-2.514,14.159-1.553,21.146C196.859,203.137,148.763,191.27,130.5,161.1Zm89.169-15.194v-3.7c6.4,5.656,19.594,13.124,27.394,9.5-10.462,1-19.224-5.656-27.394-10.462.259-2.773,1.072-5.545,1.072-8.318,8.8,9.242,26.507,18.485,37.893,13.05-13.937,2.44-28.725-4.732-37.819-15.083A33.977,33.977,0,0,0,219,119.808c7.616,9.871,19.557,20.481,32.755,19.483a48.245,48.245,0,0,1-34.381-24.843c1.442-3.7-.518-8.947.739-13.013.592,38.3,68.467,49.686,77.413,10.277,1.7,46.285-42.33,56.378-75.861,34.2Z" transform="translate(352.015 189.319)" fill="#d94e4e"/>
      <path id="Path_13493" data-name="Path 13493" d="M124.024,57.731c-1.959,9.242,1.22,8.244,1.331-.333,4.067,13.9,22.4,26.655,34.27,25.583-14.788-3.4-31.054-13.087-33.79-29.316C125.281,4.829,226.65,39.358,192.38,76.881A39.484,39.484,0,0,0,181.1,83.5c-27.616,8.651-65.768-33.531-27.024-39.446-2.366,1.959-2.44,3.7-1.368,5.287-14.011,3.031,1.146,22.625,11.645,17.93.222.407.924.407,1,0,3.993-.776,11.091-.518,13.235-4.7,2.218.628,5.878,1.22,7.394,0-8.91,0-14.788-5.434-22.477-8.651-4.362-1.738-14.492-4.1-7.837-9.649a49.945,49.945,0,0,1,35.786,16.858c-9.427-15.12-41.147-26.544-53.457-9.982-7.1,22.958,22.181,37.3,41.627,33.79a27.985,27.985,0,0,0-9.8,20.924c-6.58.259-15.342-2.4-20.444-2.773a30.278,30.278,0,0,0,20.37,3.142c-7.394,33.272,2.292,48.319,36.6,48.466-9.316-3.7-28.466-3.253-36.673-14.6v-7.727c7.394,6.285,22.44,11.091,30.536,9.612-11.091-2.44-21.257-4.362-30.61-11.091v-3.882c8.947,7.394,25.065,12.533,35.268,10.13-11.978-1.368-26.4-2.588-35.305-11.83a78.873,78.873,0,0,1,.3-8.355c6.285,8.614,20.814,16.6,30.352,15.083-11.091-1.627-24.547-7.061-30.2-17.154.185-2.292.37-4.584.481-6.876,3.105,17.043,33.679,25.4,45.213,18.743-31.165,6.359-63.772-21-29.353-45.1,24.7-17.486,79.446,7.135,57.117,39.668-32.976.592-41.294,34.529-36.525,61.923,2.847,12.68,19.224,20.111,30.093,25.435-5.619-7.394-24.658-11.978-29.169-24.732a20.74,20.74,0,0,0,.222-3.4c5.841,6.913,15.638,15.6,24.252,15.675a55.9,55.9,0,0,1-24.289-17.56,40.276,40.276,0,0,0-.333-6.322c8.022,8.8,20.961,18.484,31.793,20.74-11.46-6.322-23.4-12.385-31.9-22.662,0-2.255-.185-4.473,0-6.728,5.545,10.5,17.634,20.37,28.836,22.181-11.941-2.847-23.143-13.568-28.725-23.808a70.243,70.243,0,0,1,.739-7.874c5.324,17.634,29.169,28.614,44.88,29.169-26.1-4.325-65.213-30.943-30.167-53.605-15.823,22.181,15.6,51.2,37.967,41.553-20.518,5.73-49.575-15.786-38.448-38.374,25.176-32.9,94.678,15.157,53.2,45.361,33.272-16.636,1.294-62.441-31.609-57.117,21.368-28.8-24.215-53.864-49.649-44.954C226.1,34.33,118.886,3.535,124.024,57.731ZM156.742,52.7v-.3c7.394,2.477,13.568,6.765,20.7,9.686-2.292,3.327-8.318,3.179-11.793,3.7a14.493,14.493,0,0,1,2.958-6.728c-2.144-.481-3.7,4.658-4.141,6.876a27.614,27.614,0,0,1-6.285,0,22.182,22.182,0,0,1,4.954-10.869c-3.364,2-7.024,6.839-5.361,10.832a9.944,9.944,0,0,1-5.989-3.7,13.346,13.346,0,0,1,4.954-9.5Zm-3.7-2.921a11.646,11.646,0,0,0,3.7,2.625,11.571,11.571,0,0,0-6.026,8.8c-2.884-3.771-4.178-11.017,2.255-11.423Z" transform="translate(332.834 77.235)" fill="#d94e4e"/>
      <path id="Path_13494" data-name="Path 13494" d="M140.8,62c-9.908,1.035-15.49,11.091-19.557,16.34A20.888,20.888,0,0,1,140.8,62Z" transform="translate(327.042 167.016)" fill="#d94e4e"/>
      <path id="Path_13495" data-name="Path 13495" d="M154.636,76.837c-16.747-6.174-22.181-26.4,1.442-30.573-7.727,8.762,6.617,23.327,13.937,19.594a12.791,12.791,0,0,0,1.035-5.471,55.453,55.453,0,0,0,14.788,11.091,54.381,54.381,0,0,1-21.183-25.693c13.679.924,31.017,12.939,21.923,26.322C200.663,57.317,174.71,44.452,162.4,44.267,137.3,42.2,128.462,71.291,154.636,76.837Zm3.475-30.906a28.911,28.911,0,0,1,4.7-.222,19.329,19.329,0,0,1,1.479,2.07c-2.7,0-7.948,3.142-7.394,5.361a16.377,16.377,0,0,1,7.948-4.51c1.442,2.736,2.255,5.767,3.7,8.5-1.811-1-8.614,1.146-6.617,2.958a9.131,9.131,0,0,1,6.839-2.4,12.977,12.977,0,0,1,.739,8.059A19.926,19.926,0,0,1,157,58.352a13.716,13.716,0,0,1,6.47-5.545c-.665-2.662-6.248,2.662-6.95,4.732-1.775-3.623-1.885-9.575,1.516-11.682Z" transform="translate(374.386 118.907)" fill="#d94e4e"/>
      <path id="Path_13496" data-name="Path 13496" d="M106.288,54.4c-.333,4.954-.628,9.871-1.183,14.788-.518,0-.37.628,0,1-.37,3.7-.776,7.727-1.072,11.571-3.142,18.189,21.109,24.843,35.231,26.618-9.464-4.806-36.3-6.691-34.122-24.437,6.507,8.244,19.187,18.485,29.058,16.747A47.653,47.653,0,0,1,105.29,82.2l.222-1.885c5.324,8.54,20.111,13.494,28.688,14.233-10.351-3.7-21.812-6.433-28.5-16.008.259-2.033.481-4.067.739-6.1,6.876,8.762,17.191,17.56,28.836,16.488-11.46-.887-21.886-8.946-28.651-18.485a11.728,11.728,0,0,1,.259-2.994c4.51,7.394,11.46,14.159,20.037,15.638A41.035,41.035,0,0,1,106.953,64.68V62.314c10.832,25.546,59.372,31.165,70.241,2.958-.333,3.7-.665,7.653-.924,11.46a.518.518,0,0,0,0,.7c-1.183,6.47.813,10.758,1.294,1.331a48.06,48.06,0,0,0,12.57,8.54c-18.485-3.956-48.06-3.105-49.5,21.442-4.51,20.111.481,51.535,24.88,53.42-8.54-4.214-18.669-8.91-23.143-17.93V142.8a46.063,46.063,0,0,0,20.037,13.531c-6.322-4.1-15.157-8.836-20.148-15.86q-.222-2.995-.555-5.989a37.191,37.191,0,0,0,20.555,13.863,56.23,56.23,0,0,1-20.777-15.9A161.516,161.516,0,0,1,141.15,115c2.81,13.124,25.4,24.584,35.342,20.111-49.538-13.2-7.394-55.047,23.549-29.871a1.885,1.885,0,0,1,0,.628c-3.919,9.316-24.7,8.577-34.492,3.475-.665,2.773,7.394,4.51,10.684,4.954,2.44,2.994,6.913,8.429,10.24,8.355a41.887,41.887,0,0,1-8.725-8.207,43.956,43.956,0,0,0,12.422-1.146c4.1,5.324,7.061,3.7.407,0,1.959-.481,8.244-2.4,9.686-5.25a19.15,19.15,0,0,1-17.6,19.187,76.01,76.01,0,0,1-9.76-11.091c0,3.29,5.656,8.392,8.54,11.091a29.575,29.575,0,0,1-15.305-3.919c-.481-.259-.924.518-.481.813,13.568,11.091,40.37.37,34.529-18.485-18.078-24.252-78.485,5.25-29.982,29.058-63.18-18.485-11.091-69.391,38.041-38.633,15.231,9.982,6.063,29.206-6.433,36.969,5.065-1,11.386-9.168,13.863-14.788a140.447,140.447,0,0,0,0,16.266c-28.91-2.773-59.668,24.991-20.7,40.666,14.788,5.619,41,5.693,41.775-15.638-2.551,14.788-18.484,21.257-33.494,16.3-25.1-6.8-13.05-38.485,10.573-25.878a40.4,40.4,0,0,0,0,4.732c-21.775-6.8-23.771-3.7,0,.481a17.006,17.006,0,0,1-3.7,10.684c-19.3-5.582-20.777-1.22-.37.555-1.627,2.4-2.4,5.028.739,6.8.333,0,.628-.3.444-.555-2.218-2.7-1.442-4.1.407-6.507,7.911-8.614-2.7-29.243,20.74-15.749-2.4-4.88-15.194-8.133-17.93-1.072-19.483-12.089-37.3,11.091-17.745,24.954-25.176-8.022-23.512-31.313,2.033-36.451,50.019-16.488,67.764,43.7,16.119,52.533-19.594,1.442-39.446-9.205-45.953-28.1-1.922-6.137-.333,12.015-.3,14.6-2.847,24.326,19.039,41.368,41.11,39.076-13.272-2.662-26.322-6.58-36.71-15.749a26.178,26.178,0,0,0-.3-4.178,42.145,42.145,0,0,0,26.359,11.46c-8.17-2.736-19.963-5.841-26.655-13.568a22.185,22.185,0,0,0-.739-4.288c7.985,9.205,23.882,15.305,35.047,13.2-14.085-1.516-36.673-5.952-36.636-23.438,6.728,8.725,19.3,18.928,30.019,16.451-12.791-.739-22.884-9.094-30.278-19-.333-3.7-.555-7.394-.7-11.091,11.386,30.462,66.544,37.413,76.563,2.551a148.982,148.982,0,0,0-1.664,22.551c6.47-23.512,6.581-57.3-27.172-56.267,4.658-46.951-7.985-35.084-38.965-57.45,0-1.959.407-3.919.518-5.878a51.757,51.757,0,0,0,36.6,14.788c-13.309-2.477-26.766-6.765-36.525-16.008,0-2.329.222-4.658,0-6.987,10.314,9.575,25.878,20.777,40.666,17.228-14.788.813-29.982-8.651-40.666-19.039a28.984,28.984,0,0,0-.887-6.4c8.54,10.056,22.551,21.886,36.562,18.854-31.091.555-43.55-44.141-75.454-39.816,50.906,3.7,50.574,54.788-1.738,48.06-51.2-8.762-25.176-63.365,15.157-40.3-6.876-2.292-18.706-4.806-20.629,3.7-9.057-.924-15.231,10.795-7.8,16.858,11.091,14.788,51.128,9.686,37.634-13.752C148.285,29.449,112.24,30.188,106.288,54.4Zm46.84-11.9c35.675,26.433-34.085,39.964-30.906,8.8a15.342,15.342,0,0,1,9.02-5.619c.518,3.7,6.248,5.324,7.911,8.873s7.985,10.351,12.052,10.277c-1.775-2.958-6.95-3.142-7.911-6.839,4.4-2.773,8.133-7.1,13.9-6.544-.739-3.7-11.978,2.81-14.048,5.952-.222,0-.3,0-.259.259l-.222.259c-.407-.592-.776-1.22-1.146-1.848a16.34,16.34,0,0,1,5.878-12.68c-3.7,0-6.691,7.135-6.8,11.091-3.475-3.327-2.107-8.244-.555-12.2-1.368-3.142-3.327,6.691-2.625,8.244C122.48,40.392,145.734,39.135,153.128,42.5Z" transform="translate(279.886 90.397)" fill="#d94e4e"/>
      <path id="Path_13497" data-name="Path 13497" d="M153.6,66.539c-.961,7.948,18.928,21.331,22.7,11.5,3.068,3.7,3.7,11.46,6.728,13.789C210.611,76.373,165.878,38.332,153.6,66.539Zm1.294-1C168.984,42.25,205.8,75.892,183.18,91.419a41,41,0,0,0-6.8-14.788c-.333-3.7-3.7-7.727-2.847-11.091,0-.518-.739-.776-.924-.3-2.107-1.664-11.276-4.658-11.091-1a16.9,16.9,0,0,1,10.906,1.368c-.961,3.7,1.738,6.581,2.662,10.167-8.429.37-9.649,5.1,0,0,.3,10.093-13.715,1.516-17.782-2.81,16.969-5.915,11.091-8.059-.518-.592a7.394,7.394,0,0,1-1.885-6.839Z" transform="translate(414.235 151.94)" fill="#d94e4e"/>
      <path id="Path_13498" data-name="Path 13498" d="M128,66.61c3.7,0,19.446,2.4,17.708,5.841C140.569,69.013,132.436,69.087,128,66.61Z" transform="translate(345.273 179.448)" fill="#d94e4e"/>
      <path id="Path_13499" data-name="Path 13499" d="M126,56.07c1.294.887,8.614,6.322,5.878,6.691C130.621,60.432,126.333,57.992,126,56.07Z" transform="translate(339.879 151.023)" fill="#d94e4e"/>
      <path id="Path_13500" data-name="Path 13500" d="M120.419,55.14c1.738,3.438,5.73,7.394,7.024,9.834C125.447,64.382,117.276,55.177,120.419,55.14Z" transform="translate(322.909 148.515)" fill="#d94e4e"/>
      <path id="Path_13501" data-name="Path 13501" d="M156.41,62.2c1.922-1.7,7.837-2.551,8.983-.776C163.139,60.023,156.041,64.163,156.41,62.2Z" transform="translate(421.855 162.819)" fill="#d94e4e"/>
      <path id="Path_13502" data-name="Path 13502" d="M116,43.672c1.109-1.553,11.091-4.806,9.8-2.107C122.322,41.159,118.218,44.079,116,43.672Z" transform="translate(312.91 109.113)" fill="#d94e4e"/>
      <path id="Path_13503" data-name="Path 13503" d="M114.08,58.35c6.876,8.022,16.266,15.453,26.618,16.562C131.049,75.541,116.224,66.077,114.08,58.35Z" transform="translate(307.732 157.172)" fill="#d94e4e"/>
      <path id="Path_13504" data-name="Path 13504" d="M135.27,14.68C143.144,23.4,342.3,277.6,351.391,289.064c.37,2.662-2.847,10.832-3.327,15.453-2-2.033,1.664-10.647,2.773-14.344-17.449-26.95-60.518-52.385-77.635-82.4,15.49,20.887,36.747,39.7,57.339,56.858C278.155,197.492,139.189,22.443,135.27,14.68Z" transform="translate(364.879 39.398)" fill="#d94e4e"/>
      <path id="Path_13505" data-name="Path 13505" d="M135.06,212.115c14.788-10.795,46.359-26.248,105.584-59.594.555-12.2,4.214-17.043.518-.3L308.593,115c.628-8.059,3.216-10.573.591-.333l4.843-2.7c0-8.836,3.882-13.679.665-.37,19.372-10.093,31.572-19.039,32.533-17.523-2.366,2.588-199,110.648-201.888,112.571C142.491,207.753,136.058,214.7,135.06,212.115Z" transform="translate(364.313 253.059)" fill="#d94e4e"/>
      <path id="Path_13506" data-name="Path 13506" d="M90.89,55C99.171,63.429,252.3,288.5,258.175,299.846c14.788-11.091,45.028-25.546,103.513-58.559A151.012,151.012,0,0,0,348.158,226.5a67.542,67.542,0,0,1,14.27,14.381c55.454-30.536,148.431-82.7,85.768-46.433-1.959,9.538-3.7,12.569-1.183.7-19.668,11.091-49.243,27.431-78.744,43.771.7,1.922.739,7.394-.924,7.911a17.377,17.377,0,0,0,0-7.394c-61.96,34.27-91.905,50.426-109.207,61.295,1.553,2.588-3.7,19.15-5.471,14.418a32.866,32.866,0,0,0,4.547-15.9C248.9,288.09,98.136,66.091,90.89,55Z" transform="translate(245.191 148.137)" fill="#d94e4e"/>
      <path id="Path_13507" data-name="Path 13507" d="M88.23,58.34c2.477,3.142,18.226,25.878,39.335,56.489,2.588-16.562,3.993-11.793.739,1.072l7.394,11.091c0-3.29,0-9.649,1.885-11.276a69.5,69.5,0,0,0-.924,12.68l3.7,5.508c2.736-18.485,3.29-12.385,1.072,1.59,13.42,19.446,28.023,40.666,42.33,61.479,1.109-9.057,1.331-4.51.961,1.4l1.848,2.662c2.366-7.061,3.142-3.7.739,1.072l3.031,4.436c2.884-16.045,3.364-11.312.961,1.4L203.61,225.81c3.327-17.154,4.917-11.793.887,1.331l5.471,7.911c0-2.773,1.146-9.168,3.253-9.8-7.616,17.634,17.154,34.085,22.477,47.246,0-8.54,2-3.7.37.555l3.882,5.619c.924-6.95,1.4-4.214.518.739l4.067,5.915c1.294-16.858,2.329-12.237.776,1.146l3.29,4.769a22.957,22.957,0,0,1,2.218-10.093,48.287,48.287,0,0,0-1.4,11.276c35.047,52.718-28.429-37.819-65.029-91.757-.7.259-.776-.518-.7-1.035C162.057,166.29,94.108,71.427,88.23,58.34Z" transform="translate(238.017 157.145)" fill="#d94e4e"/>
      <path id="Path_13508" data-name="Path 13508" d="M108.78,105.9c4.7-5.213,76.193-92.94,81.332-97.746C186.969,12.327,113.29,106.266,108.78,105.9Z" transform="translate(293.438 21.787)" fill="#d94e4e"/>
      <path id="Path_13509" data-name="Path 13509" d="M115.84,57.731c19.372-9.279,51.757-35.084,71.276-43.291C172.292,22.388,131.552,54.514,115.84,57.731Z" transform="translate(312.479 38.751)" fill="#d94e4e"/>
      <path id="Path_13510" data-name="Path 13510" d="M45.825,235.888c5.878-1.811,9.168,4.769,8.836,9.8-.7.592-1.442.85-1.035,1.664-3.7.924-5.693-2.625-7.024-5.508-2.884-.407,1.035,5.656,2.662,6.1,1.109,1.331,7.911.3,6.063-.961C70.114,235.555,273.628,82.8,311.189,54.739c-12.9,13.937-28.392,30.684-45.25,48.836-11.46,13.272-59.52,34.455-72.2,46.322.222,5.1,6.544,17.412,10.906,16.71-3.7-5.508-8.873-9.908-10.2-16.932,13.05-7.1,54.677-30.5,64.77-38.817l-64.178,69.206c-1.22-2.033-2.662-3.7-3.7-5.8,7.69-50.019-7.394-5.989,2.994,6.765C131.667,250.343,66.823,314.447,70.151,315.371a12.163,12.163,0,0,1,8.1,14.788l-1.553,1.627c-6.359,0-7.579-7.727-9.094-10.869-.37,4.732,2.551,11.756,8.059,11.941C99.1,313.19,257.953,136.922,262.722,131.635,257.879,136.108,107.267,299.29,79.873,328.68a12.126,12.126,0,0,0-9.205-13.642c9.057-8.651,65.1-68.8,124.549-133.089a.481.481,0,0,0,.518-.555C252.075,120.47,306.641,61.653,348.527,15.589c12.976-10.24,11.534-13.752-.444-.7C327.307,31.856,50.409,227.644,45.825,235.888Zm2.292-1.331c6.433-5.841,259.338-188.32,297.527-216.823C309.636,64.684,99.985,206.83,55.917,244.686a8.8,8.8,0,0,0-7.8-10.13Z" transform="translate(122.971 17.158)" fill="#d94e4e"/>
      <path id="Path_13511" data-name="Path 13511" d="M130.161,24.444c.776,1.627,2.7,3.4,2.773,5.213,1.368-.924-.555-3.7-1.331-4.806,6.063-5.028,24.88-19.52,30.869-24.141a10.277,10.277,0,0,1,2.218,5.065c-2.144,1.331-32.829,24.843-33.716,25.878-1.257,4.7,32.274-24.474,34.307-24.954,1.516-1.627-.887-5.028-2.218-6.359-.628-3.216-29.39,21.479-31.83,24.289C131.049,23.89,129.939,23.594,130.161,24.444Z" transform="translate(351.023 -0.052)" fill="#d94e4e"/>
      <path id="Path_13512" data-name="Path 13512" d="M119.59,93.12c20.37,25.878,48.577,54.973,62.034,82.034C163.472,146.355,138.888,119.959,119.59,93.12Z" transform="translate(322.592 250.943)" fill="#d94e4e"/>
      <path id="Path_13513" data-name="Path 13513" d="M131.81,102.54c11.091,15.231,22.514,30.426,35.047,44.622C154.287,139.176,140.535,115.923,131.81,102.54Z" transform="translate(355.548 276.348)" fill="#d94e4e"/>
      <path id="Path_13514" data-name="Path 13514" d="M179.8,78.44a138.82,138.82,0,0,1,19.963,29.908C193.922,98.995,182.831,86.536,179.8,78.44Z" transform="translate(484.973 211.353)" fill="#d94e4e"/>
      <path id="Path_13515" data-name="Path 13515" d="M180.71,82.55c6.4,11.423,8.577,24.732,16.008,35.675C188.437,113.123,185.035,91.94,180.71,82.55Z" transform="translate(487.427 222.437)" fill="#d94e4e"/>
      <path id="Path_13516" data-name="Path 13516" d="M161,97.54a63.515,63.515,0,0,1,11.756,14.011C169.281,107.078,162.22,101.459,161,97.54Z" transform="translate(434.271 262.864)" fill="#d94e4e"/>
      <path id="Path_13517" data-name="Path 13517" d="M118.48,80.75c7.727,10.573,23.7,15.86,29.353,26.729C140.809,96.905,121.77,91.286,118.48,80.75Z" transform="translate(319.598 217.583)" fill="#d94e4e"/>
      <path id="Path_13518" data-name="Path 13518" d="M104.91,69.91c15.157,17.08,27.986,36.119,44.363,52.126A264.771,264.771,0,0,1,104.91,69.91Z" transform="translate(283.001 188.348)" fill="#d94e4e"/>
      <path id="Path_13519" data-name="Path 13519" d="M123,90.86c2.366,3.142,8.8,8.5,8.207,11.571C128.656,98.771,125.033,94.187,123,90.86Z" transform="translate(331.788 244.848)" fill="#d94e4e"/>
      <path id="Path_13520" data-name="Path 13520" d="M192.585,91.72a65.442,65.442,0,0,1-1.738,11.091C188.778,101.665,191.92,94.53,192.585,91.72Z" transform="translate(512.89 247.168)" fill="#d94e4e"/>
      <path id="Path_13521" data-name="Path 13521" d="M14.732,44.952c5.693,13.568,21.035,16.192,34.2,15.6C68.6,60.146,88.781,68.427,106.9,70.941c-26.285-13.752-66.618-4.251-87.136-21-18.485-22.773,7.394-36.23,28.8-29.575-9.316,3.29-2.625,18-3.919,24.88a.66.66,0,0,0,1.257.3c2.921-8.133-5.619-19.113,3.438-25.028A144.993,144.993,0,0,1,84.308,31.311c-7.69,4.806-.407,15.379-6.839,21.109-.444.481,0,1.331.628,1.035,8.281-4.658-.518-16.525,6.876-21.812a68.8,68.8,0,0,1,17.819,12.532c-3.919,2.588-3.7,9.612-9.242,10.684a.665.665,0,0,0,.407,1.257c5.4-.518,6.913-7.911,8.836-11.608a86.659,86.659,0,0,1,7.394,8.466c0,4.547-3.216,7.8-6.1,11.091,1.368,3.7,8.244-7.8,6.691-10.388a75.27,75.27,0,0,0,7.948,8.836c-.924,4.251-4.658,6.8-6.8,10.314,1.812,2.514,7.394-7.1,7.394-9.649a32.607,32.607,0,0,0,7.394,4.917c.924,2.7,2.994,5.139,3.7,8.022-3.919.887-11.978-3.179-13.826-.333,8.429,9.168,13.642,24.03,26.876,27.357,3.179-6.913-6.839-15.749-10.24-22.181,54.566,3.7,10.462-6.211-6.95-14.2C110.113,54.157,100.39,33.9,79.391,27.577,59.428,18.3.758,4.989,14.732,44.952ZM128.671,68.39c8.1,6.063,19.187,6.58,27.69,11.941-35.934-.481-22.736-5.767-13.05,21.035-11.5-3.7-16.636-16.451-23.956-25.213C128.338,77.374,136.8,80.258,128.671,68.39Z" transform="translate(34.062 47.722)" fill="#d94e4e"/>
      <path id="Path_13522" data-name="Path 13522" d="M25.75,43.638c3.438-6.617-3.7-23.7,6.544-23.808C22.09,21.863,33.033,42.27,25.75,43.638Z" transform="translate(69.515 53.287)" fill="#d94e4e"/>
      <path id="Path_13523" data-name="Path 13523" d="M16.607,29.541c-.3-2.218.444-13.235,3.105-10.795C16.2,26.768,20.3,35.973,16.2,43.737,15.719,39.818,17.235,34.273,16.607,29.541Z" transform="translate(43.5 49.418)" fill="#d94e4e"/>
      <path id="Path_13524" data-name="Path 13524" d="M31.133,44.643c4.7,3.031,7.061-.628,10.462-2.4,2.662,2.033,12.68,5.841,10.795-.813a.868.868,0,0,1,.85-.887A5.989,5.989,0,0,0,59.3,32.48c3.475,2.218-.37,9.686-5.213,9.538,1.368,7.061-8.5,4.7-12.754,2.033a7.394,7.394,0,0,1-11.091,1.59C29.987,45.234,30.578,44.384,31.133,44.643Z" transform="translate(81.47 87.403)" fill="#d94e4e"/>
      <path id="Path_13525" data-name="Path 13525" d="M19.258,34.73c8.207,2.551,17.782,5.139,25.509,1.516,3.179,3.7,7.69,2.551,11.9,1.664-2.107,3.031-9.612,2.958-12.533-.185C40.737,41.532,17.52,38.944,19.258,34.73Z" transform="translate(51.755 93.471)" fill="#d94e4e"/>
      <path id="Path_13526" data-name="Path 13526" d="M13.743,27.282c3.512-2.551-2.07,11.091,4.769,11.46,1.516,2.773.924,7.394,5.915,6.95,1.368,2.958,1,6.987,5.656,7.69-1.811,2.551-7.1-2.958-6.507-6.211a6.433,6.433,0,0,1-5.915-7.061C12.487,38.372,12.524,31.866,13.743,27.282Z" transform="translate(35.31 72.527)" fill="#d94e4e"/>
      <path id="Path_13527" data-name="Path 13527" d="M32.736,33.5a5.767,5.767,0,0,0,7.394-1c1.331,2.329-6.359,5.1-8.207,1.885a.6.6,0,1,1,.813-.887Z" transform="translate(85.635 87.457)" fill="#d94e4e"/>
      <path id="Path_13528" data-name="Path 13528" d="M29.617,33.511c0-1.368,3.031-3.179,3.327-1.922-2.921.7-2.551,3.7-.739,5.434C31.983,39.833,28.656,34.916,29.617,33.511Z" transform="translate(79.474 83.858)" fill="#d94e4e"/>
      <path id="Path_13529" data-name="Path 13529" d="M27.5,33.062c.924,4.769,5.545,3.7,8.022,2.625C30.865,42.674,22.583,30.992,27.5,33.062Z" transform="translate(70.167 88.3)" fill="#d94e4e"/>
      <path id="Path_13530" data-name="Path 13530" d="M21.961,34.219c3.7,2.514,6.47-2.514,10.019-.592-3.179.481-7.1,4.732-10.573,1.4C21.036,34.7,21.517,34,21.961,34.219Z" transform="translate(57.444 89.287)" fill="#d94e4e"/>
      <path id="Path_13531" data-name="Path 13531" d="M18.022,30.85c.961,3.7,2.736,4.177,7.172,4.288C26.266,38.5,14.732,35.286,18.022,30.85Z" transform="translate(47.076 83.007)" fill="#d94e4e"/>
      <path id="Path_13532" data-name="Path 13532" d="M22.179,31.408c2.773,3.364,6.8-.259,9.871-1C34.083,33.368,20.848,35.475,22.179,31.408Z" transform="translate(59.629 81.821)" fill="#d94e4e"/>
      <path id="Path_13533" data-name="Path 13533" d="M173.509,39.592C168.925,5.1,76.466,6.616,55.763,27.725c-9.5,12.5,2.625,30.758,15.083,33.272C58.351,53.086,48.665,44.8,56.059,28.76c16.6,22.773,13.826,24.88,39.335,9.205.85,3.7-1.479,8.133-1.4,11.091A19.335,19.335,0,0,0,96.54,37.67a70.241,70.241,0,0,1,19.594-4.621c-4.51,14.788-1.072,14.085,1.22,0,15.564-1.811,30.389,1.811,45.287,5.619-5.952,14.788-3.179,14.159,1.331.3a38.632,38.632,0,0,0,8.873,1c-.776,6.248-4.325,11.276-6.1,17.191a141.7,141.7,0,0,0-29.39-6.174c5.582-16.34,3.882-16.636-1.22,0-20.037-1.4-42.219.776-58.818,12.791-3.7-1.627-1.627-8.133-4.067-10.832,0,3.475,0,10.536,3.7,12.311a6.507,6.507,0,0,0,8.8,4.214,6.285,6.285,0,0,0,7.8,4.584c.591-.185.555-1.183,0-1.146-4.4.924-5.213-2.773-7.394-4.991a5.619,5.619,0,0,1-7.985-3.327.518.518,0,0,0,0-.37,39.3,39.3,0,0,1,4.88-2.736c.665,2.477,8.059,3.7,7.394,1.22A5.693,5.693,0,0,1,84.3,60.849,78.522,78.522,0,0,1,114.691,52.2c-1.885,1.775-.259,6.913,1.959,5.434-2.551-1.072-2.218-3.7-.776-5.545,17.412-3.031,36.3,3.7,52.015,5.1C169.775,51.644,174.175,45.692,173.509,39.592Zm-4.177-1.22c-12.828-3.327-25.361-3.7-34.529-13.679,1.811,1.885,4.436,5.028,6.4,7.394a84.511,84.511,0,0,0-23.66-.813c-2.884-4.214-8.281-9.5-13.087-10.277a59.705,59.705,0,0,1,11.756,10.425,94.087,94.087,0,0,0-19.594,4.769A25.139,25.139,0,0,0,81.382,24.62C85.3,27.651,91.623,31.274,95.024,36.3a1.109,1.109,0,0,0,0,.481C67.741,52.531,74.839,49.093,56.28,28.095A174.344,174.344,0,0,1,73.212,19c1.331.222,3.142,2.551,4.03,2.107a6.137,6.137,0,0,0-2.736-2.662c8.577-4.621,18.743-2.218,26.655.592a28.281,28.281,0,0,0-8.466-3.993c11.941.628,24.7-4.067,35.047,3.364a18.485,18.485,0,0,0-5.324-4.178c12.089,1.775,26.766,3.216,33.568,14.566a16.3,16.3,0,0,0-6.433-8.8,25.4,25.4,0,0,1,22.884,18.485,17.191,17.191,0,0,0-3.105-.111Z" transform="translate(141.277 33.858)" fill="#d94e4e"/>
      <path id="Path_13534" data-name="Path 13534" d="M82.208,31.065C78.142,33.173,75.3,29.7,72.116,29.18c-2.107,2.81-5.1,1.553-7.394,0-.813,1.959,5.545,4.362,7.394,2.107.924-.813.592-.518,1.59,0C74.963,33.468,84.87,33.949,82.208,31.065Z" transform="translate(174.426 78.503)" fill="#d94e4e"/>
      <path id="Path_13535" data-name="Path 13535" d="M99.745,29.123c-.739-2.366-3.7,5.139-7.394,2.033-2.292.7-3.993,4.141-6.987,1.516-2.588,1.109-4.991,1.811-7.394-.481a.665.665,0,0,0-.924.222c-1.479,2.551-4.177,1.775-6.47,1.257-.592,2.107,6.137,2.07,7.394,0,2.477,1.922,12.569,2.07,14.27-1.183a5.361,5.361,0,0,0,7.5-3.364Z" transform="translate(190.309 77.082)" fill="#d94e4e"/>
      <path id="Path_13536" data-name="Path 13536" d="M91.379,25.689c-2-1.479,0,6.8-4.325,6.248-1.516,3.7-2.847,5.8-7.394,6.137a5.952,5.952,0,0,0,8.133-4.806,5.8,5.8,0,0,0,3.586-7.579Z" transform="translate(214.905 68.611)" fill="#d94e4e"/>
      <path id="Path_13537" data-name="Path 13537" d="M69.619,26.28A8.5,8.5,0,0,1,64,28.942C64.924,31.567,73.427,26.8,69.619,26.28Z" transform="translate(172.671 70.682)" fill="#d94e4e"/>
      <path id="Path_13538" data-name="Path 13538" d="M76.9,26.49c-2.144,3.956-6.691,3.7-9.464,4.362C69.732,33.847,80.86,28.08,76.9,26.49Z" transform="translate(181.948 71.249)" fill="#d94e4e"/>
      <path id="Path_13539" data-name="Path 13539" d="M77.353,33.274A5.213,5.213,0,0,1,73.4,26.25c-3.29,2.773,0,8.059,3.7,8.022A.518.518,0,0,0,77.353,33.274Z" transform="translate(194.365 70.601)" fill="#d94e4e"/>
      <path id="Path_13540" data-name="Path 13540" d="M82.077,27.51c-2.07,1.4-4.732,2.81-6.913.665C72.908,31.872,85.885,30.172,82.077,27.51Z" transform="translate(202.063 74)" fill="#d94e4e"/>
      <path id="Path_13541" data-name="Path 13541" d="M86.891,26.25c-.518,3.7-5.176,2.477-7.911,1.59C77.242,31.241,89.923,30.908,86.891,26.25Z" transform="translate(212.627 70.601)" fill="#d94e4e"/>
      <path id="Path_13542" data-name="Path 13542" d="M84.727,25.238c-.924-2-2.847,3.327-6.507-.407C76.7,27.013,84.653,29.305,84.727,25.238Z" transform="translate(210.503 66.622)" fill="#d94e4e"/>
      <path id="Path_13543" data-name="Path 13543" d="M78.543,24.453a.333.333,0,1,0-.665,0c.185,2.7-2.292,3.7-4.547,3.7C72,31.551,80.8,27.854,78.543,24.453Z" transform="translate(197.463 64.857)" fill="#d94e4e"/>
      <path id="Path_13544" data-name="Path 13544" d="M71.348,27.335c-1.848,0-3.993-.333-4.584-2.4,0-.739-1.368-.444-1.146.3C65.913,27.631,70.424,28.925,71.348,27.335Z" transform="translate(176.968 65.893)" fill="#d94e4e"/>
      <path id="Path_13545" data-name="Path 13545" d="M116.984,61.287a113.051,113.051,0,0,0-28.614-7.1c-17.893-3.253-39.076,3.7-2.44.555-24.252,16.932-33.272,45.879-14.788,70.574C21.9,142.989,23.822,84.652,51.955,61.287c-20.111,13.679-32.126,50.241-8.17,67.468-2.994,3.142-6.913.592-9.945,1.257-2.218,4.658-4.769,5.065-8.392,2.107a4.621,4.621,0,1,1-5.471-7.394.628.628,0,0,0,0-.961c-10.351-6.58,9.686-11.091,8.983-14.788-8.762,0-24.437,26.248-27.875,9.982,11.756,1.257,18-13.494,27.616-17.745.665-.3,0-1.516-.555-1.22C18.72,103.728,12.213,119.107.9,117.517a31.534,31.534,0,0,1,3.882-5.508c6.322-2.07,11.091-10.314,16.747-13.272-6.322,1.294-9.945,7.8-15.046,11.091C17.574,91.343,24.043,68.681,48.406,63.69c-18.078.518-32.792,20.629-37.893,37.893C9.145,107.942-.948,113.266.051,118.737c.481,13.383,10.425,4.991,16.266,0a5.065,5.065,0,0,0,2.218,5.656,6,6,0,0,0,7.394,9.464c2.7,3.7,7.763.7,9.168-2.7a8.651,8.651,0,0,0,10.277-1.738c8.133,2.847,20.185-.7,27.061-3.7a7.653,7.653,0,0,0,8.725-2A10.758,10.758,0,0,0,94.4,121.1c6.137,3.919,9.871-1.664,15.823-3.438,4.7-1.442,8.318-2.514,6.95-7.763a6.654,6.654,0,0,0,4.88-7.874c6.987-2.107,11.313-14.492,4.251-18.78-.7-.444-1.553.665-.887,1.183,6.691,5.693.37,14.455-5.1,17.191a5.213,5.213,0,0,1-4.584,6.728.85.85,0,0,0-.591,1.072c2.366,5.1-3.031,5.915-6.691,6.876-7.061,3.7-7.394,5.508-15.046,3.253-3.142,5.176-8.983,3.29-13.2,2.736-2.033,3.142-5.065,2.7-8.244,2.44C54.173,99.254,63.822,71.86,87.926,54.744c12.422,5.287,35.823,3.068,38.189,19.815,0,.813,1.368.887,1.368,0A14.159,14.159,0,0,0,116.984,61.287Z" transform="translate(0.019 143.551)" fill="#d94e4e"/>
      <path id="Path_13546" data-name="Path 13546" d="M73.527,57.07A112.162,112.162,0,0,1,66.835,67.9c-18.263-3.7-20.3-1.922-.85,1.294-7.8,25.287-31.572,5.693-49.095,11.978,14.122-3.7,40.666,13.679,47.838-7.061C66.761,69.381,76.447,60.73,73.527,57.07Z" transform="translate(45.62 153.72)" fill="#d94e4e"/>
      <path id="Path_13547" data-name="Path 13547" d="M82.314,60c-5.73,2.921-8.059,10.721-11.349,16.932-4.325-12.089-4.214-7.061-.887,1.59a20.445,20.445,0,0,1-2.4,3.364c-4.178-11.091-4.732-8.577-.961.961a11.09,11.09,0,0,1-2.366,1.59c-2.773-5.693-5.1-5.471-1.294.518C49.042,87.061,28.081,72.126,16.99,81.627,55.623,75.046,59.393,108.06,82.314,60Z" transform="translate(45.89 161.622)" fill="#d94e4e"/>
      <path id="Path_13548" data-name="Path 13548" d="M13.428,76.288c-5.324.85-5.213-2.551-6.1-5.508-2.44,3.919,2.588,8.466,6.433,6.728a.665.665,0,0,0-.333-1.22Z" transform="translate(18.102 190.695)" fill="#d94e4e"/>
      <path id="Path_13549" data-name="Path 13549" d="M26.343,69.786c-2.144-1.479,0,5.176-6.063,5.545C22.055,77.291,28.376,73.15,26.343,69.786Z" transform="translate(54.763 187.437)" fill="#d94e4e"/>
      <path id="Path_13550" data-name="Path 13550" d="M30.454,68.93c-1.331,2.477-3.993,4.473-6.174,1.442-1.553.665,2.181,3.7,3.7,2.81C29.419,73.218,33.19,69.189,30.454,68.93Z" transform="translate(64.552 185.705)" fill="#d94e4e"/>
      <path id="Path_13551" data-name="Path 13551" d="M43.52,61.829c-6.617,1.59-14.455-.739-20.37-.518C28.141,62.087,42,66.967,43.52,61.829Z" transform="translate(62.503 165.117)" fill="#d94e4e"/>
      <path id="Path_13552" data-name="Path 13552" d="M36.091,58.621C33.318,57.438,27.033,55.294,25,56.662,27.994,56.4,34.649,60.876,36.091,58.621Z" transform="translate(67.492 151.43)" fill="#d94e4e"/>
      <path id="Path_13553" data-name="Path 13553" d="M32.633,68c-.739,1.59-1.775,2.994-3.7,2.329a.381.381,0,1,0-.3.7C30.6,73.508,36.034,68.185,32.633,68Z" transform="translate(76.68 183.197)" fill="#d94e4e"/>
      <path id="Path_13554" data-name="Path 13554" d="M27.684,67.46a8.54,8.54,0,0,1-8.762,1.294C16.778,72.488,29.163,70.2,27.684,67.46Z" transform="translate(50.427 181.741)" fill="#d94e4e"/>
    </g>
  </g>
</svg>
