<svg xmlns="http://www.w3.org/2000/svg" width="396.195" height="128.78" viewBox="0 0 396.195 128.78">
  <g id="Group_7" data-name="Group 7" transform="translate(2.519 0.556)">
    <path id="Path_13555" data-name="Path 13555" d="M122.22,29.7S110.253,5.239,97.228,0L41.38,33.115S88.1,24.608,122.22,29.7Z" transform="translate(157.501 0)" fill="none" stroke="#d94e4e" stroke-width="1"/>
    <path id="Path_13556" data-name="Path 13556" d="M30.12,2.23,77.605,25.684,48.768,31.6S54.728,23.714,30.12,2.23Z" transform="translate(114.643 8.488)" fill="none" stroke="#d94e4e" stroke-width="1"/>
    <path id="Path_13557" data-name="Path 13557" d="M70.566,26.845A73.3,73.3,0,0,1,27.31,43.859S45.718,34.823,47.352,21.27Z" transform="translate(103.947 80.958)" fill="none" stroke="#d94e4e" stroke-width="1"/>
    <path id="Path_13558" data-name="Path 13558" d="M74.186,24,67.457,36.352A12.833,12.833,0,0,1,54,25.105Z" transform="translate(205.535 91.349)" fill="none" stroke="#d94e4e" stroke-width="1"/>
    <path id="Path_13559" data-name="Path 13559" d="M339.667,47.809C334,55.884,238.736,145.616,13.71,50.02,238.736-45.575,333.467,43.532,339.667,47.809Z" transform="translate(52.183 22.698)" fill="none" stroke="#da533d" stroke-miterlimit="10" stroke-width="2.19"/>
    <path id="Path_13559_-_Outline" data-name="Path 13559 - Outline" d="M202.631,5.368a280.979,280.979,0,0,1,55.914,5.381,220.107,220.107,0,0,1,40.784,12.378,175.9,175.9,0,0,1,26.515,13.719,141.329,141.329,0,0,1,13.1,9.387c.669.534,1.153.92,1.424,1.106l.59.407-.412.587c-.853,1.214-4.123,4.778-10.393,9.575A147.762,147.762,0,0,1,304.181,73.53a204.952,204.952,0,0,1-42.669,14.6,272.588,272.588,0,0,1-60.421,6.449c-55.929,0-118.967-14.732-187.361-43.788l-1.541-.655,1.541-.655C82.634,20.21,146.189,5.368,202.631,5.368ZM338.96,48.062c-.247-.193-.545-.43-.9-.716C305.27,21.194,257.175,6.791,202.631,6.791c-55.827,0-118.668,14.583-186.8,43.346C83.453,78.683,145.776,93.156,201.091,93.156c48.493,0,82.493-11.371,102.477-20.91a146.329,146.329,0,0,0,25.722-15.467A63.35,63.35,0,0,0,338.96,48.062Z" transform="translate(51.885 22.581)" fill="none" stroke="#d94e4e" stroke-width="1.19"/>
    <path id="Path_13560" data-name="Path 13560" d="M37.969,53.771,0,4.94S52.868,17.148,66.47,53v1.586C52.868,90.346,0,102.6,0,102.6Z" transform="translate(0 18.803)" fill="none" stroke="#d94e4e" stroke-width="2"/>
    <path id="Path_13561" data-name="Path 13561" d="M95.9,65.283a43.88,43.88,0,0,1-20.378-4.326,22.878,22.878,0,0,1-12.16-14.419c-3.6-12.352-2.884-22.2,2.259-29.318A28.116,28.116,0,0,1,85.852,6.84v5.816A22.349,22.349,0,0,0,70.183,20.73c-3.989,5.575-4.47,13.794-1.3,24.367v.336A17.014,17.014,0,0,0,78.4,55.671c10.526,5.335,32.874,7.257,79.639-13.986l2.4,5.287Q120.649,65.283,95.9,65.283Z" transform="translate(229.02 27.23)" fill="none" stroke="#d94e4e" stroke-width="1"/>
    <path id="Path_13562" data-name="Path 13562" d="M120.486,78.638A316.049,316.049,0,0,1,74.154,74.36,19.225,19.225,0,0,1,59.3,63.4C50.555,44.177,71.27,7.7,72.135,6.16l4.806,2.884c0,.336-20.09,35.422-12.592,51.955a13.65,13.65,0,0,0,10.622,7.69,281.159,281.159,0,0,0,55.608,3.989l.433,5.767c-3.364.288-6.873.385-10.526.385Z" transform="translate(211.556 23.446)" fill="none" stroke="#d94e4e" stroke-width="1"/>
    <path id="Path_13563" data-name="Path 13563" d="M78.085,33.16A11.775,11.775,0,1,1,89.86,21.385,11.775,11.775,0,0,1,78.085,33.16Zm0-17.735a5.912,5.912,0,1,0,4.228,1.731A5.96,5.96,0,0,0,78.085,15.425Z" transform="translate(252.389 36.578)" fill="none" stroke="#d94e4e" stroke-width="1"/>
    <path id="Path_13564" data-name="Path 13564" d="M71.8,11.346h.913A2.307,2.307,0,0,0,72.43,12.5a2.163,2.163,0,0,0,2.163,2.163,2.211,2.211,0,0,0,.961-.24,2.98,2.98,0,0,1,0,.625,3.8,3.8,0,1,1-3.8-3.8Z" transform="translate(258.67 42.82)" fill="#da533d"/>
    <path id="Path_13565" data-name="Path 13565" d="M146.287,15.393s-8.6,1.826-6.921,13.938c0,0-96.412-7.786-106.746-6.488C32.62,22.843,101.733,7.319,146.287,15.393Z" transform="translate(120.571 49.731)" fill="none" stroke="#d94e4e" stroke-width="1"/>
  </g>
</svg>
