<svg xmlns="http://www.w3.org/2000/svg" viewBox="0 0 82.36 26.56"><defs><style>.cls-1{fill:#da533d;}.cls-2{fill:#231b31;stroke:#da533d;stroke-miterlimit:10;stroke-width:1.19px;}</style></defs><g id="Layer_2" data-name="Layer 2"><g id="TEXTS"><path class="cls-1" d="M58.2,6.18S55.71,1.09,53,0L41.38,6.89S51.1,5.12,58.2,6.18Z"/><path class="cls-1" d="M30.12,2.23,40,7.11,34,8.34S35.24,6.7,30.12,2.23Z"/><path class="cls-1" d="M36.31,22.43a15.25,15.25,0,0,1-9,3.54s3.83-1.88,4.17-4.7Z"/><path class="cls-1" d="M58.2,24l-1.4,2.57A2.67,2.67,0,0,1,54,24.23Z"/><path class="cls-2" d="M81.53,14.67c-1.18,1.68-21,20.35-67.82.46C60.53-4.76,80.24,13.78,81.53,14.67Z"/><path class="cls-1" d="M7.9,15.1,0,4.94s11,2.54,13.83,10v.33C11,22.71,0,25.26,0,25.26Z"/><path class="cls-1" d="M68.35,19a9.13,9.13,0,0,1-4.24-.9,4.76,4.76,0,0,1-2.53-3c-.75-2.57-.6-4.62.47-6.1a5.85,5.85,0,0,1,4.21-2.16l0,1.21,0-.6,0,.6A4.65,4.65,0,0,0,63,9.73c-.83,1.16-.93,2.87-.27,5.07v.07A3.54,3.54,0,0,0,64.71,17c2.19,1.11,6.84,1.51,16.57-2.91l.5,1.1Q73.5,19,68.35,19Z"/><path class="cls-1" d="M70.33,21.24a65.76,65.76,0,0,1-9.64-.89,4,4,0,0,1-3.09-2.28c-1.82-4,2.49-11.59,2.67-11.91l1,.6c0,.07-4.18,7.37-2.62,10.81a2.84,2.84,0,0,0,2.21,1.6A58.5,58.5,0,0,0,72.43,20l.09,1.2c-.7.06-1.43.08-2.19.08Z"/><path class="cls-1" d="M68.76,14.51a2.45,2.45,0,1,1,2.45-2.45,2.45,2.45,0,0,1-2.45,2.45Zm0-3.69A1.24,1.24,0,1,0,70,12.06a1.23,1.23,0,0,0-1.24-1.24Z"/><path class="cls-1" d="M68.76,11.27l.19,0a.48.48,0,0,0-.06.24.45.45,0,0,0,.45.45.46.46,0,0,0,.2-.05.62.62,0,0,1,0,.13.79.79,0,1,1-.79-.79Z"/><path class="cls-1" d="M56.27,13.55s-1.79.38-1.44,2.9c0,0-20.06-1.62-22.21-1.35C32.62,15.1,47,11.87,56.27,13.55Z"/></g></g></svg>