<svg xmlns="http://www.w3.org/2000/svg" width="502.467" height="332.243" viewBox="0 0 502.467 332.243">
  <g id="smm" transform="translate(-0.015 0.001)">
    <g id="POST_3" data-name="POST 3" transform="translate(0.015 -0.001)">
      <path id="Path_13731" data-name="Path 13731" d="M3.971,165.708A120.669,120.669,0,0,0,17.238,207.6a149.886,149.886,0,0,0,34.471,43.378A155.663,155.663,0,0,0,99.82,279.817a136.284,136.284,0,0,0,55.3,8.31,150.966,150.966,0,0,0,53.813-13.118,155.888,155.888,0,0,0,27.391-16.1,139.9,139.9,0,0,0,28.658-28.062A157.19,157.19,0,0,0,297,143.422c1.826-32.757-7.863-66.3-26.086-89.439A104.346,104.346,0,0,0,239.9,27.673,121.341,121.341,0,0,0,209.57,15.859a140.121,140.121,0,0,0-51.5-2.534,189.276,189.276,0,0,0-49.639,13.751,236.121,236.121,0,0,0-49.3,27.763c-5.18,3.913-10.137,8.087-14.907,12.3a164.347,164.347,0,0,0-12.074,12.82A114.3,114.3,0,0,0,18.952,98.852c-.894,1.6-1.006,2.012-.783,2.161s.857-.671,1.6-1.789A141.611,141.611,0,0,1,35.424,78.467,174.3,174.3,0,0,1,67.286,51.188a233.585,233.585,0,0,1,36.3-20.012,208.209,208.209,0,0,1,22.36-8.5,168.184,168.184,0,0,1,51.875-8.124,128.756,128.756,0,0,1,52.173,11.18,110.53,110.53,0,0,1,22.956,14.049,100.879,100.879,0,0,1,18.633,19.528,124.321,124.321,0,0,1,20.2,49.49,152.793,152.793,0,0,1-16.174,100.619,141.8,141.8,0,0,1-68.011,62.533,145.9,145.9,0,0,1-74.533,11.627,135.8,135.8,0,0,1-36.819-9.764,157.822,157.822,0,0,1-33.055-19.08,152.2,152.2,0,0,1-47.664-58.955A116.5,116.5,0,0,1,6.058,159a100.321,100.321,0,0,1,3.95-37.751,111.8,111.8,0,0,1,7.453-18c.559-1.193.894-2.124.671-2.236s-.373,0-.894.857h0l-.447.783a94.47,94.47,0,0,0-8.609,19.565,102,102,0,0,0-4.211,43.49Z" transform="translate(8.794 32.814)" fill="#d94e4e"/>
      <path id="Path_13732" data-name="Path 13732" d="M36.393,89.777a14.907,14.907,0,0,0,5.478-1.863,48.968,48.968,0,0,0,9.987-7.677,48.223,48.223,0,0,0,8.124-9.8,41.4,41.4,0,0,0,4.1-8.869,42.7,42.7,0,0,0,1.453-6.745,11.18,11.18,0,0,0-.708-7.155,5.962,5.962,0,0,0-2.124-2.2,7.751,7.751,0,0,0-5.031-.894,11.739,11.739,0,0,0-6.857,4.174c0,.224,0,.335,0,.559a.559.559,0,0,0,.559,0,14.608,14.608,0,0,1,7.453-3.13,4.994,4.994,0,0,1,3.727,1.789,4.435,4.435,0,0,1,.82,2.348,22.36,22.36,0,0,1-1.006,6.373,41.7,41.7,0,0,1-2.236,6.484,45.055,45.055,0,0,1-7.453,11.553A53.775,53.775,0,0,1,42.952,83.7a18.038,18.038,0,0,1-5.329,2.609,3.928,3.928,0,0,1-3.727-.484,4.882,4.882,0,0,1,0-3.317,23.292,23.292,0,0,1,1.379-4.435,87.059,87.059,0,0,1,4.248-8.832c3.2-5.814,6.522-11.627,9.876-17.366l1.453-2.05a.41.41,0,0,0,0-.522c0-.186-.224-.261-.373-.224h0a8.534,8.534,0,0,0-2.124,1.9,67.714,67.714,0,0,0-7.714,8.646A61.34,61.34,0,0,0,33.188,72.3a45.839,45.839,0,0,0-2.46,7.23,17.18,17.18,0,0,0-.783,4.174,6.782,6.782,0,0,0,1.379,4.435,5.776,5.776,0,0,0,5.068,1.64Z" transform="translate(81.575 121.267)" fill="#d94e4e"/>
      <path id="Path_13733" data-name="Path 13733" d="M58.21,57.69a5.59,5.59,0,0,0-4.77-2.832,8.087,8.087,0,0,0-5.59,1.863,13.379,13.379,0,0,0-3.727,4.733c0,.186,0,.3.186.41a.335.335,0,0,0,.41,0,24.447,24.447,0,0,1,4.658-4.509,6.41,6.41,0,0,1,3.466-1.043,4.472,4.472,0,0,1,1.975.373c2.646,1.267,2.87,5.143,2.161,8.348A37.453,37.453,0,0,1,53.254,74.8a30.745,30.745,0,0,1-5.888,8.124,11.18,11.18,0,0,1-7.453,3.727H38.347l-1.453-.522a2.944,2.944,0,0,1-1.379-1.938,13.118,13.118,0,0,1,1.23-6.41c1.826-4.546,4.435-8.944,6.708-13.565a17.179,17.179,0,0,0,.969-1.714.335.335,0,0,0,0-.373h-.335a12.817,12.817,0,0,0-1.379,1.6,61.859,61.859,0,0,0-5.814,6.6A26.347,26.347,0,0,0,32.273,80.87a7.64,7.64,0,0,0,1.6,6.484,8.609,8.609,0,0,0,6.149,1.9,13.528,13.528,0,0,0,7.081-2.981,29.814,29.814,0,0,0,6.335-7.23A35.627,35.627,0,0,0,59.4,63.168a9.913,9.913,0,0,0-1.193-5.478Z" transform="translate(87.483 149.552)" fill="#d94e4e"/>
      <path id="Path_13734" data-name="Path 13734" d="M64.464,58.6v.447c0,.186.224.224.373,0a12.261,12.261,0,0,1,6.037-1.006,3.391,3.391,0,0,1,2.348,2.2,4.92,4.92,0,0,1,.224,2.012,15.652,15.652,0,0,1-5.851,7.938,44.31,44.31,0,0,1-8.758,6.074,59.625,59.625,0,0,1-9.577,3.727,21.652,21.652,0,0,1-4.547.969,5.218,5.218,0,0,1-1.9,0c-.447-.186-.484-.261-.634-.6a3.354,3.354,0,0,1,.708-2.385,21.354,21.354,0,0,1,2.236-2.758,66.67,66.67,0,0,1,5.627-5.031c3.95-3.242,8.012-6.41,12-9.764l1.565-1.193a.3.3,0,0,0,0-.41.232.232,0,0,0-.261-.224h0a8.31,8.31,0,0,0-1.975.932,65.929,65.929,0,0,0-7.9,4.062A49.267,49.267,0,0,0,45.2,70.483a29.59,29.59,0,0,0-3.727,4.472,11.888,11.888,0,0,0-1.491,2.72,4.882,4.882,0,0,0,0,3.727,3.727,3.727,0,0,0,1.453,1.677A5.105,5.105,0,0,0,43.6,83.6a15.578,15.578,0,0,0,4.286-.559A63.353,63.353,0,0,0,56.937,79.8a43.266,43.266,0,0,0,13.938-9.5,22.36,22.36,0,0,0,3.279-4.323,7.453,7.453,0,0,0,.82-5.478,6.447,6.447,0,0,0-1.006-2.124,4.956,4.956,0,0,0-3.727-1.752A9.578,9.578,0,0,0,64.464,58.6Z" transform="translate(107.949 154.386)" fill="#d94e4e"/>
      <path id="Path_13735" data-name="Path 13735" d="M64.415,50.867a7.453,7.453,0,0,0-5.18,1.752v.373a.261.261,0,0,0,.335,0A9.428,9.428,0,0,1,64.9,52.1a3.466,3.466,0,0,1,1.975,3.727,21.242,21.242,0,0,1-4.807,7.453,51.539,51.539,0,0,1-6.708,6.671,41.253,41.253,0,0,1-7.453,5.105,7.453,7.453,0,0,1-3.727.634c-1.118-.224-1.64-.671-1.752-1.6a8.348,8.348,0,0,1,1.6-5.4,48.014,48.014,0,0,1,4.137-5.217,95,95,0,0,1,9.54-9.428,15.314,15.314,0,0,0,1.379-1.043.335.335,0,0,0,0-.373h-.261a8.011,8.011,0,0,0-1.714.82A33.54,33.54,0,0,0,43.4,64.618a12.6,12.6,0,0,0-3.242,10.025A4.062,4.062,0,0,0,42.428,77.4a6.894,6.894,0,0,0,4.062.261,21.726,21.726,0,0,0,7.453-4.174A49.788,49.788,0,0,0,64.6,62.941a41.589,41.589,0,0,0,2.46-3.95,7.118,7.118,0,0,0,.894-4.77,4.845,4.845,0,0,0-.745-1.9A4.1,4.1,0,0,0,64.415,50.867Z" transform="translate(109.191 138.674)" fill="#d94e4e"/>
      <path id="Path_13736" data-name="Path 13736" d="M69.333,46.465a6.074,6.074,0,0,0-5.553-.82s0,.186,0,.373,0,.261.261.261h2.236A3.727,3.727,0,0,1,69,47.732a2.87,2.87,0,0,1-.261,2.832,11.775,11.775,0,0,1-1.193,1.64,75.427,75.427,0,0,1-14.608,12.82,13.863,13.863,0,0,1-8.161,3.093,3.727,3.727,0,0,1-2.981-1.23,3.391,3.391,0,0,1,0-2.944A21.28,21.28,0,0,1,45.52,58.5a37.827,37.827,0,0,1,4.77-4.7,43.6,43.6,0,0,1,11.664-6.894c.783-.261,1.379-.41,1.677-.559a.3.3,0,0,0,0-.335v-.3h0a7.155,7.155,0,0,0-1.938,0,25.341,25.341,0,0,0-7.9,2.124,28.024,28.024,0,0,0-14.087,15.13,7.229,7.229,0,0,0-.261,3.354,4.472,4.472,0,0,0,2.981,3.279,11.627,11.627,0,0,0,8.981-1.342,60.819,60.819,0,0,0,12-9.2,50.458,50.458,0,0,0,6.074-7.453,7.118,7.118,0,0,0,.82-1.863A3.727,3.727,0,0,0,69.333,46.465Z" transform="translate(107.255 123.548)" fill="#d94e4e"/>
      <path id="Path_13737" data-name="Path 13737" d="M42.326,53.558a16.657,16.657,0,0,0-1.565,5.553,12.521,12.521,0,0,0,.969,5.739,6.6,6.6,0,0,0,2.087,2.87,5.329,5.329,0,0,0,4.509.671,21.614,21.614,0,0,0,7.863-5.217A58.471,58.471,0,0,0,66.4,50.689a11.515,11.515,0,0,0,1.416-9.876,6.894,6.894,0,0,0-4.137-3.727,5.553,5.553,0,0,0-3.727.522,7.453,7.453,0,0,0-1.863,1.3v.41c0,.149.224,0,.335,0,.708-.186,3.354-2.012,5.515-.82a5.925,5.925,0,0,1,2.907,4.36,14.348,14.348,0,0,1-3.354,8.683,73.413,73.413,0,0,1-6.447,7.9,31.267,31.267,0,0,1-7.453,6.112,5.441,5.441,0,0,1-3.727.745,3.317,3.317,0,0,1-1.938-2.348,13.826,13.826,0,0,1,3.2-12.3,82.655,82.655,0,0,1,9.5-10.845,16.442,16.442,0,0,0,1.416-1.23.335.335,0,0,0,0-.41s0-.186-.261-.186h0A7.863,7.863,0,0,0,56,39.993a38.868,38.868,0,0,0-6.82,4.882,25.789,25.789,0,0,0-6.857,8.683Z" transform="translate(111.008 100.803)" fill="#d94e4e"/>
      <path id="Path_13738" data-name="Path 13738" d="M51.738,69.049a5.851,5.851,0,0,0,5.4,2.012,10.434,10.434,0,0,0,5.7-3.727,23.664,23.664,0,0,0,4.472-7.453,23.031,23.031,0,0,0,.708-14.907,9.13,9.13,0,0,0-6.3-6.82,4.4,4.4,0,0,0-2.012,0,5.925,5.925,0,0,0-3.019,1.565,9.578,9.578,0,0,0-2.646,4.658.326.326,0,0,0,.224.3.3.3,0,0,0,.373,0,13.863,13.863,0,0,1,3.428-4.435,4.286,4.286,0,0,1,4.658,0h0a10.36,10.36,0,0,1,3.95,7.453,22.359,22.359,0,0,1-.3,8.832,21.652,21.652,0,0,1-3.727,7.938,9.913,9.913,0,0,1-5.814,4.323,3.727,3.727,0,0,1-3.727-2.758,17.068,17.068,0,0,1-.634-6.112,116.794,116.794,0,0,1,1.6-13.192,6.7,6.7,0,0,1,.373-1.677.3.3,0,0,0-.224-.3.224.224,0,0,0-.3,0h0a6.038,6.038,0,0,0-.82,1.714,41.924,41.924,0,0,0-2.72,7.453,26.087,26.087,0,0,0-.745,10.1,10.546,10.546,0,0,0,2.087,5.031Z" transform="translate(134.8 103.721)" fill="#d94e4e"/>
      <path id="Path_13739" data-name="Path 13739" d="M51,77.98a7.453,7.453,0,0,0,7.118,0A27.726,27.726,0,0,0,65.12,72.8a30.074,30.074,0,0,0,7.826-13.453,16.993,16.993,0,0,0,.708-4.77,7.453,7.453,0,0,0-1.6-4.7,5.7,5.7,0,0,0-1.565-1.342,4.956,4.956,0,0,0-3.428-.484,8.832,8.832,0,0,0-4.77,2.758v.373a.3.3,0,0,0,.373,0,11.664,11.664,0,0,1,5.292-1.938,4.062,4.062,0,0,1,3.727,2.646h0a14.012,14.012,0,0,1-1.23,8.683,30.633,30.633,0,0,1-4.77,8.124,28.435,28.435,0,0,1-6.708,6.037,6.373,6.373,0,0,1-6.708,1.006c-1.118-.745-.969-2.944-.373-4.956A35.962,35.962,0,0,1,54.5,64.713c2.087-3.988,4.4-7.975,6.82-11.851l1.043-1.342a.373.373,0,0,0,0-.373H62.1a5.4,5.4,0,0,0-1.491,1.267,40.509,40.509,0,0,0-5.441,5.851,34.955,34.955,0,0,0-4.994,8.869,19.787,19.787,0,0,0-1.267,5.217,8.8,8.8,0,0,0,.261,2.907A4.435,4.435,0,0,0,51,77.98Z" transform="translate(133.231 130.716)" fill="#d94e4e"/>
      <path id="Path_13740" data-name="Path 13740" d="M70.387,37.17h0A36,36,0,0,1,82.35,42.239a39.5,39.5,0,0,0,7.975,5.553,2.013,2.013,0,0,0,.6.335.559.559,0,0,0,.3-.186l.224-.224h0a1.118,1.118,0,0,0-.335-.671,11.551,11.551,0,0,0-1.342-2.72,13.379,13.379,0,0,0-6.074-4.248c-1.081-.484-2.944-1.528-4.956-2.385a28.509,28.509,0,0,0-5.255-1.752c-1.155,0-2.273-.224-3.429-.261-.335,0-3.279-.522-3.727,0s0,0,0,.373a.41.41,0,0,0,0,.335,26.493,26.493,0,0,0,4.062.783Z" transform="translate(180.249 96.657)" fill="#d94e4e"/>
      <path id="Path_13741" data-name="Path 13741" d="M68.618,52.1c2.72,3.354,6.522,6.559,8.795,9.428a18.634,18.634,0,0,0,7.453,6.186,1.043,1.043,0,0,0,.559.3.41.41,0,0,0,.261,0s0,0,0-.224h0a1.342,1.342,0,0,0-.3-.634,22.96,22.96,0,0,0-1.267-2.534,19.341,19.341,0,0,0-5.031-4.658c-1.789-1.3-5.7-5.627-7.453-7.043L69.1,50.941c-.261-.224-2.161-2.273-2.795-2.311h-.261s-.186.224-.186.3a16.323,16.323,0,0,0,2.683,3.2Z" transform="translate(179.522 132.6)" fill="#d94e4e"/>
      <path id="Path_13742" data-name="Path 13742" d="M58.52,78.7c0,.224-1.64,1.752-1.64,2.236H57.1a13.415,13.415,0,0,0,2.385-2.161h0c2.5-2.236,4.77-5.255,6.894-7.118a14.012,14.012,0,0,0,4.472-5.851,2.46,2.46,0,0,0,.224-.447h0a1.565,1.565,0,0,0-.484.261c-.671.335-1.3.708-1.9,1.081a15.2,15.2,0,0,0-3.354,4.025c-.932,1.416-4.1,4.584-5.143,5.963Z" transform="translate(155.036 178.217)" fill="#d94e4e"/>
      <path id="Path_13743" data-name="Path 13743" d="M50.806,84.444a12.521,12.521,0,0,0-3.279-2.981c-1.118-.745-3.727-3.5-4.845-4.472l-1.64-1.267s-1.416-1.453-1.826-1.453H39.03a.335.335,0,0,0,0,.186,10.547,10.547,0,0,0,1.752,2.05h0c1.789,2.161,4.286,4.211,5.776,6.037a12.149,12.149,0,0,0,4.77,3.988H51.7a.783.783,0,0,0-.186-.41,11.18,11.18,0,0,0-.708-1.677Z" transform="translate(106.329 202.511)" fill="#d94e4e"/>
      <path id="Path_13744" data-name="Path 13744" d="M21.358,79.553a11.889,11.889,0,0,0,2.683-1.6h0c2.758-1.6,5.515-4.025,7.863-5.366a14.012,14.012,0,0,0,5.366-4.658,1.787,1.787,0,0,0,.3-.373s0,0,0-.224h0a1.118,1.118,0,0,0-.484,0A15.91,15.91,0,0,0,35.072,68a13.341,13.341,0,0,0-3.95,3.13c-1.155,1.155-4.77,3.727-6.037,4.658l-1.714,1.64s-1.9,1.3-1.975,1.752,0,0,0,.224S21.32,79.553,21.358,79.553Z" transform="translate(58.151 183.514)" fill="#d94e4e"/>
      <path id="Path_13745" data-name="Path 13745" d="M20.829,58.126a23.924,23.924,0,0,1-2.46.484H15.537a.373.373,0,0,0,0,.261s0,.224,0,.261a8.832,8.832,0,0,0,3.391.41h0a27.913,27.913,0,0,0,10.4-1.975A10.323,10.323,0,0,0,35.7,52.984a.969.969,0,0,0,.261-.447v-.224c0-.224,0,0-.186,0h-.484l-2.124.708a27.539,27.539,0,0,0-4.472,2.72A26.535,26.535,0,0,1,20.829,58.126Z" transform="translate(42.245 142.371)" fill="#d94e4e"/>
      <path id="Path_13746" data-name="Path 13746" d="M17.542,37.637h0c2.311,2.087,5.366,3.727,7.453,5.7a13.528,13.528,0,0,0,5.925,3.727.894.894,0,0,0,.447,0h.186a.633.633,0,0,0,0-.186h0a.493.493,0,0,0-.3-.41,10.546,10.546,0,0,0-1.193-1.677,13.342,13.342,0,0,0-4.1-2.72c-1.379-.745-4.658-3.391-6.074-4.211l-2.012-1.118c-.224,0-1.789-1.379-2.236-1.342s0,0-.186,0v.224a12.522,12.522,0,0,0,2.087,2.012Z" transform="translate(42.029 96.526)" fill="#d94e4e"/>
      <path id="Path_13747" data-name="Path 13747" d="M31.9,52.6A16.212,16.212,0,0,0,35.18,49.8h0c3.391-2.87,6.6-6.857,9.5-9.279a19.155,19.155,0,0,0,6.261-7.677,1.155,1.155,0,0,0,.3-.559v-.3h-.261a1.49,1.49,0,0,0-.634.335A19.228,19.228,0,0,0,47.739,33.7a19.676,19.676,0,0,0-4.658,5.255c-1.342,1.863-5.7,6-7.155,7.826l-1.975,2.646c-.224.3-2.273,2.236-2.311,2.907l.186.3Z" transform="translate(86.216 87.229)" fill="#d94e4e"/>
      <path id="Path_13748" data-name="Path 13748" d="M37.857,23.83a24.075,24.075,0,0,0,3.242-.857,25.192,25.192,0,0,1,10.1-.3,38.086,38.086,0,0,0,7.453,1.677h.522V23.9h0a1.044,1.044,0,0,0-.41-.41,10.174,10.174,0,0,0-1.752-1.6,10.509,10.509,0,0,0-5.7-1.267H47.025a17.44,17.44,0,0,0-4.323.522,18.258,18.258,0,0,0-2.5.969c-.3,0-2.5.783-2.72,1.267a.559.559,0,0,0,0,.3.708.708,0,0,0,.373.149Z" transform="translate(102.097 56.184)" fill="#d94e4e"/>
      <path id="Path_13749" data-name="Path 13749" d="M54.864,40.985a10.36,10.36,0,0,0,3.242-1.714h0a30.745,30.745,0,0,0,7.938-8.087,11.18,11.18,0,0,0,2.832-7.975,2.162,2.162,0,0,0,0-.559h-.522a1.341,1.341,0,0,0-.335.484,20.9,20.9,0,0,0-1.416,1.9,28.134,28.134,0,0,0-2.311,5.18,17.664,17.664,0,0,1-2.385,3.5c-1.118,1.267-2.348,2.422-2.981,3.093a23.328,23.328,0,0,1-1.9,1.938c-.186.224-2.2,1.379-2.385,1.9s0,0,0,.261S54.827,40.985,54.864,40.985Z" transform="translate(148.704 61.762)" fill="#d94e4e"/>
      <path id="Path_13750" data-name="Path 13750" d="M113.91,49.581v.447a.335.335,0,0,0,.373,0,12.521,12.521,0,0,1,6.186-1.081,3.391,3.391,0,0,1,2.348,2.2,5.739,5.739,0,0,1,.224,2.012c-.41,3.019-3.317,5.553-5.851,7.938a46.584,46.584,0,0,1-8.758,6.074A60.934,60.934,0,0,1,99,71.084a21.468,21.468,0,0,1-4.584.969,5.254,5.254,0,0,1-1.9,0c-.447,0-.484-.261-.634-.634a3.391,3.391,0,0,1,.745-2.348,18.632,18.632,0,0,1,2.236-2.758,72.445,72.445,0,0,1,5.59-5.031c3.95-3.242,8.05-6.447,12-9.764l1.6-1.193a.335.335,0,0,0,0-.41l-.149-.335h0a8.646,8.646,0,0,0-1.975.894,65.964,65.964,0,0,0-7.9,4.1,49.49,49.49,0,0,0-9.018,6.894,29.813,29.813,0,0,0-3.727,4.472,11.889,11.889,0,0,0-1.491,2.72,4.919,4.919,0,0,0,0,3.727,3.391,3.391,0,0,0,1.453,1.677,5.59,5.59,0,0,0,2.161.522,15.763,15.763,0,0,0,4.286-.559,64.843,64.843,0,0,0,8.758-3.279A43.714,43.714,0,0,0,120.543,61.1a23.815,23.815,0,0,0,3.242-4.323,7.453,7.453,0,0,0,.82-5.515,5.292,5.292,0,0,0-1.006-2.087,4.882,4.882,0,0,0-3.727-1.752,9.689,9.689,0,0,0-5.963,2.161Z" transform="translate(243.793 129.301)" fill="#d94e4e"/>
      <path id="Path_13751" data-name="Path 13751" d="M92.221,68.507a7.155,7.155,0,0,0,4.062.261,22.062,22.062,0,0,0,7.453-4.174,49.489,49.489,0,0,0,10.77-10.509,35.443,35.443,0,0,0,2.5-3.95,7.454,7.454,0,0,0,.894-4.77,5.962,5.962,0,0,0-.745-1.938,4.136,4.136,0,0,0-3.056-1.752,7.453,7.453,0,0,0-5.143,1.752V43.8c0,.373.224.186.335,0a9.317,9.317,0,0,1,5.329-.894c2.2.671,2.087,3.466,1.975,3.727a21.8,21.8,0,0,1-4.807,7.453,54,54,0,0,1-6.708,6.671,39.391,39.391,0,0,1-7.453,5.068,7.081,7.081,0,0,1-3.727.671c-1.081-.224-1.6-.671-1.752-1.6a8.385,8.385,0,0,1,1.64-5.4c1.23-1.752,2.683-3.54,4.137-5.217a91.233,91.233,0,0,1,9.54-9.428c.634-.484,1.155-.857,1.379-1.081a.224.224,0,0,0,0-.335.219.219,0,0,0-.224-.224h0a8.05,8.05,0,0,0-1.751.82A33.54,33.54,0,0,0,93.153,55.2a12.6,12.6,0,0,0-3.2,10.025,3.95,3.95,0,0,0,2.273,3.279Z" transform="translate(244.947 113.617)" fill="#d94e4e"/>
      <path id="Path_13752" data-name="Path 13752" d="M92.089,60.672a11.7,11.7,0,0,0,9.018-1.342,60.708,60.708,0,0,0,12.223-9.279,53.22,53.22,0,0,0,6.112-7.453,7.118,7.118,0,0,0,.82-1.863,3.727,3.727,0,0,0-.969-3.5,6.112,6.112,0,0,0-5.553-.82c-.186,0-.186,0-.186.335s0,.3.261.3h2.273a3.727,3.727,0,0,1,2.683,1.453,2.8,2.8,0,0,1-.261,2.832,9.725,9.725,0,0,1-1.155,1.64,75.649,75.649,0,0,1-14.608,12.671,14.012,14.012,0,0,1-8.161,3.093A3.727,3.727,0,0,1,91.6,57.5a3.726,3.726,0,0,1,0-2.944,22.361,22.361,0,0,1,3.727-5.441,38.119,38.119,0,0,1,4.7-4.435,43.415,43.415,0,0,1,11.627-6.894,13.9,13.9,0,0,0,1.677-.559.335.335,0,0,0,0-.373.261.261,0,0,0,0-.261h0a7.454,7.454,0,0,0-1.975.186A25.27,25.27,0,0,0,95.033,45.1a27.167,27.167,0,0,0-5.627,8.944,7.229,7.229,0,0,0-.261,3.354A4.435,4.435,0,0,0,92.089,60.672Z" transform="translate(242.769 98.384)" fill="#d94e4e"/>
      <path id="Path_13753" data-name="Path 13753" d="M92.1,44.329a16.658,16.658,0,0,0-1.565,5.553,12.521,12.521,0,0,0,.932,5.739,7.453,7.453,0,0,0,2.124,2.87,5.292,5.292,0,0,0,4.509.671,21.168,21.168,0,0,0,7.826-5.068,60,60,0,0,0,10.248-12.484,11.515,11.515,0,0,0,1.379-9.987,6.559,6.559,0,0,0-4.137-3.727,5.59,5.59,0,0,0-3.727.522,6.186,6.186,0,0,0-1.826,1.3.3.3,0,0,0,0,.41.335.335,0,0,0,.373,0c.708,0,3.317-2.012,5.515-.82a5.851,5.851,0,0,1,2.869,4.36,14.31,14.31,0,0,1-3.317,8.683,73.752,73.752,0,0,1-6.522,7.863,31.861,31.861,0,0,1-7.453,6.112,5.515,5.515,0,0,1-3.727.745,3.354,3.354,0,0,1-1.975-2.348,13.9,13.9,0,0,1,3.2-12.3A85.715,85.715,0,0,1,106.3,31.622a10.809,10.809,0,0,0,1.379-1.23.335.335,0,0,0,0-.41s0-.186-.261-.186h0A8.721,8.721,0,0,0,105.59,30.8a38.572,38.572,0,0,0-6.932,4.845A25.788,25.788,0,0,0,92.1,44.329Z" transform="translate(246.709 75.746)" fill="#d94e4e"/>
      <path id="Path_13754" data-name="Path 13754" d="M101.563,59.725a5.776,5.776,0,0,0,5.4,2.012,10.584,10.584,0,0,0,5.7-3.727,24.409,24.409,0,0,0,4.472-7.267,23.292,23.292,0,0,0,.708-14.907,9.242,9.242,0,0,0-6.3-6.857,5.292,5.292,0,0,0-2.012,0,5.85,5.85,0,0,0-3.019,1.528,9.5,9.5,0,0,0-2.646,4.7.326.326,0,0,0,.224.3.261.261,0,0,0,.335,0,14.906,14.906,0,0,1,3.466-4.435,4.286,4.286,0,0,1,4.621-.186,10.323,10.323,0,0,1,3.727,7.453,21.8,21.8,0,0,1-.3,9.056,22.359,22.359,0,0,1-3.727,7.938,10.1,10.1,0,0,1-5.814,4.323,3.5,3.5,0,0,1-3.727-2.758,17.925,17.925,0,0,1-.522-6.335,127.937,127.937,0,0,1,1.6-13.23,6.38,6.38,0,0,1,.41-1.64.335.335,0,0,0-.224-.3h-.3a7.714,7.714,0,0,0-.783,1.714,38.16,38.16,0,0,0-2.72,7.453,26.087,26.087,0,0,0-.745,10.1,10.21,10.21,0,0,0,2.161,5.068Z" transform="translate(270.45 78.76)" fill="#d94e4e"/>
      <path id="Path_13755" data-name="Path 13755" d="M100.736,68.527a7.453,7.453,0,0,0,7.155,0,27.726,27.726,0,0,0,6.969-5.292,30.335,30.335,0,0,0,7.826-13.118,19.6,19.6,0,0,0,.708-4.733,7.453,7.453,0,0,0-1.6-4.7,6.41,6.41,0,0,0-1.565-1.342,5.106,5.106,0,0,0-3.466-.484,8.832,8.832,0,0,0-4.77,2.758v.373a.261.261,0,0,0,.335,0,12.074,12.074,0,0,1,5.292-2.087,4.062,4.062,0,0,1,3.727,2.72h0a13.491,13.491,0,0,1-1.23,8.683,29.554,29.554,0,0,1-4.733,8.124,27.615,27.615,0,0,1-6.745,6c-2.348,1.6-5.18,2.2-6.671,1.006s-1.006-2.907-.373-4.919a35.737,35.737,0,0,1,2.571-6.074c2.087-4.025,4.4-7.975,6.82-11.851l1.043-1.342a.3.3,0,0,0,0-.373h-.261a6.745,6.745,0,0,0-1.491,1.267,40.247,40.247,0,0,0-5.4,5.851,33.277,33.277,0,0,0-4.919,8.869,18.635,18.635,0,0,0-1.267,5.217,7.9,7.9,0,0,0,.261,2.907,4.211,4.211,0,0,0,1.789,2.534Z" transform="translate(268.929 105.66)" fill="#d94e4e"/>
      <path id="Path_13756" data-name="Path 13756" d="M120.117,27.822h0A36.335,36.335,0,0,1,132.08,32.89a37.528,37.528,0,0,0,7.975,5.553,1.938,1.938,0,0,0,.559.335.522.522,0,0,0,.335,0s.186-.186.186-.224h0a1.342,1.342,0,0,0-.3-.634,11.18,11.18,0,0,0-1.379-2.72,13.266,13.266,0,0,0-6.037-4.248c-1.118-.484-2.981-1.565-4.956-2.385a26.907,26.907,0,0,0-5.292-1.752l-3.391-.3c-.373,0-3.279-.484-3.727,0s0,0,0,.373a.522.522,0,0,0,0,.335,31.455,31.455,0,0,0,4.062.6Z" transform="translate(315.845 71.72)" fill="#d94e4e"/>
      <path id="Path_13757" data-name="Path 13757" d="M118.338,43.032c2.72,3.354,6.522,6.522,8.832,9.391a18.633,18.633,0,0,0,7.453,6.223,1.342,1.342,0,0,0,.559.3l.3-.186v-.224h0a1.49,1.49,0,0,0-.335-.634,14.644,14.644,0,0,0-1.267-2.534,18.633,18.633,0,0,0-5.031-4.658c-1.752-1.3-5.7-5.627-7.453-7.081l-2.534-1.938c-.3-.224-2.161-2.273-2.795-2.311l-.3.186c-.3.186,0,.224,0,.3s2.348,2.907,2.646,3.2Z" transform="translate(315.239 107.379)" fill="#d94e4e"/>
      <path id="Path_13758" data-name="Path 13758" d="M108.29,69.5c0,.224-1.64,1.752-1.64,2.236h.224a13.155,13.155,0,0,0,2.348-2.161h0c2.46-2.236,4.77-5.255,6.857-7.118a14.348,14.348,0,0,0,4.509-5.851,1.044,1.044,0,0,0,0-.447h0a1.49,1.49,0,0,0-.447.261,18.185,18.185,0,0,0-1.9,1.081,13.938,13.938,0,0,0-3.354,4.025c-.969,1.416-4.1,4.584-5.143,5.963Z" transform="translate(290.741 153.132)" fill="#d94e4e"/>
      <path id="Path_13759" data-name="Path 13759" d="M90.635,67.356h0c1.789,2.161,4.248,4.211,5.776,6.037a12.149,12.149,0,0,0,4.77,3.988h.373a.633.633,0,0,0-.224-.41,11.177,11.177,0,0,0-.82-1.64,12.708,12.708,0,0,0-3.317-2.981c-1.118-.82-3.727-3.727-4.845-4.509l-1.677-1.267s-1.379-1.453-1.789-1.453h0A10.547,10.547,0,0,0,90.635,67.356Z" transform="translate(241.801 177.563)" fill="#d94e4e"/>
      <path id="Path_13760" data-name="Path 13760" d="M100.841,13.642a36.074,36.074,0,0,0,7.453,1.64.969.969,0,0,0,.522,0v-.41h0a1.043,1.043,0,0,0-.41-.41,10.4,10.4,0,0,0-1.789-1.6,10.323,10.323,0,0,0-5.441-1.379,32.85,32.85,0,0,0-4.323,0A17.7,17.7,0,0,0,92.531,12a20.349,20.349,0,0,0-2.5.969c-.261,0-2.5.783-2.683,1.267s0,0,0,.3h0a20.608,20.608,0,0,0,3.242-.82h0a25.006,25.006,0,0,1,10.248-.075Z" transform="translate(237.893 31.081)" fill="#d94e4e"/>
      <path id="Path_13761" data-name="Path 13761" d="M104.662,31.8a10.361,10.361,0,0,0,3.242-1.714h0A30.932,30.932,0,0,0,115.879,22a11.18,11.18,0,0,0,2.8-8.012,1.193,1.193,0,0,0,0-.522.522.522,0,0,0-.261,0h-.373a1.342,1.342,0,0,0-.335.484,20.917,20.917,0,0,0-1.416,1.9,30.857,30.857,0,0,0-2.311,5.18,17.669,17.669,0,0,1-2.385,3.5c-1.081,1.267-2.311,2.422-2.981,3.093a22.868,22.868,0,0,1-1.863,1.938c0,.224-2.236,1.379-2.422,1.9a.968.968,0,0,0,0,.261S104.625,31.8,104.662,31.8Z" transform="translate(284.382 36.665)" fill="#d94e4e"/>
      <path id="Path_13762" data-name="Path 13762" d="M473.914,45.207a112.246,112.246,0,0,0-33.54-28.36A132.594,132.594,0,0,0,407.654,4.1a151.375,151.375,0,0,0-55.415-2.721A202.693,202.693,0,0,0,298.65,16.288,253.821,253.821,0,0,0,245.508,46.1h0a132.633,132.633,0,0,0-22.993-7.863,150.78,150.78,0,0,0-55.564-2.758A203.847,203.847,0,0,0,113.4,50.387,252.778,252.778,0,0,0,60.22,80.2,204.976,204.976,0,0,0,44.344,93.467,182.266,182.266,0,0,0,31.3,107.181a122.979,122.979,0,0,0-14.422,20.646c-.969,1.752-1.081,2.2-.82,2.311s.894-.708,1.677-1.9a153.911,153.911,0,0,1,16.919-22.36,187.673,187.673,0,0,1,34.36-29.44,258.443,258.443,0,0,1,39.018-21.615,224.5,224.5,0,0,1,24.074-9.168,181.786,181.786,0,0,1,55.9-8.758,139.9,139.9,0,0,1,56.2,12.186A120.741,120.741,0,0,1,268.986,64.25a109.936,109.936,0,0,1,19.9,21.056,134.569,134.569,0,0,1,22.36,53.067,164.867,164.867,0,0,1-17.478,108.594,153.091,153.091,0,0,1-73.378,67.564,157.711,157.711,0,0,1-80.458,12.559,147.092,147.092,0,0,1-39.689-10.546A171.428,171.428,0,0,1,64.58,295.973,164.606,164.606,0,0,1,13.227,232.4,126.706,126.706,0,0,1,2.978,192.707a108.445,108.445,0,0,1,4.435-40.732,120.074,120.074,0,0,1,8.05-19.416c.6-1.267.969-2.273.745-2.422s-.447,0-.969.932h0l-.522.857a105.314,105.314,0,0,0-9.279,21.13,110.644,110.644,0,0,0-4.7,46.881,117.986,117.986,0,0,0,5.105,23.217,130.061,130.061,0,0,0,9.019,21.95,161.4,161.4,0,0,0,37.266,46.769,167.327,167.327,0,0,0,52.173,31.155,147.65,147.65,0,0,0,59.626,8.981,163.674,163.674,0,0,0,57.949-14.2,166.882,166.882,0,0,0,29.552-17.329,154.022,154.022,0,0,0,21.428-19.118,159.976,159.976,0,0,0,16.77,7.453,147.463,147.463,0,0,0,59.626,8.981,163.487,163.487,0,0,0,57.912-14.2,165.571,165.571,0,0,0,29.552-17.329,152.159,152.159,0,0,0,30.894-30.26,169.562,169.562,0,0,0,34.621-94.4C504.249,106.286,493.777,70.1,473.914,45.207ZM313,204.446h0a13.3,13.3,0,0,0,7.043-2.981,28.732,28.732,0,0,0,6.373-7.453,35.217,35.217,0,0,0,5.925-15.838,10.211,10.211,0,0,0-1.155-5.4,5.7,5.7,0,0,0-4.77-2.87,8.273,8.273,0,0,0-5.627,1.9,13.155,13.155,0,0,0-3.727,4.733v.41a.335.335,0,0,0,.41,0,28.322,28.322,0,0,1,4.658-4.547,6.894,6.894,0,0,1,3.466-1.006,4.323,4.323,0,0,1,1.975.373c2.683,1.267,2.907,5.143,2.2,8.348a38.83,38.83,0,0,1-3.727,9.764,31.6,31.6,0,0,1-5.59,8.31,11.776,11.776,0,0,1-6.857,3.727h0a168.257,168.257,0,0,0,3.13-23.888v.969a9.35,9.35,0,0,0,.82-1.491.3.3,0,0,0,0-.373h-.335v-1.342a157.639,157.639,0,0,0-1.975-34.583s0,0,0,.261l1.565-2.758,1.453-2.012a.41.41,0,0,0,0-.522s-.261-.261-.373-.224h0a10.062,10.062,0,0,0-2.124,1.9l-.745.783a149.626,149.626,0,0,0-10.36-33.54,21.018,21.018,0,0,0,2.832-2.571h0c3.429-2.87,6.633-6.857,9.54-9.279a19.491,19.491,0,0,0,5.627-7.528,2.832,2.832,0,0,0,.3-.559l-.224-.3a.485.485,0,0,0-.224-.186h0a.674.674,0,0,0-.634.335,15.8,15.8,0,0,0-2.609,1.379,19.827,19.827,0,0,0-4.7,5.255c-1.3,1.863-5.7,6-7.118,7.826l-1.975,2.646s-1.267,1.267-1.9,2.087a119.775,119.775,0,0,0-14.907-24.782,111.2,111.2,0,0,0-31.006-26.906c1.342-.969,2.646-1.975,4.025-2.907a238.054,238.054,0,0,1,36.111-19.788,214.613,214.613,0,0,1,22.36-8.5,168.592,168.592,0,0,1,51.838-8.236,128.867,128.867,0,0,1,52.173,11.18,111.537,111.537,0,0,1,22.993,14.161A100.62,100.62,0,0,1,465.79,57.952a123.837,123.837,0,0,1,20.571,49.192A152.793,152.793,0,0,1,470.15,207.763a141.8,141.8,0,0,1-68.011,62.645,146.2,146.2,0,0,1-74.533,11.627,135.91,135.91,0,0,1-36.968-9.689c-2.46-1.043-4.882-2.161-7.453-3.354a5.486,5.486,0,0,1-.373.484A167.7,167.7,0,0,0,313,204.446Zm166.357,8.236a153.389,153.389,0,0,1-73.527,67.564A157.525,157.525,0,0,1,325.407,292.8a147.091,147.091,0,0,1-39.689-10.546c-3.279-1.342-6.484-2.87-9.652-4.435,1.491-1.714,2.944-3.5,4.4-5.329a138.407,138.407,0,0,0,69.017,14.161A150.444,150.444,0,0,0,403.22,273.5a153.167,153.167,0,0,0,27.391-16.062,140.719,140.719,0,0,0,28.621-28.062,157.19,157.19,0,0,0,32.012-87.427c1.863-32.757-7.863-66.3-26.273-89.439A103.974,103.974,0,0,0,433.964,26.2a121.153,121.153,0,0,0-30.3-11.813,139.377,139.377,0,0,0-51.5-2.46,189.573,189.573,0,0,0-49.676,13.751,239.028,239.028,0,0,0-46.732,26.087l1.416.82-2.161-1.267c-2.571-1.416-5.143-2.72-7.677-3.913,2.348-1.714,4.7-3.466,7.118-5.106a256.913,256.913,0,0,1,39.167-21.764,221.848,221.848,0,0,1,24.037-9.167,181.823,181.823,0,0,1,55.9-8.758,139.9,139.9,0,0,1,56.272,12.3A120.968,120.968,0,0,1,454.61,29.816a108.072,108.072,0,0,1,19.9,21.093,133.488,133.488,0,0,1,22.36,53.067,164.867,164.867,0,0,1-17.664,108.706Z" transform="translate(-0.015 0.001)" fill="#d94e4e"/>
      <path id="Path_13763" data-name="Path 13763" d="M86.62,40.219a15.28,15.28,0,0,1,7.453-3.093A5.031,5.031,0,0,1,97.8,38.915a5.142,5.142,0,0,1,.82,2.311,25.378,25.378,0,0,1-1.006,6.41,51.28,51.28,0,0,1-2.236,6.484,45.055,45.055,0,0,1-7.453,11.553c-.932,1.043-1.975,1.975-2.944,2.944v4.137c.634-.559,1.267-1.118,1.863-1.714a48.446,48.446,0,0,0,7.975-9.8,40.993,40.993,0,0,0,4.062-8.869,42.7,42.7,0,0,0,1.453-6.745,11.4,11.4,0,0,0-.373-7.155,5.851,5.851,0,0,0-2.161-2.2,7.677,7.677,0,0,0-5.031-.894,11.627,11.627,0,0,0-6.82,4.174v.559a.41.41,0,0,0,.671.112Z" transform="translate(231.655 96.179)" fill="#d94e4e"/>
    </g>
  </g>
</svg>
