<svg xmlns="http://www.w3.org/2000/svg" width="310.486" height="403.142" viewBox="0 0 310.486 403.142">
  <g id="sticks" transform="translate(-0.01 0.002)">
    <g id="POST_3" data-name="POST 3" transform="translate(0.01 -0.002)">
      <path id="Path_13722" data-name="Path 13722" d="M219.17,1.267h0a.152.152,0,0,0-.076-.114.127.127,0,0,0-.152,0,1.722,1.722,0,0,0-.392.7,3.988,3.988,0,0,0,.266,3.051,8.407,8.407,0,0,0,1.735,2.532,11.015,11.015,0,0,0,5.153,2.988,7.052,7.052,0,0,0,1.823.215,3.532,3.532,0,0,0,1.988-.62,2.532,2.532,0,0,0,.734-.874,2.925,2.925,0,0,0,.266-1.114,4.736,4.736,0,0,0-.468-2.1,11.078,11.078,0,0,0-6.09-5.394h0A7.432,7.432,0,0,0,221.423,0,3.558,3.558,0,0,0,219.79.33a1.722,1.722,0,0,0-.8.7.089.089,0,0,0,0,.139h.152a3.077,3.077,0,0,1,1.912-.671,6.242,6.242,0,0,1,1.975.3,10.762,10.762,0,0,1,3.191,1.861,13.409,13.409,0,0,1,1.836,1.811,6.685,6.685,0,0,1,1.481,2.887,2.152,2.152,0,0,1-.1,1.507,1.735,1.735,0,0,1-1.1.772,4.457,4.457,0,0,1-2.368-.152,13.079,13.079,0,0,1-6-4.7,4.52,4.52,0,0,1-1.026-2.747,3.57,3.57,0,0,1,.228-.772Z" transform="translate(58.093 0.002)" fill="#d94e4e"/>
      <path id="Path_13723" data-name="Path 13723" d="M285.405,10.062h0c.557-.8.633-1.026.544-1.1s-.81.658-1.646,1.7c-2.178,2.7-6.571,8.306-12.344,15.7C207.185,108.324,142.488,192.368,78.676,275.272l-65.8,85.31c-.076.089-.114.114-.317.152a1.873,1.873,0,0,1-.734,0,4.875,4.875,0,0,1-1.747-.823,5.532,5.532,0,0,1-1.456-1.469,2.431,2.431,0,0,1-.355-.836v-.469c56.709-75.308,123.7-164.061,184.294-244.965l-.228.3c8.255-10.952,72.029-95.654,82.018-109.429A7.425,7.425,0,0,0,275.618.984c-.076-.1-.43.19-1.583,1.659-9.61,12.167-64.419,85.133-71.282,94.173l-63.2,83.36L6.9,356.1a2.127,2.127,0,0,0-.392,1,2.862,2.862,0,0,0,0,.95,4.609,4.609,0,0,0,.671,1.469,7.52,7.52,0,0,0,2.038,1.975,6.6,6.6,0,0,0,2.418,1,3.621,3.621,0,0,0,1.329,0,2.076,2.076,0,0,0,1.266-.76l66.052-85.221C125.61,218.272,173.3,157.309,218.1,98.651q26.879-35.223,53.657-70.573c6.179-8.065,10.964-14.332,13.117-17.244Z" transform="translate(1.708 0.259)" fill="#d94e4e"/>
      <path id="Path_13724" data-name="Path 13724" d="M224.7,14.957h0v-.2c0-.051-.177,0-.279.127s-.785.924-1.443,1.76c-7.66,9.1-14.788,18.827-21.828,28.411-8.052,11.015-19.27,25.6-28.8,38.616h0c-.937,1.266-8.179,10.876-9.2,12.534-.076.127-.114.253,0,.3s.139,0,.279-.114c1.266-1.266,7.407-9.622,8.2-10.635l7.293-9.394c5.14-6.66,18.143-24.17,23.157-30.589,5.153-6.622,10.648-13.509,15.484-20.359q2.9-4.115,5.723-8.306c.684-.937,1.19-1.671,1.405-2.038a.316.316,0,0,0,.013-.114Z" transform="translate(43.381 3.923)" fill="#d94e4e"/>
      <path id="Path_13725" data-name="Path 13725" d="M139.818,146.061h0c.1-.165.1-.228,0-.279s-.228.089-.405.291c-.468.544-1.38,1.7-2.532,3.2-13.649,16.637-26.879,33.995-39.933,51.1C81.995,220.026,61.5,246.26,43.771,269.493h0c-1.722,2.228-15.067,19.5-17.067,22.372-.165.228-.253.43-.19.481s.165,0,.405-.279c2.1-2.406,13.547-17.308,14.991-19.143l13.307-16.915c9.394-12,33.425-43.3,42.554-54.885,9.394-11.939,19.321-24.385,28.411-36.565q5.457-7.293,10.838-14.674c1.266-1.671,2.228-2.975,2.646-3.583Z" transform="translate(7.037 38.793)" fill="#d94e4e"/>
      <path id="Path_13726" data-name="Path 13726" d="M236.974,52.73h0a.177.177,0,0,0-.063-.114.1.1,0,0,0-.152,0,1.608,1.608,0,0,0-.456.646,4.1,4.1,0,0,0,0,3.077,8.382,8.382,0,0,0,1.507,2.634,11.066,11.066,0,0,0,4.862,3.444,7.3,7.3,0,0,0,1.8.367,3.393,3.393,0,0,0,2.026-.443,2.292,2.292,0,0,0,.823-.81,2.772,2.772,0,0,0,.355-1.076,4.672,4.672,0,0,0-.279-2.152,11.053,11.053,0,0,0-5.583-5.887h0a7.6,7.6,0,0,0-2.418-.747,3.608,3.608,0,0,0-1.671.177,1.772,1.772,0,0,0-.848.62.1.1,0,0,0,0,.152.127.127,0,0,0,.152,0,3.152,3.152,0,0,1,1.962-.506,6.812,6.812,0,0,1,1.95.481,11.4,11.4,0,0,1,3,2.14,12.661,12.661,0,0,1,1.671,1.975,6.609,6.609,0,0,1,1.266,3,2.076,2.076,0,0,1-.342,1.431,1.735,1.735,0,0,1-1.152.684,4.419,4.419,0,0,1-2.355-.38,13.129,13.129,0,0,1-5.558-5.2,4.558,4.558,0,0,1-.772-2.823,3.8,3.8,0,0,1,.279-.684Z" transform="translate(62.788 13.743)" fill="#d94e4e"/>
      <path id="Path_13727" data-name="Path 13727" d="M308.774,62.4h0c.62-.747.722-.962.633-1.051s-.861.582-1.785,1.545c-2.406,2.532-7.293,7.685-13.7,14.535-71.915,75.9-143.778,153.844-214.731,230.722L6.075,387.258c-.076.076-.127.1-.329.127a1.976,1.976,0,0,1-.722-.1,4.848,4.848,0,0,1-1.671-.975,5.483,5.483,0,0,1-1.266-1.6,2.532,2.532,0,0,1-.279-.874.494.494,0,0,1,.089-.456C65,313.431,139.623,231,207.195,155.827l-.241.279c9.192-10.129,80.258-88.855,91.451-101.681.874-1.026,1.507-1.836,1.393-1.95s-.456.152-1.735,1.519c-10.648,11.256-71.75,79.043-79.385,87.437l-70.4,77.4L.529,382.231a2.165,2.165,0,0,0-.481.962,3.026,3.026,0,0,0,0,.95,4.71,4.71,0,0,0,.544,1.519,7.293,7.293,0,0,0,1.849,2.14,6.331,6.331,0,0,0,2.33,1.266,3.316,3.316,0,0,0,1.266.089,2.14,2.14,0,0,0,1.266-.646l73.358-78.967c50.353-53.961,103.276-110.429,153.122-164.859q29.931-32.7,59.722-65.508c6.875-7.483,12.193-13.307,14.6-16.016Z" transform="translate(-0.01 13.96)" fill="#d94e4e"/>
      <path id="Path_13728" data-name="Path 13728" d="M242.744,65.747h0v-.2c0-.051-.177,0-.291.1s-.861.848-1.6,1.621c-8.445,8.382-16.459,17.447-24.284,26.36-8.989,10.255-21.524,23.777-32.121,35.894h0c-1.051,1.165-9.116,10.129-10.281,11.673-.089.127-.139.241-.076.3s.139,0,.291-.089c1.266-1.177,8.242-8.926,9.116-9.863l8.116-8.711c5.71-6.179,20.258-22.448,25.79-28.4s11.8-12.509,17.232-18.9q3.267-3.8,6.444-7.761c.76-.874,1.266-1.557,1.57-1.9Z" transform="translate(46.307 17.439)" fill="#d94e4e"/>
      <path id="Path_13729" data-name="Path 13729" d="M147.762,187.821h0c.114-.165.127-.228.076-.279s-.241.063-.443.253c-.506.506-1.519,1.557-2.849,2.963-15.092,15.345-29.8,31.463-44.314,47.34-16.675,18.232-39.452,42.528-59.2,64.09h.063c-1.924,2.064-16.751,18.08-18.992,20.764-.177.215-.291.392-.228.456s.152,0,.43-.241c2.317-2.216,15.029-16.029,16.637-17.725l14.75-15.725c10.42-11.1,37.147-40.148,47.276-50.872,10.42-11.04,21.422-22.562,31.564-33.881q6.077-6.786,12.091-13.649c1.405-1.545,2.532-2.76,2.963-3.343Z" transform="translate(5.803 49.905)" fill="#d94e4e"/>
    </g>
  </g>
</svg>
