<svg xmlns="http://www.w3.org/2000/svg" viewBox="0 0 363.42 342.26"><defs><style>.cls-1{fill:#282828;}</style></defs><g id="Layer_2" data-name="Layer 2"><g id="POST_1" data-name="POST 1"><path class="cls-1" d="M298.91,144.41l.25.11h0Z"/><path class="cls-1" d="M302.36,138.75l.26.11h0Z"/><path class="cls-1" d="M234.64,160.56a14.15,14.15,0,0,0-9.13,4.9,24.44,24.44,0,0,0-4.8,8.88c-1,3.16-1.67,6.28-2.43,9.39-2.27,10-4.22,20.13-4.1,30.41a46.17,46.17,0,0,0,.52,7.5c0,.11,0,.23.05.32h0c.06.27.12.34.2.37s.18.18.76.24a94.92,94.92,0,0,1,20.49,3.65,91,91,0,0,1,18.07,7.89c2,1.22,4,2.54,5.92,3.91l-.11,0-1.49.57c-1.27.48-2.52,1-3.82,1.34a71.5,71.5,0,0,1-15.62,3.12h.11a73.65,73.65,0,0,1-19.76-1A76.45,76.45,0,0,1,200,235.48c-.36-.16-.66-.25-.72-.14s0,.21.51.48a56.43,56.43,0,0,0,6.28,3.08,71.4,71.4,0,0,0,10.59,3.38,77.3,77.3,0,0,0,17.05,1.92,72.68,72.68,0,0,0,15.55-1.62l3.81-.93,3.75-1.14,1.84-.68.65-.23c.11,0,.33-.19.34,0l.16,3.22a102.16,102.16,0,0,1-1.44,21.78,80.31,80.31,0,0,1-4.69,16.3c-.74,1-1.72,2.38-2.79,3.64a31.62,31.62,0,0,1-4.39,4.36,20.14,20.14,0,0,1-10.15,4.31,29.63,29.63,0,0,1-7.88-.18,89.16,89.16,0,0,1-10.08-2.25,164.62,164.62,0,0,1-17.27-5.66c-3.72-1.48-7.46-3.13-11.16-4.87a43.63,43.63,0,0,1-10.2-6.24,14.26,14.26,0,0,1-4.92-7.76,11.84,11.84,0,0,1-.17-1.73c.91-1.27,1.85-2.52,2.76-3.76a247.32,247.32,0,0,1,17.08-20c2.08-2.19,3.69-3.91,4.39-4.73l.18-.22h0c.18-.23.18-.32.12-.38s-.34.09-.63.36l-4.23,4.19A217.09,217.09,0,0,0,178.27,257c-2.49,3.06-4.93,6.1-7.17,9.42s-4.09,7.22-3.84,11.54a13.55,13.55,0,0,0,1.89,6,19.09,19.09,0,0,0,4.06,4.65,42.85,42.85,0,0,0,10.32,6.09,183.78,183.78,0,0,0,22,8.21c4.31,1.28,8.8,2.53,13.58,3.52s10,1.43,15.09-.35,9.15-5.58,12.38-9.85a67.52,67.52,0,0,0,8-14.17,88.24,88.24,0,0,0,6.49-32.44c.06-2.77,0-5.54-.16-8.29l-.17-2.52,0-.34a80.94,80.94,0,0,1,19.63,19.88c1,1.28,1.8,2.74,2.85,4.41l1.24,2,.15.25.16-.22.33-.44.65-.9,2.11-2.85c2.59-3.43,5.56-7.17,8.73-11.16s6.55-8.23,9.83-12.76,6.66-9.3,8.42-14.95a19.25,19.25,0,0,0,.71-8.76,19.47,19.47,0,0,0-3.32-8c-3.28-4.7-7.69-8.05-11.8-11-8.27-5.84-15.75-10.49-21.08-13.66a285.76,285.76,0,0,0-34.74-17.65C241.61,161.39,238.25,160.24,234.64,160.56Zm14,130.36a38.76,38.76,0,0,1-9.29,10.88,19.74,19.74,0,0,1-12.45,4.11,48.76,48.76,0,0,1-11.74-1.85c-3.52-.91-6.6-1.82-9.14-2.62-5.21-1.66-10.42-3.57-15.55-5.73s-10.37-4.33-14.73-7.6a17.77,17.77,0,0,1-5.27-5.91,11.27,11.27,0,0,1-1-7.52c.76-3.5,2.69-6.65,4.85-9.68,0,.33,0,.69.05,1.1A13.45,13.45,0,0,0,178,274a28,28,0,0,0,6.93,5.32,121.71,121.71,0,0,0,15.78,6.84,210.79,210.79,0,0,0,21.19,6.51,45.1,45.1,0,0,0,12,1.64,20.23,20.23,0,0,0,11.33-3.72l0,0a28.55,28.55,0,0,0,5.46-4.93c.74-.85,1.43-1.74,2-2.57A66.14,66.14,0,0,1,248.64,290.92Zm32-34.73c-.92-1.32-1.94-2.56-3-3.77s-2.05-2.45-3.17-3.58a84.12,84.12,0,0,0-14.19-12.1,89,89,0,0,0-20.8-10.42,81.4,81.4,0,0,0-14.5-3.51c-2.32-.32-4.37-.49-6-.59a1.15,1.15,0,0,0,0-.21c0-.76-.12-2.31-.1-4.37.46-11.46,4.24-22.51,7.29-33.66a28.47,28.47,0,0,1,3.33-7.64,13.26,13.26,0,0,1,6-5.11,11.66,11.66,0,0,1,7.83.19c2.65.85,5.32,2.05,8,3.16a233.21,233.21,0,0,1,39.17,21.48,90.47,90.47,0,0,1,9.68,7.22c2.94,2.68,5.56,5.86,6.65,9.63a17.1,17.1,0,0,1-1,11.41,55.23,55.23,0,0,1-5.91,10.15l0-.06c-1.45,2.55-15.54,19.85-17.9,23.79Zm-2.1-74.37c4.47,2.57,9.07,5.38,13.74,8.43s9.52,6.21,13.86,10.08,8.07,8.9,8.2,14.89-2.94,11.63-6.41,16.76-7.46,10.21-11.43,15.22l-6,7.54-2.93,3.81-2.52,3.4c-.11.11-.25.42-.33.38l-.22-.35-1.16-1.83c-.3-.52-.65-1-1-1.51,2.32-3,14.57-18.27,16-20.33a107.33,107.33,0,0,0,6.61-9.51,25.14,25.14,0,0,0,3.83-11.06,15.92,15.92,0,0,0-1.35-7.34,23.75,23.75,0,0,0-5.48-7.47,66.14,66.14,0,0,0-8.15-6.39c-2.93-2-6-4.06-9.07-6A269,269,0,0,0,252,173c-3.75-1.57-7.37-3.65-11.8-4.29a11.54,11.54,0,0,0-6.6,1.08,15.32,15.32,0,0,0-5.13,4.24c-2.76,3.52-4.05,7.77-5.1,11.76s-2.16,8-3,12a76.87,76.87,0,0,0-2.17,19.52,29.7,29.7,0,0,0,.38,4.78.36.36,0,0,0,0,.11c-1.22-.06-2.19-.08-2.81-.08a1.84,1.84,0,0,0-.68.09,1.94,1.94,0,0,0,.07-.68c-.08-1.19-.29-3.63-.23-6.85.34-9,2.15-17.85,4.31-26.62,1.13-4.35,2.18-8.85,3.55-13.05s3.64-8.09,7.19-10.4a10.53,10.53,0,0,1,5.8-1.8,18.07,18.07,0,0,1,6.25,1.25c4.14,1.56,8.33,3.47,12.42,5.33Q266.78,175.08,278.51,181.82Z"/><path class="cls-1" d="M260.19,236.67l.09.07h0Z"/><path class="cls-1" d="M150.67,249.29a6.08,6.08,0,0,0-.69,2.4c0,.05.05.1.16.12s.17,0,.21,0c.18-.23.45-1.09.85-1.87a10.08,10.08,0,0,1,1-1.65,11.14,11.14,0,0,1,2.63-2.27,11.92,11.92,0,0,1,5.17-1.93,8.73,8.73,0,0,1,5.25,1.18,15.34,15.34,0,0,1,4.72,5.38,15,15,0,0,1,1.21,2.69,3.14,3.14,0,0,0,.17.73l0,0h0s.08,0,.17,0,.16,0,.18-.09a2.81,2.81,0,0,0,.06-.71c.45-3.94-2.41-7.71-5.87-9.32a11.45,11.45,0,0,0-7.33-.92,11.29,11.29,0,0,0-6.62,4.2v0A10.21,10.21,0,0,0,150.67,249.29Z"/><path class="cls-1" d="M173.44,223.09s0,.08.13.11.14,0,.18,0c.26-.4,1.29-2.83,1.53-3.08a15.54,15.54,0,0,1,1.92-2.34,18.14,18.14,0,0,1,3.76-3.05,12.78,12.78,0,0,1,4.47-1.65,28.67,28.67,0,0,1,6.35.16c.84.08,1.68.19,2.55.33a2.66,2.66,0,0,0,.63.15h0s.06-.05.09-.12,0-.14,0-.17a2.56,2.56,0,0,0-.52-.32c-2.69-1.85-6.29-2-9.38-1.21a18.4,18.4,0,0,0-5.68,2.52,14.62,14.62,0,0,0-4.52,4.88h0C174.68,219.58,173.32,222.51,173.44,223.09Z"/><path class="cls-1" d="M159.94,291.9a13.2,13.2,0,0,0,2.82,3.3,17.31,17.31,0,0,0,3.64,2.31,10.2,10.2,0,0,0,5.65,1.24,9.06,9.06,0,0,0,2.24-.55,2,2,0,0,0,.52-.19h0a.18.18,0,0,0,0-.13c0-.08-.05-.11-.09-.12a2.15,2.15,0,0,0-.5,0,26.75,26.75,0,0,1-7.45-1.2c-2.8-.88-5.74-3.78-7.22-6.91-.21-.3-1-2.74-1.11-3.15a.14.14,0,0,0-.15,0c-.08,0-.11,0-.12.08a8.44,8.44,0,0,0,.67,2.9A15.16,15.16,0,0,0,159.94,291.9Z"/><path class="cls-1" d="M189.63,323.12s0,.08.1.11.11,0,.14,0c.25-.3,1.27-2.19,1.48-2.37a13.63,13.63,0,0,1,1.72-1.76,16,16,0,0,1,3.23-2.25,10.79,10.79,0,0,1,3.72-1.13,26.18,26.18,0,0,1,5.16.33c.68.09,1.36.2,2.07.32a1.67,1.67,0,0,0,.5.14h0s.05,0,.08-.09,0-.11,0-.14a2.18,2.18,0,0,0-.41-.27,9.79,9.79,0,0,0-7.58-1.25,16,16,0,0,0-4.72,1.77,12.35,12.35,0,0,0-4,3.65h0A9.5,9.5,0,0,0,189.63,323.12Z"/><path class="cls-1" d="M247.13,309a.13.13,0,0,0-.14,0,2.4,2.4,0,0,0-.2.42,21.65,21.65,0,0,1-4.27,5.6c-2,1.87-5.78,2.8-9,2.34-.33,0-2.63-.68-3-.79,0,0-.07,0-.1.09s0,.1,0,.13a7.59,7.59,0,0,0,2.61,1,12.77,12.77,0,0,0,2.47.43,11.89,11.89,0,0,0,4-.6,14.88,14.88,0,0,0,3.6-1.86,9.15,9.15,0,0,0,3.57-4.09,8.55,8.55,0,0,0,.49-2.1,2.22,2.22,0,0,0,.07-.52v0h0S247.19,309,247.13,309Z"/><path class="cls-1" d="M270.85,289.74s0,.06,0,.13.06.09.11.09c.36-.09,2.27-.83,2.55-.82a10.9,10.9,0,0,1,2.35-.11,11.9,11.9,0,0,1,3.69.68,8.78,8.78,0,0,1,3.12,2,17.56,17.56,0,0,1,2.65,4.14c.3.58.57,1.19.83,1.82a2.45,2.45,0,0,0,.14.48l0,0h0a.14.14,0,0,0,.12,0c.07,0,.1,0,.11-.07a2.71,2.71,0,0,0,0-.47,8.35,8.35,0,0,0-3.26-6.63,11.93,11.93,0,0,0-4.28-2.32,10.21,10.21,0,0,0-5.2-.15h0A8.1,8.1,0,0,0,270.85,289.74Z"/><path class="cls-1" d="M313,271.37s-.06,0-.07.12,0,.11,0,.13a7.56,7.56,0,0,0,2.85.22,11.58,11.58,0,0,0,2.54-.34,11.34,11.34,0,0,0,3.73-1.86,14.06,14.06,0,0,0,2.85-3,9,9,0,0,0,2-5.2,8,8,0,0,0-.31-2.19,1.89,1.89,0,0,0-.13-.52v0h0s-.06,0-.12,0a.12.12,0,0,0-.13.07,2.44,2.44,0,0,0,0,.47,20.06,20.06,0,0,1-2.05,6.87,9.65,9.65,0,0,1-3.21,3.33,13.15,13.15,0,0,1-4.72,1.81h0A27.39,27.39,0,0,1,313,271.37Z"/><path class="cls-1" d="M325.38,224.38s0,.06,0,.13.05.1.1.1a24.27,24.27,0,0,1,2.6-.4,9.83,9.83,0,0,1,2.29.28,10.88,10.88,0,0,1,3.42,1.37,7.94,7.94,0,0,1,2.52,2.6,15.26,15.26,0,0,1,1.45,4.59A17.3,17.3,0,0,1,338,235a1.9,1.9,0,0,0,0,.49v0h0a.19.19,0,0,0,.1,0c.07,0,.11,0,.13,0a1.93,1.93,0,0,0,.15-.44,7.78,7.78,0,0,0-1.31-7.15,10.92,10.92,0,0,0-3.6-3.18,9.45,9.45,0,0,0-5-1.1h0A7.67,7.67,0,0,0,325.38,224.38Z"/><path class="cls-1" d="M314.26,184.79s-.06,0-.06.11,0,.1,0,.12c.31.15,2.13.49,2.33.63a13.91,13.91,0,0,1,1.89.95,17.57,17.57,0,0,1,2.75,2,12.16,12.16,0,0,1,2.12,2.63,26.4,26.4,0,0,1,1.61,4.17c.17.57.38,1.13.52,1.73a1.59,1.59,0,0,0,.1.44v0h0a.13.13,0,0,0,.1,0c.07,0,.1,0,.11,0a1.61,1.61,0,0,0,.05-.42A8.81,8.81,0,0,0,324,190.8c-1.44-2.09-4-4.62-6.95-5.47h0A8.67,8.67,0,0,0,314.26,184.79Z"/><path class="cls-1" d="M287.59,170.32s0,.05.1.06.1,0,.12,0c.14-.3.48-2.05.63-2.24a11.57,11.57,0,0,1,1-1.8,15.73,15.73,0,0,1,2.12-2.52,10.67,10.67,0,0,1,2.7-1.81,20.65,20.65,0,0,1,4.18-1.05c.56-.07,1.14-.19,1.73-.22a1.76,1.76,0,0,0,.44,0h0a.19.19,0,0,0,0-.1c0-.06,0-.09,0-.11a2,2,0,0,0-.39-.11,7.85,7.85,0,0,0-6.35.89c-2.16,1.18-4.83,3.5-5.74,6.35h0A7.32,7.32,0,0,0,287.59,170.32Z"/><path class="cls-1" d="M255,155.23s0,.06,0,.12,0,.08.1.08c.32-.06,2-.64,2.28-.62a9.06,9.06,0,0,1,2.08,0,10.83,10.83,0,0,1,3.25.71,7.77,7.77,0,0,1,2.72,1.81,22.27,22.27,0,0,1,3.05,5.31,2.13,2.13,0,0,0,.13.42l0,0h0s.05,0,.1,0,.09,0,.1-.06a1.69,1.69,0,0,0,0-.42A7.47,7.47,0,0,0,266,156.7a11,11,0,0,0-3.74-2.13,9.22,9.22,0,0,0-4.59-.29h0A7.36,7.36,0,0,0,255,155.23Z"/><path class="cls-1" d="M356.2,201c-5.64-13.12-13.39-25.13-21.8-36.31a87.72,87.72,0,0,0-14.32-15.3,69.66,69.66,0,0,0-17.46-10.54,78.37,78.37,0,0,0-18.4-5.05c-9.26-1.45-21-1.25-32.51.72a169.78,169.78,0,0,0-22.78,5.55c-.08.36-.18.72-.28,1.08,5.21-1.61,10.77-3.14,16.4-4.32a124.28,124.28,0,0,1,27.59-2.9,82.68,82.68,0,0,1,15.93,1.74A70,70,0,0,1,323.27,154,108.64,108.64,0,0,1,336,169.29c3.87,5.41,7.52,11,10.85,16.74a132.55,132.55,0,0,1,10.57,22.6c3,8.93,5.23,19.46,4,30.59s-5.9,22.41-13.46,32a107.07,107.07,0,0,1-12.76,13.45,156.82,156.82,0,0,1-15,11.44c-10.43,7.11-21.71,12.83-32.69,18.3s-21.77,10.51-32.12,14.67-20.28,7.46-29.41,9.31-17.4,2.41-24.13,1.64a57,57,0,0,1-20-5.81,70.36,70.36,0,0,1-17-12.53c-10.18-10-18.24-22.08-25.43-34.52S127.45,261,126.67,246.77a79,79,0,0,1,9-40.7c.75-1.45,1.55-2.88,2.37-4.29,1.52.2,3,.38,4.56.53A80.6,80.6,0,0,0,132.75,226a77.7,77.7,0,0,0-1.88,14.33,75.62,75.62,0,0,0,1,14.42,87.66,87.66,0,0,0,9.39,27.18A185.36,185.36,0,0,0,156.81,306a93,93,0,0,0,20.37,20.16A55.61,55.61,0,0,0,204,336c11,1,22.46-1,33.68-4.39a260.12,260.12,0,0,0,33.68-13.29c11.21-5.28,22.6-10.81,33.86-17.19s22.13-14,31.46-23.49a77.1,77.1,0,0,0,12.17-15.93,58.27,58.27,0,0,0,6.82-19c2.37-13.47-.74-27.28-6-39.57s-12.61-23.68-20.54-34.22a82.54,82.54,0,0,0-13.5-14.43,65.83,65.83,0,0,0-16.46-9.93,74.41,74.41,0,0,0-17.33-4.76c-8.74-1.37-19.8-1.17-30.65.68a165.2,165.2,0,0,0-24,6c-.11.34-.21.69-.31,1a180.59,180.59,0,0,1,18-4.88,117.77,117.77,0,0,1,26-2.74,77.71,77.71,0,0,1,15,1.65,65.91,65.91,0,0,1,32.71,17.26,101.8,101.8,0,0,1,12,14.41c3.65,5.1,7.09,10.36,10.23,15.78a123.84,123.84,0,0,1,10,21.3c2.82,8.42,4.94,18.34,3.76,28.83s-5.56,21.12-12.69,30.17a99.8,99.8,0,0,1-12,12.68,149,149,0,0,1-14.12,10.78c-9.83,6.7-20.47,12.09-30.82,17.25s-20.51,9.91-30.27,13.83a166.57,166.57,0,0,1-27.72,8.76c-8.59,1.76-16.4,2.28-22.74,1.56a53.94,53.94,0,0,1-18.86-5.48,66.37,66.37,0,0,1-16-11.81c-9.6-9.39-17.2-20.81-24-32.53s-11.25-24.73-12-38.09a74.47,74.47,0,0,1,8.44-38.36c.94-1.82,2-3.59,3-5.35a121.64,121.64,0,0,0,15.53.37,13.32,13.32,0,0,0-1.05,4.67h0a8.77,8.77,0,0,0,.15,2.59s0,.05.1,0,.09,0,.1-.05c.08-.3,0-2,.05-2.2A15.47,15.47,0,0,1,160,206a21.29,21.29,0,0,1,.91-3l.09-.2a81.73,81.73,0,0,0,20.34-3.44,61.88,61.88,0,0,0,19.07-9.76c11.62-8.7,19.24-21.64,24.1-35s7.43-27.48,8.95-41.39a87,87,0,0,0,0-21A69.17,69.17,0,0,0,228,72.7a78.26,78.26,0,0,0-9.95-16.27c-5.76-7.4-14.47-15.29-24.2-21.72-19.48-13.06-42.09-20.64-48-23.21-1-.38-1.71-.63-1.77-.48s.2.33,1.5.93c5.33,2.6,24.71,9.47,41.83,19.88a124.77,124.77,0,0,1,22.1,16.76,81.73,81.73,0,0,1,10.42,12.18,69.93,69.93,0,0,1,12.77,37.1,109.24,109.24,0,0,1-1.18,19.85c-.89,6.6-2.05,13.16-3.55,19.63a131.58,131.58,0,0,1-7.76,23.71c-3.93,8.57-9.5,17.77-18,25s-19.64,12.3-31.72,14.13A105.3,105.3,0,0,1,152,201.29a152.29,152.29,0,0,1-18.76-1.91c-12.47-1.95-24.61-5.5-36.36-9s-23.07-7.24-33.47-11.29-19.88-8.44-27.8-13.34-14.34-10.15-18.72-15.31A57.18,57.18,0,0,1,6.23,132.48a70.69,70.69,0,0,1-3.82-20.76c-.6-14.24,1.81-28.59,5.08-42.57S16.74,41.85,25.87,31A78.92,78.92,0,0,1,60.26,7.43a104.58,104.58,0,0,1,33-5.77,129.58,129.58,0,0,1,33.49,3.77,128.72,128.72,0,0,1,15.71,5.18l.67.25h0c.7.25.89.25.94.15s-.62-.51-1.56-.94a102.21,102.21,0,0,0-14.45-5.14C108.79-.55,88-1.79,68.12,2.88a86.08,86.08,0,0,0-28,12A81.24,81.24,0,0,0,28.28,24.6a78.85,78.85,0,0,0-9.67,11.9A93,93,0,0,0,6.14,64.34,195.08,195.08,0,0,0,.66,94.24a98.69,98.69,0,0,0,1.12,30.38,58.93,58.93,0,0,0,13.6,27.09c7.79,8.75,18.1,15.52,29.24,21a273.16,273.16,0,0,0,35.71,14.17C92.84,191,105.66,195,119,198.22c5.47,1.3,11.05,2.41,16.7,3.24a85.29,85.29,0,0,0-9.65,23.81,81.87,81.87,0,0,0-2,15.21,80.66,80.66,0,0,0,1.09,15.29,93.36,93.36,0,0,0,10,28.84,196.45,196.45,0,0,0,16.47,25.54,98.36,98.36,0,0,0,21.62,21.39A58.92,58.92,0,0,0,201.64,342c11.67,1.05,23.83-1.07,35.73-4.66a276.09,276.09,0,0,0,35.74-14.1c11.89-5.61,24-11.47,35.92-18.23s23.48-14.81,33.38-24.94a81.85,81.85,0,0,0,12.92-16.9A61.87,61.87,0,0,0,362.56,243C365.08,228.7,361.78,214.05,356.2,201Z"/><path class="cls-1" d="M142.52,16.33c-.06.13.19.31,1.42.88,5,2.45,23.28,8.92,39.42,18.73a116.8,116.8,0,0,1,20.83,15.8A77.53,77.53,0,0,1,214,63.21a66,66,0,0,1,12,35,103,103,0,0,1-1.12,18.7c-.83,6.22-1.93,12.41-3.35,18.51a123.3,123.3,0,0,1-7.31,22.34c-3.7,8.08-9,16.76-17,23.6s-18.51,11.59-29.9,13.32a99.93,99.93,0,0,1-17.44,1,146.28,146.28,0,0,1-17.68-1.8c-11.76-1.84-23.19-5.19-34.28-8.5s-21.73-6.82-31.53-10.64a166.32,166.32,0,0,1-26.21-12.58c-7.47-4.6-13.52-9.57-17.65-14.43a54,54,0,0,1-10-16.9A66.45,66.45,0,0,1,9,111.24c-.57-13.42,1.71-26.95,4.79-40.13s8.71-25.73,17.32-36a74.41,74.41,0,0,1,32.41-22.2A98.47,98.47,0,0,1,94.6,7.51a122.25,122.25,0,0,1,31.56,3.55A121.48,121.48,0,0,1,141,15.94l.64.24h0c.67.24.85.24.89.14s-.58-.48-1.47-.88a94.61,94.61,0,0,0-13.62-4.85C109.25,5.42,89.62,4.26,70.92,8.66A81.08,81.08,0,0,0,44.54,20a76.57,76.57,0,0,0-11.17,9.16,76.06,76.06,0,0,0-9.12,11.22A87.74,87.74,0,0,0,12.5,66.58,185.43,185.43,0,0,0,7.34,94.76,92.42,92.42,0,0,0,8.4,123.4a55.52,55.52,0,0,0,12.81,25.53c7.34,8.25,17.06,14.63,27.56,19.84a257.4,257.4,0,0,0,33.65,13.36c11.79,3.82,23.88,7.59,36.45,10.64s25.69,5,39,4.4a77.31,77.31,0,0,0,19.78-3.29,58.17,58.17,0,0,0,18-9.19c11-8.2,18.14-20.4,22.71-33s7-25.9,8.44-39a82.16,82.16,0,0,0,0-19.76,65.64,65.64,0,0,0-5.2-18.5,74.3,74.3,0,0,0-9.38-15.34c-5.43-7-13.64-14.4-22.81-20.47-18.36-12.31-39.67-19.45-45.24-21.87C143.29,16.42,142.58,16.19,142.52,16.33Z"/><path class="cls-1" d="M221.51,74.21c0,.08.07.17.11.25h0Z"/><path class="cls-1" d="M227.9,72.43l.11.27h0Z"/><path class="cls-1" d="M112,67.06a47.14,47.14,0,0,0-4.75,5.82l-.18.28h0c-.14.24-.14.33-.1.4s0,.27.39.71A94.69,94.69,0,0,1,119.8,91a91.26,91.26,0,0,1,7.78,18.13c.64,2.27,1.17,4.58,1.64,6.9l-.11,0-1.47-.62c-1.26-.51-2.51-1-3.71-1.63a71.8,71.8,0,0,1-13.52-8.41l.09.07A73.74,73.74,0,0,1,96.8,91.06a76.05,76.05,0,0,1-9.7-18.12c-.16-.37-.32-.63-.44-.6s-.12.18,0,.71a57,57,0,0,0,2.47,6.54,71.57,71.57,0,0,0,5.41,9.71,77,77,0,0,0,11.12,13.07,73.1,73.1,0,0,0,12.45,9.46l3.41,1.93,3.52,1.73,1.81.77.63.27c.08.07.37.09.28.2l-2.09,2.46a101.94,101.94,0,0,1-16,14.9,81.08,81.08,0,0,1-14.57,8.68c-1.25.24-2.88.54-4.53.73a32.4,32.4,0,0,1-6.18.18,20.1,20.1,0,0,1-10.35-3.8,29.84,29.84,0,0,1-5.62-5.53,88.17,88.17,0,0,1-5.81-8.54,163.34,163.34,0,0,1-8.72-16c-1.7-3.61-3.3-7.38-4.81-11.18A43.8,43.8,0,0,1,46,87.15a14.24,14.24,0,0,1,1.73-9,12.34,12.34,0,0,1,1.06-1.38l4.57-.85A250.92,250.92,0,0,1,79.52,73c3-.17,5.37-.33,6.44-.44l.28,0h0c.29,0,.36-.1.35-.2s-.31-.16-.7-.16l-6,.16a216.93,216.93,0,0,0-23.43,1.42c-3.91.53-7.78,1.07-11.68,2s-7.93,2.47-10.69,5.79a13.55,13.55,0,0,0-2.74,5.67,19.13,19.13,0,0,0-.22,6.17,43,43,0,0,0,3.35,11.5A185.31,185.31,0,0,0,45,125.89c2.26,3.88,4.69,7.86,7.49,11.85s6.34,7.92,11.25,10.08S74.22,150,79.5,149.11a67.48,67.48,0,0,0,15.55-4.84A88.18,88.18,0,0,0,122,125.06c1.93-2,3.79-4,5.55-6.15l1.61-2,.22-.26a81.15,81.15,0,0,1,.7,27.93c-.16,1.6-.56,3.22-.94,5.17q-.23,1.13-.45,2.28l-.06.29.27-.05.54-.1,1.08-.21,3.5-.63c4.23-.73,9-1.43,14-2.16s10.41-1.52,15.9-2.58,11.22-2.22,16.36-5.14a19.11,19.11,0,0,0,6.52-5.9,19.59,19.59,0,0,0,3.05-8.1c.82-5.67-.1-11.13-1.08-16.09-2-9.91-4.3-18.42-6-24.39a286.35,286.35,0,0,0-13.25-36.64c-1.37-3-3-6.14-5.88-8.38a14.19,14.19,0,0,0-10-2.66A24.46,24.46,0,0,0,144,42.51c-2.9,1.62-5.52,3.44-8.19,5.19C127.34,53.4,119,59.49,112,67.06ZM84.6,146.64a39.06,39.06,0,0,1-14.23,1.57,19.72,19.72,0,0,1-11.88-5.53,48.4,48.4,0,0,1-7.3-9.38c-1.94-3.07-3.57-5.84-4.87-8.16-2.67-4.78-5.15-9.74-7.42-14.82s-4.6-10.25-5.53-15.63a17.56,17.56,0,0,1,.2-7.91A11.29,11.29,0,0,1,38,80.61c3-2,6.51-3,10.16-3.74-.22.24-.46.51-.71.84a13.45,13.45,0,0,0-2.7,8.23,27.9,27.9,0,0,0,1.41,8.62A120.7,120.7,0,0,0,53,110.35,211.78,211.78,0,0,0,64,129.6,44.94,44.94,0,0,0,71.61,139a20.19,20.19,0,0,0,10.8,5h0a29.21,29.21,0,0,0,7.36.14c1.12-.12,2.23-.29,3.25-.48A66.94,66.94,0,0,1,84.6,146.64Zm45.56-31.55a88.31,88.31,0,0,0-8-21.82A80.61,80.61,0,0,0,114,80.78c-1.47-1.82-2.84-3.35-4-4.54a1.53,1.53,0,0,0,.16-.13c.5-.58,1.5-1.77,2.91-3.26,8.18-8,18.5-13.51,28.35-19.56A28.53,28.53,0,0,1,149.07,50a13.2,13.2,0,0,1,7.88.4,11.69,11.69,0,0,1,5.59,5.5c1.35,2.43,2.47,5.13,3.64,7.75A232.9,232.9,0,0,1,180,106.12,89.5,89.5,0,0,1,182.16,118c.31,4,0,8.08-1.74,11.57a17.14,17.14,0,0,1-8.54,7.64,55.8,55.8,0,0,1-11.26,3.35l.08,0c-2.81.87-24.92,3.85-29.34,5.1.11-.82.2-1.64.31-2.47a47.66,47.66,0,0,0,.42-4.78,47.48,47.48,0,0,0,.13-4.77A83.29,83.29,0,0,0,130.16,115.09Zm14.91-70.66c3.87-2.08,8.19-3.42,12.35-2.67a10.52,10.52,0,0,1,5.47,2.66,17.9,17.9,0,0,1,3.7,5.19c1.95,4,3.69,8.23,5.41,12.39q5.1,12.57,9,25.52c1.5,4.94,2.93,10.13,4.24,15.55s2.7,11.05,3.21,16.84-.2,12-4.21,16.46-10.1,6.47-16.14,7.84-12.43,2.34-18.75,3.28l-9.5,1.42-4.75.77-4.16.75c-.16,0-.47.14-.51,0l.08-.4L131,148c.14-.59.22-1.19.31-1.79,3.77-.63,23.12-3.34,25.55-3.89a106.26,106.26,0,0,0,11.33-2.41,25.25,25.25,0,0,0,10.36-5.44,16,16,0,0,0,4-6.29,23.89,23.89,0,0,0,1.12-9.19,65.46,65.46,0,0,0-1.58-10.24c-.74-3.48-1.57-7-2.5-10.58A268.62,268.62,0,0,0,167.74,63c-1.66-3.71-2.88-7.7-5.67-11.2a11.59,11.59,0,0,0-5.56-3.73,15.21,15.21,0,0,0-6.63-.41c-4.43.67-8.27,2.88-11.77,5.07s-7,4.35-10.41,6.66a76.75,76.75,0,0,0-14.94,12.74,29.6,29.6,0,0,0-3,3.75l-.06.09c-.84-.88-1.54-1.55-2-2a1.79,1.79,0,0,0-.56-.4,1.57,1.57,0,0,0,.52-.45c.76-.91,2.27-2.84,4.52-5.14,6.39-6.32,13.78-11.55,21.36-16.47C137.35,49.11,141.19,46.55,145.07,44.43Z"/><path class="cls-1" d="M130.14,115s0,.08,0,.11v0Z"/><path class="cls-1" d="M39.71,50.83c.29,0,1.07-.49,1.9-.78a9.71,9.71,0,0,1,1.86-.52,11.21,11.21,0,0,1,3.47.14A11.82,11.82,0,0,1,52,51.81a8.68,8.68,0,0,1,3,4.44,15.19,15.19,0,0,1-.24,7.16,16.13,16.13,0,0,1-1,2.79,2.7,2.7,0,0,0-.38.65v0h0a.21.21,0,0,0,.09.14c.09.08.15.09.19.07a3.1,3.1,0,0,0,.54-.48c3-2.57,3.52-7.27,2.09-10.82a11.49,11.49,0,0,0-4.71-5.68A11.24,11.24,0,0,0,44,48.65h0a10.42,10.42,0,0,0-2.34.6,6,6,0,0,0-2.14,1.27s0,.11,0,.2S39.64,50.84,39.71,50.83Z"/><path class="cls-1" d="M79.91,44h0c-.43,0-3.43,1.22-3.73,1.72,0,0,0,.09,0,.17s.08.12.14.11c.47-.11,2.88-1.18,3.23-1.19a15.22,15.22,0,0,1,3-.39,17.83,17.83,0,0,1,4.83.34,12.8,12.8,0,0,1,4.39,1.86,29.79,29.79,0,0,1,4.52,4.46c.56.63,1.1,1.29,1.64,2a2.37,2.37,0,0,0,.35.54l0,0h0a.26.26,0,0,0,.14,0c.09,0,.12-.08.12-.13a2.43,2.43,0,0,0-.15-.58c-.7-3.2-3.22-5.77-6-7.3a18,18,0,0,0-5.86-2.05A14.84,14.84,0,0,0,79.91,44Z"/><path class="cls-1" d="M75,26.81c.27-.16,1.35-1.45,1.54-1.56a15.53,15.53,0,0,1,1.55-1.15,21.07,21.07,0,0,1,2.7-1.55,13.64,13.64,0,0,1,2.93-.94c1.35-.21,2.75-.17,4.09-.26l1.65-.08a1.78,1.78,0,0,0,.41,0h0s0,0,0-.09,0-.09,0-.1a1.33,1.33,0,0,0-.36-.12,9.34,9.34,0,0,0-6-.08,15.91,15.91,0,0,0-7.05,3.83h0a9.07,9.07,0,0,0-1.66,2s0,.06,0,.1S75,26.83,75,26.81Z"/><path class="cls-1" d="M111.7,34.12c.3-.12,1.63-1.26,1.85-1.33a15.75,15.75,0,0,1,1.8-.88,18.93,18.93,0,0,1,3.07-1,13.06,13.06,0,0,1,3.19-.29,38.91,38.91,0,0,1,4.18.76l1.67.37a1.72,1.72,0,0,0,.41.12h0a.14.14,0,0,0,.06-.08c0-.05,0-.09,0-.11a2.35,2.35,0,0,0-.33-.23,9.14,9.14,0,0,0-6-1.62,15.19,15.19,0,0,0-8,2.4h0A8.72,8.72,0,0,0,111.55,34s0,.06,0,.11S111.66,34.14,111.7,34.12Z"/><path class="cls-1" d="M23.39,99.93a9.69,9.69,0,0,0,2,1.13,1.85,1.85,0,0,0,.51.22h0s.06,0,.09-.09,0-.11,0-.14a2,2,0,0,0-.36-.34,26.68,26.68,0,0,1-4.63-6c-1.43-2.56-1.59-6.69-.53-10,.06-.36,1.17-2.66,1.35-3.06a.16.16,0,0,0-.08-.12c-.07,0-.11-.06-.15,0a8.56,8.56,0,0,0-1.49,2.58,13.9,13.9,0,0,0-.9,2.51A13.35,13.35,0,0,0,19,91a17.14,17.14,0,0,0,1.08,4.17A10.24,10.24,0,0,0,23.39,99.93Z"/><path class="cls-1" d="M32.72,130.63a15.91,15.91,0,0,0-4.65-1.94,12.62,12.62,0,0,0-5.4-.06h0a9.41,9.41,0,0,0-3.15,1.1s0,.07,0,.14,0,.1.1.1c.39-.05,2.42-.72,2.71-.71a13.41,13.41,0,0,1,2.45-.11,16.18,16.18,0,0,1,3.9.57,11.08,11.08,0,0,1,3.48,1.72,26.2,26.2,0,0,1,3.53,3.77c.44.53.87,1.08,1.29,1.66a2.11,2.11,0,0,0,.28.44h0a.19.19,0,0,0,.12,0c.08,0,.1-.06.1-.1a2,2,0,0,0-.11-.48A9.8,9.8,0,0,0,32.72,130.63Z"/><path class="cls-1" d="M71,158.72a2,2,0,0,0-.43.16,21.65,21.65,0,0,1-6.94,1.17c-2.74,0-6.14-1.92-8.16-4.45h0A30.12,30.12,0,0,1,53.8,153s-.07,0-.14,0-.1.05-.1.1a7.86,7.86,0,0,0,1.21,2.52,13.28,13.28,0,0,0,1.51,2,11.93,11.93,0,0,0,3.35,2.32A15.28,15.28,0,0,0,63.52,161a9.12,9.12,0,0,0,5.41-.55,8,8,0,0,0,1.8-1.19,1.74,1.74,0,0,0,.4-.33v0h0a.15.15,0,0,0,0-.12C71.07,158.73,71,158.71,71,158.72Z"/><path class="cls-1" d="M108.28,165.81a10.17,10.17,0,0,0-3.69-3.68h0a7.88,7.88,0,0,0-3-1.17s-.07,0-.09.1,0,.11,0,.14c.33.18,2.23.95,2.42,1.15a11,11,0,0,1,1.79,1.52,12.41,12.41,0,0,1,2.23,3,8.86,8.86,0,0,1,.91,3.58,17.62,17.62,0,0,1-.9,4.84c-.18.63-.4,1.25-.64,1.9a1.87,1.87,0,0,0-.23.44v0h0a.16.16,0,0,0,.08.09.1.1,0,0,0,.13,0,2.44,2.44,0,0,0,.33-.33,8.36,8.36,0,0,0,2.17-7.06A12.06,12.06,0,0,0,108.28,165.81Z"/><path class="cls-1" d="M163.16,176.27a1.74,1.74,0,0,0-.35.32,19.8,19.8,0,0,1-6.2,3.6,9.66,9.66,0,0,1-4.62.24,13.08,13.08,0,0,1-4.68-1.91h0a26.79,26.79,0,0,1-2.41-2.1s-.07,0-.13,0-.09.08-.07.12c0,.45,1.68,2,1.92,2.12a13,13,0,0,0,2.09,1.49,11.48,11.48,0,0,0,4,1.19,14,14,0,0,0,4.14-.24,9,9,0,0,0,5-2.45,8,8,0,0,0,1.28-1.8,2.4,2.4,0,0,0,.26-.47v0h0s0,0-.08-.09S163.19,176.25,163.16,176.27Z"/><path class="cls-1" d="M188.83,152.22h0a7.43,7.43,0,0,0-2.74-1.6s-.07,0-.1.09,0,.1,0,.14a24.1,24.1,0,0,1,2.17,1.48,9.66,9.66,0,0,1,1.48,1.78,10.78,10.78,0,0,1,1.55,3.34,7.8,7.8,0,0,1,.07,3.62,15.68,15.68,0,0,1-2.09,4.34c-.35.54-.73,1.07-1.15,1.6a1.73,1.73,0,0,0-.34.35v0h0a.17.17,0,0,0,0,.11c0,.06.08.08.12.07a1.9,1.9,0,0,0,.41-.22,7.76,7.76,0,0,0,3.93-6.11,10.7,10.7,0,0,0-.45-4.78A9.42,9.42,0,0,0,188.83,152.22Z"/><path class="cls-1" d="M206.76,116.48a8.36,8.36,0,0,0-1.69-2.32s-.07,0-.12,0-.07.07-.06.11c.12.32,1.22,1.81,1.27,2a14.52,14.52,0,0,1,.73,2,18.05,18.05,0,0,1,.62,3.35,11.72,11.72,0,0,1-.26,3.36,26.26,26.26,0,0,1-1.67,4.15c-.27.52-.5,1.08-.81,1.62a1.44,1.44,0,0,0-.23.38v0h0s0,0,.05.09.09,0,.12,0a1.71,1.71,0,0,0,.32-.27,8.82,8.82,0,0,0,3.06-5.87c.37-2.51.23-6.11-1.34-8.75Z"/><path class="cls-1" d="M195.67,85.52c.31-.12,1.76-1.17,2-1.21a12.65,12.65,0,0,1,2-.63,14.93,14.93,0,0,1,3.27-.4,10.73,10.73,0,0,1,3.21.54,20,20,0,0,1,3.77,2.09c.46.33,1,.64,1.41,1a1.55,1.55,0,0,0,.33.28h0s.05,0,.09,0,.06-.07.06-.1a2.74,2.74,0,0,0-.22-.35,7.87,7.87,0,0,0-5.23-3.7c-2.39-.61-5.92-.74-8.53.71h0a7.61,7.61,0,0,0-2.27,1.61s0,.06,0,.11S195.63,85.53,195.67,85.52Z"/><path class="cls-1" d="M184.13,53.38a9.78,9.78,0,0,1,1.54,1.4,11.24,11.24,0,0,1,1.88,2.75,7.73,7.73,0,0,1,.74,3.18,15.91,15.91,0,0,1-.83,4.28q-.24.83-.57,1.68a1.58,1.58,0,0,0-.2.39v0h0a.23.23,0,0,0,.07.08c.05,0,.09,0,.11,0a2,2,0,0,0,.3-.3,7.49,7.49,0,0,0,2-6.23,11.17,11.17,0,0,0-1.27-4.11,9.31,9.31,0,0,0-3.15-3.35h0a7.19,7.19,0,0,0-2.6-1.14s-.06,0-.08.09,0,.09,0,.12C182.32,52.45,184,53.2,184.13,53.38Z"/></g></g></svg>