<svg xmlns="http://www.w3.org/2000/svg" width="209.281" height="197.089" viewBox="0 0 209.281 197.089">
  <g id="Layer_2" data-name="Layer 2" transform="translate(0.024 0)">
    <g id="POST_1" data-name="POST 1" transform="translate(-0.024 0)">
      <path id="Path_13664" data-name="Path 13664" d="M298.91,144.41l.144.063h0Z" transform="translate(-126.775 -61.254)" fill="#d94e4e"/>
      <path id="Path_13665" data-name="Path 13665" d="M302.36,138.75l.15.063h0Z" transform="translate(-128.238 -58.853)" fill="#d94e4e"/>
      <path id="Path_13666" data-name="Path 13666" d="M206.05,160.537a8.148,8.148,0,0,0-5.257,2.822,14.074,14.074,0,0,0-2.764,5.113c-.576,1.82-.962,3.616-1.4,5.407a75.377,75.377,0,0,0-2.361,17.511,26.586,26.586,0,0,0,.3,4.319.389.389,0,0,0,.029.184h0c.035.155.069.2.115.213a.811.811,0,0,0,.438.138,54.658,54.658,0,0,1,11.8,2.1,52.4,52.4,0,0,1,10.405,4.543c1.152.7,2.3,1.463,3.409,2.251H220.7l-.858.328a22.159,22.159,0,0,1-2.2.772,41.171,41.171,0,0,1-8.994,1.8h.063a42.409,42.409,0,0,1-11.378-.576,44.022,44.022,0,0,1-11.229-3.783c-.207-.092-.38-.144-.415-.081s0,.121.294.276a32.494,32.494,0,0,0,3.616,1.774,41.115,41.115,0,0,0,6.1,1.946,44.511,44.511,0,0,0,9.818,1.106,41.853,41.853,0,0,0,8.954-.933l2.194-.536,2.159-.656,1.06-.392.374-.132c.063,0,.19-.109.2,0l.092,1.854a58.827,58.827,0,0,1-.829,12.542,46.242,46.242,0,0,1-2.7,9.386c-.426.576-.99,1.37-1.607,2.1a18.207,18.207,0,0,1-2.528,2.511,11.6,11.6,0,0,1-5.845,2.482,17.061,17.061,0,0,1-4.538-.1,51.349,51.349,0,0,1-5.8-1.3,94.794,94.794,0,0,1-9.945-3.259c-2.142-.852-4.3-1.8-6.426-2.8a25.123,25.123,0,0,1-5.873-3.593,8.211,8.211,0,0,1-2.833-4.468,6.818,6.818,0,0,1-.1-1c.524-.731,1.065-1.451,1.589-2.165a142.417,142.417,0,0,1,9.835-11.517c1.2-1.261,2.125-2.251,2.528-2.724l.1-.127h0c.1-.132.1-.184.069-.219s-.2.052-.363.207l-2.436,2.413a125,125,0,0,0-9.254,9.8c-1.434,1.762-2.839,3.513-4.129,5.424a10.889,10.889,0,0,0-2.211,6.645,7.8,7.8,0,0,0,1.088,3.455,10.993,10.993,0,0,0,2.338,2.678,24.675,24.675,0,0,0,5.943,3.507,105.823,105.823,0,0,0,12.668,4.728c2.482.737,5.067,1.457,7.82,2.027a16.126,16.126,0,0,0,8.689-.2,15.8,15.8,0,0,0,7.129-5.672,38.879,38.879,0,0,0,4.607-8.16,50.811,50.811,0,0,0,3.737-18.68c.035-1.6,0-3.19-.092-4.774l-.1-1.451v-.2a46.608,46.608,0,0,1,11.3,11.448c.576.737,1.036,1.578,1.641,2.539l.714,1.152.086.144.092-.127.19-.253.374-.518,1.215-1.641c1.491-1.975,3.2-4.129,5.027-6.426s3.772-4.739,5.66-7.348a30.353,30.353,0,0,0,4.849-8.609,11.085,11.085,0,0,0,.409-5.044,11.211,11.211,0,0,0-1.912-4.607,27.238,27.238,0,0,0-6.795-6.334c-4.762-3.363-9.069-6.04-12.139-7.866a164.549,164.549,0,0,0-20-10.163A12.027,12.027,0,0,0,206.05,160.537Zm8.062,75.065a22.319,22.319,0,0,1-5.349,6.265,11.367,11.367,0,0,1-7.169,2.367,28.078,28.078,0,0,1-6.76-1.065c-2.027-.524-3.8-1.048-5.263-1.509-3-.956-6-2.056-8.954-3.3a39.511,39.511,0,0,1-8.482-4.376,10.233,10.233,0,0,1-3.035-3.4,6.49,6.49,0,0,1-.576-4.33,15.543,15.543,0,0,1,2.793-5.574,5.014,5.014,0,0,0,.029.633,7.745,7.745,0,0,0,2.09,4.549,16.123,16.123,0,0,0,3.991,3.063,70.087,70.087,0,0,0,9.087,3.939,121.378,121.378,0,0,0,12.2,3.749,25.97,25.97,0,0,0,6.91.944,11.649,11.649,0,0,0,6.524-2.142h0a16.439,16.439,0,0,0,3.144-2.839,16.708,16.708,0,0,0,1.152-1.48A38.084,38.084,0,0,1,214.112,235.6Zm18.427-20a25.045,25.045,0,0,0-1.727-2.171c-.61-.7-1.18-1.411-1.825-2.061a48.438,48.438,0,0,0-8.171-6.968,51.249,51.249,0,0,0-11.977-6,46.873,46.873,0,0,0-8.35-2.021c-1.336-.184-2.516-.282-3.455-.34a.663.663,0,0,0,0-.121c0-.438-.069-1.33-.058-2.516.265-6.6,2.442-12.962,4.2-19.382a16.4,16.4,0,0,1,1.918-4.4,7.636,7.636,0,0,1,3.455-2.943,6.714,6.714,0,0,1,4.509.109c1.526.489,3.063,1.18,4.607,1.82a134.289,134.289,0,0,1,22.555,12.369,52.094,52.094,0,0,1,5.574,4.157,12.505,12.505,0,0,1,3.829,5.545,9.847,9.847,0,0,1-.576,6.57,31.8,31.8,0,0,1-3.4,5.845v-.035c-.835,1.468-8.948,11.43-10.307,13.7Zm-1.209-42.825c2.574,1.48,5.223,3.1,7.912,4.854a65.852,65.852,0,0,1,7.981,5.8c2.5,2.228,4.647,5.125,4.722,8.574s-1.693,6.7-3.691,9.651-4.3,5.879-6.582,8.764l-3.455,4.342-1.687,2.194-1.451,1.958c-.063.063-.144.242-.19.219l-.127-.2-.668-1.054c-.173-.3-.374-.576-.576-.87,1.336-1.727,8.39-10.52,9.213-11.707a61.817,61.817,0,0,0,3.806-5.476,14.477,14.477,0,0,0,2.205-6.369,9.167,9.167,0,0,0-.777-4.227,13.676,13.676,0,0,0-3.156-4.3,38.088,38.088,0,0,0-4.693-3.68c-1.687-1.152-3.455-2.338-5.223-3.455a154.893,154.893,0,0,0-18.847-10.1c-2.159-.9-4.244-2.1-6.795-2.47a6.645,6.645,0,0,0-3.8.622,8.822,8.822,0,0,0-2.954,2.442,18.148,18.148,0,0,0-2.937,6.772c-.6,2.3-1.244,4.607-1.727,6.91a44.264,44.264,0,0,0-1.25,11.24,17.1,17.1,0,0,0,.219,2.752.208.208,0,0,0,0,.063c-.7-.035-1.261-.046-1.618-.046a1.06,1.06,0,0,0-.392.052,1.116,1.116,0,0,0,.04-.392c-.046-.685-.167-2.09-.132-3.944a76.332,76.332,0,0,1,2.482-15.329c.651-2.5,1.255-5.1,2.044-7.515a11,11,0,0,1,4.14-5.989,6.063,6.063,0,0,1,3.34-1.036,10.405,10.405,0,0,1,3.6.72c2.384.9,4.8,2,7.152,3.069q7.1,3.276,13.855,7.158Z" transform="translate(-70.923 -68.081)" fill="#d94e4e"/>
      <path id="Path_13667" data-name="Path 13667" d="M260.19,236.67l.052.04h0Z" transform="translate(-110.351 -100.388)" fill="#d94e4e"/>
      <path id="Path_13668" data-name="Path 13668" d="M150.377,246.534a3.5,3.5,0,0,0-.4,1.382c0,.029.029.058.092.069a.4.4,0,0,0,.121,0c.1-.132.259-.628.489-1.077a5.8,5.8,0,0,1,.576-.95,6.415,6.415,0,0,1,1.514-1.307,6.864,6.864,0,0,1,2.977-1.111,5.027,5.027,0,0,1,3.023.679,8.833,8.833,0,0,1,2.718,3.1,8.637,8.637,0,0,1,.7,1.549,1.809,1.809,0,0,0,.1.42h.1c.052,0,.092,0,.1-.052a1.618,1.618,0,0,0,.035-.409,5.609,5.609,0,0,0-3.38-5.367,6.593,6.593,0,0,0-4.221-.53,6.5,6.5,0,0,0-3.812,2.418h0a5.88,5.88,0,0,0-.731,1.186Z" transform="translate(-63.603 -102.985)" fill="#d94e4e"/>
      <path id="Path_13669" data-name="Path 13669" d="M173.437,218.152s0,.046.075.063a.182.182,0,0,0,.1,0c.15-.23.743-1.63.881-1.774a8.947,8.947,0,0,1,1.106-1.347,10.447,10.447,0,0,1,2.165-1.756,7.359,7.359,0,0,1,2.574-.95,16.511,16.511,0,0,1,3.657.092c.484.046.967.109,1.468.19a1.533,1.533,0,0,0,.363.086h0a.21.21,0,0,0,.052-.069.183.183,0,0,0,0-.1,1.474,1.474,0,0,0-.3-.184,6.72,6.72,0,0,0-5.4-.7,10.6,10.6,0,0,0-3.271,1.451,8.419,8.419,0,0,0-2.6,2.81h0A6.8,6.8,0,0,0,173.437,218.152Z" transform="translate(-73.551 -89.689)" fill="#d94e4e"/>
      <path id="Path_13670" data-name="Path 13670" d="M159.189,289.6a7.6,7.6,0,0,0,1.624,1.9,9.968,9.968,0,0,0,2.1,1.33,5.873,5.873,0,0,0,3.253.714,5.216,5.216,0,0,0,1.29-.317,1.151,1.151,0,0,0,.3-.109h0a.1.1,0,0,0,0-.075.065.065,0,0,0-.052-.069,1.238,1.238,0,0,0-.288,0,15.4,15.4,0,0,1-4.29-.691,7.813,7.813,0,0,1-4.158-3.979,16.373,16.373,0,0,1-.639-1.814.081.081,0,0,0-.086,0c-.046,0-.063,0-.069.046a4.86,4.86,0,0,0,.386,1.67A8.73,8.73,0,0,0,159.189,289.6Z" transform="translate(-67.077 -121.515)" fill="#d94e4e"/>
      <path id="Path_13671" data-name="Path 13671" d="M189.63,319.455a.071.071,0,0,0,.058.063.112.112,0,0,0,.081,0c.144-.173.731-1.261.852-1.365a7.848,7.848,0,0,1,.99-1.013,9.213,9.213,0,0,1,1.86-1.3,6.214,6.214,0,0,1,2.142-.651,15.079,15.079,0,0,1,2.971.19c.392.052.783.115,1.192.184a.962.962,0,0,0,.288.081h0s.029,0,.046-.052a.116.116,0,0,0,0-.081,1.254,1.254,0,0,0-.236-.155,5.637,5.637,0,0,0-4.365-.72,9.214,9.214,0,0,0-2.718,1.019,7.111,7.111,0,0,0-2.3,2.1h0A5.471,5.471,0,0,0,189.63,319.455Z" transform="translate(-80.421 -133.392)" fill="#d94e4e"/>
      <path id="Path_13672" data-name="Path 13672" d="M240.036,308.991a.075.075,0,0,0-.081,0,1.385,1.385,0,0,0-.115.242,12.468,12.468,0,0,1-2.459,3.225,6.742,6.742,0,0,1-5.182,1.347c-.19,0-1.514-.392-1.728-.455a.066.066,0,0,0-.058.052c-.017.052,0,.058,0,.075a4.371,4.371,0,0,0,1.5.576,7.352,7.352,0,0,0,1.422.248,6.847,6.847,0,0,0,2.3-.345,8.567,8.567,0,0,0,2.073-1.071,5.269,5.269,0,0,0,2.056-2.355,4.923,4.923,0,0,0,.282-1.209,1.278,1.278,0,0,0,.04-.3h0A.082.082,0,0,0,240.036,308.991Z" transform="translate(-97.718 -131.059)" fill="#d94e4e"/>
      <path id="Path_13673" data-name="Path 13673" d="M270.85,289.105v.075c0,.04.035.052.063.052.207-.052,1.307-.478,1.468-.472a6.278,6.278,0,0,1,1.353-.063,6.851,6.851,0,0,1,2.125.392,5.056,5.056,0,0,1,1.8,1.152,10.11,10.11,0,0,1,1.526,2.384c.173.334.328.685.478,1.048a1.409,1.409,0,0,0,.081.276h0a.081.081,0,0,0,.069,0c.04,0,.058,0,.063-.04a1.559,1.559,0,0,0,0-.271A4.808,4.808,0,0,0,278,289.82a6.869,6.869,0,0,0-2.465-1.336,5.879,5.879,0,0,0-2.994-.086h0A4.664,4.664,0,0,0,270.85,289.105Z" transform="translate(-114.872 -122.264)" fill="#d94e4e"/>
      <path id="Path_13674" data-name="Path 13674" d="M312.968,266.008s-.035,0-.04.069a.219.219,0,0,0,0,.075,4.354,4.354,0,0,0,1.641.127,6.667,6.667,0,0,0,1.463-.2,6.53,6.53,0,0,0,2.148-1.071,8.1,8.1,0,0,0,1.641-1.727,5.183,5.183,0,0,0,1.152-2.994,4.607,4.607,0,0,0-.178-1.261,1.089,1.089,0,0,0-.075-.3h-.069a.069.069,0,0,0-.075.04,1.4,1.4,0,0,0,0,.271,11.551,11.551,0,0,1-1.18,3.956,5.557,5.557,0,0,1-1.848,1.918,7.572,7.572,0,0,1-2.718,1.042h0A15.777,15.777,0,0,1,312.968,266.008Z" transform="translate(-132.719 -109.744)" fill="#d94e4e"/>
      <path id="Path_13675" data-name="Path 13675" d="M325.38,224.051v.075a.054.054,0,0,0,.058.058,13.973,13.973,0,0,1,1.5-.23,5.661,5.661,0,0,1,1.319.161,6.265,6.265,0,0,1,1.969.789,4.572,4.572,0,0,1,1.451,1.5,8.787,8.787,0,0,1,.835,2.643,9.954,9.954,0,0,1,.138,1.123,1.093,1.093,0,0,0,0,.282h0a.109.109,0,0,0,.058,0h.075a1.111,1.111,0,0,0,.086-.253,4.48,4.48,0,0,0-.754-4.117,6.289,6.289,0,0,0-2.073-1.831,5.442,5.442,0,0,0-2.879-.633h0A4.417,4.417,0,0,0,325.38,224.051Z" transform="translate(-138.002 -94.846)" fill="#d94e4e"/>
      <path id="Path_13676" data-name="Path 13676" d="M314.235,184.79s-.035,0-.035.063v.069c.179.086,1.227.282,1.342.363a8.01,8.01,0,0,1,1.088.547,10.12,10.12,0,0,1,1.583,1.152,7,7,0,0,1,1.221,1.514,15.2,15.2,0,0,1,.927,2.4c.1.328.219.651.3,1a.917.917,0,0,0,.058.253h0a.075.075,0,0,0,.058,0h.063a.927.927,0,0,0,.029-.242,5.073,5.073,0,0,0-1.025-3.657,8.064,8.064,0,0,0-4-3.15h0A4.993,4.993,0,0,0,314.235,184.79Z" transform="translate(-133.26 -78.382)" fill="#d94e4e"/>
      <path id="Path_13677" data-name="Path 13677" d="M287.59,165.99s0,.029.058.035a.209.209,0,0,0,.069,0c.081-.173.276-1.18.363-1.29a6.662,6.662,0,0,1,.576-1.037,9.059,9.059,0,0,1,1.221-1.451,6.144,6.144,0,0,1,1.555-1.042,11.892,11.892,0,0,1,2.407-.6c.322-.04.656-.109,1-.127a1.013,1.013,0,0,0,.253,0h0a.11.11,0,0,0,0-.058v-.063a1.15,1.15,0,0,0-.225-.063,4.52,4.52,0,0,0-3.657.512,7.083,7.083,0,0,0-3.305,3.657h0A4.215,4.215,0,0,0,287.59,165.99Z" transform="translate(-121.973 -67.914)" fill="#d94e4e"/>
      <path id="Path_13678" data-name="Path 13678" d="M255,154.757v.069c0,.035,0,.046.058.046.184-.035,1.152-.369,1.313-.357a5.217,5.217,0,0,1,1.2,0,6.236,6.236,0,0,1,1.871.409,4.474,4.474,0,0,1,1.566,1.042,12.823,12.823,0,0,1,1.756,3.058,1.226,1.226,0,0,0,.075.242h.058c.029,0,.052,0,.058-.035a.975.975,0,0,0,0-.242,4.3,4.3,0,0,0-1.618-3.386,6.334,6.334,0,0,0-2.154-1.227,5.309,5.309,0,0,0-2.643-.167h0A4.237,4.237,0,0,0,255,154.757Z" transform="translate(-108.149 -65.371)" fill="#d94e4e"/>
      <path id="Path_13679" data-name="Path 13679" d="M205.1,115.742a102.419,102.419,0,0,0-12.553-20.908,50.511,50.511,0,0,0-8.246-8.81,40.113,40.113,0,0,0-10.054-6.069,45.128,45.128,0,0,0-10.6-2.908,60.431,60.431,0,0,0-18.72.415,97.766,97.766,0,0,0-13.117,3.2c-.046.207-.1.415-.161.622,3-.927,6.2-1.808,9.444-2.488a71.563,71.563,0,0,1,15.887-1.67,47.611,47.611,0,0,1,9.173,1,40.308,40.308,0,0,1,19.981,10.555,62.559,62.559,0,0,1,7.33,8.8c2.228,3.115,4.33,6.334,6.248,9.639a76.329,76.329,0,0,1,6.087,13.014,41.2,41.2,0,0,1,2.3,17.615,36.642,36.642,0,0,1-7.751,18.427,61.651,61.651,0,0,1-7.348,7.745,90.3,90.3,0,0,1-8.637,6.587,158.675,158.675,0,0,1-18.824,10.538c-6.323,3.15-12.536,6.052-18.5,8.447a99.587,99.587,0,0,1-16.935,5.361,45.781,45.781,0,0,1-13.895.944,32.822,32.822,0,0,1-11.517-3.346,40.515,40.515,0,0,1-9.789-7.215c-5.862-5.758-10.5-12.714-14.643-19.878A52.508,52.508,0,0,1,72.93,142.1a45.491,45.491,0,0,1,5.182-23.436c.432-.835.893-1.658,1.365-2.47.875.115,1.727.219,2.626.305a46.412,46.412,0,0,0-5.672,13.641,44.743,44.743,0,0,0-1.083,8.252,43.543,43.543,0,0,0,.576,8.3,50.477,50.477,0,0,0,5.407,15.651,106.736,106.736,0,0,0,8.954,13.86,53.553,53.553,0,0,0,11.73,11.609,32.022,32.022,0,0,0,15.444,5.666c6.334.576,12.933-.576,19.394-2.528a149.789,149.789,0,0,0,19.394-7.653c6.455-3.04,13.014-6.225,19.5-9.9a81.529,81.529,0,0,0,18.116-13.526,44.4,44.4,0,0,0,7.008-9.173A33.554,33.554,0,0,0,204.8,139.76c1.365-7.756-.426-15.709-3.455-22.786a96.192,96.192,0,0,0-11.828-19.7,47.528,47.528,0,0,0-7.774-8.309,37.907,37.907,0,0,0-9.478-5.718,42.848,42.848,0,0,0-9.979-2.741,57.05,57.05,0,0,0-17.649.392,95.13,95.13,0,0,0-13.82,3.455c-.063.2-.121.4-.179.576A103.985,103.985,0,0,1,141,82.113a67.815,67.815,0,0,1,14.972-1.578,44.747,44.747,0,0,1,8.637.95,37.953,37.953,0,0,1,18.835,9.939,58.619,58.619,0,0,1,6.91,8.3c2.1,2.937,4.083,5.966,5.891,9.087A71.311,71.311,0,0,1,202,121.074a38.718,38.718,0,0,1,2.165,16.6,34.663,34.663,0,0,1-7.307,17.373,57.468,57.468,0,0,1-6.91,7.3,85.8,85.8,0,0,1-8.131,6.207,150.021,150.021,0,0,1-17.747,9.933c-5.96,2.971-11.81,5.706-17.43,7.964a95.914,95.914,0,0,1-15.962,5.044,42.963,42.963,0,0,1-13.094.9,31.061,31.061,0,0,1-10.86-3.156,38.218,38.218,0,0,1-9.213-6.8c-5.528-5.407-9.9-11.983-13.82-18.732a49.551,49.551,0,0,1-6.91-21.933,42.882,42.882,0,0,1,4.86-22.089c.541-1.048,1.152-2.067,1.727-3.081a70.044,70.044,0,0,0,8.943.213,7.67,7.67,0,0,0-.6,2.689h0A5.05,5.05,0,0,0,91.795,121s0,.029.058,0,.052,0,.058-.029c.046-.173,0-1.152.029-1.267a8.907,8.907,0,0,1,.184-1.083,12.258,12.258,0,0,1,.524-1.727l.052-.115a47.062,47.062,0,0,0,11.712-1.981,35.633,35.633,0,0,0,10.981-5.62c6.691-5.01,11.079-12.461,13.878-20.154a102.175,102.175,0,0,0,5.154-23.834,50.1,50.1,0,0,0,0-12.092,39.831,39.831,0,0,0-3.144-11.234,45.065,45.065,0,0,0-5.73-9.369,60.357,60.357,0,0,0-13.935-12.507C100.4,12.467,87.378,8.1,83.975,6.622c-.576-.219-.985-.363-1.019-.276s.115.19.864.536c3.069,1.5,14.229,5.453,24.087,11.448a71.847,71.847,0,0,1,12.726,9.651,47.064,47.064,0,0,1,6,7.014,40.268,40.268,0,0,1,7.353,21.363,62.9,62.9,0,0,1-.679,11.43c-.512,3.8-1.18,7.578-2.044,11.3a75.768,75.768,0,0,1-4.468,13.653,40.98,40.98,0,0,1-10.365,14.4,36.9,36.9,0,0,1-18.265,8.136,60.637,60.637,0,0,1-10.647.633,87.694,87.694,0,0,1-10.8-1.1,160.706,160.706,0,0,1-20.937-5.182c-6.766-2.015-13.284-4.169-19.273-6.5A99.219,99.219,0,0,1,20.5,95.444a45.935,45.935,0,0,1-10.78-8.816A32.926,32.926,0,0,1,3.577,76.286a40.705,40.705,0,0,1-2.2-11.954C1.032,56.132,2.42,47.869,4.3,39.819A52.571,52.571,0,0,1,14.887,17.851,45.445,45.445,0,0,1,34.69,4.278a60.22,60.22,0,0,1,19-3.323A74.616,74.616,0,0,1,72.977,3.127a74.121,74.121,0,0,1,9.046,2.983l.386.144h0c.4.144.512.144.541.086s-.357-.294-.9-.541a58.856,58.856,0,0,0-8.321-2.96,69.019,69.019,0,0,0-34.515-1.18,49.568,49.568,0,0,0-16.123,6.91,46.78,46.78,0,0,0-6.818,5.6,45.4,45.4,0,0,0-5.568,6.852A53.552,53.552,0,0,0,3.526,37.049,112.331,112.331,0,0,0,.37,54.266,56.829,56.829,0,0,0,1.015,71.76a33.934,33.934,0,0,0,7.831,15.6C13.332,92.4,19.269,96.3,25.683,99.452a157.3,157.3,0,0,0,20.563,8.16c7.2,2.372,14.586,4.676,22.267,6.53,3.15.749,6.363,1.388,9.616,1.866a49.112,49.112,0,0,0-5.557,13.711,47.143,47.143,0,0,0-1.152,8.758,46.447,46.447,0,0,0,.628,8.8,53.76,53.76,0,0,0,5.758,16.607,113.123,113.123,0,0,0,9.484,14.707,56.639,56.639,0,0,0,12.449,12.317,33.928,33.928,0,0,0,16.359,6.023c6.72.6,13.722-.616,20.574-2.683a158.983,158.983,0,0,0,20.58-8.119c6.847-3.23,13.82-6.6,20.684-10.5a85.678,85.678,0,0,0,19.221-14.361,47.132,47.132,0,0,0,7.44-9.732,35.627,35.627,0,0,0,4.163-11.615C210.214,131.692,208.314,123.257,205.1,115.742Z" transform="translate(0.024 0)" fill="#d94e4e"/>
      <path id="Path_13680" data-name="Path 13680" d="M84.905,11.924c-.035.075.109.179.818.507,2.879,1.411,13.405,5.136,22.7,10.785a67.257,67.257,0,0,1,11.995,9.1,44.644,44.644,0,0,1,5.649,6.6,38,38,0,0,1,6.91,20.154,59.31,59.31,0,0,1-.645,10.768c-.478,3.582-1.111,7.146-1.929,10.659a71,71,0,0,1-4.209,12.864,38.933,38.933,0,0,1-9.789,13.59,34.643,34.643,0,0,1-17.217,7.67,57.542,57.542,0,0,1-10.042.576,84.232,84.232,0,0,1-10.181-1.036,150.935,150.935,0,0,1-19.74-4.895c-6.386-1.906-12.513-3.927-18.156-6.127A95.773,95.773,0,0,1,25.975,95.9a43.067,43.067,0,0,1-10.163-8.309,31.1,31.1,0,0,1-5.758-9.732A38.264,38.264,0,0,1,8.02,66.577C7.692,58.849,9,51.058,10.778,43.468a49.728,49.728,0,0,1,9.973-20.73A42.848,42.848,0,0,1,39.414,9.955a56.7,56.7,0,0,1,17.9-3.109A70.4,70.4,0,0,1,75.485,8.89,69.952,69.952,0,0,1,84.03,11.7l.369.138h0c.386.138.489.138.512.081s-.334-.276-.846-.507a54.479,54.479,0,0,0-7.843-2.793A65.1,65.1,0,0,0,43.676,7.508a46.688,46.688,0,0,0-15.19,6.53,44.091,44.091,0,0,0-6.432,5.275A43.8,43.8,0,0,0,16.8,25.773,50.523,50.523,0,0,0,10.036,40.86,106.778,106.778,0,0,0,7.064,57.087a53.218,53.218,0,0,0,.61,16.492,31.97,31.97,0,0,0,7.376,14.7C19.278,93.03,24.875,96.7,30.921,99.7A148.221,148.221,0,0,0,50.3,107.4c6.789,2.2,13.751,4.371,20.989,6.127a80.092,80.092,0,0,0,22.457,2.534,44.517,44.517,0,0,0,11.39-1.894,33.5,33.5,0,0,0,10.365-5.292c6.334-4.722,10.446-11.747,13.077-19a96.9,96.9,0,0,0,4.86-22.457,47.31,47.31,0,0,0,0-11.378,37.8,37.8,0,0,0-2.994-10.653,42.785,42.785,0,0,0-5.4-8.833A56.705,56.705,0,0,0,111.906,24.76c-10.572-7.088-22.843-11.2-26.051-12.593C85.348,11.976,84.94,11.844,84.905,11.924Z" transform="translate(-2.824 -2.521)" fill="#d94e4e"/>
      <path id="Path_13681" data-name="Path 13681" d="M221.51,74.21a.394.394,0,0,0,.063.144h0Z" transform="translate(-93.944 -31.477)" fill="#d94e4e"/>
      <path id="Path_13682" data-name="Path 13682" d="M227.9,72.43l.063.155h0Z" transform="translate(-96.654 -30.722)" fill="#d94e4e"/>
      <path id="Path_13683" data-name="Path 13683" d="M77.633,55.242A27.145,27.145,0,0,0,74.9,58.594l-.1.161h0c-.081.138-.081.19-.058.23a.8.8,0,0,0,.225.409,54.525,54.525,0,0,1,7.163,9.634,52.55,52.55,0,0,1,4.48,10.44c.369,1.307.674,2.637.944,3.973h-.063l-.846-.357c-.726-.294-1.445-.576-2.136-.939A41.346,41.346,0,0,1,76.717,77.3l.052.04a42.462,42.462,0,0,1-7.889-8.28,43.792,43.792,0,0,1-5.586-10.434c-.092-.213-.184-.363-.253-.346s-.069.1,0,.409a32.823,32.823,0,0,0,1.422,3.766,41.213,41.213,0,0,0,3.115,5.591,44.34,44.34,0,0,0,6.4,7.526,42.094,42.094,0,0,0,7.169,5.447l1.964,1.111,2.027,1,1.042.443.363.155c.046.04.213.052.161.115L85.5,85.26a58.7,58.7,0,0,1-9.213,8.58,46.687,46.687,0,0,1-8.39,5c-.72.138-1.658.311-2.609.42a18.657,18.657,0,0,1-3.559.1,11.574,11.574,0,0,1-5.96-2.188,17.183,17.183,0,0,1-3.236-3.184,50.772,50.772,0,0,1-3.346-4.918,94.056,94.056,0,0,1-5.021-9.213c-.979-2.079-1.9-4.25-2.77-6.438a25.221,25.221,0,0,1-1.774-6.611,8.2,8.2,0,0,1,1-5.182,7.1,7.1,0,0,1,.61-.795l2.632-.489A144.485,144.485,0,0,1,58.93,58.663c1.727-.1,3.092-.19,3.708-.253H62.8c.167,0,.207-.058.2-.115s-.179-.092-.4-.092l-3.455.092a124.916,124.916,0,0,0-13.492.818,68.112,68.112,0,0,0-6.726,1.152A11.013,11.013,0,0,0,32.77,63.6a7.8,7.8,0,0,0-1.578,3.265,11.016,11.016,0,0,0-.127,3.553,24.761,24.761,0,0,0,1.929,6.622,106.7,106.7,0,0,0,6.058,12.081c1.3,2.234,2.7,4.526,4.313,6.824a16.1,16.1,0,0,0,6.478,5.8,15.964,15.964,0,0,0,9.075.743A38.857,38.857,0,0,0,67.872,99.7,50.777,50.777,0,0,0,83.391,88.64c1.111-1.152,2.182-2.3,3.2-3.541l.927-1.152.127-.15a46.729,46.729,0,0,1,.4,16.083c-.092.921-.322,1.854-.541,2.977q-.132.651-.259,1.313l-.035.167.155-.029.311-.058.622-.121,2.015-.363c2.436-.42,5.182-.823,8.062-1.244s5.994-.875,9.156-1.486a30.233,30.233,0,0,0,9.421-2.96,11,11,0,0,0,3.754-3.4,11.28,11.28,0,0,0,1.756-4.664,27.256,27.256,0,0,0-.622-9.265c-1.152-5.706-2.476-10.607-3.455-14.045a164.888,164.888,0,0,0-7.63-21.1,12.2,12.2,0,0,0-3.386-4.825,8.171,8.171,0,0,0-5.758-1.532,14.085,14.085,0,0,0-5.551,1.854c-1.67.933-3.179,1.981-4.716,2.989A76.261,76.261,0,0,0,77.633,55.242ZM61.855,101.067a22.492,22.492,0,0,1-8.194.9,11.355,11.355,0,0,1-6.841-3.184,27.87,27.87,0,0,1-4.2-5.4c-1.117-1.768-2.056-3.363-2.8-4.7-1.537-2.752-2.966-5.609-4.273-8.534a38.845,38.845,0,0,1-3.184-9A10.111,10.111,0,0,1,32.47,66.6a6.5,6.5,0,0,1,2.551-3.553,16.14,16.14,0,0,1,5.85-2.154c-.127.138-.265.294-.409.484a7.745,7.745,0,0,0-1.555,4.739,16.066,16.066,0,0,0,.812,4.964,69.505,69.505,0,0,0,3.939,9.092,121.95,121.95,0,0,0,6.334,11.085,25.878,25.878,0,0,0,4.382,5.413,11.626,11.626,0,0,0,6.219,2.879h0a16.82,16.82,0,0,0,4.238.081c.645-.069,1.284-.167,1.871-.276a38.544,38.544,0,0,1-4.848,1.716ZM88.09,82.9a50.851,50.851,0,0,0-4.607-12.565,46.418,46.418,0,0,0-4.7-7.192c-.846-1.048-1.635-1.929-2.3-2.614a.88.88,0,0,0,.092-.075c.288-.334.864-1.019,1.676-1.877C82.959,53.97,88.9,50.8,94.574,47.313a16.429,16.429,0,0,1,4.405-1.894,7.6,7.6,0,0,1,4.538.23,6.731,6.731,0,0,1,3.219,3.167c.777,1.4,1.422,2.954,2.1,4.463a134.111,134.111,0,0,1,7.958,24.456,51.538,51.538,0,0,1,1.244,6.841,12.719,12.719,0,0,1-1,6.662,9.87,9.87,0,0,1-4.918,4.4,32.131,32.131,0,0,1-6.484,1.929h.046c-1.618.5-14.35,2.217-16.895,2.937.063-.472.115-.944.179-1.422a27.444,27.444,0,0,0,.242-2.752,27.334,27.334,0,0,0,.075-2.747A47.962,47.962,0,0,0,88.09,82.9Zm8.586-40.688a11.14,11.14,0,0,1,7.112-1.537,6.058,6.058,0,0,1,3.15,1.532,10.307,10.307,0,0,1,2.131,2.989c1.123,2.3,2.125,4.739,3.115,7.135q2.937,7.238,5.182,14.7c.864,2.845,1.687,5.833,2.442,8.954a66.054,66.054,0,0,1,1.848,9.7c.294,3.334-.115,6.91-2.424,9.478s-5.816,3.726-9.294,4.515-7.158,1.347-10.8,1.889l-5.47.818-2.735.443-2.4.432c-.092,0-.271.081-.294,0l.046-.23.282-1.169c.081-.34.127-.685.179-1.031,2.171-.363,13.313-1.923,14.712-2.24a61.191,61.191,0,0,0,6.524-1.388,14.54,14.54,0,0,0,5.966-3.133,9.213,9.213,0,0,0,2.3-3.622,13.757,13.757,0,0,0,.645-5.292,37.7,37.7,0,0,0-.91-5.9q-.639-3.006-1.44-6.092A154.679,154.679,0,0,0,109.73,52.9c-.956-2.136-1.658-4.434-3.265-6.449a6.674,6.674,0,0,0-3.2-2.148,8.758,8.758,0,0,0-3.818-.236,18.059,18.059,0,0,0-6.778,2.919c-2.015,1.261-4.031,2.5-5.994,3.835a44.2,44.2,0,0,0-8.6,7.336,17.044,17.044,0,0,0-1.727,2.159l-.035.052c-.484-.507-.887-.893-1.152-1.152a1.031,1.031,0,0,0-.322-.23.9.9,0,0,0,.3-.259c.438-.524,1.307-1.635,2.6-2.96a76.283,76.283,0,0,1,12.3-9.484c2.194-1.382,4.405-2.856,6.639-4.077Z" transform="translate(-13.126 -16.627)" fill="#d94e4e"/>
      <path id="Path_13684" data-name="Path 13684" d="M130.14,115v.063h0Z" transform="translate(-55.188 -48.779)" fill="#d94e4e"/>
      <path id="Path_13685" data-name="Path 13685" d="M39.629,49.841c.167,0,.616-.282,1.094-.449a5.591,5.591,0,0,1,1.071-.3,6.455,6.455,0,0,1,2,.081,6.806,6.806,0,0,1,2.914,1.232,5,5,0,0,1,1.727,2.557,8.747,8.747,0,0,1-.138,4.123,9.288,9.288,0,0,1-.576,1.607,1.555,1.555,0,0,0-.219.374h0a.121.121,0,0,0,.052.081c.052.046.086.052.109.04a1.785,1.785,0,0,0,.311-.276,5.629,5.629,0,0,0,1.2-6.23,6.616,6.616,0,0,0-2.712-3.271,6.472,6.472,0,0,0-4.365-.823h0a6,6,0,0,0-1.347.345,3.455,3.455,0,0,0-1.232.731v.115C39.52,49.83,39.589,49.847,39.629,49.841Z" transform="translate(-16.749 -20.572)" fill="#d94e4e"/>
      <path id="Path_13686" data-name="Path 13686" d="M78.328,43.734h0a6.422,6.422,0,0,0-2.148.99v.1a.068.068,0,0,0,.081.063c.271-.063,1.658-.679,1.86-.685a8.764,8.764,0,0,1,1.727-.225,10.267,10.267,0,0,1,2.781.2,7.371,7.371,0,0,1,2.528,1.071,17.154,17.154,0,0,1,2.6,2.568c.322.363.633.743.944,1.152a1.365,1.365,0,0,0,.2.311h0a.15.15,0,0,0,.081,0,.07.07,0,0,0,.069-.075,1.4,1.4,0,0,0-.086-.334,6.713,6.713,0,0,0-3.455-4.2,10.365,10.365,0,0,0-3.374-1.18,8.545,8.545,0,0,0-3.812.253Z" transform="translate(-32.299 -18.397)" fill="#d94e4e"/>
      <path id="Path_13687" data-name="Path 13687" d="M74.915,24.1c.155-.092.777-.835.887-.9a8.943,8.943,0,0,1,.893-.662,12.132,12.132,0,0,1,1.555-.893,7.854,7.854,0,0,1,1.687-.541c.777-.121,1.584-.1,2.355-.15l.95-.046a1.025,1.025,0,0,0,.236,0h0V20.8a.766.766,0,0,0-.207-.069,5.378,5.378,0,0,0-3.455-.046,9.162,9.162,0,0,0-4.06,2.205h0a5.223,5.223,0,0,0-.956,1.152V24.1C74.8,24.124,74.915,24.113,74.915,24.1Z" transform="translate(-31.714 -8.663)" fill="#d94e4e"/>
      <path id="Path_13688" data-name="Path 13688" d="M111.636,32.287c.173-.069.939-.726,1.065-.766a9.07,9.07,0,0,1,1.036-.507,10.9,10.9,0,0,1,1.768-.576,7.52,7.52,0,0,1,1.837-.167,22.406,22.406,0,0,1,2.407.438l.962.213a.99.99,0,0,0,.236.069h0a.081.081,0,0,0,.035-.046c0-.029,0-.052,0-.063a1.353,1.353,0,0,0-.19-.132,5.263,5.263,0,0,0-3.455-.933A8.747,8.747,0,0,0,112.73,31.2h0a5.021,5.021,0,0,0-1.18,1.019v.063C111.55,32.31,111.613,32.3,111.636,32.287Z" transform="translate(-47.302 -12.639)" fill="#d94e4e"/>
      <path id="Path_13689" data-name="Path 13689" d="M21.488,92.114a5.58,5.58,0,0,0,1.152.651,1.065,1.065,0,0,0,.294.127h0s.035,0,.052-.052a.116.116,0,0,0,0-.081,1.152,1.152,0,0,0-.207-.2,15.363,15.363,0,0,1-2.666-3.455,7.877,7.877,0,0,1-.305-5.758c.035-.207.674-1.532.777-1.762a.092.092,0,0,0-.046-.069c-.04,0-.063-.035-.086,0A4.929,4.929,0,0,0,19.593,83a8,8,0,0,0-.518,1.445,7.687,7.687,0,0,0-.115,2.522,9.87,9.87,0,0,0,.622,2.4A5.9,5.9,0,0,0,21.488,92.114Z" transform="translate(-8.005 -34.571)" fill="#d94e4e"/>
      <path id="Path_13690" data-name="Path 13690" d="M27.121,129.67a9.161,9.161,0,0,0-2.678-1.117,7.267,7.267,0,0,0-3.109-.035h0a5.419,5.419,0,0,0-1.814.633v.081c0,.04,0,.058.058.058.225-.029,1.394-.415,1.561-.409a7.721,7.721,0,0,1,1.411-.063,9.316,9.316,0,0,1,2.246.328,6.38,6.38,0,0,1,2,.99,15.086,15.086,0,0,1,2.033,2.171c.253.305.5.622.743.956a1.215,1.215,0,0,0,.161.253h0a.109.109,0,0,0,.069,0,.054.054,0,0,0,.058-.058,1.151,1.151,0,0,0-.063-.276A5.643,5.643,0,0,0,27.121,129.67Z" transform="translate(-8.266 -54.449)" fill="#d94e4e"/>
      <path id="Path_13691" data-name="Path 13691" d="M63.6,156.294a1.151,1.151,0,0,0-.248.092,12.467,12.467,0,0,1-4,.674,6.726,6.726,0,0,1-4.7-2.562h0A17.345,17.345,0,0,1,53.7,153h-.081a.054.054,0,0,0-.058.058,4.526,4.526,0,0,0,.7,1.451,7.647,7.647,0,0,0,.869,1.152A6.87,6.87,0,0,0,57.055,157a8.8,8.8,0,0,0,2.24.61,5.252,5.252,0,0,0,3.115-.317,4.607,4.607,0,0,0,1.037-.685,1,1,0,0,0,.23-.19h0a.086.086,0,0,0,0-.069C63.643,156.3,63.6,156.288,63.6,156.294Z" transform="translate(-22.705 -64.898)" fill="#d94e4e"/>
      <path id="Path_13692" data-name="Path 13692" d="M105.4,163.753a5.856,5.856,0,0,0-2.125-2.119h0a4.537,4.537,0,0,0-1.727-.674s-.04,0-.052.058a.165.165,0,0,0,0,.081c.19.1,1.284.547,1.394.662a6.335,6.335,0,0,1,1.031.875,7.146,7.146,0,0,1,1.284,1.727,5.1,5.1,0,0,1,.524,2.061,10.146,10.146,0,0,1-.518,2.787c-.1.363-.23.72-.369,1.094a1.077,1.077,0,0,0-.132.253h0a.092.092,0,0,0,.046.052.058.058,0,0,0,.075,0,1.406,1.406,0,0,0,.19-.19,4.814,4.814,0,0,0,1.25-4.065,6.944,6.944,0,0,0-.87-2.6Z" transform="translate(-43.036 -68.274)" fill="#d94e4e"/>
      <path id="Path_13693" data-name="Path 13693" d="M155.327,176.256a1,1,0,0,0-.2.184,11.4,11.4,0,0,1-3.57,2.073,5.562,5.562,0,0,1-2.66.138,7.532,7.532,0,0,1-2.695-1.1h0a15.43,15.43,0,0,1-1.388-1.209h-.075a.051.051,0,0,0-.04.069c0,.259.967,1.152,1.106,1.221a7.487,7.487,0,0,0,1.2.858,6.611,6.611,0,0,0,2.3.685,8.062,8.062,0,0,0,2.384-.138,5.182,5.182,0,0,0,2.879-1.411,4.607,4.607,0,0,0,.737-1.036,1.382,1.382,0,0,0,.15-.271h0l-.046-.052C155.368,176.216,155.345,176.245,155.327,176.256Z" transform="translate(-61.361 -74.754)" fill="#d94e4e"/>
      <path id="Path_13694" data-name="Path 13694" d="M187.62,151.541h0a4.278,4.278,0,0,0-1.578-.921.066.066,0,0,0-.058.052c-.017.052,0,.058,0,.081a13.884,13.884,0,0,1,1.25.852,5.563,5.563,0,0,1,.852,1.025,6.207,6.207,0,0,1,.893,1.923,4.491,4.491,0,0,1,.04,2.085,9.029,9.029,0,0,1-1.2,2.5c-.2.311-.42.616-.662.921a1,1,0,0,0-.2.2h0a.1.1,0,0,0,0,.063c0,.035.046.046.069.04a1.094,1.094,0,0,0,.236-.127,4.468,4.468,0,0,0,2.263-3.518,6.161,6.161,0,0,0-.259-2.752,5.424,5.424,0,0,0-1.647-2.424Z" transform="translate(-78.872 -63.888)" fill="#d94e4e"/>
      <path id="Path_13695" data-name="Path 13695" d="M205.818,115.5a4.815,4.815,0,0,0-.973-1.336h-.069c-.029,0-.04.04-.035.063.069.184.7,1.042.731,1.152a8.363,8.363,0,0,1,.42,1.152,10.4,10.4,0,0,1,.357,1.929,6.749,6.749,0,0,1-.15,1.935,15.123,15.123,0,0,1-.962,2.39c-.155.3-.288.622-.466.933a.829.829,0,0,0-.132.219h0l.029.052c.029.052.052,0,.069,0a.985.985,0,0,0,.184-.155,5.079,5.079,0,0,0,1.762-3.38,8.12,8.12,0,0,0-.772-5.039Z" transform="translate(-86.746 -48.423)" fill="#d94e4e"/>
      <path id="Path_13696" data-name="Path 13696" d="M195.623,84.284c.178-.069,1.013-.674,1.152-.7a7.283,7.283,0,0,1,1.152-.363,8.6,8.6,0,0,1,1.883-.23,6.178,6.178,0,0,1,1.848.311,11.517,11.517,0,0,1,2.171,1.2c.265.19.576.369.812.576a.892.892,0,0,0,.19.161h.052c.023,0,.035-.04.035-.058a1.577,1.577,0,0,0-.127-.2,4.532,4.532,0,0,0-3.012-2.131,7.124,7.124,0,0,0-4.912.409h0a4.382,4.382,0,0,0-1.307.927v.063C195.56,84.284,195.6,84.29,195.623,84.284Z" transform="translate(-82.937 -35.039)" fill="#d94e4e"/>
      <path id="Path_13697" data-name="Path 13697" d="M183.252,52.8a5.632,5.632,0,0,1,.887.806,6.473,6.473,0,0,1,1.083,1.584,4.451,4.451,0,0,1,.426,1.831,9.161,9.161,0,0,1-.478,2.465q-.138.478-.328.967a.91.91,0,0,0-.115.225h0a.132.132,0,0,0,.04.046h.063A1.151,1.151,0,0,0,185,60.55a4.313,4.313,0,0,0,1.152-3.587,6.432,6.432,0,0,0-.731-2.367,5.361,5.361,0,0,0-1.814-1.929h0a4.14,4.14,0,0,0-1.5-.656s-.035,0-.046.052a.122.122,0,0,0,0,.069C182.21,52.263,183.178,52.7,183.252,52.8Z" transform="translate(-77.211 -22.061)" fill="#d94e4e"/>
    </g>
  </g>
</svg>
