<svg xmlns="http://www.w3.org/2000/svg" width="48.095" height="39.823" viewBox="0 0 48.095 39.823">
  <g id="sushiicon" transform="translate(0 0)">
    <path id="Path_13708" data-name="Path 13708" d="M29.587,31.376a5.166,5.166,0,0,0-10.247,1.01c0,.044,0,.088,0,.134a5.028,5.028,0,0,0,.074.727A5.21,5.21,0,0,0,24.5,37.482a5.344,5.344,0,0,0,.939-.086,5.176,5.176,0,0,0,4.15-6.02Zm-6.764,2.875c-.241.039-.6-.2-.852-.676q-.051-.1-.1-.2-.024-.06-.045-.121a2.787,2.787,0,0,1-.121-.434,2.824,2.824,0,0,1-.039-.472c0-.705.311-1.207.626-1.26.326,0,.89.509,1.06,1.429C23.533,33.47,23.15,34.191,22.824,34.251Zm2.408.792A4.676,4.676,0,0,0,24.2,29.5a2.755,2.755,0,0,1,.3-.027,2.832,2.832,0,0,1,.725,5.571Z" transform="translate(-9.236 -17.379)" fill="#d94e4e"/>
    <path id="Path_13709" data-name="Path 13709" d="M47.709,40.717l-9.6-2.893L17.556,9.339a1.166,1.166,0,0,0-1.89,1.364l3.043,4.218a9.353,9.353,0,0,0-2.99-.5,9.518,9.518,0,0,0-1.707.157A9.391,9.391,0,0,0,7.654,28.644l-5.71-1.722a1.165,1.165,0,0,0-.672,2.231l10.355,3.121a9.31,9.31,0,0,0,2.777.837l22.277,6.714,6.06,8.4a1.164,1.164,0,1,0,1.888-1.364l-4.277-5.927,6.684,2.014a1.165,1.165,0,1,0,.672-2.231ZM15.7,30.882a7.206,7.206,0,0,1-.787-.049L12.5,30.1a7.061,7.061,0,0,1,1.935-13.233,7.187,7.187,0,0,1,1.286-.118A7.064,7.064,0,0,1,15.7,30.882Zm4.044,1.406a9.408,9.408,0,0,0,5.35-8.517l9.341,12.946Z" transform="translate(-0.444 -8.884)" fill="#d94e4e"/>
  </g>
</svg>
