<svg xmlns="http://www.w3.org/2000/svg" viewBox="0 0 153.11 153.11"><defs><style>.cls-1{fill:#d94e4e;}</style></defs><g id="Layer_2" data-name="Layer 2"><g id="Capa_1" data-name="Capa 1"><path class="cls-1" d="M24.37,142.2a92.5,92.5,0,0,0,15.86,6.07l.35.09a133.36,133.36,0,0,0,36,4.75c19.59,0,38.12-3.88,52.19-10.91,15.71-7.86,24.37-18.91,24.37-31.12V42c0-12.22-8.66-23.27-24.37-31.13C114.67,3.87,96.14,0,76.55,0S38.44,3.87,24.37,10.9C8.65,18.76,0,29.81,0,42v69.05C0,123.29,8.65,134.34,24.37,142.2ZM15,111.08V67.47a65,65,0,0,0,9.37,5.68,87.83,87.83,0,0,0,10.69,4.44v53.07C22.45,125.37,15,118,15,111.08Zm123.11,0c0,12.78-25.28,27-61.56,27a122.5,122.5,0,0,1-26.5-2.78V81.56a139.3,139.3,0,0,0,26.5,2.49c19.59,0,38.12-3.87,52.19-10.9a65.57,65.57,0,0,0,9.37-5.68ZM76.55,15c36.28,0,61.56,14.24,61.56,27s-25.28,27-61.56,27a119.22,119.22,0,0,1-31.27-4,7.66,7.66,0,0,0-1.44-.4C26,59.5,15,50.45,15,42,15,29.24,40.28,15,76.55,15Z"/><path class="cls-1" d="M49.35,47.62l24.41,12.2a6.25,6.25,0,0,0,5.59,0l24.41-12.2a6.25,6.25,0,0,0,0-11.18L79.35,24.23a6.25,6.25,0,0,0-5.59,0L49.35,36.44a6.25,6.25,0,0,0,0,11.18Zm27.2-10.81L87,42,76.55,47.25,66.12,42Z"/></g></g></svg>