<svg id="twitter-circle-svgrepo-com" xmlns="http://www.w3.org/2000/svg" width="58" height="58" viewBox="0 0 58 58">
  <path id="Path_13704" data-name="Path 13704" d="M29,52.2A23.2,23.2,0,1,0,5.8,29,23.2,23.2,0,0,0,29,52.2ZM29,58A29,29,0,1,1,58,29,29,29,0,0,1,29,58Z" fill="#fff"/>
  <path id="Path_13705" data-name="Path 13705" d="M34,8.746a12.02,12.02,0,0,1-3.416.922A5.9,5.9,0,0,0,33.2,6.429,12.062,12.062,0,0,1,29.418,7.85,5.974,5.974,0,0,0,25.077,6a5.9,5.9,0,0,0-5.948,5.858,5.79,5.79,0,0,0,.154,1.334A16.977,16.977,0,0,1,7.021,7.073a5.748,5.748,0,0,0-.806,2.943,5.833,5.833,0,0,0,2.648,4.875,6.02,6.02,0,0,1-2.7-.734v.072a5.887,5.887,0,0,0,4.773,5.742,6.113,6.113,0,0,1-2.688.1,5.942,5.942,0,0,0,5.556,4.069,12.052,12.052,0,0,1-7.389,2.506A12.753,12.753,0,0,1,5,26.564,17,17,0,0,0,14.118,29.2,16.675,16.675,0,0,0,31.045,12.531l-.02-.76A11.783,11.783,0,0,0,34,8.746Z" transform="translate(9.5 11.4)" fill="#fff"/>
</svg>
